<svg id="Layer_1" data-name="Layer 1" xmlns="http://www.w3.org/2000/svg" width="4.6in" height="7.4in" viewBox="0 0 330 531"><title>card-dark</title><g opacity="0.53"><rect x="10.7" y="18.7" width="307.6" height="504.62" rx="15.9"/><path d="M302.5,19.4a15.2,15.2,0,0,1,15.1,15.1v473a15.2,15.2,0,0,1-15.1,15.1H26.5a15.2,15.2,0,0,1-15.1-15.1V34.5A15.2,15.2,0,0,1,26.5,19.4h276m0-1.4H26.5A16.5,16.5,0,0,0,10,34.5v473A16.5,16.5,0,0,0,26.5,524h276A16.5,16.5,0,0,0,319,507.5V34.5A16.5,16.5,0,0,0,302.5,18Z" fill="#fff"/></g></svg>