<svg id="Layer_1" data-name="Layer 1" xmlns="http://www.w3.org/2000/svg" width="4.5in" height="7.4in" viewBox="0 0 327 531"><title>Card-light</title><g opacity="0.53"><rect x="7.7" y="13.7" width="307.6" height="504.62" rx="15.9" fill="#fff3e1"/><path d="M299.5,14.4a15.2,15.2,0,0,1,15.1,15.1v473a15.2,15.2,0,0,1-15.1,15.1H23.5A15.2,15.2,0,0,1,8.4,502.5V29.5A15.2,15.2,0,0,1,23.5,14.4h276m0-1.4H23.5A16.5,16.5,0,0,0,7,29.5v473A16.5,16.5,0,0,0,23.5,519h276A16.5,16.5,0,0,0,316,502.5V29.5A16.5,16.5,0,0,0,299.5,13Z" fill="#fff"/></g></svg>