<svg xmlns="http://www.w3.org/2000/svg"><symbol id="hamburger" viewBox="0 0 266.2 178.9"><path fill="#fff" d="M45.6 117.7v-.3h38.1l52.7-.5H172l41.5-.2 21.6-.2c3.3-.1 3.6-.3 4.5-3.4.3-1.1.6-2.1.8-3.1 2.3-8 4.5-16.1 6.8-24.2.5-1.6-.2-2-1.6-2L202 82l-18-.5-49.3-2-31.1-1.2L52.5 76l-6.5-.2-22.5-.9c-1.4-.1-2.2.4-2.3 2s-.5 6-.8 9l-2.7 28.9c-.2 2.8-.2 2.9 2.7 2.9zm152.6 41v.5l38.6.6c1.5 0 2.7 0 2.8-2.1.4-10.2 1-20.3 1.5-30.5.1-1.5-.5-2.3-2-2.2l-5.9.2-84.1 1.8-59.5 1.3-51.3.9-10.8.5a2.7 2.7 0 0 0-2.7 2.4c-1.9 7.3-3.9 14.6-6 21.8-.5 1.8.3 2.1 1.8 2.1l16.9.4 62.5.8c21.6.4 43.2 1.1 64.7 1.4 11.2.2 22.3.1 33.5.1zm39.5-91.9v.4c2 0 4.1-.1 6.1 0s2-.6 2.1-2c.1-4 .2-7.9.4-11.9.3-6 .6-12 1-18 .2-2.6.1-2.9-2.6-2.9l-28.8.8-60.6 1.3-59.5 1.3-42.6.8-17.5.4c-2.3 0-3.8.7-4.4 3.3-1.8 7.1-3.8 14-5.8 21-.4 1.4-.2 2.1 1.5 2.1l19.3.4 25.8.4 59.2 1.3 17.6.3 64.6.9z"/><path d="M45.6 117.7H20.4c-2.9 0-2.9-.1-2.7-2.9l2.7-28.9c.3-3 .6-6 .8-9s.9-2.1 2.3-2l22.5.9 6.5.2 51.1 2.3 31.1 1.2 49.3 2 18 .5 43.6 1.7c1.4 0 2.1.4 1.6 2-2.3 8.1-4.5 16.2-6.8 24.2-.2 1-.5 2-.8 3.1-.9 3.1-1.2 3.3-4.5 3.4l-21.6.2-41.5.2h-35.6l-52.7.5H45.6zm152.6 41c-11.2 0-22.3.1-33.5-.1-21.5-.3-43.1-1-64.7-1.4l-62.5-.8-16.9-.4c-1.5 0-2.3-.3-1.8-2.1 2.1-7.2 4.1-14.5 6-21.8a2.7 2.7 0 0 1 2.7-2.4l10.8-.5 51.3-.9 59.5-1.3 84.1-1.8 5.9-.2c1.5-.1 2.1.7 2 2.2-.5 10.2-1.1 20.3-1.5 30.5-.1 2.1-1.3 2.1-2.8 2.1l-38.6-.6zm39.5-91.9h-24.2l-64.6-.9-17.6-.3-59.2-1.4-25.8-.4-19.3-.4c-1.7 0-1.9-.7-1.5-2.1 2-7 4-13.9 5.8-21 .6-2.6 2.1-3.3 4.4-3.3l17.5-.4 42.6-.8 59.5-1.3 60.6-1.3 28.8-.8c2.7 0 2.8.3 2.6 2.9-.4 6-.7 12-1 18-.2 4-.3 7.9-.4 11.9-.1 1.4-.7 2-2.1 2h-6.1z"/></symbol><symbol id="shopping" viewBox="0 0 323.6 225.4"><path d="M116.7 62.9c-16.4.8-32.9.6-49.3.8-21.3.4-42.6.2-63.9.3h-.4c-.5-.1-1.5.3-1.4-.7s.9-.7 1.5-.7h6.9l25.7-.4c19.8-.4 39.6-.5 59.3-.8l28.4-.3 58.9-.7 27.3-.3 21.8-.3a1.9 1.9 0 0 0 1.8-.7c.6-1 1.6-1.2 2.2.1a1.1 1.1 0 0 0 .9.7 1.2 1.2 0 0 1 .9 1.4 1.2 1.2 0 0 1-1.3 1c-1.3-.2-1.7.8-2.1 1.7-12.6 29.8-25.2 59.6-38.2 89.1-4.3 9.7-8.8 19.3-12.9 29.1-1.1 2.8-2.5 3.1-5 3.1-27.6-.2-55.2-.2-82.8-.3-11-.1-21.9 0-32.9-.4a2.3 2.3 0 0 0-2.4.7c-.5.7-1.4.5-1.9-.3a8.3 8.3 0 0 1-.7-1.3C39.8 148.1 22.4 112.6 5.5 76.9l-5-10.8a6.5 6.5 0 0 1-.4-1.3c-.1-.3-.2-.6.1-.8s.6.1.8.4.5.8.7 1.3c11.6 22.3 22.6 45 33.7 67.6q12 24.3 23.8 48.7c.5 1 .9 1.5 2.2 1.3a27.7 27.7 0 0 1 5-.1c10.9-.1 21.7-.3 32.6-.3h80.5a2.2 2.2 0 0 0 2.3-1.5c13.5-33.9 27.8-67.4 42.2-100.8l7.2-16.9c.5-1.1.4-1.4-.9-1.4-18 .2-36 .5-54 .6-19.8.1-39.7 0-59.6 0zm181.9-24.7c-4.9.1-6.8-1.5-8.2-6.1a12.5 12.5 0 0 1 8.2-15.8c3.5-.9 6.4 0 8 2.9a3.9 3.9 0 0 1-.4 4.9 6.5 6.5 0 0 1-5.9 2.8 2.8 2.8 0 0 1-2-.8c-.3-.2-.6-.4-.4-.8s.4-.2.7-.2a6.7 6.7 0 0 0 4.5-1.8c.8-.6 1.6-1.3 1.1-2.4a2.8 2.8 0 0 0-2.6-2 6.6 6.6 0 0 0-4.7 1.6c-4.8 3.5-4.9 8.9-2.5 13.2.9 1.6 2.6 1.8 4.2 1.6 4.3-.3 8.4-1.3 11.8-4a32.8 32.8 0 0 0 8.7-9.5c2.6-4.5 2.1-8.9-1.4-12.7a22.1 22.1 0 0 0-6.3-4.7c-3.1-1.7-6.3-1.3-9.5-.4-5.1 1.5-9.1 4.8-13.3 7.8-8.1 5.6-13.8 13.4-19.4 21.4-10.5 15-20.4 30.5-29.9 46.2-5.3 8.7-11 17.2-15.7 26.2-12.7 24.4-24.5 49.3-32.2 75.9-.7 2.5-1.3 5.1-2.1 7.7-.1.5 0 1.5-.9 1.4s-.6-1-.5-1.8a97.4 97.4 0 0 1 3.1-13.2c5.5-18 11.5-35.7 20.5-52.3 1.9-3.5 3.5-7.1 5.2-10.8A135.1 135.1 0 0 1 227 93.9a92.6 92.6 0 0 0 6-10.1 188.9 188.9 0 0 1 10-16.7c8-12.2 15.4-24.8 23.9-36.6 4.6-6.4 9.2-12.8 15.2-17.9a128.6 128.6 0 0 1 11.2-8.2 26 26 0 0 1 12-4.3 14.1 14.1 0 0 1 4.1.2c8.2 1.6 14.9 10 14.2 17.8a14.1 14.1 0 0 1-3.4 7.4c-4.4 5.8-9.5 10.6-16.9 12.2a19.8 19.8 0 0 1-4.7.5z"/><path d="M14.6 70.6c5.7 6 8.5 13.4 12 20.5 4.7 9.4 9.3 18.9 14.6 28.1 3 5 5.5 10.4 8.2 15.6.4.7 1.1 1.6 0 2.2s-1.6-.3-2.1-1.1c-2.5-4-4.5-8.2-6.6-12.4s-3.4-5.9-5-9C30.6 104.1 24.9 94 20.3 83.4a48.9 48.9 0 0 0-5.6-9.3 7.4 7.4 0 0 0-2.9-2.6c-.6-.3-1.3-.6-1-1.5s.9-.9 1.6-.9h10.9a173.9 173.9 0 0 0 20.4-.7c3.3-.2 6.7-.4 10.1-.4 7.7 0 15.4-.2 23.2 0s18.5-.5 27.7-.6c6.7 0 13.4-.5 20.1-.5 3.6-.1 7.2.7 10.8.7.6 0 1.2.2 1.2.9s-.5 1.2-1.2 1.2a52.3 52.3 0 0 1-5.6 0c-5.1-.7-10.2-.4-15.3-.2s-12.6.3-18.9.6c-15.5.6-31-.1-46.5.4-8.2.3-16.5.8-24.7.5zm159.2 154.3c-5.6.4-15.9-5.4-18.2-12.3a15 15 0 0 1 5-16 26.8 26.8 0 0 1 13.2-6.1c3.6-.5 8.1 1.4 9.8 4.4.2.4.7.8.2 1.2s-.8 0-1.2-.3c-4.2-3.9-8.9-3.7-13.8-1.3-3.2 1.5-6.3 3.2-8.6 6.1-3.8 4.8-3.7 11 .5 15.4a20.4 20.4 0 0 0 10.7 6.2 11.4 11.4 0 0 0 11.1-3.1c3.3-3.3 5.5-7.5 3.7-12.2-2.5-6.8-5.8-8.5-11.5-8.9s-8.8 2.8-9.1 7.9c-.1 3 1.8 6 4.4 6.7a6.7 6.7 0 0 0 7.6-2.9c.9-1.7.8-2.7-.5-4a6.8 6.8 0 0 0-4.2-1.9c-1.4-.2-1.9.6-2.2 1.8s0 2.3 1.2 2.9 1.8-.4 2.6-.5.7-.7 1.1-.2a1.1 1.1 0 0 1-.1 1.1 2.4 2.4 0 0 1-2.2 2.1 4.6 4.6 0 0 1-4.4-1.8 6 6 0 0 1 .1-6.2c1-1.5 2.6-2 4.8-1.7a8.8 8.8 0 0 1 5.7 3.3 4.9 4.9 0 0 1 .6 5.3 9.1 9.1 0 0 1-10.8 5.1c-4-1.1-6.6-5.3-6.1-9.7a11.6 11.6 0 0 1 4.9-8.5c2.3-1.7 5-1.5 7.7-1.3 7.7.7 14.2 7.9 13.3 15.1s-6.5 14-15.3 14.3zM72.6 201.4a12.2 12.2 0 0 1 .9 6.7c-.9 5.9-4.4 8.6-10.4 8.1s-9.5-4.5-10-8.8 1.7-7.9 5.1-10.6c5-4 12.1-3.5 15.7 1.8 1.9 2.8 4.3 5.2 4.8 8.8 1 8.4-4.4 16.1-10.4 17.5s-11.3-.5-16.1-4.4c-9.7-7.9-5.5-21.4.9-26.8 3.3-2.8 6.8-4.8 11.3-4.7a8.5 8.5 0 0 1 5.3 2 3.4 3.4 0 0 1 1.3 1.6 1.1 1.1 0 0 1-.3 1.1c-.3.3-.7.1-1.1-.1-5.3-3.2-9.2-2.8-14.1 1.3a18.4 18.4 0 0 0-6.6 13.1 10.4 10.4 0 0 0 2.1 7.4c2.5 3.3 5.5 5.9 9.6 7 5.9 1.8 10.3.2 13.6-5s3.8-11.1-1.6-16zm-1.4-1.7a6.3 6.3 0 0 0-3.9-2.8c-3.5-.8-6.3.5-8.7 2.9s-5.3 9.1 1.5 13c3.1 1.8 6.7 1.7 9-.3s2.8-6 1.6-8.9a2.8 2.8 0 0 0-2.5-2.1c-2.8-.2-5.5 3-4.7 5.7.2.7.1 1.3-.5 1.6a1.2 1.2 0 0 1-1.7-.5 4.6 4.6 0 0 1-.7-3.1c.7-4.5 5.6-7.2 10.6-5.5zm101.4-22.4c-1.1-.2-.5-1-.3-1.4 2.4-4.9 4.1-10.1 6.4-15.1s6.7-12.6 9.1-19.4 6.4-15 9.3-22.6a20.3 20.3 0 0 1 2-4.2 58.2 58.2 0 0 0 6.2-13.1 4.1 4.1 0 0 1 .5-.9 1.4 1.4 0 0 1 2-.8c.9.3 1.1 1.1.8 2-1.1 2.7-1.7 5.7-3.3 8.1-3.9 6.2-6.3 13.1-9.4 19.7s-5.6 14.8-9.5 21.7-8.4 16.5-12.6 24.7c-.3.5-.5 1.2-1.2 1.3zm-87.5-4.1c10.6-.1 21.1.9 31.6 1.7 7.3.5 14.7.6 22 .4 8.8-.3 17.6-.8 26.4-.7h1.9c.8 0 1.4.2 1.5 1s-.6 1.3-1.5 1.4h-.5c-9-.1-18-.1-26.9.5s-19.8-.3-29.7-1.1c-11.8-.9-23.6-1.9-35.4-1.5a28.4 28.4 0 0 0-6.6.9c-.6.2-1.4.7-1.7 0s.8-1 1.4-1.2a23.8 23.8 0 0 1 8.4-1.3c3-.2 6-.1 9.1-.1zm77.9-8.6h.7c3.9 0 3.9 0 4.8-4s2.3-9.5 4.8-13.8a9.2 9.2 0 0 1 1.9-2.5c.4-.4.8-.9 1.3-.5s0 .9-.2 1.2a64.8 64.8 0 0 0-5.2 12.8c-.7 2.7-1.5 5.5-2.3 8.2-.3.9-.5 1.8-1.4.3s-.7-.2-1-.2l-24.4 2.2h-3.3c-.8 0-1.5-.3-1.6-1.2s.6-1.2 1.3-1.3l1.2-.2z"/><path d="M54 76c-1.8 1.7-4.1 2.1-6.3 2.4-5.6.6-11.2.5-16.8.7h-1.5c3.4 5.1 5.2 10.8 7.5 16.2a5.2 5.2 0 0 1 .6 1.6c.2.5.8 1.2 0 1.5s-.8-.6-1.1-1.1c-2.2-3.7-3.8-7.8-5.7-11.7-.7-1.5-1.4-3-2.2-4.4s-.5-3.7 2.2-4c4.8-.5 9.6-.5 14.4-.7 2.9 0 5.9-.1 8.9-.5z"/></symbol><symbol id="sold-out" viewBox="0 0 221.1 215.5"><path fill="#fff" d="M90.3 99.5l-1.8 1.6c-2.3 1.9-4 4.1-3.6 7.3a2 2 0 0 1-.2 1.1c-4.9 10.8-6.8 22.1-7.2 33.8a15.4 15.4 0 0 1-1.4 5.9C75 152 74 155 76 158a6.6 6.6 0 0 1 .5 2.5c.4 7.5 1.1 15 4.2 22.1 2.2 4.9 5.1 9.2 10.1 11.8s12.5 1.6 16-2.4a30.3 30.3 0 0 0 6-12.5c1.5-6.4 2.8-12.8 4.2-19.2a4.6 4.6 0 0 1 .7-1.6 14.3 14.3 0 0 0 3.1-7 29.7 29.7 0 0 0-.3-4.2c-.1-.9-.5-1.8-.2-2.5 1.2-3.4 2.5-6.7 3.9-10a11.3 11.3 0 0 1 1.3-2l1.4 1.2 47.7 44.7 16.9 15.8c2 1.7 2.9 1.7 4.7 0l12-11.4a2.8 2.8 0 0 1 .9-.7c1.9-.9 2-1.6.5-3.1l-47.3-45.6-23.5-22.5c-.6-.5-1-.9-.4-1.8 2.8-4.3 5.6-8.7 8.2-13.1 1.1-1.9 2.1-3.8 4.2-4.8a6.5 6.5 0 0 0 1.7-1.6c1.5-1.9 2.6-3.9 2.2-6.5s-1-2.5-.3-4.1a41.5 41.5 0 0 0 3.6-20.3 34.3 34.3 0 0 0-6.3-18.1 12.6 12.6 0 0 0-8.9-5.4 24.3 24.3 0 0 0-11.9 1.9c-1.6.7-3.5 1.7-4.3 3.2a108.2 108.2 0 0 0-5.9 11.8 6.9 6.9 0 0 1-2.1 3.2c-1.5 1.2-3.1 2.4-4.5 3.7s-4.8 4.4-4.9 7.6-3.5 7.1-5.4 10.7l-1.6-1.5-43.4-41.6-4.7-4.4a1.6 1.6 0 0 0-2.4 0L47 34.7l-11.2 10c-1.9 1.7-1.9 2.1-.1 3.8l53.1 50.1z"/><path d="M90.3 99.5l-1.5-.9-53.1-50.1c-1.8-1.7-1.8-2.1.1-3.8l11.2-10 4.7-4.4a1.6 1.6 0 0 1 2.4 0l4.7 4.4 43.4 41.6 1.6 1.5c1.9-3.6 5.2-6.2 5.4-10.7s2.6-5.5 4.9-7.6 3-2.5 4.5-3.7a6.9 6.9 0 0 0 2.1-3.2 108.2 108.2 0 0 1 5.9-11.8c.8-1.5 2.7-2.5 4.3-3.2a24.3 24.3 0 0 1 11.9-1.9 12.6 12.6 0 0 1 8.9 5.4 34.3 34.3 0 0 1 6.3 18.1 41.5 41.5 0 0 1-3.6 20.3c-.7 1.6.1 2.8.3 4.1s-.7 4.6-2.2 6.5a6.5 6.5 0 0 1-1.7 1.6c-2.1 1-3.1 2.9-4.2 4.8-2.6 4.4-5.4 8.8-8.2 13.1-.6.9-.2 1.3.4 1.8l23.5 22.5 47.3 45.6c1.5 1.5 1.4 2.2-.5 3.1a2.8 2.8 0 0 0-.9.7l-12 11.4c-1.8 1.7-2.7 1.7-4.7 0l-16.9-15.8-47.7-44.7-1.4-1.2a11.3 11.3 0 0 0-1.3 2c-1.4 3.3-2.7 6.6-3.9 10-.3.7.1 1.6.2 2.5a29.7 29.7 0 0 1 .3 4.2 14.3 14.3 0 0 1-3.1 7 4.6 4.6 0 0 0-.7 1.6c-1.4 6.4-2.7 12.8-4.2 19.2a30.3 30.3 0 0 1-6 12.5c-3.5 4-11 4.9-16 2.4s-7.9-6.9-10.1-11.8c-3.1-7.1-3.8-14.6-4.2-22.1a6.6 6.6 0 0 0-.5-2.5c-2-3-1-6 .1-8.8a15.4 15.4 0 0 0 1.4-5.9c.4-11.7 2.3-23 7.2-33.8a2 2 0 0 0 .2-1.1c-.4-3.2 1.3-5.4 3.6-7.3zm2.4 13.5l-.5-.2a1.9 1.9 0 0 0 .1-.8c.5-1.7.9-3.4 1.4-5.1s1-3.1-1.5-5.1a1.5 1.5 0 0 0-1.1-.3c-1.3.3-4.2 4-4.1 5.3s-.6 4.3-1.4 6.4c-4.1 10.2-5.7 20.9-6 31.8a21.3 21.3 0 0 1-1 4.2c-1.1 3.1-2.1 6.1-.4 9.3a2.4 2.4 0 0 1 .5 1.4c.4 3.6.6 7.2 1 10.8.8 6 2.6 11.7 6.3 16.6s6.8 6.5 12.1 6c3.1-.3 6.2-.9 7.8-3.9a52.8 52.8 0 0 0 4.5-10.7c1.6-5.6 2.4-11.5 3.7-17.2a15.5 15.5 0 0 1 2.2-5.1 8.9 8.9 0 0 0 1.8-7.4c-.9-3.8 0-7.1 1.6-10.4l3-6.9a1.6 1.6 0 0 0-.2-1.5c-1.2-1.3-2.5-2.4-3.8-3.6l-1 1.8c-.3-.4-.5-.9-.3-1.2s.1-1.8-.7-2.6l-7.7-7.1c-1.6-1.6-3.3-3.1-5-4.6a2.1 2.1 0 0 0-.4.6 86.9 86.9 0 0 1-8.3 14.1c-1.8 2.6-3.2 5.5-2.5 8.8l-.6.6a16.1 16.1 0 0 1-.6-3.5c.1-3.2 1.9-5.7 3.6-8.2l7.5-12.3a1.7 1.7 0 0 0 0-1.4l-7.1-6.7c-1 2.9-2 5.5-2.9 8.1zm21.8-24.9c8.7-7.3 14.7-16.2 19.2-26.3-.2 3.8-2 7-3.9 10s-4.3 6.3-6.6 9.2-4.9 5.5-7.4 8.3l12.4 11.9 2.6-2.5.4.4-1.7 2.6 6.2 6.9a7.3 7.3 0 0 0 .9-1.1l9-14.8a5.3 5.3 0 0 1 1.1-1.5c.8-.7 1.8-1.1 2.6-1.8a6.4 6.4 0 0 0 2.3-6.5 8.1 8.1 0 0 1 .3-4.1 41.7 41.7 0 0 0 3.4-18.1c-.3-6.2-1.6-12-5.3-17.2a11.3 11.3 0 0 0-6.9-4.8c-3.1-.9-6.1.1-9.1.7s-6.2 2.9-7.8 6.3-1.9 4.2-2.7 6.3a13.4 13.4 0 0 1-5.3 6.4c-4 2.8-6.7 6.3-7.6 11.2a11.4 11.4 0 0 1-1.6 3.8c-1.2 1.9-2.5 3.8-3.7 5.5l3.1 3.4c2.6-3.8 5.1-7.4 7.7-11l.6.4c-2.1 4-5 7.6-7.2 11.6z"/><path fill="#fff" d="M92.7 113c.9-2.6 1.9-5.2 2.9-8.1l7.1 6.7a1.7 1.7 0 0 1 0 1.4l-7.5 12.3c-1.7 2.5-3.5 5-3.6 8.2a16.1 16.1 0 0 0 .6 3.5l.6-.6c-.7-3.3.7-6.2 2.5-8.8a86.9 86.9 0 0 0 8.3-14.1 2.1 2.1 0 0 1 .4-.6c1.7 1.5 3.4 3 5 4.6l7.7 7.1c.8.8 1.4 1.5.7 2.6s0 .8.3 1.2l1-1.8c1.3 1.2 2.6 2.3 3.8 3.6a1.6 1.6 0 0 1 .2 1.5l-3 6.9c-1.6 3.3-2.5 6.6-1.6 10.4a8.9 8.9 0 0 1-1.8 7.4 15.5 15.5 0 0 0-2.2 5.1c-1.3 5.7-2.1 11.6-3.7 17.2a52.8 52.8 0 0 1-4.5 10.7c-1.6 3-4.7 3.6-7.8 3.9-5.3.5-9.1-2.1-12.1-6s-5.5-10.6-6.3-16.6c-.4-3.6-.6-7.2-1-10.8a2.4 2.4 0 0 0-.5-1.4c-1.7-3.2-.7-6.2.4-9.3a21.3 21.3 0 0 0 1-4.2c.3-10.9 1.9-21.6 6-31.8.8-2.1 1.7-4 1.4-6.4s2.8-5 4.1-5.3a1.5 1.5 0 0 1 1.1.3c2.5 2 2.4 2 1.5 5.1s-.9 3.4-1.4 5.1a1.9 1.9 0 0 1-.1.8zm5.6 71.8h.6l.3-.8 3.7-13.9c.8-2.8 1.9-5.6 1.3-8.6-.2-1.4-.4-2.7.6-3.9 3.1-3.5 4.6-7.8 6.1-12.1a18.7 18.7 0 0 0 .7-2.2l-.4-.2a16.5 16.5 0 0 0-1.4 2.6 38.8 38.8 0 0 1-6.2 11.5 4.9 4.9 0 0 0-.9 3.5 15.4 15.4 0 0 1-.3 6.4c-1.3 4.8-2.5 9.6-3.7 14.5a16.5 16.5 0 0 0-.4 3.2zm-12.4-61.9l6.7-16.8c-2 1.2-7.2 14.6-6.7 16.8zm9.8 31.4l-.5-.5h-.8c-1.6.3-2.1-.1-2.3-1.6s.1-2.1.1-3.1a4.3 4.3 0 0 0-.2-1.1c-.3.2-.8.4-.9.7a5.7 5.7 0 0 0 0 5.5 2.3 2.3 0 0 0 1.7.8 20.1 20.1 0 0 0 2.9-.7zm-3.8 23c-1.1-.9-3.1.3-3.3-1.6a25.4 25.4 0 0 1-.1-3.9c-1.3.5-2 3.2-1.2 5s2.4 1.6 4.6.5zm-3.6-45.1c-.7-1.1-2.8-.1-2.4-1.9a18.1 18.1 0 0 1 1.4-3.3c-.6-.6-1.2-.2-1.8.4s-1.6 3.9-.7 4.8 2.2.7 3.5 0zm22.8-3.3c-2.7-1.3-2.3-3.6-2.2-5.8-1.3.4-1.6 1.4-1.1 3.4s1.2 2.7 3.3 2.4zm-4.7 48.9c-1.2 0-1.6.4-1.6 1.4a1.8 1.8 0 0 0 1.9 1.8 2.4 2.4 0 0 0 2-2.8l-2.2 1.8c0-.9-.1-1.5-.1-2.2zm8.1-89.7l-5-4.8c2.2-4 5.1-7.6 7.2-11.6l-.6-.4c-2.6 3.6-5.1 7.2-7.7 11l-3.1-3.4c1.2-1.7 2.5-3.6 3.7-5.5a11.4 11.4 0 0 0 1.6-3.8c.9-4.9 3.6-8.4 7.6-11.2a13.4 13.4 0 0 0 5.3-6.4c.8-2.1 1.8-4.2 2.7-6.3s4-5.7 7.8-6.3 6-1.6 9.1-.7a11.3 11.3 0 0 1 6.9 4.8c3.7 5.2 5 11 5.3 17.2a41.7 41.7 0 0 1-3.4 18.1 8.1 8.1 0 0 0-.3 4.1 6.4 6.4 0 0 1-2.3 6.5c-.8.7-1.8 1.1-2.6 1.8a5.3 5.3 0 0 0-1.1 1.5l-9 14.8a7.3 7.3 0 0 1-.9 1.1l-6.2-6.9 1.7-2.6-.4-.4-2.6 2.5-12.4-11.9c2.5-2.8 5.1-5.4 7.4-8.3s4.5-6 6.6-9.2 3.7-6.2 3.9-10c-4.5 10.1-10.5 19-19.2 26.3zm35.4-16.8c.2-.4.5-.7.5-1 .8-3.3 1.6-6.7 2.2-10a12.6 12.6 0 0 0-1.3-8.7 15.8 15.8 0 0 0-1.2-1.5l-.7.3c3.5 6.9.6 13.8.5 20.9zm-31.9 13c-.9-.4-2.3-.7-2.5-1.3s.4-2 .8-3.2c-1.2-.3-1.6.5-2 1.4a3.1 3.1 0 0 0 .7 3.6 2.7 2.7 0 0 0 3-.5zm6.4-18.1l-2.6.8a18.4 18.4 0 0 0-.5-2.5c-.1-.2-.3-.5-.4-.5s-.8.1-.8.2a10.1 10.1 0 0 0 0 3c.2.5 1.4.9 2.1.9a2.1 2.1 0 0 0 2.2-1.9zm15 7.7l-.4-1.5-.6-.8c-.2.3-.7.7-.7.9a6.4 6.4 0 0 0 1 2.2 2.2 2.2 0 0 0 2.7-.3c1.1-.9 1.4-1.3 1.2-2.1zm9.3 6.1c-1.7.4-4.5 6.7-4 8.6 1.4-3 2.7-5.7 4-8.6zm-23.8 9.4a2.1 2.1 0 0 0-1.8 2.5 1.4 1.4 0 0 0 1.7 1.3 3.3 3.3 0 0 0 2.9-2.7 17.3 17.3 0 0 1-2.1 1.3 2.5 2.5 0 0 1-1.2.1v-1.1a7.8 7.8 0 0 1 .5-1.4zm7.8-34.5v-.6c-3-1.5-.2-3.1 0-4.7-1.7-.2-2.1 1.1-2.4 2.1a3.7 3.7 0 0 0 .5 2.5c.2.5 1.2.5 1.9.7z"/><path d="M98.3 184.8a16.5 16.5 0 0 1 .4-3.2c1.2-4.9 2.4-9.7 3.7-14.5a15.4 15.4 0 0 0 .3-6.4 4.9 4.9 0 0 1 .9-3.5 38.8 38.8 0 0 0 6.2-11.5 16.5 16.5 0 0 1 1.4-2.6l.4.2a18.7 18.7 0 0 1-.7 2.2c-1.5 4.3-3 8.6-6.1 12.1-1 1.2-.8 2.5-.6 3.9.6 3-.5 5.8-1.3 8.6L99.2 184l-.3.8zm-12.4-61.9c-.5-2.2 4.7-15.6 6.7-16.8zm9.8 31.4a20.1 20.1 0 0 1-2.9.7 2.3 2.3 0 0 1-1.7-.8 5.7 5.7 0 0 1 0-5.5c.1-.3.6-.5.9-.7a4.3 4.3 0 0 1 .2 1.1c0 1-.2 2.1-.1 3.1s.7 1.9 2.3 1.6h.8zm-3.8 23c-2.2 1.1-4 .9-4.6-.5s-.1-4.5 1.2-5a25.4 25.4 0 0 0 .1 3.9c.2 1.9 2.2.7 3.3 1.6zm-3.6-45.1c-1.3.7-2.5 1-3.5 0s-.5-3.4.7-4.8 1.2-1 1.8-.4a18.1 18.1 0 0 0-1.4 3.3c-.4 1.8 1.7.8 2.4 1.9zm22.8-3.3c-2.1.3-2.8-.2-3.3-2.4s-.2-3 1.1-3.4c-.1 2.2-.5 4.5 2.2 5.8zm-4.7 48.9c0 .7.1 1.3.1 2.2l2.2-1.8a2.4 2.4 0 0 1-2 2.8 1.8 1.8 0 0 1-1.9-1.8c0-1 .4-1.4 1.6-1.4zm43.5-106.5c.1-7.1 3-14-.5-20.9l.7-.3a15.8 15.8 0 0 1 1.2 1.5 12.6 12.6 0 0 1 1.3 8.7c-.6 3.3-1.4 6.7-2.2 10 0 .3-.3.6-.5 1zm-31.9 13a2.7 2.7 0 0 1-3 .5 3.1 3.1 0 0 1-.7-3.6c.4-.9.8-1.7 2-1.4-.4 1.2-1 2.3-.8 3.2s1.6.9 2.5 1.3zm6.4-18.1a2.1 2.1 0 0 1-2.2 1.9c-.7 0-1.9-.4-2.1-.9a10.1 10.1 0 0 1 0-3c0-.1.5-.2.8-.2s.3.3.4.5a18.4 18.4 0 0 1 .5 2.5zm15 7.7l3.2-1.6c.2.8-.1 1.2-1.2 2.1a2.2 2.2 0 0 1-2.7.3 6.4 6.4 0 0 1-1-2.2c0-.2.5-.6.7-.9l.6.8zm9.3 6.1c-1.3 2.9-2.6 5.6-4 8.6-.5-1.9 2.3-8.2 4-8.6zm-23.8 9.4a7.8 7.8 0 0 0-.5 1.4v1.1a2.5 2.5 0 0 0 1.2-.1 17.3 17.3 0 0 0 2.1-1.3 3.3 3.3 0 0 1-2.9 2.7 1.4 1.4 0 0 1-1.7-1.3 2.1 2.1 0 0 1 1.8-2.5zm7.8-34.5c-.7-.2-1.7-.2-1.9-.7a3.7 3.7 0 0 1-.5-2.5c.3-1 .7-2.3 2.4-2.1-.2 1.6-3 3.2 0 4.7z"/></symbol><symbol id="warning" viewBox="0 0 295.8 340.8"><path d="M107 11.7c-1-.6-2.7.3-2.5-1.4s1.7-1 2.6-1c33-.5 66-.4 98.9-.6 13.5-.1 26.9.4 40.4-.2 1.8-.1 2.3.9 2.6 2.3 2.9 11.6 5.9 23.3 8.8 35q7.1 28.1 14 56.1c5 19.6 9.9 39.3 14.8 58.9 1.1 4.4 2.1 8.8 3.3 13.1a7.2 7.2 0 0 1-.5 5q-30.3 67.4-60.5 134.7l-9 19.9a2.8 2.8 0 0 1-3.2 1.9c-7.7-.5-15.4-.8-23.1-1.1l-25.3-1.3-22.3-1-25.7-1.2-22.5-1-24.7-1.3c-5.1-.2-10.2-.6-15.2-.6-2.1-.1-3-.8-3.4-2.7-2.4-9.8-4.8-19.5-7.3-29.2q-7.4-29.1-14.6-58.4c-4.4-17.4-8.8-34.9-13.1-52.3L4.8 126.8a5 5 0 0 1 1.2-5q34.3-37.2 68.5-74.6L106 12.9zm1.9-.3a4.3 4.3 0 0 1-1.1 4.6c-9.6 10.3-19.1 20.7-28.6 31.1L8.3 124.2a2.3 2.3 0 0 0-.7 2.6c1.1 4.1 2.1 8.3 3.1 12.4 4.4 17.8 8.9 35.7 13.3 53.5s8.7 34.5 13 51.8 8.7 35.1 13.1 52.6l6.3 25.2c.2.9.5 1.7 1.7 1.7 3 0 5.9.1 8.8.3l29.3 1.3 25.5 1.2 21.4 1 25.8 1.3 22.9 1.1 24.2 1.1a2.1 2.1 0 0 0 2.5-1.5 51.1 51.1 0 0 1 2.2-4.8q20.9-46.5 41.8-92.9c8.1-18.2 16.3-36.3 24.5-54.5a4.7 4.7 0 0 0 .3-3.3c-2.2-8.5-4.2-17-6.3-25.4-6-24.2-12.1-48.3-18.1-72.5-5.2-20.9-10.3-41.8-15.5-62.7-.3-1.5-1-1.9-2.5-1.9h-17.8l-66.6-.2c-14.5.1-29.1-.1-43.6-.2z"/><path d="M211.5 84.3a43.3 43.3 0 0 1-3.5 18.5 11.1 11.1 0 0 0-.8 7.4c.9 3.1-.6 5.6-2.4 7.9a6.6 6.6 0 0 1-2.3 2.1c-2.6 1.4-3.9 3.7-5.3 6.2a120.7 120.7 0 0 1-10.9 17.4 65.1 65.1 0 0 0-9.2 17c-1.5 4.2-4.1 7.6-6.3 11.3a61 61 0 0 0-6.5 15.1 2.8 2.8 0 0 0 0 1.8c2.4 5.5.1 10.1-2.8 14.5a5.9 5.9 0 0 0-1.1 1.9c-1.5 7.1-3.3 14.2-4.5 21.3s-3.7 11.3-6.5 16.5c-1.9 3.4-5.2 5.1-9 6.1-10.4 2.6-18.6-3.6-22.9-11.3s-6.5-18-7.3-27.6c-.2-3.1 0-6.2-1.6-9.2s-.3-6.4.9-9.2a19.8 19.8 0 0 0 1.8-7.9c.6-14.3 2.9-28.3 8.8-41.5a2.3 2.3 0 0 0 .4-1.4c-.5-4 1.5-6.8 4.4-9.1a10.6 10.6 0 0 0 2.7-3.3c6.7-11.2 13.4-22.4 21.2-32.8a6.9 6.9 0 0 0 1.6-4.2c.1-4.7 2.9-7.9 5.8-11l1.8-1.6c4-2.8 7.2-5.9 8.3-11 .7-2.8 2.5-5.4 3.9-8.1 2.6-5.1 7-7.7 12.6-8.6 3.3-.6 6.7-1.6 10.1-.9a17.2 17.2 0 0 1 10.7 6.5c6 8.2 8.1 17.4 7.9 27.2zm-3.4-.4c0-.7-.1-1.4-.1-2.2-.1-7.7-1.8-14.9-6.4-21.4a14.6 14.6 0 0 0-8.6-6c-3.9-1-7.7.2-11.4.9s-7.6 3.6-9.6 7.7-2.2 5.4-3.4 8a18.1 18.1 0 0 1-6.7 8c-5 3.4-8.4 7.8-9.3 13.9a12.2 12.2 0 0 1-2.1 4.8c-4.8 7.1-9.9 14-13.9 21.6-2.2 4.2-5.2 8-7.3 12.2-.3.6-.9.8-1.4 1.2-2.1 1.8-4.7 3.6-4.7 6.6a20.3 20.3 0 0 1-1.8 7.8c-5.1 12.7-7.2 25.9-7.5 39.4a15.6 15.6 0 0 1-1.2 5.6c-1.8 3.9-2.6 8-.2 12.1a2.4 2.4 0 0 1 .3 1.2 95.2 95.2 0 0 0 1.2 13.1c1.1 7 3 13.8 7 19.7s8.6 9.3 15.8 8.7c3.9-.3 7.7-1.1 9.8-4.8s4.8-8.5 5.8-13.4c1.4-7.1 2.7-14.1 4.3-21.2a17.9 17.9 0 0 1 3.2-7 8.7 8.7 0 0 0 1.9-4.4 25.9 25.9 0 0 0-.4-6.8c-.6-4.2 1.2-7.8 2.8-11.4 5.1-12.2 10.9-24 18.6-34.7a150.3 150.3 0 0 0 13.6-22.4c.2-.4.4-.9 1-1s2.2-1.4 3.2-2.2c2.6-2.2 3.8-4.8 2.8-8.1a7.8 7.8 0 0 1 .4-5.2c2.8-6.5 4.7-13.1 4.3-20.3zm-92.8-59.4a6.1 6.1 0 0 1-2.1 3.5c-7.4 7.7-14.9 15.3-22.1 23C79 63.9 66.5 76.3 54.3 88.9c-9.3 9.5-17.7 19.6-26.7 29.3-3.2 3.3-6.3 6.7-9.2 10.3a2.9 2.9 0 0 0-.6 3.1c1.8 6.3 3.5 12.7 5.1 19 3.8 15.2 7.6 30.3 11.3 45.5s8.2 32.5 12.2 48.8 7.7 30.9 11.5 46.3c1.4 5.7 2.9 11.4 4.2 17.1.3 1 .7 2.7-.8 2.9s-1.2-1.3-1.4-2.3C54.4 286.9 49 265 43.5 243c-4.8-19.5-9.5-39.1-14.3-58.6-4.1-16.7-8.4-33.3-12.2-50-.4-1.4-.7-2.9-1-4.3a1.4 1.4 0 0 1 .4-1.2C32.3 109.4 49 90.6 66.7 72.7c15.5-15.8 30.8-31.9 45.8-48.1l1-1.1c.4-.3.9-.6 1.4-.3a1.2 1.2 0 0 1 .4 1.3zm10.6 288.4l22.7 1.2 18.4 1.1 24 1.7 22.4 1.6a2.3 2.3 0 0 0 2.7-1.7c5.4-13.5 11.3-26.8 17.1-40.2l41.6-94.2c.3-.7.6-2.3 1.8-1.7s.7 2.2.2 3.3l-10.5 23.7c-11.6 26.3-23.3 52.7-35 79-4.9 11-9.8 21.9-15.1 32.7a8.7 8.7 0 0 1-.7 1.7 1.5 1.5 0 0 1-1.6 1l-34.1-2.5-34.6-2.6c-7.6-.6-15.3-1.3-22.9-2.3-.7-.1-1.3-.2-1.2-1.1s.8-.6 1.3-.6h3.5z"/><path d="M205.9 24.3l33.3-.6c3.3-.1 3.3-.1 4.1 3.1s2.2 8.1 3.2 12.2c2.8 11.3 5.6 22.7 8.3 34.1 4.4 18.5 8.7 37 13.1 55.6 2.4 10.3 4.8 20.8 7.2 31.2a4.1 4.1 0 0 1 .2 1.6c-.1.7 0 1.6-1 1.7s-1-.8-1.2-1.4c-.6-2.5-1.1-4.9-1.7-7.3-3.3-13.7-6.5-27.3-9.8-41-2.7-11.5-5.4-23-8-34.5l-9.9-43.2c-.5-2.3-.9-4.5-1.3-6.8s-.7-1.9-2.2-1.8l-32.3.4c-16.1.3-32.3.3-48.4.2l-2.4-.2c-.5-.1-.9-.3-.9-.9s.5-.9 1.1-1l5.1-.4 43.5-1zm-57 239.1c1.7-.4 2.3.5 2.6 2.3 1.3 7.5 2.8 15 4.2 22.5.5 2.8.4 3-2.3 3.9L120.3 303c-2.6.8-3 .7-3.5-2l-7.5-36.7c-.3-1.4.1-2.2 1.6-2.4l17.3-2.8 9.6-1.4h1.3c.4.1 1.1-.2 1.2.4s-.6.9-1 1l-12.7 2.6-13.2 2.3c-1.3.2-1.6.7-1.3 2 2.4 11.1 4.7 22.3 7 33.5.2 1 .5 1.2 1.6.9l31.9-10.4c.9-.3 1.1-.6.9-1.4-1.4-7-2.7-14-4-21-.3-1.4-.8-1.8-2.2-1.6l-24.6 3.3c-1 .1-1.3.3-1.1 1.4 1 4.9 1.9 9.8 2.8 14.8.2.8.4 1.2 1.4 1 5.2-1.2 10.3-2.2 15.4-3.2 1-.2 1.2-.6.8-1.6s-1.5-3.8-2.2-5.8-.7-1-1.6-.8c-2.9.9-5.9 1.6-8.8 2.4l-.5.2c-1.1.1-2.6.7-2.9-1s.9-1.7 2-2l11-2.6a1.9 1.9 0 0 1 2.6 1.3c1.1 3 2.4 6 3.5 9s.3 2.3-1.7 2.8l-18.2 3.9c-2.3.5-2.8.2-3.2-2.1-1.1-5.7-2.2-11.3-3.2-16.9-.5-2.7-.2-3 2.8-3.4l25.6-3.2zm1.7-130.8c-1.2-5.8-.2-10.9 4.4-15a41.8 41.8 0 0 1 5.7-4.5c2.9-1.8 4.6-4.8 6.7-7.4s5.8-8.2 8.6-12.3 3-6.1 4.3-9.2c.2-.4.1-1.3.7-1.1s.7 1 .5 1.5a53.8 53.8 0 0 1-2.8 7 191.9 191.9 0 0 1-12.2 17.7 41.6 41.6 0 0 1-8 7.7 25.2 25.2 0 0 0-4.8 5c-1.4 1.5-1.7 3.4-1.8 5.4a24.2 24.2 0 0 1-.6 4.7c-.1.3-.3.6-.7.5zm-21.1 14.5a53 53 0 0 1 4.6-14.6c2.6-5.4 6.4-10 9.8-15l12.7-18.8c.8-1.2 1.8-2.4 2.8-3.7.8.8.4 1.4 0 1.9-5.9 8.8-11.5 17.8-17.6 26.4-4.7 6.6-8.7 13.6-10.9 21.6a3.3 3.3 0 0 1-1.4 2.2zm23.9 37.2c.5 1.2-.2 2.1-.5 3-1.9 5.4-3.8 10.8-7.7 15.1-1.2 1.5-.9 3.1-.6 4.8.7 3.7-.7 7.2-1.7 10.8-1.6 5.7-3.5 11.4-4.6 17.2-.1.4-.1.8-.5 1s-.6-1.1-.5-1.8c.8-5.7 2.6-11.2 4-16.7.7-2.8 1.8-5.6 1.7-8.6 0-.3.1-.8-.1-1.1-1.2-2.9 0-5.3 1.8-7.5a40.1 40.1 0 0 0 6.6-12.4 11.9 11.9 0 0 1 2.1-3.8zm7.8-18.4c-.8-.3-.5-.9-.3-1.5 1.2-2.4 2.5-4.9 3.5-7.4 2.5-6.1 5.8-11.8 8.1-18a7.4 7.4 0 0 0 .5-2.5c.2-3 1.9-5 4.1-6.9.2-.2.5-.6.9-.2s0 .6-.2.8c-2.2 2.3-3.1 5.1-3.6 8.2s-2.9 7.6-4.6 11.3c-2.3 5.3-5.1 10.4-7.8 15.5-.2.3-.2.7-.6.7zm-32.5 6.5a16.8 16.8 0 0 1 2.9-7.8c3.4-5.1 7.1-9.9 9.9-15.3.8-1.5 1.4-3.1 2.2-4.6s.3-.8.7-.6.4.6.3.9-.6 1.9-1.1 2.8a99.1 99.1 0 0 1-9.8 16.6c-2.3 3.3-4.3 6.9-3.5 11.2.1.3.1.6-.3.7s-.5-.2-.6-.5a9.8 9.8 0 0 1-.7-3.4z"/><path d="M205 77.6a69.6 69.6 0 0 1-3 16.3c-.1.4-.1 1-.7.8s-.2-.7-.1-1c.6-5.3 1.7-10.6 1.7-16 0-2.1 0-4.4-1.3-6.3a1.9 1.9 0 0 1-.2-.7c-.1-.6-.8-1.5 0-1.8s1.3.5 1.7 1.2a13.8 13.8 0 0 1 1.9 7.5zm-83.3 81.2c-.5-.2-.4-.6-.3-.9a111.5 111.5 0 0 1 6.9-18c.3-.7.6-2 1.4-1.7s-.1 1.5-.3 2.1a179 179 0 0 0-7 17.6c-.1.4-.2.8-.7.9zm12 39.3a7.4 7.4 0 0 1-3.4 1 2.3 2.3 0 0 1-1.6-.4c-1.7-1.1-1.7-6.9-.1-8.1a1 1 0 0 1 .9-.2c.5.3.3.8.2 1.2a9.4 9.4 0 0 0-.3 4.1c.2 1.7 1.2 2.3 2.8 2s1.1-.4 1.5.4zM123.1 224a7.2 7.2 0 0 1 .9-3.4c.2-.3.4-.8.9-.6s.4.6.3 1.1l-.3 1.9c-.1 2.9.4 3.6 2.9 3.4.4 0 1-.2 1.1.3s-.6.7-1 .8c-3 1-4.8-.3-4.8-3.5zm-.4-52.5c-1.8 0-2.7-.6-2.9-2.2a6.6 6.6 0 0 1 1.6-4.7c.6-.7 1.3-.9 2-.3s-.3 1-.6 1.3a4.6 4.6 0 0 0-1.1 2.9 1.1 1.1 0 0 0 1 1.4c.7.1 1.8-.1 1.7.8s-1.3.6-1.7.8zm36.9-59.5c-1.9.1-3.1-1.4-2.9-3.4a5.8 5.8 0 0 1 .7-2.1c.5-.7 1.1-1.5 1.9-1s-.1 1.1-.4 1.6a3.1 3.1 0 0 0-.3 2.8 2 2 0 0 0 2.5.7c.3-.1.7-.3.9.2s-.3.6-.7.7zm6-24.6c.1.6-.1 1.5.6 2s1.5 0 2.3-.3.6-1 1.1-.3-.2.9-.5 1.2a3.5 3.5 0 0 1-4.2.6 3.8 3.8 0 0 1-.7-4.2c.2-.5.6-.8 1.1-.6s.4.9.3 1.6zm26.9 8.6a3.7 3.7 0 0 1-4.3 3.5 2.7 2.7 0 0 1-1.9-3.5c.1-.4.3-.7.7-.7a.8.8 0 0 1 .8.6c.2.7-.1 1.8.9 1.9a3.4 3.4 0 0 0 2.8-1.2c.2-.3.4-.7 1-.6zm2.5 20.1c-.5-.2-.5-.5-.4-.9a60.9 60.9 0 0 1 3.7-8.8c.2-.4.5-.7.9-.6s.4.7.2 1.1l-4 8.8c0 .2-.3.3-.4.4zm-24.9 6.2q-1.9-.1-2.1-1.8a3.2 3.2 0 0 1 1.4-3c.5-.3.9 0 .8.6a9.3 9.3 0 0 1-.5 1c-.2.5-.6 1 0 1.5s1 .1 1.5-.1l1.5-1c.4-.3.8-.9 1.2-.3s-.3.8-.6 1.1a5.5 5.5 0 0 1-3.2 2zm-19.8 39.3c-.1 1.6 0 3.4 2 4.4a.5.5 0 0 1 .3.7 1 1 0 0 1-.7.2 2.7 2.7 0 0 1-2.5-1.8 8.3 8.3 0 0 1-.6-4.4c.1-.7.3-1.4 1.1-1.3s.4.9.4 1.4zm0 66.6a3.1 3.1 0 0 1-2.3 3.2 1.8 1.8 0 0 1-2.2-.8 2.4 2.4 0 0 1-.2-2.7 1.4 1.4 0 0 1 1.1-.6c.5.1.7.4.6.8s-.4 1.4.3 1.6 1.2-.5 1.6-1l.5-.9zm26.4-157a7.2 7.2 0 0 1 1.8-3.1 1.1 1.1 0 0 1 1.3-.2c.6.4 0 .8-.3 1.2l-.9 1.6c-.4 1.1-.6 2.2.9 2.8s.6.2.5.6-.4.3-.7.3-2.6-1.2-2.6-3.2z"/></symbol><symbol id="black-jar" viewBox="0 0 154.5 288"><path fill="#fff" d="M33.6 51.1c-.7.3-1.5.4-1.8.9s-.8 3.4-.9 5.3l2.9 1.1a.1.1 0 0 1 .1.1c.9.1 1.2.4.9 1.3a27.4 27.4 0 0 0-.5 2.8 11.2 11.2 0 0 1-3.3 7.1q-2.2 2.4-4.2 4.8c-3.2 3.9-4.2 8.8-5.2 13.6a74.8 74.8 0 0 0-1.2 11.5c-.2 2.7-.1 5.5-.1 8.2s.2 7.9 0 11.8-.9 9.6-.7 14.5c.3 6.6.3 13.1.4 19.7.1 3.6.3 7.3.3 11s0 7.3.1 11c0 1.7.1 3.4 0 5.1-.1 4.4-.4 8.7-.4 13s0 9.1.1 13.6.3 6.7.3 10.1l-.3 14.5c0 1.2 0 2.3.1 3.4.1 3.8.3 7.6.5 11.4s.3 5.4.6 8.1.6 4.4 1 6.7a14.7 14.7 0 0 0 3.1 7 29.9 29.9 0 0 0 6.9 4.9 29.1 29.1 0 0 0 11.9 3.7c2.6.2 5.1 1.4 7.6 1.5 6.2.5 12.4.6 18.7 1.2s12.2.6 18.4.9a103.9 103.9 0 0 0 26.1-2.2c4.8-1 9.6-2.4 14.3-3.8a14.1 14.1 0 0 0 3.9-1.9l3.3-2.1a5.7 5.7 0 0 0 1.1-1.1c.6-.7 1-1.5 1.6-2.2 2.9-3.5 3.8-7.7 4.2-12s.7-9 1.1-13.5c.9-8.6.1-17.2.2-25.8 0-5.5 0-11 .1-16.5.1-3.1.3-6.1.3-9.2s-.3-5.8-.4-8.7.4-3 .4-4.5c.1-7.8.1-15.7.1-23.6-.1-4.8-.3-9.6-.5-14.5a60.2 60.2 0 0 1-.3-7.4 113.6 113.6 0 0 0-.2-16.5c-.1-1.6-.3-3.3-.3-4.9.1-5.6.5-11.2.5-16.8a18.9 18.9 0 0 0-.8-5.8c-1.3-3.5-2.8-6.8-4.4-10.1s-3.8-8.9-7-12.6c-1.6-1.9-1.8-4.3-1.9-6.6l3.2-1.3a1.7 1.7 0 0 0 .9-2.6c-.8-1.6-1.7-3.1-3.9-2.7-.1.1-.1-.1-.1-.1v-2.4a28.5 28.5 0 0 0 3.5-1.7 3.1 3.1 0 0 0 1.3-1.9c.2-1-.7-1.5-1.5-1.9a1.4 1.4 0 0 1-.8-.7c-.6-2.3-1.2-4.5-1.7-6.8 0-.2.1-.3.1-.5a5.8 5.8 0 0 0 .4-1.8c0-2.1-.1-4.2-.2-6.3-.1-.4-.4-1-.8-1.1a37.4 37.4 0 0 0-4.5-1.2c-4-.8-8-1.5-12.1-2.1a60.2 60.2 0 0 0-7.4-.3c-5.7-.2-11.5-.5-17.3-.3a194.6 194.6 0 0 1-21.6-.4 116.6 116.6 0 0 0-18.7.5c-3.7.3-7.3 1.2-10.9 1.5s-6 3.3-6.3 6.9.5 5.3.8 7.9a2.5 2.5 0 0 1-.1.9l-2.8 4.4a1.4 1.4 0 0 0 .9 2.4l2.9.4z"/><path d="M33.6 51.1v-3.7l-2.9-.4a1.4 1.4 0 0 1-.9-2.4l2.8-4.4a2.5 2.5 0 0 0 .1-.9c-.3-2.6-1-5.3-.8-7.9s2-6.6 6.3-6.9 7.2-1.2 10.9-1.5a116.6 116.6 0 0 1 18.7-.5 194.6 194.6 0 0 0 21.6.4c5.8-.2 11.6.1 17.3.3a60.2 60.2 0 0 1 7.4.3c4.1.6 8.1 1.3 12.1 2.1a37.4 37.4 0 0 1 4.5 1.2c.4.1.7.7.8 1.1.1 2.1.2 4.2.2 6.3a5.8 5.8 0 0 1-.4 1.8c0 .2-.1.3-.1.5.5 2.3 1.1 4.5 1.7 6.8a1.4 1.4 0 0 0 .8.7c.8.4 1.7.9 1.5 1.9a3.1 3.1 0 0 1-1.3 1.9 28.5 28.5 0 0 1-3.5 1.7v2.4s0 .2.1.1c2.2-.4 3.1 1.1 3.9 2.7a1.7 1.7 0 0 1-.9 2.6l-3.2 1.3c.1 2.3.3 4.7 1.9 6.6 3.2 3.7 4.8 8.3 7 12.6s3.1 6.6 4.4 10.1a18.9 18.9 0 0 1 .8 5.8c0 5.6-.4 11.2-.5 16.8 0 1.6.2 3.3.3 4.9a113.6 113.6 0 0 1 .2 16.5 60.2 60.2 0 0 0 .3 7.4c.2 4.9.4 9.7.5 14.5 0 7.9 0 15.8-.1 23.6 0 1.5-.4 3-.4 4.5s.4 5.8.4 8.7-.2 6.1-.3 9.2c-.1 5.5-.1 11-.1 16.5-.1 8.6.7 17.2-.2 25.8-.4 4.5-.5 9-1.1 13.5s-1.3 8.5-4.2 12c-.6.7-1 1.5-1.6 2.2a5.7 5.7 0 0 1-1.1 1.1l-3.3 2.1a14.1 14.1 0 0 1-3.9 1.9c-4.7 1.4-9.5 2.8-14.3 3.8a103.9 103.9 0 0 1-26.1 2.2c-6.2-.3-12.3-.3-18.4-.9s-12.5-.7-18.7-1.2c-2.5-.1-5-1.3-7.6-1.5a29.1 29.1 0 0 1-11.9-3.7 29.9 29.9 0 0 1-6.9-4.9 14.7 14.7 0 0 1-3.1-7c-.4-2.3-.8-4.5-1-6.7s-.4-5.4-.6-8.1-.4-7.6-.5-11.4c-.1-1.1-.1-2.2-.1-3.4l.3-14.5c0-3.4-.2-6.7-.3-10.1s-.2-9.1-.1-13.6.3-8.6.4-13c.1-1.7 0-3.4 0-5.1-.1-3.7 0-7.3-.1-11s-.2-7.4-.3-11c-.1-6.6-.1-13.1-.4-19.7-.2-4.9.5-9.6.7-14.5s0-7.9 0-11.8-.1-5.5.1-8.2a74.8 74.8 0 0 1 1.2-11.5c1-4.8 2-9.7 5.2-13.6q1.9-2.4 4.2-4.8a11.2 11.2 0 0 0 3.3-7.1 27.4 27.4 0 0 1 .5-2.8c.3-.9 0-1.2-.9-1.3a.1.1 0 0 0-.1-.1l-2.9-1.1c.1-1.9-.3-3.8.9-5.3s1.1-.6 1.8-.9zm2.9 8.1c-.2 5.2-1.7 9.5-5.4 13.1a19.5 19.5 0 0 0-5.6 8.5c-.8 2.4-1.4 4.8-2 7.2s-.6 4.3-.8 6.5a59.8 59.8 0 0 0-.6 12.7 107.3 107.3 0 0 1 .3 11.3c-.5 5.9-1.2 11.8-.9 17.7.5 9 .6 17.9.8 26.9 0 .8-.1 1.7-.1 2.6 0 3.1-.1 6.2 0 9.3 0 1.5.2 2.9.2 4.4-.1 5.7-.3 11.4-.4 17.1 0 1.4.3 2.8.3 4.2-.1 5.8-.1 11.6-.2 17.4s-.4 9.6-.5 14.4c0 2.1.3 4.2.4 6.3.3 5.8.5 11.5.8 17.2a13.1 13.1 0 0 0 1.7 6.7 26.5 26.5 0 0 0 2.4 4 24.5 24.5 0 0 0 12.8 7.6c3 .8 6.1 1 9.1 1.7a28.4 28.4 0 0 0 7.2 1c2.3-.1 4.7-.1 7 0l24.4 1.6a106.3 106.3 0 0 0 28.2-2.6c3.7-.8 7.3-2 10.9-2.9a14.5 14.5 0 0 0 7-3.5l5.1-4.9a2.9 2.9 0 0 0 1.1-1.1 11.4 11.4 0 0 0 .9-3c.4-3.3.8-6.6 1.1-9.9s1.1-7.3 1.2-10.9c.2-7 .2-14 .2-21 0-3-.3-5.9-.2-8.9.1-5.6.5-11.3.6-17s0-10.8 0-16.3v-9.9c0-6.4.1-12.8-.1-19.2-.1-4.6-.7-9.2-.9-13.9-.1-2.2.3-4.4.2-6.7s-.3-7.5-.4-11.2a43.8 43.8 0 0 1-.4-5c0-3.4.3-6.8.3-10.2a55.3 55.3 0 0 0 0-9.1 30.1 30.1 0 0 0-4.3-10.7 44.4 44.4 0 0 1-3-5.7 31.3 31.3 0 0 0-4.2-7.6c-1.5-2.1-3-4.4-2.5-7.2.1-.3-.1-.6-.1-.9l-2.1.5c-3.1.4-6.3.7-9.5 1.3a109.5 109.5 0 0 1-20.6 2.6c-3.4 0-6.9.4-10.3.5H73.5c-4.5-.3-9.1-1.1-13.6-1a77.5 77.5 0 0 1-14.3-1.7c-3-.5-6-1.5-9.1-2.3zM33.9 28a8.5 8.5 0 0 0-.8 2.4c.1 2.9.4 5.8.7 8.7 0 .3.5.7.9.7l9.8.8 10.1.4 10.9.3c4.5 0 8.9-.2 13.4-.3s9 0 13.4-.2 10.5-.8 15.7-1.2a84.2 84.2 0 0 0 15.8-1.9l5.6-1.7a1.8 1.8 0 0 0 .9-1.2c0-1.8-.1-3.6-.2-5.4l-4.5 1.5c-.1 1.3-.1 2.6-.2 3.8h-.4l-.5-3.7h-.4c-.2 1.3-.4 2.5-.5 3.7h-.5V31c-1.4.6-1.1 1.6-1.2 2.4a26.4 26.4 0 0 0-.2 2.8c-1.1-1.5-.7-3.1-.7-4.8-.4.2-.7.4-.8.7s-.4 2-.6 3.2c-1.5-1.1-.3-2.6-.7-3.8h-4.6c-.1 1.7-.3 3.3-.4 4.9h-.6l-.3-4.9h-.3c-.2 1.4-.4 2.8-.5 4.2h-.5l-.2-4.1h-.5v7c-.6-.3-.9-.3-.9-.5l-.6-6.2h-.8l-.4 2.5h-.3l-.5-2.6c-1.7.6-.6 2.4-1.6 3.4l-.2-3.2h-1.1a28 28 0 0 1 0 2.9c-.1.8-.3 1.7-.5 2.6h-.4v-5.4l-9.8.6c-.3 2.2-.5 4.4-.7 6.6h-.4v-6.6h-1.9v3.7h-.4l-.6-3.7h-.4l-.4 4.7c-.9-.4-1.1-2.2-.6-4.8H72.8c.1 1 .3 2 .4 3.1h-.4L71.2 32l-.3 3.4c-.9-.4-1.1-1.4-.6-3.2H57.6l-.3 4.9h-.4c-.8-1.5-.4-3.3-.6-5h-1.2v2.1h-.4c-.1-.8-.3-1.6-.4-2.4h-.5l-.2 3.1c-1.1-1-.3-2.3-.8-3.2h-.9c-.1 1.6-.3 3.1-.4 4.7h-.3a6.1 6.1 0 0 1-.3-1.1c-.1-1-.1-2-.3-3s-.4-.7-.6-1l-.3.2-.5 2.7h-.4l-.3-2.8h-.3l-.6 4c-1-1.3-.4-2.7-.5-3.9l-7.7-2-.2 3.7h-.6c-.1-1-.2-2.1-.2-3.1s-.1-1.1-1-1c-.1 1.8-.2 3.7-.4 5.5h-.3v-4.9a1.9 1.9 0 0 0-.5-1l-.4.2-.5 3.4c-1-.7-1.1-1.4-.2-3.7zM101 41.5l-6.3.5c-9.4.2-18.7.4-28 .4-5.9 0-11.9-.4-17.8-.6l-4.6-.3-10-1a1.6 1.6 0 0 0-1.6 1l-1.8 3c-.2.4-.5 1-.4 1.3s.8.4 1.3.5a4 4 0 0 0 1.1 0c2.5.3 5 .4 7.6.8s2.7.8 4 .9l12.6.7H61c4.1.4 8.3.9 12.4 1.1s5.8-.1 8.6-.1h21.3a146.8 146.8 0 0 0 26.5-2.5 22.6 22.6 0 0 0 3.7-1.1v-.5c-1.5-.3-2.5-1.2-2.3-2.5l-10.4 1.6-2.9.6a1.5 1.5 0 0 0-.8-.3l-14.4.2a3.7 3.7 0 0 0-1.4.4 1.9 1.9 0 0 0-1.2-.4H72.5c-3.1-.1-6.1-.4-9.2-.7h-1.6V44a5.3 5.3 0 0 1 1.2-.3l9.9-.2H101zM34.6 27.2v.4a86.4 86.4 0 0 0 10 2.6c5.1.6 10.4.8 15.6.9 7.4.2 14.9.1 22.3.2H86l15.7-.4 6.6-.4 6.2-.4c3-.2 6-.1 9-.4a46.6 46.6 0 0 0 6.2-1.5v-.4l-.5-.2c-2.7-.6-5.4-1.3-8.2-1.8a58.5 58.5 0 0 0-12.6-1.1h-3.1c-5-.1-10-.4-15-.2a191 191 0 0 1-21.4-.3 109.5 109.5 0 0 0-19 .5c-3.6.4-7.1 1.1-10.7 1.6zm94.2 22.3h-.6c-4.2.6-8.4 1.5-12.7 1.8s-11.1.5-16.7.5l-25.9-.2h-1.2a148.6 148.6 0 0 0-18.8-1.4 36 36 0 0 1-11.2-1.5 46.9 46.9 0 0 0-6.9-1.3l.2 3.8c2.4.4 4.5.7 6.7 1.2s4.4 1.5 6.7 1.9c6.4 1 12.9 1.9 19.3 2.6a135.3 135.3 0 0 0 14.2.9c5.8 0 11.5-.4 17.2-.6l5.6-.4c3-.3 6-.7 9-1.3l15.1-2.9zm4 6.3c-.7-1.9-1.1-2.1-2.8-1.7-5.5 1.2-11 2.4-16.5 3.4-3.5.6-7.1 1-10.6 1.3l-13.4.6a125.3 125.3 0 0 1-18.4-.5L59 57.6a67.7 67.7 0 0 1-14.7-3.2 24.4 24.4 0 0 0-9.6-1.8c-.7 0-1.8-.3-2.2.1s-.4 1.6-.6 2.4.1.5.1.7l11 2.8A69.7 69.7 0 0 0 60 61c2.6 0 5.2.3 7.8.5s7.8.9 11.8.9c6.4-.1 12.7-.4 19.1-.8 3.6-.2 7.2-.6 10.7-1.1 5.1-.7 10.2-1.5 15.3-2.5a81.2 81.2 0 0 0 8.1-2.2zm-13.7-12.9l11.6-1.2-1-4.2c-9.2 2.8-18.6 3.3-28.2 3.8l.5 1.8h12.3V41h.3l.4 2h.4c.1-.3.4-.6.5-.9s-.2-.5-.2-.8a3.2 3.2 0 0 1 .3-.9c.2.3.5.5.6.8a8.6 8.6 0 0 1 0 1.6c1.1.2.5-.5.6-1a6.9 6.9 0 0 1 .5-1.3 3.6 3.6 0 0 1 1.1 1 3.5 3.5 0 0 1 .3 1.4z"/><path fill="#fff" d="M36.5 59.2c3.1.8 6.1 1.8 9.1 2.3a77.5 77.5 0 0 0 14.3 1.7c4.5-.1 9.1.7 13.6 1h12.1c3.4-.1 6.9-.5 10.3-.5a109.5 109.5 0 0 0 20.6-2.6c3.2-.6 6.4-.9 9.5-1.3l2.1-.5c0 .3.2.6.1.9-.5 2.8 1 5.1 2.5 7.2a31.3 31.3 0 0 1 4.2 7.6 44.4 44.4 0 0 0 3 5.7 30.1 30.1 0 0 1 4.3 10.7 55.3 55.3 0 0 1 0 9.1c0 3.4-.3 6.8-.3 10.2a43.8 43.8 0 0 0 .4 5c.1 3.7.4 7.5.4 11.2s-.3 4.5-.2 6.7c.2 4.7.8 9.3.9 13.9.2 6.4.1 12.8.1 19.2v9.9c0 5.5.1 10.9 0 16.3s-.5 11.4-.6 17c-.1 3 .2 5.9.2 8.9 0 7 0 14-.2 21-.1 3.6-.8 7.3-1.2 10.9s-.7 6.6-1.1 9.9a11.4 11.4 0 0 1-.9 3 2.9 2.9 0 0 1-1.1 1.1l-5.1 4.9a14.5 14.5 0 0 1-7 3.5c-3.6.9-7.2 2.1-10.9 2.9a106.3 106.3 0 0 1-28.2 2.6L63 277c-2.3-.1-4.7-.1-7 0a28.4 28.4 0 0 1-7.2-1c-3-.7-6.1-.9-9.1-1.7a24.5 24.5 0 0 1-12.8-7.6 26.5 26.5 0 0 1-2.4-4 13.1 13.1 0 0 1-1.7-6.7c-.3-5.7-.5-11.4-.8-17.2-.1-2.1-.4-4.2-.4-6.3.1-4.8.4-9.6.5-14.4s.1-11.6.2-17.4c0-1.4-.3-2.8-.3-4.2.1-5.7.3-11.4.4-17.1 0-1.5-.2-2.9-.2-4.4-.1-3.1 0-6.2 0-9.3 0-.9.1-1.8.1-2.6-.2-9-.3-17.9-.8-26.9-.3-5.9.4-11.8.9-17.7a107.3 107.3 0 0 0-.3-11.3 59.8 59.8 0 0 1 .6-12.7c.2-2.2.4-4.4.8-6.5s1.2-4.8 2-7.2a19.5 19.5 0 0 1 5.6-8.5c3.7-3.6 5.2-7.9 5.4-13.1zm-9.3 91.7a1.5 1.5 0 0 0-.3.6c0 3.2-.1 6.4 0 9.5s.8 7.1.9 10.6c0 5.8-.2 11.5-.5 17.3-.2 4.1-.6 8.2-1 12.4s-.7 10.1-1.1 15.1c-.3 2.9-.6 5.9-.7 8.8s.1 8.4.4 12.6.7 7.1 1 10.7.3 6.2 1.6 9.1c2.3 5.3 6.5 8.6 11.6 11h.7l-3-2c-5.5-3.8-8.9-8.8-9.3-15.6-.2-4.1-.6-8.1-1.2-12.2-1-6.2-.7-12.4-.3-18.6.3-3.3.6-6.6.8-9.9s.4-6.3.6-9.4l.9-10.5c.2-3.6.5-7.3.5-10.9s-.1-8.4-.3-12.6c-.1-2.6-.5-5.2-.7-7.8s-.4-5.3-.6-8.2zm109.4-57.5h-.3a4.5 4.5 0 0 0 .1 1.1 64.2 64.2 0 0 1 1 7.5c.4 7 .8 14.1.9 21.2.1 3.8-.3 7.6-.5 11.3s-.6 6.1-.8 9.1 0 4.9 0 7.4l-.9 38.1a3.6 3.6 0 0 0 .1 1.4l.3-.6c.4-4.3 1-8.7 1.2-13 .3-7.8.3-15.6.5-23.5.1-4.9.1-9.7.3-14.6s.7-10.3.7-15.4-.5-11-.8-16.4c-.1-3.1-.4-6.3-.7-9.4a30.1 30.1 0 0 0-1.1-4.2zm1.7 109.7c0 .4-.1.7-.1 1.1.2 2.6.4 5.1.4 7.6a185.7 185.7 0 0 1-1.3 23.6c-.7 5.2-1.3 10.5-2.9 15.6s-3.1 10.3-6.1 14.8c-.1 0 .1.2.2.5a28.9 28.9 0 0 0 2.7-3.7A60 60 0 0 0 137 247c2-9.5 2.5-19 2.7-28.6 0-5.1 0-10.3-1.4-15.3zM49.8 273v.4a24.7 24.7 0 0 0 3.6 1.1c3.3.5 6.6 1 9.9 1.2a29.3 29.3 0 0 0 6.6-.4 73 73 0 0 1 14-1.3l20.2.3h2.3a22.7 22.7 0 0 0 14.8-3.5l1.2-.9a1.1 1.1 0 0 0-1 .2 21.4 21.4 0 0 1-11.8 3.4l-14.2-.3h-3.8a93 93 0 0 0-16.7.4c-4.5.7-8.9 1.8-13.5 1.2l-7.6-1zM29.6 83c-.1.1-.3.3-.3.4a110.7 110.7 0 0 0-2.2 16.2l-.3 5.3-.9 13.6-.9 11.7c-.2 2.2-.4 4.4-.5 6.5 0 .1.1.2.3.5 2.4-18.2 1.9-36.3 4.8-54.2zm102.1-1.1l.3-.2-2.1-4.5c-2-4.1-4.5-8.1-4-13.1a4.9 4.9 0 0 0-.5 4.2 91.1 91.1 0 0 0 3.5 8.6 49.1 49.1 0 0 0 2.8 5zM38.1 62.2a6.8 6.8 0 0 1-.9 5.7c-.6 1-1.1 2.1-1.6 3.1l-1.4 2.6h.5c1.3-2.4 2.8-4.8 4-7.3a4.1 4.1 0 0 0-.6-4.1zM33.9 28l1.2.6c-.9 2.3-.8 3 .2 3.7l.5-3.4.4-.2a1.9 1.9 0 0 1 .5 1v5.2h.3c.2-1.8.3-3.7.4-5.5.9-.1 1 .3 1 1s.1 2.1.2 3.1h.6l.2-3.7 7.7 2c.1 1.2-.5 2.6.5 3.9l.6-4h.3l.3 2.8h.4l.5-2.7.3-.2c.2.3.6.6.6 1s.2 2 .3 3a6.1 6.1 0 0 0 .3 1.1h.3c.1-1.6.3-3.1.4-4.7h.9c.5.9-.3 2.2.8 3.2l.2-3.1h.5c.1.8.3 1.6.4 2.4h.4v-2.3h1.2c.2 1.7-.2 3.5.6 5h.4l.3-4.9h12.7c-.5 1.8-.3 2.8.6 3.2l.3-3.4 1.6 3.7h.4c-.1-1.1-.3-2.1-.4-3.1h15.7c-.5 2.6-.3 4.4.6 4.8l.4-4.7h.4l.6 3.7h.4v-3.8h1.9v6.6h.4c.2-2.2.4-4.4.7-6.6l9.8-.6v5.5h.4c.2-.9.4-1.8.5-2.6a28 28 0 0 0 0-2.9h1.1l.2 3.2c1-1-.1-2.8 1.6-3.4l.5 2.6h.3l.4-2.5h.8l.6 6.2c0 .2.3.2.9.5v-7h.5l.2 4.1h.5c.1-1.4.3-2.8.5-4.2h.3l.3 4.9h.6c.1-1.6.3-3.2.4-4.9h4.6c.4 1.2-.8 2.7.7 3.8.2-1.2.4-2.2.6-3.2s.4-.5.8-.7c0 1.7-.4 3.3.7 4.8a26.4 26.4 0 0 1 .2-2.8c.1-.8-.2-1.8 1.2-2.4v3.7h.5c.1-1.2.3-2.4.5-3.7h.4l.5 3.7h.4c.1-1.2.1-2.5.2-3.8l4.5-1.5c.1 1.8.2 3.6.2 5.4a1.8 1.8 0 0 1-.9 1.2l-5.6 1.7a84.2 84.2 0 0 1-15.8 1.8c-5.2.4-10.4.9-15.7 1.2s-8.9.2-13.4.2-8.9.3-13.4.3L54.6 41l-10.1-.4-9.8-.8c-.4 0-.9-.4-.9-.7-.3-2.9-.6-5.8-.7-8.7a8.5 8.5 0 0 1 .8-2.4z"/><path fill="#fff" d="M101 41.5v1.8H72.8l-9.9.2a5.3 5.3 0 0 0-1.2.3v.3h1.6c3.1.3 6.1.6 9.2.7h27.6a1.9 1.9 0 0 1 1.2.4 3.7 3.7 0 0 1 1.4-.4l14.4-.2a1.5 1.5 0 0 1 .8.3l2.9-.6 10.4-1.6c-.2 1.3.8 2.2 2.3 2.5v.5a22.6 22.6 0 0 1-3.7 1.1 146.8 146.8 0 0 1-26.5 2.5H82c-2.8 0-5.7.2-8.6.1s-8.3-.7-12.4-1.1h-3.9L44.5 48c-1.3-.1-2.7-.7-4-.9s-5.1-.5-7.6-.8a4 4 0 0 1-1.1 0c-.5-.1-1.1-.2-1.3-.5s.2-.9.4-1.3l1.8-3a1.6 1.6 0 0 1 1.6-1l10 1 4.6.3c5.9.2 11.9.6 17.8.6 9.3 0 18.6-.2 28-.4zm-61.1 4.8c.7-1 .9-3.7.3-4.6s-.9-.5-1.3.1.2 3.8 1 4.5zm4.5-.2h.5c0-1 .1-2 0-3s-.5-.5-.8-.7-.6.6-.6.8a26.3 26.3 0 0 0 .9 2.9zm-9.8-18.9l4.6-1c3.6-.5 7.1-1.2 10.7-1.6a109.5 109.5 0 0 1 19-.5 191 191 0 0 0 21.4.3c5-.2 10 .1 15 .2h3.1a58.5 58.5 0 0 1 12.6 1.2c2.8.5 5.5 1.2 8.2 1.8l.5.2v.4a46.6 46.6 0 0 1-6.2 1.5c-3 .3-6 .2-9 .4l-6.2.4-6.6.4-15.7.4h-3.4c-7.4-.1-14.9 0-22.3-.2-5.2-.1-10.5-.3-15.6-.9a86.4 86.4 0 0 1-10-2.6zm13.1.5l.9.4c2.9.2 5.8.6 8.7.7l15.2.3c4.1 0 8.2.1 12.2.3s8.5.7 12.7.8 7.5-.2 11.2-.4 5.7-.7 8.5-1a3.3 3.3 0 0 0 1-.6c-.4-.2-.7-.6-1-.6-3.1-.3-6.2-.8-9.4-.8-4.8-.1-9.6.1-14.5.1a44.3 44.3 0 0 1-5.1-.6A66.3 66.3 0 0 0 72.7 25h-.3l4.4.6 9.6 1c3.7.4 7.4.9 11.1 1s9.4-.1 14.1-.1a14.5 14.5 0 0 1 2.9.4q-.1.3-.3.3c-5.1.2-10.1.7-15.1.7s-10.7-.5-16.1-.6-10.3.2-15.5.1-9.1-.4-13.7-.7l-4.2-.4V27l6.4-.6c-1-1.4-6.8-.7-8.3 1.3z"/><path fill="#fff" d="M128.8 49.5v3l-15.1 2.9c-3 .6-6 1-9 1.3l-5.6.4c-5.7.2-11.4.6-17.2.6a135.3 135.3 0 0 1-14.2-.9c-6.4-.7-12.9-1.6-19.3-2.6-2.3-.4-4.5-1.3-6.7-1.9s-4.3-.8-6.7-1.2l-.2-3.8a46.9 46.9 0 0 1 6.9 1.3 36 36 0 0 0 11.2 1.5 148.6 148.6 0 0 1 18.8 1.4h1.2l25.9.2c5.6 0 11.2-.1 16.7-.5s8.5-1.2 12.7-1.8zm-13.2 4.1v-.3h-1.2c-3.5.3-6.9.7-10.4.9-5.1.3-10.2.6-15.2.7a86.4 86.4 0 0 1-8.8-.4L65.3 53c-3.9-.3-7.8-.7-11.8-.9a45.5 45.5 0 0 1-10.4-1.2l-1.8-.2v.4l.8.3a78.7 78.7 0 0 0 12 1.5c5.7.3 11.3 1 17 1.6s8.7 1 13.1 1.2 10.2.2 15.3-.1 8.6-1.1 12.9-1.6z"/><path fill="#fff" d="M132.8 55.8a81.2 81.2 0 0 1-8.1 2.2c-5.1 1-10.2 1.8-15.3 2.5-3.5.5-7.1.9-10.7 1.1-6.4.4-12.7.7-19.1.8-4 0-7.9-.6-11.8-.9S62.6 61 60 61a69.7 69.7 0 0 1-17-2.4l-11-2.8c0-.2-.1-.5-.1-.7s.1-1.8.6-2.4 1.5-.1 2.2-.1a24.4 24.4 0 0 1 9.6 1.8A67.7 67.7 0 0 0 59 57.6l12.1 1.3a125.3 125.3 0 0 0 18.4.5l13.4-.6c3.5-.3 7.1-.7 10.6-1.3 5.5-1 11-2.2 16.5-3.4 1.7-.4 2.1-.2 2.8 1.7zm-13.7-12.9a3.5 3.5 0 0 0-.3-1.3 3.6 3.6 0 0 0-1.1-1 6.9 6.9 0 0 0-.5 1.3c-.1.5.5 1.2-.6 1a8.6 8.6 0 0 0 0-1.6c-.1-.3-.4-.5-.6-.8a3.2 3.2 0 0 0-.3.9c0 .3.2.6.2.8s-.4.6-.5.9h-.4l-.4-1.9h-.3v2.1H102l-.5-1.8c9.6-.5 19-1 28.2-3.8l1 4.2z"/><path d="M27.2 150.9c.2 2.9.4 5.5.6 8.1s.6 5.2.7 7.8c.2 4.2.4 8.4.3 12.6s-.3 7.3-.5 10.9l-.9 10.5c-.2 3.1-.3 6.3-.6 9.4s-.5 6.6-.8 9.9c-.4 6.2-.7 12.4.3 18.6.6 4.1 1 8.1 1.2 12.2.4 6.8 3.8 11.8 9.3 15.6l3 2h-.7c-5.1-2.4-9.3-5.7-11.6-11-1.3-2.9-1.4-6-1.6-9.1s-.8-7.1-1-10.7-.4-8.4-.4-12.6.4-5.9.7-8.8c.4-5 .7-10.1 1.1-15.1s.8-8.3 1-12.4c.3-5.8.5-11.5.5-17.3-.1-3.5-.7-7-.9-10.6s0-6.3 0-9.5a1.5 1.5 0 0 1 .3-.5zm109.4-57.5a30.1 30.1 0 0 1 1.1 4.3c.3 3.1.6 6.3.7 9.4.3 5.4.7 10.9.8 16.4s-.5 10.3-.7 15.4-.2 9.7-.3 14.6c-.2 7.9-.2 15.7-.5 23.5-.2 4.3-.8 8.7-1.2 13l-.3.6a3.6 3.6 0 0 1-.1-1.4l.9-38.1c0-2.5-.1-4.9 0-7.4s.6-6 .8-9.1.6-7.5.5-11.3c-.1-7.1-.5-14.2-.9-21.2a64.2 64.2 0 0 0-1-7.5 4.5 4.5 0 0 1-.1-1.1zm1.7 109.7c1.4 5 1.4 10.2 1.4 15.3-.2 9.6-.7 19.1-2.7 28.6a60 60 0 0 1-5.8 15.6 28.9 28.9 0 0 1-2.7 3.7c-.1-.3-.3-.5-.2-.5 3-4.5 4.4-9.7 6.1-14.8s2.2-10.4 2.9-15.6a185.7 185.7 0 0 0 1.3-23.6c0-2.5-.2-5-.4-7.6 0-.4.1-.7.1-1.1zM49.8 273l4 .8 7.6 1c4.6.6 9-.5 13.5-1.2a93 93 0 0 1 16.7-.4h3.8l14.2.3a21.4 21.4 0 0 0 11.8-3.4 1.1 1.1 0 0 1 1-.2l-1.2.9a22.7 22.7 0 0 1-14.8 3.5h-2.3l-20.2-.3a73 73 0 0 0-14 1.3 29.3 29.3 0 0 1-6.6.4c-3.3-.2-6.6-.7-9.9-1.2a24.7 24.7 0 0 1-3.6-1.1zM29.6 83c-2.9 17.9-2.4 36-4.8 54.2-.2-.3-.3-.4-.3-.5.1-2.1.3-4.3.5-6.5l.9-11.7.9-13.6.3-5.3a110.7 110.7 0 0 1 2.2-16.2c0-.1.2-.3.3-.4zm102.1-1.1a49.1 49.1 0 0 1-2.8-5 91.1 91.1 0 0 1-3.5-8.6 4.9 4.9 0 0 1 .5-4.2c-.5 5 2 9 4 13.1l2.1 4.5zM38.1 62.2a4.1 4.1 0 0 1 .6 4.1c-1.2 2.5-2.7 4.9-4 7.3h-.5l1.4-2.6c.5-1 1-2.1 1.6-3.1a6.8 6.8 0 0 0 .9-5.7zm1.8-15.9c-.8-.7-1.5-3.8-1-4.5s.9-.6 1.3-.1.4 3.6-.3 4.6zm4.5-.2a26.3 26.3 0 0 1-.9-3c0-.2.4-.5.6-.8s.8.4.8.7v3zm3.3-18.4c1.5-2 7.3-2.7 8.3-1.3l-6.4.6v.4l4.2.4c4.6.3 9.1.6 13.7.7s10.3-.2 15.5-.1 10.7.6 16.1.6 10-.5 15.1-.7q.1 0 .3-.3a14.5 14.5 0 0 0-2.9-.4c-4.7 0-9.4.3-14.1.1s-7.4-.6-11.1-1l-9.6-1-4.4-.6h.3a66.3 66.3 0 0 1 15.4 1.3 44.3 44.3 0 0 0 5.1.6c4.9 0 9.7-.2 14.5-.1 3.2 0 6.3.5 9.4.8.3 0 .6.4 1 .6a3.3 3.3 0 0 1-1 .6c-2.8.3-5.6.8-8.5 1s-7.5.5-11.2.4-8.4-.6-12.7-.8-8.1-.3-12.2-.3l-15.2-.3c-2.9-.1-5.8-.5-8.7-.7zm67.9 25.9l-3.2.4c-4.3.5-8.6 1.3-12.9 1.6s-10.2.3-15.3.1-8.8-.8-13.1-1.2-11.3-1.3-17-1.6a78.7 78.7 0 0 1-12-1.5l-.8-.3v-.4l1.8.2a45.5 45.5 0 0 0 10.4 1.2c4 .2 7.9.6 11.8.9L80 54.5a86.4 86.4 0 0 0 8.8.4c5-.1 10.1-.4 15.2-.7 3.5-.2 6.9-.6 10.4-.9h1.2z"/></symbol><symbol id="back" viewBox="0 0 174.6 218.8"><path fill="#fff" d="M57.6 99.7l40.2-25.6 63.4-40.8a10.4 10.4 0 0 1 1.6-.6l2-.9a6.6 6.6 0 0 0-1.2-2.2c-1.5-1-3.2-1.9-4.7-2.8L128.9 9c-1.4-.9-2.8-2-3.9.5l-.3.3-51.4 41.7-44.4 36.2L13 100.6c-1.1.8-1.9 1.7-.8 3s3.5 5 5.4 7.4l45 54.1q18.5 22.2 37.1 44.3c.2.2.5.4.5.6-.1 2.6 1.2 1.2 2 .7l21.5-16.3 11.3-8.8c.8-.6 1.6-1.3.8-2.4l-4.3-4.8-66.2-70.3c-2.6-2.7-5.1-5.5-7.7-8.4z"/><path d="M57.6 99.7c2.6 2.9 5.1 5.7 7.7 8.4l66.2 70.3 4.3 4.8c.8 1.1 0 1.8-.8 2.4l-11.3 8.8-21.5 16.3c-.8.5-2.1 1.9-2-.7 0-.2-.3-.4-.5-.6q-18.6-22.1-37.1-44.3l-45-54.1c-1.9-2.4-3.6-4.9-5.4-7.4s-.3-2.2.8-3l15.9-12.9 44.4-36.2 51.4-41.7.3-.3c1.1-2.5 2.5-1.4 3.9-.5l30 17.8c1.5.9 3.2 1.8 4.7 2.8a6.6 6.6 0 0 1 1.2 2.2l-2 .9a10.4 10.4 0 0 0-1.6.6L97.8 74.1zm69.3-89.2L14.6 102.9 102.8 208l30.2-24.4c-6-6.2-11.9-12.3-17.7-18.5l-60.2-63.4a4.3 4.3 0 0 1-.9-1c-.2-.6-.4-1.4-.1-1.8s1.1-.5 1.7-.7a10.9 10.9 0 0 0 1.7-.5C68.7 90.3 79.8 82.8 91 75.5q33.1-21.9 66.5-43.6l1.8-1.3z"/><path fill="#fff" d="M126.9 10.5l32.4 20.1-1.8 1.3Q124.2 53.7 91 75.5c-11.2 7.3-22.3 14.8-33.5 22.2a10.9 10.9 0 0 1-1.7.5c-.6.2-1.5.3-1.7.7s-.1 1.2.1 1.8a4.3 4.3 0 0 0 .9 1l60.2 63.4c5.8 6.2 11.7 12.3 17.7 18.5L102.8 208 14.6 102.9z"/></symbol><symbol id="search" viewBox="0 0 149.3 178.9"><path fill="#fff" d="M89.1 104.9l.9-.6a41.4 41.4 0 0 0 15.9-18.7c5.4-12.5 5.3-25.1.9-37.8a55.6 55.6 0 0 0-7.6-14.2 53.1 53.1 0 0 0-16.7-15A43.6 43.6 0 0 0 66.9 13c-7.2-1.1-14.2-1.1-21.2 1a39.7 39.7 0 0 0-12.8 6.5 43.3 43.3 0 0 0-16.2 26.2c-2.4 11.4-.7 22.3 4 32.8A53.9 53.9 0 0 0 28 91.1a54.3 54.3 0 0 0 14.6 12.8 47.3 47.3 0 0 0 31.4 6.4l3.2-.6a6.4 6.4 0 0 1-.2.7 5.3 5.3 0 0 0-.1 4.1 16 16 0 0 0 1.3 3 6 6 0 0 1 .7 5.2c0 .2-.1.4-.1.6a6 6 0 0 0 1.5 4.6 4.4 4.4 0 0 1 .9 1.8l2.4 10.1c.4 1.8 1.2 3.6.9 5.7a2.5 2.5 0 0 0 1.1 2.2l.6.6c2.2 4.9 5.7 8.8 9.6 12.3a5.2 5.2 0 0 1 1.2 1.7c.7 1.2 1.4 2.4 3 2.6l1 .5c1.5 1 3 2.1 4.6 3a16.9 16.9 0 0 0 10 2.6 7.7 7.7 0 0 0 6.7-4 4.2 4.2 0 0 0 .5-2.4 18.5 18.5 0 0 0-1.8-4.4c-1.4-2.2-3.1-4.4-4.7-6.6a3.6 3.6 0 0 1-.4-1.1c-.4-1.8-1.1-3.3-3-3.9a1.4 1.4 0 0 1-.7-.6c-.7-1.8-1.5-3.5-2.1-5.3s-.7-2.8-1.2-4.1a27.3 27.3 0 0 1-2-6.9c-.5-2.5-1.1-4.9-1.7-7.4a4.1 4.1 0 0 1 0-1.9 3.8 3.8 0 0 0-1.8-4.7 1.6 1.6 0 0 1-1.1-1 19.9 19.9 0 0 0-9.2-10c-1.3-.7-2.6-1.2-4-1.8z"/><path d="M89.1 104.9c1.4.6 2.7 1.1 4 1.8a19.9 19.9 0 0 1 9.2 10 1.6 1.6 0 0 0 1.1 1 3.8 3.8 0 0 1 1.8 4.7 4.1 4.1 0 0 0 0 1.9c.6 2.5 1.2 4.9 1.7 7.4a27.3 27.3 0 0 0 2 6.9c.5 1.3.7 2.7 1.2 4.1s1.4 3.5 2.1 5.3a1.4 1.4 0 0 0 .7.6c1.9.6 2.6 2.1 3 3.9a3.6 3.6 0 0 0 .4 1.1c1.6 2.2 3.3 4.4 4.7 6.6a18.5 18.5 0 0 1 1.8 4.4 4.2 4.2 0 0 1-.5 2.4 7.7 7.7 0 0 1-6.7 4 16.9 16.9 0 0 1-10-2.6c-1.6-.9-3.1-2-4.6-3l-1-.5c-1.6-.2-2.3-1.4-3-2.6a5.2 5.2 0 0 0-1.2-1.7c-3.9-3.5-7.4-7.4-9.6-12.3l-.6-.6a2.5 2.5 0 0 1-1.1-2.2c.3-2.1-.5-3.9-.9-5.7l-2.4-10.1a4.4 4.4 0 0 0-.9-1.8 6 6 0 0 1-1.5-4.6c0-.2.1-.4.1-.6a6 6 0 0 0-.7-5.2 16 16 0 0 1-1.3-3 5.3 5.3 0 0 1 .1-4.1 6.4 6.4 0 0 0 .2-.7l-3.2.6a47.3 47.3 0 0 1-31.4-6.4A54.3 54.3 0 0 1 28 91.1a53.9 53.9 0 0 1-7.3-11.6c-4.7-10.5-6.4-21.4-4-32.8a43.3 43.3 0 0 1 16.2-26.2A39.7 39.7 0 0 1 45.7 14c7-2.1 14-2.1 21.2-1a43.6 43.6 0 0 1 15.6 5.6 53.1 53.1 0 0 1 16.7 15 55.6 55.6 0 0 1 7.6 14.2c4.4 12.7 4.5 25.3-.9 37.8A41.4 41.4 0 0 1 90 104.3zm19.4-35.1c.1-12.5-2.5-22.3-7.5-30.6a56.7 56.7 0 0 0-11.8-14 51.9 51.9 0 0 0-22.6-11.3A38.8 38.8 0 0 0 45.5 15a39.3 39.3 0 0 0-13.3 7.3 42.2 42.2 0 0 0-14.8 26.1A51.2 51.2 0 0 0 21 77.3a49.9 49.9 0 0 0 7.8 13.1 53.6 53.6 0 0 0 13.8 12.2c10.4 6.2 21.4 8.6 33.4 6.3a6.5 6.5 0 0 0 3.7-2 7 7 0 0 1 6.4-2.4 3 3 0 0 0 2.1-.4 38.1 38.1 0 0 0 9.7-8.2c7.3-8.5 10.5-18.4 10.6-26.1zm5.9 100.3c3 0 5.5-.9 6.9-3.5a2.1 2.1 0 0 0 .3-1.7 19.6 19.6 0 0 0-1.9-4.5c-1.3-2-2.9-3.9-4.3-5.9a3.1 3.1 0 0 1-.7-1.8 3.5 3.5 0 0 0-2.2-3 5.7 5.7 0 0 1-2.4-2.7c-1.8-4.3-3.6-8.7-4.3-13.4a54.6 54.6 0 0 0-2.2-9.9 1.1 1.1 0 0 1 .1-.8c.5-1.7.5-3.2-1.4-4.2a2.8 2.8 0 0 1-1.2-1.4 18.9 18.9 0 0 0-4.1-6c-2.6-2.4-5.4-4.5-9.1-5.1a3.5 3.5 0 0 0-1.7.2c-1.8.7-3.5 1.6-5.3 2.2a3.8 3.8 0 0 0-2.6 2.5c-.9 1.8-.1 3.3.7 4.9s1.6 3.8 1 6a5.9 5.9 0 0 0 1.2 5.4 4.8 4.8 0 0 1 .9 1.9c1 3.5 1.8 7 2.7 10.6l.9 3.3c0 .3-.1.6-.1.9s-.3 2 .5 2.6a7.4 7.4 0 0 1 1.9 2.7 8.8 8.8 0 0 0 1.2 2.1 42.5 42.5 0 0 0 7.4 8.4 7.5 7.5 0 0 1 1.5 2 4.6 4.6 0 0 0 2.7 2.4 3.4 3.4 0 0 1 1.2.6l3.9 2.6a18.7 18.7 0 0 0 8.5 2.6zM84 106.2v-.2l-2.3 1v.2z"/><path fill="#fff" d="M108.5 69.8c-.1 7.7-3.3 17.6-10.6 26.1a38.1 38.1 0 0 1-9.7 8.2 3 3 0 0 1-2.1.4 7 7 0 0 0-6.4 2.4 6.5 6.5 0 0 1-3.7 2c-12 2.3-23-.1-33.4-6.3a53.6 53.6 0 0 1-13.8-12.2A49.9 49.9 0 0 1 21 77.3a51.2 51.2 0 0 1-3.6-28.9 42.2 42.2 0 0 1 14.8-26.1A39.3 39.3 0 0 1 45.5 15a38.8 38.8 0 0 1 21.1-1.1 51.9 51.9 0 0 1 22.6 11.3 56.7 56.7 0 0 1 11.8 14c5 8.3 7.6 18.1 7.5 30.6zm-6.5-.2a49.9 49.9 0 0 0-11.8-31.9c-6.6-7.6-14.4-13.4-24.7-15.1-1.5-.2-2.9-.5-4.4-.6a31.3 31.3 0 0 0-20.9 5 33.4 33.4 0 0 0-14.1 20.1c-3 11-1.5 21.5 3 31.8a45.1 45.1 0 0 0 6.2 10 45.8 45.8 0 0 0 20 15 35 35 0 0 0 24.1.5 31.5 31.5 0 0 0 15-10.9c5.3-7.1 7.5-15.2 7.6-23.9zm12.4 100.5a18.7 18.7 0 0 1-8.5-2.6l-3.9-2.6a3.4 3.4 0 0 0-1.2-.6 4.6 4.6 0 0 1-2.7-2.4 7.5 7.5 0 0 0-1.5-2 42.5 42.5 0 0 1-7.4-8.4 8.8 8.8 0 0 1-1.2-2.1 7.4 7.4 0 0 0-1.9-2.7c-.8-.6-.6-1.7-.5-2.6s.1-.6.1-.9l-.9-3.3c-.9-3.6-1.7-7.1-2.7-10.6a4.8 4.8 0 0 0-.9-1.9A5.9 5.9 0 0 1 80 122c.6-2.2-.1-4.1-1-6s-1.6-3.1-.7-4.9a3.8 3.8 0 0 1 2.6-2.5c1.8-.6 3.5-1.5 5.3-2.2a3.5 3.5 0 0 1 1.7-.2c3.7.6 6.5 2.7 9.1 5.1a18.9 18.9 0 0 1 4.1 6 2.8 2.8 0 0 0 1.2 1.4c1.9 1 1.9 2.5 1.4 4.2a1.1 1.1 0 0 0-.1.8 54.6 54.6 0 0 1 2.2 9.9c.7 4.7 2.5 9.1 4.3 13.4a5.7 5.7 0 0 0 2.4 2.7 3.5 3.5 0 0 1 2.2 3 3.1 3.1 0 0 0 .7 1.8c1.4 2 3 3.9 4.3 5.9a19.6 19.6 0 0 1 1.9 4.5 2.1 2.1 0 0 1-.3 1.7c-1.4 2.6-3.9 3.5-6.9 3.5zm-26.6-52.7l-.5.4a16.5 16.5 0 0 1 2.2 6.8c.4 2.3 1 4.7.3 7.1a19.4 19.4 0 0 0-.2 2.4c0 2.1 1.4 3.2 3.1 4a5.3 5.3 0 0 0-1.2-1.4 3.4 3.4 0 0 1-1.1-2.5c0-.6.1-1.2.1-1.8a18.4 18.4 0 0 0 .3-3.3c-.2-2-.6-4-.9-6a14.8 14.8 0 0 0-1.7-5 2.5 2.5 0 0 1-.4-.7zm-3.3 9.1h-.3c.2 1 .3 2 .5 2.9l1.8 9a18.1 18.1 0 0 0 3.2 7.9l.6.7c0-.3.1-.4 0-.4a.8.8 0 0 0-.2-.5 20.5 20.5 0 0 1-2.7-6.7c-.8-4-1.7-8-2.5-12zm32.8 39.3l.2-.2v-.2c-1.1-1.8-2.3-3.7-3.6-5.5a12.6 12.6 0 0 0-2.2-2.4 2.2 2.2 0 0 1-.9-1.4 17.7 17.7 0 0 0-.8-3.1c-.4-1-1-1.9-1.4-2.9h-.3a5 5 0 0 0 .4 1.3 13.9 13.9 0 0 1 1.5 5 3.1 3.1 0 0 0 .9 1.4 16.2 16.2 0 0 1 1.9 1.8c1.3 1.7 2.4 3.5 3.6 5.2zm-17-35.1h-.2a3 3 0 0 0 .5 2.7 9.8 9.8 0 0 1 1.3 2.2c1 2.4 1.8 4.8 2.8 7.2a5.4 5.4 0 0 0 .5 1.1c.2-.2.3-.3.2-.4l-2.1-6.3a31.4 31.4 0 0 0-1.8-3.7 5.3 5.3 0 0 1-1.1-2.4.6.6 0 0 0-.1-.4zm-6 11.9H94a.6.6 0 0 0 .1.4 28.1 28.1 0 0 1 1.8 6.9 13.4 13.4 0 0 0 .9 2.6 2.2 2.2 0 0 0 2.1 1.2c-1.6-.9-2-2.4-2.3-4s-.8-3.4-1.3-5a8.8 8.8 0 0 0-1-2.1zm3.2-27.2c-.1-.2-.1-.4-.2-.5s-1.9-2.8-2.9-4.1a7.1 7.1 0 0 0-3.8-2.5h-.9v.3c3.6 1.1 5.2 4.4 7.8 6.8zm-6.3 36.4h.2c-1.2-2.3-2.3-4.6-3.4-6.8h-.3a24.4 24.4 0 0 0 3.5 6.8zm11.5 5.5c-.4.8.3 1.6 1.4 2s1.5-.2 1.8-1.1c-1.3.7-1.3.7-3.2-.9zm-9.3-4.7c-.2.3-.4.5-.4.8a1.6 1.6 0 0 0 1.3 1.5 1.2 1.2 0 0 0 1.3-1c-1.7.3-1.7.3-2.2-1.3zm-5.9-23.4h-.3a3.4 3.4 0 0 0 0 1 1.3 1.3 0 0 0 1.5.9 1.3 1.3 0 0 0 1.1-1.2c-1.5.8-1.5.8-2.3-.7zm7.5-11a.4.4 0 0 0-.1.3c-.3 1.1-.4 1.1-1.4.8H93a.9.9 0 0 1 .1.5 1.3 1.3 0 0 0 1.7.2c.6-.3.7-1 .2-1.8zm-9.2 4.1h-.3l-.3.5c-.4.6-.7.7-1.3.2l-.8-.3a3.6 3.6 0 0 1 .4.9l.6.3a2.5 2.5 0 0 0 1.3-.5c.3-.3.2-.8.4-1.1zm26.5 43.5c-.5.1-1.1.5-1.5.3s-.9-.6-1.4-1a1.6 1.6 0 0 0 1.2 1.7 1.4 1.4 0 0 0 1.7-1zm-12-46.9l-.3.2a9.1 9.1 0 0 0 1.5 3.7h.3zm-17.8-5.1h-.3c0 .4-.2.8 0 1.1a2.3 2.3 0 0 0 1.1 1.1c.2.1.7-.2 1.1-.3v-.3c-1.6.6-1.5-.8-1.9-1.6zM96 128.9l-.7 1.4-1.1-.7H94c.1.3.2.8.5 1a1.4 1.4 0 0 0 1.1.1 1.5 1.5 0 0 0 .4-1.8zm6.9 17.2c-1.2.3-1.9-.6-2.7-1.1s.5 1.1 1.1 1.4a1.1 1.1 0 0 0 1.6-.3zm15.8 15.9l-.4-.2h-.6c.1.2.2.6.3.6a2.7 2.7 0 0 0 1.3-.2c.4-.3.2-.8-.3-1.3a1.1 1.1 0 0 1-.1.6zM84 106.2l-2.2 1v-.2l2.3-1z"/><path d="M102 69.6c-.1 8.7-2.3 16.8-7.6 23.9a31.5 31.5 0 0 1-15 10.9 35 35 0 0 1-24.1-.5 45.8 45.8 0 0 1-20-15 45.1 45.1 0 0 1-6.2-10c-4.5-10.3-6-20.8-3-31.8A33.4 33.4 0 0 1 40.2 27a31.3 31.3 0 0 1 20.9-5c1.5.1 2.9.4 4.4.6 10.3 1.7 18.1 7.5 24.7 15.1A49.9 49.9 0 0 1 102 69.6zM25.4 58.7A48.3 48.3 0 0 0 33 84a48.3 48.3 0 0 0 10.5 12c7.1 5.7 15.2 9.2 24.5 9.4a30.1 30.1 0 0 0 19.2-6.2c8.7-6.7 12.7-15.8 13.5-26.4A46.6 46.6 0 0 0 95 47a50.6 50.6 0 0 0-11.4-14.2 41.9 41.9 0 0 0-19.3-9.6 30.6 30.6 0 0 0-21.9 3.5 31.7 31.7 0 0 0-11.5 11.2c-3.8 6.2-5.4 13.1-5.5 20.8zm62.4 58.7a2.5 2.5 0 0 0 .4.7 14.8 14.8 0 0 1 1.7 5c.3 2 .7 4 .9 6a18.4 18.4 0 0 1-.3 3.3c0 .6-.1 1.2-.1 1.8a3.4 3.4 0 0 0 1.1 2.5 5.3 5.3 0 0 1 1.2 1.4c-1.7-.8-3.1-1.9-3.1-4a19.4 19.4 0 0 1 .2-2.4c.7-2.4.1-4.8-.3-7.1a16.5 16.5 0 0 0-2.2-6.8zm-3.3 9.1l.4.9c.8 4 1.7 8 2.5 12a20.5 20.5 0 0 0 2.7 6.7.8.8 0 0 1 .2.5c.1 0 0 .1 0 .4l-.6-.7a18.1 18.1 0 0 1-3.2-7.9l-1.8-9c-.2-.9-.3-1.9-.5-2.9zm32.8 39.3l-.8-.9c-1.2-1.7-2.3-3.5-3.6-5.2a16.2 16.2 0 0 0-1.9-1.8 3.1 3.1 0 0 1-.9-1.4 13.9 13.9 0 0 0-1.5-5 5 5 0 0 1-.4-1.3h.3c.4 1 1 1.9 1.4 2.9a17.7 17.7 0 0 1 .8 3.1 2.2 2.2 0 0 0 .9 1.4 12.6 12.6 0 0 1 2.2 2.4c1.3 1.8 2.5 3.7 3.6 5.5v.2zm-17-35.1a.6.6 0 0 1 .1.4 5.3 5.3 0 0 0 1.1 2.4 31.4 31.4 0 0 1 1.8 3.7l2.1 6.3c.1.1 0 .2-.2.4a5.4 5.4 0 0 1-.5-1.1c-1-2.4-1.8-4.8-2.8-7.2a9.8 9.8 0 0 0-1.3-2.2 3 3 0 0 1-.5-2.7zm-6 11.9a8.8 8.8 0 0 1 1 2.2c.5 1.6.9 3.3 1.3 5s.7 3.1 2.3 4a2.2 2.2 0 0 1-2.1-1.2 13.4 13.4 0 0 1-.9-2.6 28.1 28.1 0 0 0-1.8-6.9.6.6 0 0 1-.1-.4zm3.2-27.2c-2.6-2.4-4.2-5.7-7.9-6.8v-.3h.9a7.1 7.1 0 0 1 3.8 2.5c1 1.3 1.9 2.7 2.9 4.1s.2.3.3.5zm-6.3 36.4a24.4 24.4 0 0 1-3.5-6.8h.3c1.1 2.2 2.2 4.5 3.4 6.8zm11.5 5.5c1.9 1.6 1.9 1.6 3.2.9-.3.9-1 1.4-1.8 1.1s-1.8-1.2-1.4-2zm-9.3-4.7c.5 1.6.5 1.6 2.2 1.3a1.2 1.2 0 0 1-1.3 1 1.6 1.6 0 0 1-1.3-1.5c0-.3.2-.5.4-.8z"/><path d="M87.5 129.2c.8 1.5.8 1.5 2.3.7a1.3 1.3 0 0 1-1.1 1.2 1.3 1.3 0 0 1-1.5-.9 3.4 3.4 0 0 1 0-1zm7.5-11c.5.8.4 1.5-.2 1.9a1.3 1.3 0 0 1-1.7-.2.9.9 0 0 0-.1-.5h.5c1 .3 1.1.3 1.4-.8a.4.4 0 0 1 .1-.4zm-9.2 4.1c-.2.3-.1.8-.4 1a2.5 2.5 0 0 1-1.3.5l-.6-.3a3.6 3.6 0 0 0-.4-.9l.8.3c.6.5.9.4 1.3-.2l.3-.5zm26.5 43.5a1.4 1.4 0 0 1-1.7 1 1.6 1.6 0 0 1-1.2-1.7c.5.4.9.9 1.4 1s1-.2 1.5-.3zm-12-46.9l1.5 3.8h-.3a9.1 9.1 0 0 1-1.5-3.7zm-17.8-5.1c.4.8.3 2.2 1.9 1.6v.3c-.4.1-.9.4-1.1.3a2.3 2.3 0 0 1-1.1-1.1c-.2-.3 0-.7 0-1.1zM96 128.9a1.5 1.5 0 0 1-.4 1.9 1.4 1.4 0 0 1-1.1-.1c-.3-.2-.4-.7-.5-1h.2l1.1.7zm6.9 17.2a1.1 1.1 0 0 1-1.6.3c-.6-.3-1.1-.6-1.1-1.4s1.5 1.4 2.7 1.1zm15.8 15.9l.2-.5a1.1 1.1 0 0 0 .1-.6c.5.5.7 1 .3 1.3a2.7 2.7 0 0 1-1.3.2c-.1 0-.2-.4-.3-.6h.6z"/><path fill="#fff" d="M25.4 58.7c.1-7.7 1.7-14.6 5.5-20.8a31.7 31.7 0 0 1 11.5-11.2 30.6 30.6 0 0 1 21.9-3.5 41.9 41.9 0 0 1 19.3 9.6A50.6 50.6 0 0 1 95 47a46.6 46.6 0 0 1 5.7 25.8c-.8 10.6-4.8 19.7-13.5 26.4a30.1 30.1 0 0 1-19.2 6.2c-9.3-.2-17.4-3.7-24.5-9.4A48.3 48.3 0 0 1 33 84a48.3 48.3 0 0 1-7.6-25.3zm53-20.6l.2-.3c-.2-.1-.4-.1-.6-.3l-10-6.1c-.6-.3-1-.3-1.4.4L64.1 36a.7.7 0 0 0 .3 1.1l9.7 5.1a1.1 1.1 0 0 0 1.1-.2c1-1.1 1.9-2.3 2.8-3.4z"/><path d="M78.4 38.1l-.4.5c-.9 1.1-1.8 2.3-2.8 3.4a1.1 1.1 0 0 1-1.1.2l-9.7-5.1a.7.7 0 0 1-.3-1.1l2.5-4.2c.4-.7.8-.7 1.4-.4l10 6.1c.2.2.4.2.6.3zm-13.3-1.8l9.2 4.9c.1.1.5 0 .6-.1l2.3-3-9.7-5.8z"/><path fill="#fff" d="M65.1 36.3l2.4-4 9.7 5.8-2.3 3c-.1.1-.5.2-.6.1z"/></symbol></svg>