<svg xmlns="http://www.w3.org/2000/svg"><symbol id="back" viewBox="0 0 174.6 218.8"><path fill="#fff" d="M57.6 99.7l40.2-25.6 63.4-40.8a10.4 10.4 0 0 1 1.6-.6l2-.9a6.6 6.6 0 0 0-1.2-2.2c-1.5-1-3.2-1.9-4.7-2.8L128.9 9c-1.4-.9-2.8-2-3.9.5l-.3.3-51.4 41.7-44.4 36.2L13 100.6c-1.1.8-1.9 1.7-.8 3s3.5 5 5.4 7.4l45 54.1q18.5 22.2 37.1 44.3c.2.2.5.4.5.6-.1 2.6 1.2 1.2 2 .7l21.5-16.3 11.3-8.8c.8-.6 1.6-1.3.8-2.4l-4.3-4.8-66.2-70.3c-2.6-2.7-5.1-5.5-7.7-8.4z"/><path d="M57.6 99.7c2.6 2.9 5.1 5.7 7.7 8.4l66.2 70.3 4.3 4.8c.8 1.1 0 1.8-.8 2.4l-11.3 8.8-21.5 16.3c-.8.5-2.1 1.9-2-.7 0-.2-.3-.4-.5-.6q-18.6-22.1-37.1-44.3l-45-54.1c-1.9-2.4-3.6-4.9-5.4-7.4s-.3-2.2.8-3l15.9-12.9 44.4-36.2 51.4-41.7.3-.3c1.1-2.5 2.5-1.4 3.9-.5l30 17.8c1.5.9 3.2 1.8 4.7 2.8a6.6 6.6 0 0 1 1.2 2.2l-2 .9a10.4 10.4 0 0 0-1.6.6L97.8 74.1zm69.3-89.2L14.6 102.9 102.8 208l30.2-24.4c-6-6.2-11.9-12.3-17.7-18.5l-60.2-63.4a4.3 4.3 0 0 1-.9-1c-.2-.6-.4-1.4-.1-1.8s1.1-.5 1.7-.7a10.9 10.9 0 0 0 1.7-.5C68.7 90.3 79.8 82.8 91 75.5q33.1-21.9 66.5-43.6l1.8-1.3z"/><path fill="#fff" d="M126.9 10.5l32.4 20.1-1.8 1.3Q124.2 53.7 91 75.5c-11.2 7.3-22.3 14.8-33.5 22.2a10.9 10.9 0 0 1-1.7.5c-.6.2-1.5.3-1.7.7s-.1 1.2.1 1.8a4.3 4.3 0 0 0 .9 1l60.2 63.4c5.8 6.2 11.7 12.3 17.7 18.5L102.8 208 14.6 102.9z"/></symbol><symbol id="black-jar" viewBox="0 0 125.6 258.7"><path d="M68.9 258.5c-9.1.1-17.8-.8-26.6-1.6-3.3-.3-6.7.3-9.9-.4-8-1.6-16.3-2.1-23.3-7.3-3.6-2.8-5.9-6-6.4-10.6s-1.4-7.3-1.5-11.1-.1-5.1-.2-7.7c-.2-4.6-.6-9.1-.5-13.7s.6-6.8.3-10.2c-.8-8.2.3-16.5-.4-24.8A68.3 68.3 0 0 1 .8 161c.5-4.6-.4-9-.2-13.6.3-13.4-.8-26.8-.6-40.2.1-3.1.7-6.2.8-9.2S1 89.7.7 85.6a75.2 75.2 0 0 1 .6-13.4A65 65 0 0 1 3 61.6a28.7 28.7 0 0 1 8.3-14 11.1 11.1 0 0 0 3.4-7.3h.1c.2-1.2.8-2.5.5-3.5s-2.1-.6-3.1-1.1-.8-.3-.8-.7-.3-3.6.7-5.2l.6-.5c.4-.3 1.4.2 1.4-.4s-.1-2.4 0-3.6l-.6-.2-1.4-.2c-2.6-.5-2.9-1.3-1.3-3.4s1.3-2.6 2.3-3.7-.1-1.2-.1-1.8-.6-3.9-.8-5.8a7.3 7.3 0 0 1 6.3-7.8C27.6.8 36.8-.3 46.1.1c6.8.3 13.7 1 20.5.6 8.9-.5 17.7.1 26.5.4a74.3 74.3 0 0 1 18 3.4 1 1 0 0 1 .8 1.1c.1 2.1.6 4.4.1 6.4s1.2 6 1.3 9.1c0 .6.5.5.8.7a2 2 0 0 1 1.6 1.7 2.1 2.1 0 0 1-1.3 1.9 7.1 7.1 0 0 1-2.1 1.1c-2.1.2-1.6 1.7-1.6 2.9s.4.4.8.4a4.1 4.1 0 0 1 3.5 3.5 1.3 1.3 0 0 1-.7 1.4 2.4 2.4 0 0 1-1.1.6c-.9.4-2.5.8-2.4 1.1s-.2 2.7.4 4a20 20 0 0 0 1.6 2.8c4.4 5.7 6.8 12.5 10 18.9a24.8 24.8 0 0 1 2 13.7c-.7 8.5-.2 17 .2 25.5.2 5.2-.5 10.3.1 15.5.8 7.9.4 15.8.4 23.6-.1 4.6.2 9.2 0 13.7-.1 2.1-.5 4.3-.4 6.4.7 9.6-.4 19.1-.3 28.7.1 7.6.6 15.2.5 22.8a147.1 147.1 0 0 1-1.2 16.2c-.4 3.3-.3 6.6-1.1 9.9a18.1 18.1 0 0 1-5.5 9.7c-2.1 1.9-4.4 3.9-7.2 4.7-6.6 1.8-13 3.9-19.8 4.8s-14.5 1.8-21.6 1.2zm.6-2.2c5.4.6 11.8-.3 18.1-1.1s13.9-2.9 20.7-4.7c3.2-.9 5.5-2.9 7.7-5.1a15.2 15.2 0 0 1 2.2-2.2c1.8-1.2 2.4-2.9 2.9-4.9s.7-7 1.2-10.5a136.5 136.5 0 0 0 1.4-21.2c-.1-6.1-.4-12.2-.4-18.3-.1-8.1 1-16.2.4-24.3-.5-6.2.5-12.5.3-18.9-.3-11 .1-22-1-32.9-.5-4.1.5-8.2.1-12.2a155.4 155.4 0 0 1-.3-24.6 20.1 20.1 0 0 0-.3-6.9 43.2 43.2 0 0 0-4.8-11.3c-2.6-4.2-3.9-9-7.1-13a7.5 7.5 0 0 1-1.9-6.3c.1-.7-.2-.9-1-.8-6.3 1.2-12.6 2-18.9 3.2-8.1 1.4-16.3 1-24.5 1.7-6.4.6-12.7-.5-19-1-3.2-.3-6.5-.1-9.7-.3a106.6 106.6 0 0 1-17.7-3.5c-.6-.2-1-.4-1.1.5-.3 4.5-1.6 8.6-5 11.9a21.5 21.5 0 0 0-6.1 9.7 61.6 61.6 0 0 0-2.5 11.3c-.4 4.8-1 9.5-.7 14.3a112.7 112.7 0 0 1 .2 11.6c-.3 5.4-.9 10.7-.8 16.2 0 11.2 1 22.5.4 33.7-.3 4.7.8 9.4.4 14.1a116.3 116.3 0 0 0-.4 11.8c.1 4.2.5 8.4.2 12.7a79.9 79.9 0 0 0-.1 9.8 67.6 67.6 0 0 1-.1 9 49.2 49.2 0 0 0-.2 9.4c.3 4 .2 8 .5 12.1s0 10.6 2.5 15.6a15.8 15.8 0 0 0 4.6 5.9c4.4 3.4 9.4 5.1 15 6.1a89.6 89.6 0 0 0 18.6 1.9c.2-.1.3 0 .5 0 8.2.7 16.5 1.7 25.7 1.5zm-53.7-246c-1.3-1.2-.9-2.3-.4-3.4s-.1-.7-.5-.9-.7 0-.9.4a5.8 5.8 0 0 0-.5 1.4c-.6 3.1.3 6.1.6 9.1.1.6.6.6 1.1.7l9.5.6c7.9.5 15.9.8 23.8.8 11.8-.2 23.7-.1 35.5-1.2 6-.7 12-.5 17.9-1.9 2.6-.7 5.3-.8 7.7-2.1.7-.4 1.3-.7 1.2-1.6s-.1-2.3-.1-3.4-.2-2.2-1.8-1.2a6 6 0 0 1-1.9.6c-.8.1-1.2.5-1.1 1.5a6 6 0 0 1-.3 2.9c-.6-1.1-.3-2-.5-2.9s.1-.9-.4-.9-.3.5-.3.9a8.8 8.8 0 0 1-.6 2.7c-.7-.8-.4-1.7-.4-2.5s.4-.9-.3-1-.6.5-.7.9-.2 2.7-.4 4.2c-.7-1.2-.7-1.5-.5-4.1.1-.3.3-.7-.3-.8s-.6.2-.6.6a11.8 11.8 0 0 1-.4 2c-.1.4.2 1.1-.4 1s-.5-.7-.6-1.1.7-1.9 0-2.4-1.7-.1-2.6-.1h-1.1c-.7-.1-.9.2-.9.9a17.5 17.5 0 0 1-.5 4.4 10.8 10.8 0 0 1-.6-4.6c0-.2.2-.6-.3-.6s-.2.4-.3.6-.1 1.9-.2 2.8.1.8-.4.7-.3-.4-.3-.8v-1.9c-.1-.4.3-1.1-.3-1.2s-.4.7-.4 1.1-.1 3.1-.2 4.6.4.9-.2.9-.6-.5-.6-.9a12.9 12.9 0 0 1-.1-4.8c0-.3.3-.8-.3-.7s-.9-.3-.9.5a15.2 15.2 0 0 1-.3 2.1c-.6-.5-.5-1.1-.6-1.7s.2-.8-.4-.8-.7.4-.8.8-.1 1.6-.3 2.6a3.8 3.8 0 0 1-.4-2.5c0-.4.1-.8-.5-.8s-.7.3-.7.7v2.2c-.1 1.5-.3 2.1-.8 2.6a16.3 16.3 0 0 1-.1-4.4c0-.8-.2-1.1-1-1l-8.3.4c-.7 0-.6.4-.6.9s-.1 3.9-.9 5.7a20.9 20.9 0 0 1-.1-5.6c0-.3.3-.8-.1-.9h-1.5c-.4.1-.2.5-.2.8v3.3c-1.1-1.5-.5-3.1-1.5-4.5-.1 1.7-.2 3-.3 4.3s.2.7-.2.8-.6-.4-.6-.8a18.2 18.2 0 0 1 0-3.3c0-.4.1-.7-.4-.7l-14.7-.2c-.5-.1-.7.1-.5.7a4 4 0 0 1 .1 2.9 10.9 10.9 0 0 1-.9-2.1c-.2-1.4-.9-1.7-2.2-1.7H38.9c-.7 0-1 .2-1 1s-.1 2.7-.2 4.1c-1-1.3-.8-2.7-.9-4.1s.2-1-.6-1-.6.5-.6 1a5.3 5.3 0 0 0-.1 1.3c-.7-.5-.6-1.1-.6-1.7s0-.6-.4-.6-.4.3-.4.6V13c-.9-.7-.6-1.4-.7-1.9s.4-1.4-.6-1.4-.5.9-.6 1.4-.2 2.2-.3 3.3c-.8-1.3-.7-2.7-.8-4.1s0-.7-.5-.8-.5.2-.6.5 0 2.2-.5 2.1-.3-1.3-.4-2.1-.1-.4-.3-.4-.3.2-.3.4a28.9 28.9 0 0 0-.4 2.9c0 .2.2.6-.3.6a.7.7 0 0 1-.4-.7c.1-.9.1-1.8.2-2.6s.1-.9-.5-.9c-2.3 0-4.4-1.1-6.6-1.6-.7-.2-.8.1-.8.7a6.4 6.4 0 0 1-.3 3c-.9-1.1-.5-2.2-.6-3.3s0-.9-.6-.9-.4.5-.4.8-.3 3.1-.4 4.6a15.2 15.2 0 0 1-.2-5.2c0-.4-.1-.6-.4-.7s-.5.1-.6.5a7.8 7.8 0 0 0-.4 3.1zM42 21.9a2.4 2.4 0 0 1 1.7-.5c2.1 0 4.2-.2 6.3-.1 10.1.2 20.3.1 30.4-.2 1 0 1.1-.3 1.1-1.2s-.6-.7-1.1-.7c-2.3.2-4.5.5-6.7.5-10.7-.2-21.3.7-31.9.3-8.1-.4-16.2-.6-24.3-1.5-2.5-.3-4.7-.4-5.5 2.7 0 .3-.3.5-.4.7s-1 1-.7 1.6 1.1.5 1.7.6a58.6 58.6 0 0 1 9.3.9l4.7 1c5.3.8 10.7 0 16 .7s13.6.8 20.4.9c15.6 0 31.2.3 46.7-2.6a8.8 8.8 0 0 0 3.5-1c.2-.1.6-.2.5-.5a.6.6 0 0 0-.5-.5c-1.1-.2-1.4-1-1.5-1.9s-.3-.6-.8-.5A27.3 27.3 0 0 1 104 22c-2.2.2-4.4.7-6.6.7-5.9 0-11.8 0-17.7.2-8.5.2-17.1.1-25.6-.1a83.1 83.1 0 0 1-12.1-.9zm68.2-16.2c-.3-.5-.8-.5-1.3-.6a68.8 68.8 0 0 0-15.5-2.6c-8.7-.2-17.5-.9-26.2-.4-7.2.4-14.3-.2-21.5-.5a112.6 112.6 0 0 0-24.6 2.1c-2.1.4-4.2.3-6.2 1.5a32.1 32.1 0 0 0 3.5 1c2.8.5 5.4 1.8 8.2 2 7.1.6 14.2.6 21.3.6 8.8 0 17.6.4 26.4.2l10.2-.5c4.9-.1 9.8-.8 14.8-.7a23.1 23.1 0 0 0 10.9-2.1zm-42 29.7c5.7-.3 11.4-.4 17.1-1a180.4 180.4 0 0 0 21.8-3.7c1.6-.4 2.5-.7 2.2-2.6s-.1-1-.9-.8a126.2 126.2 0 0 1-14.9 1.8c-3.6.1-7.3.1-10.9.3-10.2.4-20.4-.1-30.6-.3-5.9-.2-11.8-1.5-17.7-1.3A36.5 36.5 0 0 1 22 26.2a39.1 39.1 0 0 0-5.8-1c-.3 0-.9-.2-1 .4a11.9 11.9 0 0 0 .3 3.3c.2.6 1.2.1 1.9.2l2.1.4c6.6 1.6 13.2 3.4 20 4.1 9.5.9 19 2.2 28.7 1.8zM63 40.1c10-.7 22.7-.5 35.2-3.4 4.6-1 9.5-1.1 13.9-2.9.4-.2 1.3-.1 1-.9s-.6-1.5-1.6-1.3l-1.4.3a148.5 148.5 0 0 1-23.8 4.3c-10 .8-19.9 1.4-29.9.7-7.5-.4-14.9-1.4-22.3-2.4s-13-4.6-20.1-4.4c-1.1 0-1.4.4-1.4 1.1s-1.2 2.1.6 2.5c6.4 1.6 12.8 3.6 19.4 4.5 3.5.5 7 .3 10.5.6 5.8.4 11.4 1.5 19.9 1.3zM88.4 21h5.4c.6 0 .9-.2.9-.9s-.6-1.1 0-1.1.5.7.6 1.2 0 .7.6.6.4-.4.4-.8-.1-.4-.1-.7-.3-.9.3-.9.5.4.5.8v.8c.1.3-.3.8.4.8s.3-.6.3-.9-.4-1.3.4-1.5 1.2.7 1.2 1.3.4 1 1.1.9c2.9-.3 5.8-.8 8.7-.9s1.9-.5 1.6-2.2-1-2.1-2.8-1.6c-8 2.2-16.4 2.7-24.7 3.2-.4 0-1.2-.3-1.1.4s-.1 1.7 1.4 1.5 3.2 0 4.9 0z"/><path d="M19.9 246.1a21.4 21.4 0 0 1-9.8-7 15.9 15.9 0 0 1-3.4-9c-.3-6.5-1.5-12.9-1.8-19.3s.7-15.6 1.3-23.3c.3-4.6.6-9.3 1-13.9a188.7 188.7 0 0 0 1.1-23.8c-.1-4.7-.9-9.4-1.1-14.1a17.4 17.4 0 0 1 .4-6.8c.1 1.2.3 2.4.3 3.6.1 5.8 1.3 11.6 1.4 17.4s-.3 13-.8 19.5l-1.2 17.3c-.4 7.1-1.3 14.1-1.3 21.2 0 5.5 1.3 10.9 1.6 16.3.2 2.4.3 4.8.7 7.2.9 5.7 4.4 9.6 9 12.9zm96.6-78.2c.1-1.5.2-3 .2-4.5l.6-24.7c.1-5.8 0-11.5.1-17.3s1.3-11.7 1.4-17.6-.2-9.5-.5-14.2c-.3-2.6-.3-5.3-.4-8a43.3 43.3 0 0 0-1.1-9.5 1.4 1.4 0 0 1 .1-.9 16.5 16.5 0 0 1 1.4 5.7c.7 10.5 2 20.9 1.1 31.3-1.2 14.2-.3 28.4-1.2 42.6-.4 5.5-.4 11.1-1.3 16.7v.4zm-7.7 75.8c3-4.8 4.6-10.2 6.2-15.6 2.1-7 2.8-14.3 3.4-21.6.4-5.4.7-10.7.7-16.1a63.4 63.4 0 0 0-.4-7.6 4.7 4.7 0 0 1 .2-2 43.7 43.7 0 0 1 .9 5 176.5 176.5 0 0 1-1.3 32.5 66.9 66.9 0 0 1-5.7 19.6 14.4 14.4 0 0 1-4 5.8zm-78.9 7.2c2-.2 3.5.7 5.1.9 5.8.8 11.7 1.4 17.6.1s12.7-1.1 19.2-1 13.4.4 20.1.4a20.1 20.1 0 0 0 9.7-3.3l1-.4c-2.4 2.3-5.5 3.4-8.7 4.2a43.9 43.9 0 0 1-8.1.3c-8.2-.2-16.5-.3-24.7-.3-4.2-.1-8.2.9-12.3 1.5a41.2 41.2 0 0 1-8.6-.1 33.1 33.1 0 0 1-10.3-2.3zm-25-136.3c.4-4 .7-8.1 1-12.2.2-2.2.3-4.4.4-6.6.2-7.7 1.1-15.5 1.7-23.2a84.1 84.1 0 0 1 1.7-11.2c0-.2.2-.4 0-.6-1.5 17.9-2.9 35.9-4.3 53.9zm101.5-72.8c-.6 6.8 3.8 11.8 6 17.8-4.3-4.3-7.9-15.2-6-17.8zM18.6 40c2 4.8-1.9 7.7-3.8 11.2l1.8-3.5c.6-1.2 1.1-2.4 1.8-3.6s.3-2.7.2-4.1zm31.9-28.3c0-.7-.2-1.3.6-1.5s.6.4.5.7.3 2-.6 2.2-.4-1-.5-1.4zm-29.6 9.9c0 1 .2 2.2-.7 2.3s-.7-1.2-.8-1.9a13.4 13.4 0 0 1-.1-2c-.1-.5.1-.9.6-.9a.8.8 0 0 1 .8.7 16.2 16.2 0 0 1 .2 1.8zm4.3 2.3a4.4 4.4 0 0 1-1.2-3.1c-.1-.4.1-.7.6-.8s.6.3.7.7-.1 2-.1 3.2zM36.4 4.3a17.2 17.2 0 0 0-6.4.6c1.6.6 14 1.6 21.5 1.2s14.5.3 21.8.6a173.4 173.4 0 0 0 21.6-.9c-2.7-.7-5.5-.5-8.2-.5l-8.5.2a59.7 59.7 0 0 1-8.5-.6c-2.8-.5-5.6-1-8.4-1.3s-5.6-.4-8.4-.6c0-.4.2-.3.4-.3A63.8 63.8 0 0 1 68.4 4a36.4 36.4 0 0 0 7.4.6h16.4c1.8.1 3.6.5 5.4.7s.8 0 .8.5-.4.6-.8.7a37 37 0 0 1-8.8.9c-5.5 0-11.1 1-16.6.3-9.7-1.3-19.4-.8-29.1-1-4.7-.1-9.3-.6-14-.9-.3-.1-.7-.1-.8-.5s.1-.5.3-.6a13.2 13.2 0 0 1 7.1-1.2.7.7 0 0 1 .7.8zm59.6 27l-3.4.4c-4.1.5-8.3 1.2-12.4 1.5a126.9 126.9 0 0 1-18.5 0c-6.6-.6-13.2-1.5-19.8-2.1s-13-.5-19.3-2c-.4-.1-.9 0-.8-.5s.5-.2.8-.1c4.5 1.2 9.2 1.2 13.9 1.5s11.7.9 17.6 1.7a143.2 143.2 0 0 0 22.7.7C82.9 32.2 88.9 31 95 31h.9z"/></symbol><symbol id="shopping" viewBox="0 0 323.6 225.4"><path d="M116.7 62.9c-16.4.8-32.9.6-49.3.8-21.3.4-42.6.2-63.9.3h-.4c-.5-.1-1.5.3-1.4-.7s.9-.7 1.5-.7h6.9l25.7-.4c19.8-.4 39.6-.5 59.3-.8l28.4-.3 58.9-.7 27.3-.3 21.8-.3a1.9 1.9 0 0 0 1.8-.7c.6-1 1.6-1.2 2.2.1a1.1 1.1 0 0 0 .9.7 1.2 1.2 0 0 1 .9 1.4 1.2 1.2 0 0 1-1.3 1c-1.3-.2-1.7.8-2.1 1.7-12.6 29.8-25.2 59.6-38.2 89.1-4.3 9.7-8.8 19.3-12.9 29.1-1.1 2.8-2.5 3.1-5 3.1-27.6-.2-55.2-.2-82.8-.3-11-.1-21.9 0-32.9-.4a2.3 2.3 0 0 0-2.4.7c-.5.7-1.4.5-1.9-.3a8.3 8.3 0 0 1-.7-1.3C39.8 148.1 22.4 112.6 5.5 76.9l-5-10.8a6.5 6.5 0 0 1-.4-1.3c-.1-.3-.2-.6.1-.8s.6.1.8.4.5.8.7 1.3c11.6 22.3 22.6 45 33.7 67.6q12 24.3 23.8 48.7c.5 1 .9 1.5 2.2 1.3a27.7 27.7 0 0 1 5-.1c10.9-.1 21.7-.3 32.6-.3h80.5a2.2 2.2 0 0 0 2.3-1.5c13.5-33.9 27.8-67.4 42.2-100.8l7.2-16.9c.5-1.1.4-1.4-.9-1.4-18 .2-36 .5-54 .6-19.8.1-39.7 0-59.6 0zm181.9-24.7c-4.9.1-6.8-1.5-8.2-6.1a12.5 12.5 0 0 1 8.2-15.8c3.5-.9 6.4 0 8 2.9a3.9 3.9 0 0 1-.4 4.9 6.5 6.5 0 0 1-5.9 2.8 2.8 2.8 0 0 1-2-.8c-.3-.2-.6-.4-.4-.8s.4-.2.7-.2a6.7 6.7 0 0 0 4.5-1.8c.8-.6 1.6-1.3 1.1-2.4a2.8 2.8 0 0 0-2.6-2 6.6 6.6 0 0 0-4.7 1.6c-4.8 3.5-4.9 8.9-2.5 13.2.9 1.6 2.6 1.8 4.2 1.6 4.3-.3 8.4-1.3 11.8-4a32.8 32.8 0 0 0 8.7-9.5c2.6-4.5 2.1-8.9-1.4-12.7a22.1 22.1 0 0 0-6.3-4.7c-3.1-1.7-6.3-1.3-9.5-.4-5.1 1.5-9.1 4.8-13.3 7.8-8.1 5.6-13.8 13.4-19.4 21.4-10.5 15-20.4 30.5-29.9 46.2-5.3 8.7-11 17.2-15.7 26.2-12.7 24.4-24.5 49.3-32.2 75.9-.7 2.5-1.3 5.1-2.1 7.7-.1.5 0 1.5-.9 1.4s-.6-1-.5-1.8a97.4 97.4 0 0 1 3.1-13.2c5.5-18 11.5-35.7 20.5-52.3 1.9-3.5 3.5-7.1 5.2-10.8A135.1 135.1 0 0 1 227 93.9a92.6 92.6 0 0 0 6-10.1 188.9 188.9 0 0 1 10-16.7c8-12.2 15.4-24.8 23.9-36.6 4.6-6.4 9.2-12.8 15.2-17.9a128.6 128.6 0 0 1 11.2-8.2 26 26 0 0 1 12-4.3 14.1 14.1 0 0 1 4.1.2c8.2 1.6 14.9 10 14.2 17.8a14.1 14.1 0 0 1-3.4 7.4c-4.4 5.8-9.5 10.6-16.9 12.2a19.8 19.8 0 0 1-4.7.5z"/><path d="M14.6 70.6c5.7 6 8.5 13.4 12 20.5 4.7 9.4 9.3 18.9 14.6 28.1 3 5 5.5 10.4 8.2 15.6.4.7 1.1 1.6 0 2.2s-1.6-.3-2.1-1.1c-2.5-4-4.5-8.2-6.6-12.4s-3.4-5.9-5-9C30.6 104.1 24.9 94 20.3 83.4a48.9 48.9 0 0 0-5.6-9.3 7.4 7.4 0 0 0-2.9-2.6c-.6-.3-1.3-.6-1-1.5s.9-.9 1.6-.9h10.9a173.9 173.9 0 0 0 20.4-.7c3.3-.2 6.7-.4 10.1-.4 7.7 0 15.4-.2 23.2 0s18.5-.5 27.7-.6c6.7 0 13.4-.5 20.1-.5 3.6-.1 7.2.7 10.8.7.6 0 1.2.2 1.2.9s-.5 1.2-1.2 1.2a52.3 52.3 0 0 1-5.6 0c-5.1-.7-10.2-.4-15.3-.2s-12.6.3-18.9.6c-15.5.6-31-.1-46.5.4-8.2.3-16.5.8-24.7.5zm159.2 154.3c-5.6.4-15.9-5.4-18.2-12.3a15 15 0 0 1 5-16 26.8 26.8 0 0 1 13.2-6.1c3.6-.5 8.1 1.4 9.8 4.4.2.4.7.8.2 1.2s-.8 0-1.2-.3c-4.2-3.9-8.9-3.7-13.8-1.3-3.2 1.5-6.3 3.2-8.6 6.1-3.8 4.8-3.7 11 .5 15.4a20.4 20.4 0 0 0 10.7 6.2 11.4 11.4 0 0 0 11.1-3.1c3.3-3.3 5.5-7.5 3.7-12.2-2.5-6.8-5.8-8.5-11.5-8.9s-8.8 2.8-9.1 7.9c-.1 3 1.8 6 4.4 6.7a6.7 6.7 0 0 0 7.6-2.9c.9-1.7.8-2.7-.5-4a6.8 6.8 0 0 0-4.2-1.9c-1.4-.2-1.9.6-2.2 1.8s0 2.3 1.2 2.9 1.8-.4 2.6-.5.7-.7 1.1-.2a1.1 1.1 0 0 1-.1 1.1 2.4 2.4 0 0 1-2.2 2.1 4.6 4.6 0 0 1-4.4-1.8 6 6 0 0 1 .1-6.2c1-1.5 2.6-2 4.8-1.7a8.8 8.8 0 0 1 5.7 3.3 4.9 4.9 0 0 1 .6 5.3 9.1 9.1 0 0 1-10.8 5.1c-4-1.1-6.6-5.3-6.1-9.7a11.6 11.6 0 0 1 4.9-8.5c2.3-1.7 5-1.5 7.7-1.3 7.7.7 14.2 7.9 13.3 15.1s-6.5 14-15.3 14.3zM72.6 201.4a12.2 12.2 0 0 1 .9 6.7c-.9 5.9-4.4 8.6-10.4 8.1s-9.5-4.5-10-8.8 1.7-7.9 5.1-10.6c5-4 12.1-3.5 15.7 1.8 1.9 2.8 4.3 5.2 4.8 8.8 1 8.4-4.4 16.1-10.4 17.5s-11.3-.5-16.1-4.4c-9.7-7.9-5.5-21.4.9-26.8 3.3-2.8 6.8-4.8 11.3-4.7a8.5 8.5 0 0 1 5.3 2 3.4 3.4 0 0 1 1.3 1.6 1.1 1.1 0 0 1-.3 1.1c-.3.3-.7.1-1.1-.1-5.3-3.2-9.2-2.8-14.1 1.3a18.4 18.4 0 0 0-6.6 13.1 10.4 10.4 0 0 0 2.1 7.4c2.5 3.3 5.5 5.9 9.6 7 5.9 1.8 10.3.2 13.6-5s3.8-11.1-1.6-16zm-1.4-1.7a6.3 6.3 0 0 0-3.9-2.8c-3.5-.8-6.3.5-8.7 2.9s-5.3 9.1 1.5 13c3.1 1.8 6.7 1.7 9-.3s2.8-6 1.6-8.9a2.8 2.8 0 0 0-2.5-2.1c-2.8-.2-5.5 3-4.7 5.7.2.7.1 1.3-.5 1.6a1.2 1.2 0 0 1-1.7-.5 4.6 4.6 0 0 1-.7-3.1c.7-4.5 5.6-7.2 10.6-5.5zm101.4-22.4c-1.1-.2-.5-1-.3-1.4 2.4-4.9 4.1-10.1 6.4-15.1s6.7-12.6 9.1-19.4 6.4-15 9.3-22.6a20.3 20.3 0 0 1 2-4.2 58.2 58.2 0 0 0 6.2-13.1 4.1 4.1 0 0 1 .5-.9 1.4 1.4 0 0 1 2-.8c.9.3 1.1 1.1.8 2-1.1 2.7-1.7 5.7-3.3 8.1-3.9 6.2-6.3 13.1-9.4 19.7s-5.6 14.8-9.5 21.7-8.4 16.5-12.6 24.7c-.3.5-.5 1.2-1.2 1.3zm-87.5-4.1c10.6-.1 21.1.9 31.6 1.7 7.3.5 14.7.6 22 .4 8.8-.3 17.6-.8 26.4-.7h1.9c.8 0 1.4.2 1.5 1s-.6 1.3-1.5 1.4h-.5c-9-.1-18-.1-26.9.5s-19.8-.3-29.7-1.1c-11.8-.9-23.6-1.9-35.4-1.5a28.4 28.4 0 0 0-6.6.9c-.6.2-1.4.7-1.7 0s.8-1 1.4-1.2a23.8 23.8 0 0 1 8.4-1.3c3-.2 6-.1 9.1-.1zm77.9-8.6h.7c3.9 0 3.9 0 4.8-4s2.3-9.5 4.8-13.8a9.2 9.2 0 0 1 1.9-2.5c.4-.4.8-.9 1.3-.5s0 .9-.2 1.2a64.8 64.8 0 0 0-5.2 12.8c-.7 2.7-1.5 5.5-2.3 8.2-.3.9-.5 1.8-1.4.3s-.7-.2-1-.2l-24.4 2.2h-3.3c-.8 0-1.5-.3-1.6-1.2s.6-1.2 1.3-1.3l1.2-.2z"/><path d="M54 76c-1.8 1.7-4.1 2.1-6.3 2.4-5.6.6-11.2.5-16.8.7h-1.5c3.4 5.1 5.2 10.8 7.5 16.2a5.2 5.2 0 0 1 .6 1.6c.2.5.8 1.2 0 1.5s-.8-.6-1.1-1.1c-2.2-3.7-3.8-7.8-5.7-11.7-.7-1.5-1.4-3-2.2-4.4s-.5-3.7 2.2-4c4.8-.5 9.6-.5 14.4-.7 2.9 0 5.9-.1 8.9-.5z"/></symbol><symbol id="sold-out" viewBox="0 0 221.1 215.5"><path fill="#fff" d="M90.3 99.5l-1.8 1.6c-2.3 1.9-4 4.1-3.6 7.3a2 2 0 0 1-.2 1.1c-4.9 10.8-6.8 22.1-7.2 33.8a15.4 15.4 0 0 1-1.4 5.9C75 152 74 155 76 158a6.6 6.6 0 0 1 .5 2.5c.4 7.5 1.1 15 4.2 22.1 2.2 4.9 5.1 9.2 10.1 11.8s12.5 1.6 16-2.4a30.3 30.3 0 0 0 6-12.5c1.5-6.4 2.8-12.8 4.2-19.2a4.6 4.6 0 0 1 .7-1.6 14.3 14.3 0 0 0 3.1-7 29.7 29.7 0 0 0-.3-4.2c-.1-.9-.5-1.8-.2-2.5 1.2-3.4 2.5-6.7 3.9-10a11.3 11.3 0 0 1 1.3-2l1.4 1.2 47.7 44.7 16.9 15.8c2 1.7 2.9 1.7 4.7 0l12-11.4a2.8 2.8 0 0 1 .9-.7c1.9-.9 2-1.6.5-3.1l-47.3-45.6-23.5-22.5c-.6-.5-1-.9-.4-1.8 2.8-4.3 5.6-8.7 8.2-13.1 1.1-1.9 2.1-3.8 4.2-4.8a6.5 6.5 0 0 0 1.7-1.6c1.5-1.9 2.6-3.9 2.2-6.5s-1-2.5-.3-4.1a41.5 41.5 0 0 0 3.6-20.3 34.3 34.3 0 0 0-6.3-18.1 12.6 12.6 0 0 0-8.9-5.4 24.3 24.3 0 0 0-11.9 1.9c-1.6.7-3.5 1.7-4.3 3.2a108.2 108.2 0 0 0-5.9 11.8 6.9 6.9 0 0 1-2.1 3.2c-1.5 1.2-3.1 2.4-4.5 3.7s-4.8 4.4-4.9 7.6-3.5 7.1-5.4 10.7l-1.6-1.5-43.4-41.6-4.7-4.4a1.6 1.6 0 0 0-2.4 0L47 34.7l-11.2 10c-1.9 1.7-1.9 2.1-.1 3.8l53.1 50.1z"/><path d="M90.3 99.5l-1.5-.9-53.1-50.1c-1.8-1.7-1.8-2.1.1-3.8l11.2-10 4.7-4.4a1.6 1.6 0 0 1 2.4 0l4.7 4.4 43.4 41.6 1.6 1.5c1.9-3.6 5.2-6.2 5.4-10.7s2.6-5.5 4.9-7.6 3-2.5 4.5-3.7a6.9 6.9 0 0 0 2.1-3.2 108.2 108.2 0 0 1 5.9-11.8c.8-1.5 2.7-2.5 4.3-3.2a24.3 24.3 0 0 1 11.9-1.9 12.6 12.6 0 0 1 8.9 5.4 34.3 34.3 0 0 1 6.3 18.1 41.5 41.5 0 0 1-3.6 20.3c-.7 1.6.1 2.8.3 4.1s-.7 4.6-2.2 6.5a6.5 6.5 0 0 1-1.7 1.6c-2.1 1-3.1 2.9-4.2 4.8-2.6 4.4-5.4 8.8-8.2 13.1-.6.9-.2 1.3.4 1.8l23.5 22.5 47.3 45.6c1.5 1.5 1.4 2.2-.5 3.1a2.8 2.8 0 0 0-.9.7l-12 11.4c-1.8 1.7-2.7 1.7-4.7 0l-16.9-15.8-47.7-44.7-1.4-1.2a11.3 11.3 0 0 0-1.3 2c-1.4 3.3-2.7 6.6-3.9 10-.3.7.1 1.6.2 2.5a29.7 29.7 0 0 1 .3 4.2 14.3 14.3 0 0 1-3.1 7 4.6 4.6 0 0 0-.7 1.6c-1.4 6.4-2.7 12.8-4.2 19.2a30.3 30.3 0 0 1-6 12.5c-3.5 4-11 4.9-16 2.4s-7.9-6.9-10.1-11.8c-3.1-7.1-3.8-14.6-4.2-22.1a6.6 6.6 0 0 0-.5-2.5c-2-3-1-6 .1-8.8a15.4 15.4 0 0 0 1.4-5.9c.4-11.7 2.3-23 7.2-33.8a2 2 0 0 0 .2-1.1c-.4-3.2 1.3-5.4 3.6-7.3zm2.4 13.5l-.5-.2a1.9 1.9 0 0 0 .1-.8c.5-1.7.9-3.4 1.4-5.1s1-3.1-1.5-5.1a1.5 1.5 0 0 0-1.1-.3c-1.3.3-4.2 4-4.1 5.3s-.6 4.3-1.4 6.4c-4.1 10.2-5.7 20.9-6 31.8a21.3 21.3 0 0 1-1 4.2c-1.1 3.1-2.1 6.1-.4 9.3a2.4 2.4 0 0 1 .5 1.4c.4 3.6.6 7.2 1 10.8.8 6 2.6 11.7 6.3 16.6s6.8 6.5 12.1 6c3.1-.3 6.2-.9 7.8-3.9a52.8 52.8 0 0 0 4.5-10.7c1.6-5.6 2.4-11.5 3.7-17.2a15.5 15.5 0 0 1 2.2-5.1 8.9 8.9 0 0 0 1.8-7.4c-.9-3.8 0-7.1 1.6-10.4l3-6.9a1.6 1.6 0 0 0-.2-1.5c-1.2-1.3-2.5-2.4-3.8-3.6l-1 1.8c-.3-.4-.5-.9-.3-1.2s.1-1.8-.7-2.6l-7.7-7.1c-1.6-1.6-3.3-3.1-5-4.6a2.1 2.1 0 0 0-.4.6 86.9 86.9 0 0 1-8.3 14.1c-1.8 2.6-3.2 5.5-2.5 8.8l-.6.6a16.1 16.1 0 0 1-.6-3.5c.1-3.2 1.9-5.7 3.6-8.2l7.5-12.3a1.7 1.7 0 0 0 0-1.4l-7.1-6.7c-1 2.9-2 5.5-2.9 8.1zm21.8-24.9c8.7-7.3 14.7-16.2 19.2-26.3-.2 3.8-2 7-3.9 10s-4.3 6.3-6.6 9.2-4.9 5.5-7.4 8.3l12.4 11.9 2.6-2.5.4.4-1.7 2.6 6.2 6.9a7.3 7.3 0 0 0 .9-1.1l9-14.8a5.3 5.3 0 0 1 1.1-1.5c.8-.7 1.8-1.1 2.6-1.8a6.4 6.4 0 0 0 2.3-6.5 8.1 8.1 0 0 1 .3-4.1 41.7 41.7 0 0 0 3.4-18.1c-.3-6.2-1.6-12-5.3-17.2a11.3 11.3 0 0 0-6.9-4.8c-3.1-.9-6.1.1-9.1.7s-6.2 2.9-7.8 6.3-1.9 4.2-2.7 6.3a13.4 13.4 0 0 1-5.3 6.4c-4 2.8-6.7 6.3-7.6 11.2a11.4 11.4 0 0 1-1.6 3.8c-1.2 1.9-2.5 3.8-3.7 5.5l3.1 3.4c2.6-3.8 5.1-7.4 7.7-11l.6.4c-2.1 4-5 7.6-7.2 11.6z"/><path fill="#fff" d="M92.7 113c.9-2.6 1.9-5.2 2.9-8.1l7.1 6.7a1.7 1.7 0 0 1 0 1.4l-7.5 12.3c-1.7 2.5-3.5 5-3.6 8.2a16.1 16.1 0 0 0 .6 3.5l.6-.6c-.7-3.3.7-6.2 2.5-8.8a86.9 86.9 0 0 0 8.3-14.1 2.1 2.1 0 0 1 .4-.6c1.7 1.5 3.4 3 5 4.6l7.7 7.1c.8.8 1.4 1.5.7 2.6s0 .8.3 1.2l1-1.8c1.3 1.2 2.6 2.3 3.8 3.6a1.6 1.6 0 0 1 .2 1.5l-3 6.9c-1.6 3.3-2.5 6.6-1.6 10.4a8.9 8.9 0 0 1-1.8 7.4 15.5 15.5 0 0 0-2.2 5.1c-1.3 5.7-2.1 11.6-3.7 17.2a52.8 52.8 0 0 1-4.5 10.7c-1.6 3-4.7 3.6-7.8 3.9-5.3.5-9.1-2.1-12.1-6s-5.5-10.6-6.3-16.6c-.4-3.6-.6-7.2-1-10.8a2.4 2.4 0 0 0-.5-1.4c-1.7-3.2-.7-6.2.4-9.3a21.3 21.3 0 0 0 1-4.2c.3-10.9 1.9-21.6 6-31.8.8-2.1 1.7-4 1.4-6.4s2.8-5 4.1-5.3a1.5 1.5 0 0 1 1.1.3c2.5 2 2.4 2 1.5 5.1s-.9 3.4-1.4 5.1a1.9 1.9 0 0 1-.1.8zm5.6 71.8h.6l.3-.8 3.7-13.9c.8-2.8 1.9-5.6 1.3-8.6-.2-1.4-.4-2.7.6-3.9 3.1-3.5 4.6-7.8 6.1-12.1a18.7 18.7 0 0 0 .7-2.2l-.4-.2a16.5 16.5 0 0 0-1.4 2.6 38.8 38.8 0 0 1-6.2 11.5 4.9 4.9 0 0 0-.9 3.5 15.4 15.4 0 0 1-.3 6.4c-1.3 4.8-2.5 9.6-3.7 14.5a16.5 16.5 0 0 0-.4 3.2zm-12.4-61.9l6.7-16.8c-2 1.2-7.2 14.6-6.7 16.8zm9.8 31.4l-.5-.5h-.8c-1.6.3-2.1-.1-2.3-1.6s.1-2.1.1-3.1a4.3 4.3 0 0 0-.2-1.1c-.3.2-.8.4-.9.7a5.7 5.7 0 0 0 0 5.5 2.3 2.3 0 0 0 1.7.8 20.1 20.1 0 0 0 2.9-.7zm-3.8 23c-1.1-.9-3.1.3-3.3-1.6a25.4 25.4 0 0 1-.1-3.9c-1.3.5-2 3.2-1.2 5s2.4 1.6 4.6.5zm-3.6-45.1c-.7-1.1-2.8-.1-2.4-1.9a18.1 18.1 0 0 1 1.4-3.3c-.6-.6-1.2-.2-1.8.4s-1.6 3.9-.7 4.8 2.2.7 3.5 0zm22.8-3.3c-2.7-1.3-2.3-3.6-2.2-5.8-1.3.4-1.6 1.4-1.1 3.4s1.2 2.7 3.3 2.4zm-4.7 48.9c-1.2 0-1.6.4-1.6 1.4a1.8 1.8 0 0 0 1.9 1.8 2.4 2.4 0 0 0 2-2.8l-2.2 1.8c0-.9-.1-1.5-.1-2.2zm8.1-89.7l-5-4.8c2.2-4 5.1-7.6 7.2-11.6l-.6-.4c-2.6 3.6-5.1 7.2-7.7 11l-3.1-3.4c1.2-1.7 2.5-3.6 3.7-5.5a11.4 11.4 0 0 0 1.6-3.8c.9-4.9 3.6-8.4 7.6-11.2a13.4 13.4 0 0 0 5.3-6.4c.8-2.1 1.8-4.2 2.7-6.3s4-5.7 7.8-6.3 6-1.6 9.1-.7a11.3 11.3 0 0 1 6.9 4.8c3.7 5.2 5 11 5.3 17.2a41.7 41.7 0 0 1-3.4 18.1 8.1 8.1 0 0 0-.3 4.1 6.4 6.4 0 0 1-2.3 6.5c-.8.7-1.8 1.1-2.6 1.8a5.3 5.3 0 0 0-1.1 1.5l-9 14.8a7.3 7.3 0 0 1-.9 1.1l-6.2-6.9 1.7-2.6-.4-.4-2.6 2.5-12.4-11.9c2.5-2.8 5.1-5.4 7.4-8.3s4.5-6 6.6-9.2 3.7-6.2 3.9-10c-4.5 10.1-10.5 19-19.2 26.3zm35.4-16.8c.2-.4.5-.7.5-1 .8-3.3 1.6-6.7 2.2-10a12.6 12.6 0 0 0-1.3-8.7 15.8 15.8 0 0 0-1.2-1.5l-.7.3c3.5 6.9.6 13.8.5 20.9zm-31.9 13c-.9-.4-2.3-.7-2.5-1.3s.4-2 .8-3.2c-1.2-.3-1.6.5-2 1.4a3.1 3.1 0 0 0 .7 3.6 2.7 2.7 0 0 0 3-.5zm6.4-18.1l-2.6.8a18.4 18.4 0 0 0-.5-2.5c-.1-.2-.3-.5-.4-.5s-.8.1-.8.2a10.1 10.1 0 0 0 0 3c.2.5 1.4.9 2.1.9a2.1 2.1 0 0 0 2.2-1.9zm15 7.7l-.4-1.5-.6-.8c-.2.3-.7.7-.7.9a6.4 6.4 0 0 0 1 2.2 2.2 2.2 0 0 0 2.7-.3c1.1-.9 1.4-1.3 1.2-2.1zm9.3 6.1c-1.7.4-4.5 6.7-4 8.6 1.4-3 2.7-5.7 4-8.6zm-23.8 9.4a2.1 2.1 0 0 0-1.8 2.5 1.4 1.4 0 0 0 1.7 1.3 3.3 3.3 0 0 0 2.9-2.7 17.3 17.3 0 0 1-2.1 1.3 2.5 2.5 0 0 1-1.2.1v-1.1a7.8 7.8 0 0 1 .5-1.4zm7.8-34.5v-.6c-3-1.5-.2-3.1 0-4.7-1.7-.2-2.1 1.1-2.4 2.1a3.7 3.7 0 0 0 .5 2.5c.2.5 1.2.5 1.9.7z"/><path d="M98.3 184.8a16.5 16.5 0 0 1 .4-3.2c1.2-4.9 2.4-9.7 3.7-14.5a15.4 15.4 0 0 0 .3-6.4 4.9 4.9 0 0 1 .9-3.5 38.8 38.8 0 0 0 6.2-11.5 16.5 16.5 0 0 1 1.4-2.6l.4.2a18.7 18.7 0 0 1-.7 2.2c-1.5 4.3-3 8.6-6.1 12.1-1 1.2-.8 2.5-.6 3.9.6 3-.5 5.8-1.3 8.6L99.2 184l-.3.8zm-12.4-61.9c-.5-2.2 4.7-15.6 6.7-16.8zm9.8 31.4a20.1 20.1 0 0 1-2.9.7 2.3 2.3 0 0 1-1.7-.8 5.7 5.7 0 0 1 0-5.5c.1-.3.6-.5.9-.7a4.3 4.3 0 0 1 .2 1.1c0 1-.2 2.1-.1 3.1s.7 1.9 2.3 1.6h.8zm-3.8 23c-2.2 1.1-4 .9-4.6-.5s-.1-4.5 1.2-5a25.4 25.4 0 0 0 .1 3.9c.2 1.9 2.2.7 3.3 1.6zm-3.6-45.1c-1.3.7-2.5 1-3.5 0s-.5-3.4.7-4.8 1.2-1 1.8-.4a18.1 18.1 0 0 0-1.4 3.3c-.4 1.8 1.7.8 2.4 1.9zm22.8-3.3c-2.1.3-2.8-.2-3.3-2.4s-.2-3 1.1-3.4c-.1 2.2-.5 4.5 2.2 5.8zm-4.7 48.9c0 .7.1 1.3.1 2.2l2.2-1.8a2.4 2.4 0 0 1-2 2.8 1.8 1.8 0 0 1-1.9-1.8c0-1 .4-1.4 1.6-1.4zm43.5-106.5c.1-7.1 3-14-.5-20.9l.7-.3a15.8 15.8 0 0 1 1.2 1.5 12.6 12.6 0 0 1 1.3 8.7c-.6 3.3-1.4 6.7-2.2 10 0 .3-.3.6-.5 1zm-31.9 13a2.7 2.7 0 0 1-3 .5 3.1 3.1 0 0 1-.7-3.6c.4-.9.8-1.7 2-1.4-.4 1.2-1 2.3-.8 3.2s1.6.9 2.5 1.3zm6.4-18.1a2.1 2.1 0 0 1-2.2 1.9c-.7 0-1.9-.4-2.1-.9a10.1 10.1 0 0 1 0-3c0-.1.5-.2.8-.2s.3.3.4.5a18.4 18.4 0 0 1 .5 2.5zm15 7.7l3.2-1.6c.2.8-.1 1.2-1.2 2.1a2.2 2.2 0 0 1-2.7.3 6.4 6.4 0 0 1-1-2.2c0-.2.5-.6.7-.9l.6.8zm9.3 6.1c-1.3 2.9-2.6 5.6-4 8.6-.5-1.9 2.3-8.2 4-8.6zm-23.8 9.4a7.8 7.8 0 0 0-.5 1.4v1.1a2.5 2.5 0 0 0 1.2-.1 17.3 17.3 0 0 0 2.1-1.3 3.3 3.3 0 0 1-2.9 2.7 1.4 1.4 0 0 1-1.7-1.3 2.1 2.1 0 0 1 1.8-2.5zm7.8-34.5c-.7-.2-1.7-.2-1.9-.7a3.7 3.7 0 0 1-.5-2.5c.3-1 .7-2.3 2.4-2.1-.2 1.6-3 3.2 0 4.7z"/></symbol><symbol id="warning" viewBox="0 0 295.8 340.8"><path d="M107 11.7c-1-.6-2.7.3-2.5-1.4s1.7-1 2.6-1c33-.5 66-.4 98.9-.6 13.5-.1 26.9.4 40.4-.2 1.8-.1 2.3.9 2.6 2.3 2.9 11.6 5.9 23.3 8.8 35q7.1 28.1 14 56.1c5 19.6 9.9 39.3 14.8 58.9 1.1 4.4 2.1 8.8 3.3 13.1a7.2 7.2 0 0 1-.5 5q-30.3 67.4-60.5 134.7l-9 19.9a2.8 2.8 0 0 1-3.2 1.9c-7.7-.5-15.4-.8-23.1-1.1l-25.3-1.3-22.3-1-25.7-1.2-22.5-1-24.7-1.3c-5.1-.2-10.2-.6-15.2-.6-2.1-.1-3-.8-3.4-2.7-2.4-9.8-4.8-19.5-7.3-29.2q-7.4-29.1-14.6-58.4c-4.4-17.4-8.8-34.9-13.1-52.3L4.8 126.8a5 5 0 0 1 1.2-5q34.3-37.2 68.5-74.6L106 12.9zm1.9-.3a4.3 4.3 0 0 1-1.1 4.6c-9.6 10.3-19.1 20.7-28.6 31.1L8.3 124.2a2.3 2.3 0 0 0-.7 2.6c1.1 4.1 2.1 8.3 3.1 12.4 4.4 17.8 8.9 35.7 13.3 53.5s8.7 34.5 13 51.8 8.7 35.1 13.1 52.6l6.3 25.2c.2.9.5 1.7 1.7 1.7 3 0 5.9.1 8.8.3l29.3 1.3 25.5 1.2 21.4 1 25.8 1.3 22.9 1.1 24.2 1.1a2.1 2.1 0 0 0 2.5-1.5 51.1 51.1 0 0 1 2.2-4.8q20.9-46.5 41.8-92.9c8.1-18.2 16.3-36.3 24.5-54.5a4.7 4.7 0 0 0 .3-3.3c-2.2-8.5-4.2-17-6.3-25.4-6-24.2-12.1-48.3-18.1-72.5-5.2-20.9-10.3-41.8-15.5-62.7-.3-1.5-1-1.9-2.5-1.9h-17.8l-66.6-.2c-14.5.1-29.1-.1-43.6-.2z"/><path d="M211.5 84.3a43.3 43.3 0 0 1-3.5 18.5 11.1 11.1 0 0 0-.8 7.4c.9 3.1-.6 5.6-2.4 7.9a6.6 6.6 0 0 1-2.3 2.1c-2.6 1.4-3.9 3.7-5.3 6.2a120.7 120.7 0 0 1-10.9 17.4 65.1 65.1 0 0 0-9.2 17c-1.5 4.2-4.1 7.6-6.3 11.3a61 61 0 0 0-6.5 15.1 2.8 2.8 0 0 0 0 1.8c2.4 5.5.1 10.1-2.8 14.5a5.9 5.9 0 0 0-1.1 1.9c-1.5 7.1-3.3 14.2-4.5 21.3s-3.7 11.3-6.5 16.5c-1.9 3.4-5.2 5.1-9 6.1-10.4 2.6-18.6-3.6-22.9-11.3s-6.5-18-7.3-27.6c-.2-3.1 0-6.2-1.6-9.2s-.3-6.4.9-9.2a19.8 19.8 0 0 0 1.8-7.9c.6-14.3 2.9-28.3 8.8-41.5a2.3 2.3 0 0 0 .4-1.4c-.5-4 1.5-6.8 4.4-9.1a10.6 10.6 0 0 0 2.7-3.3c6.7-11.2 13.4-22.4 21.2-32.8a6.9 6.9 0 0 0 1.6-4.2c.1-4.7 2.9-7.9 5.8-11l1.8-1.6c4-2.8 7.2-5.9 8.3-11 .7-2.8 2.5-5.4 3.9-8.1 2.6-5.1 7-7.7 12.6-8.6 3.3-.6 6.7-1.6 10.1-.9a17.2 17.2 0 0 1 10.7 6.5c6 8.2 8.1 17.4 7.9 27.2zm-3.4-.4c0-.7-.1-1.4-.1-2.2-.1-7.7-1.8-14.9-6.4-21.4a14.6 14.6 0 0 0-8.6-6c-3.9-1-7.7.2-11.4.9s-7.6 3.6-9.6 7.7-2.2 5.4-3.4 8a18.1 18.1 0 0 1-6.7 8c-5 3.4-8.4 7.8-9.3 13.9a12.2 12.2 0 0 1-2.1 4.8c-4.8 7.1-9.9 14-13.9 21.6-2.2 4.2-5.2 8-7.3 12.2-.3.6-.9.8-1.4 1.2-2.1 1.8-4.7 3.6-4.7 6.6a20.3 20.3 0 0 1-1.8 7.8c-5.1 12.7-7.2 25.9-7.5 39.4a15.6 15.6 0 0 1-1.2 5.6c-1.8 3.9-2.6 8-.2 12.1a2.4 2.4 0 0 1 .3 1.2 95.2 95.2 0 0 0 1.2 13.1c1.1 7 3 13.8 7 19.7s8.6 9.3 15.8 8.7c3.9-.3 7.7-1.1 9.8-4.8s4.8-8.5 5.8-13.4c1.4-7.1 2.7-14.1 4.3-21.2a17.9 17.9 0 0 1 3.2-7 8.7 8.7 0 0 0 1.9-4.4 25.9 25.9 0 0 0-.4-6.8c-.6-4.2 1.2-7.8 2.8-11.4 5.1-12.2 10.9-24 18.6-34.7a150.3 150.3 0 0 0 13.6-22.4c.2-.4.4-.9 1-1s2.2-1.4 3.2-2.2c2.6-2.2 3.8-4.8 2.8-8.1a7.8 7.8 0 0 1 .4-5.2c2.8-6.5 4.7-13.1 4.3-20.3zm-92.8-59.4a6.1 6.1 0 0 1-2.1 3.5c-7.4 7.7-14.9 15.3-22.1 23C79 63.9 66.5 76.3 54.3 88.9c-9.3 9.5-17.7 19.6-26.7 29.3-3.2 3.3-6.3 6.7-9.2 10.3a2.9 2.9 0 0 0-.6 3.1c1.8 6.3 3.5 12.7 5.1 19 3.8 15.2 7.6 30.3 11.3 45.5s8.2 32.5 12.2 48.8 7.7 30.9 11.5 46.3c1.4 5.7 2.9 11.4 4.2 17.1.3 1 .7 2.7-.8 2.9s-1.2-1.3-1.4-2.3C54.4 286.9 49 265 43.5 243c-4.8-19.5-9.5-39.1-14.3-58.6-4.1-16.7-8.4-33.3-12.2-50-.4-1.4-.7-2.9-1-4.3a1.4 1.4 0 0 1 .4-1.2C32.3 109.4 49 90.6 66.7 72.7c15.5-15.8 30.8-31.9 45.8-48.1l1-1.1c.4-.3.9-.6 1.4-.3a1.2 1.2 0 0 1 .4 1.3zm10.6 288.4l22.7 1.2 18.4 1.1 24 1.7 22.4 1.6a2.3 2.3 0 0 0 2.7-1.7c5.4-13.5 11.3-26.8 17.1-40.2l41.6-94.2c.3-.7.6-2.3 1.8-1.7s.7 2.2.2 3.3l-10.5 23.7c-11.6 26.3-23.3 52.7-35 79-4.9 11-9.8 21.9-15.1 32.7a8.7 8.7 0 0 1-.7 1.7 1.5 1.5 0 0 1-1.6 1l-34.1-2.5-34.6-2.6c-7.6-.6-15.3-1.3-22.9-2.3-.7-.1-1.3-.2-1.2-1.1s.8-.6 1.3-.6h3.5z"/><path d="M205.9 24.3l33.3-.6c3.3-.1 3.3-.1 4.1 3.1s2.2 8.1 3.2 12.2c2.8 11.3 5.6 22.7 8.3 34.1 4.4 18.5 8.7 37 13.1 55.6 2.4 10.3 4.8 20.8 7.2 31.2a4.1 4.1 0 0 1 .2 1.6c-.1.7 0 1.6-1 1.7s-1-.8-1.2-1.4c-.6-2.5-1.1-4.9-1.7-7.3-3.3-13.7-6.5-27.3-9.8-41-2.7-11.5-5.4-23-8-34.5l-9.9-43.2c-.5-2.3-.9-4.5-1.3-6.8s-.7-1.9-2.2-1.8l-32.3.4c-16.1.3-32.3.3-48.4.2l-2.4-.2c-.5-.1-.9-.3-.9-.9s.5-.9 1.1-1l5.1-.4 43.5-1zm-57 239.1c1.7-.4 2.3.5 2.6 2.3 1.3 7.5 2.8 15 4.2 22.5.5 2.8.4 3-2.3 3.9L120.3 303c-2.6.8-3 .7-3.5-2l-7.5-36.7c-.3-1.4.1-2.2 1.6-2.4l17.3-2.8 9.6-1.4h1.3c.4.1 1.1-.2 1.2.4s-.6.9-1 1l-12.7 2.6-13.2 2.3c-1.3.2-1.6.7-1.3 2 2.4 11.1 4.7 22.3 7 33.5.2 1 .5 1.2 1.6.9l31.9-10.4c.9-.3 1.1-.6.9-1.4-1.4-7-2.7-14-4-21-.3-1.4-.8-1.8-2.2-1.6l-24.6 3.3c-1 .1-1.3.3-1.1 1.4 1 4.9 1.9 9.8 2.8 14.8.2.8.4 1.2 1.4 1 5.2-1.2 10.3-2.2 15.4-3.2 1-.2 1.2-.6.8-1.6s-1.5-3.8-2.2-5.8-.7-1-1.6-.8c-2.9.9-5.9 1.6-8.8 2.4l-.5.2c-1.1.1-2.6.7-2.9-1s.9-1.7 2-2l11-2.6a1.9 1.9 0 0 1 2.6 1.3c1.1 3 2.4 6 3.5 9s.3 2.3-1.7 2.8l-18.2 3.9c-2.3.5-2.8.2-3.2-2.1-1.1-5.7-2.2-11.3-3.2-16.9-.5-2.7-.2-3 2.8-3.4l25.6-3.2zm1.7-130.8c-1.2-5.8-.2-10.9 4.4-15a41.8 41.8 0 0 1 5.7-4.5c2.9-1.8 4.6-4.8 6.7-7.4s5.8-8.2 8.6-12.3 3-6.1 4.3-9.2c.2-.4.1-1.3.7-1.1s.7 1 .5 1.5a53.8 53.8 0 0 1-2.8 7 191.9 191.9 0 0 1-12.2 17.7 41.6 41.6 0 0 1-8 7.7 25.2 25.2 0 0 0-4.8 5c-1.4 1.5-1.7 3.4-1.8 5.4a24.2 24.2 0 0 1-.6 4.7c-.1.3-.3.6-.7.5zm-21.1 14.5a53 53 0 0 1 4.6-14.6c2.6-5.4 6.4-10 9.8-15l12.7-18.8c.8-1.2 1.8-2.4 2.8-3.7.8.8.4 1.4 0 1.9-5.9 8.8-11.5 17.8-17.6 26.4-4.7 6.6-8.7 13.6-10.9 21.6a3.3 3.3 0 0 1-1.4 2.2zm23.9 37.2c.5 1.2-.2 2.1-.5 3-1.9 5.4-3.8 10.8-7.7 15.1-1.2 1.5-.9 3.1-.6 4.8.7 3.7-.7 7.2-1.7 10.8-1.6 5.7-3.5 11.4-4.6 17.2-.1.4-.1.8-.5 1s-.6-1.1-.5-1.8c.8-5.7 2.6-11.2 4-16.7.7-2.8 1.8-5.6 1.7-8.6 0-.3.1-.8-.1-1.1-1.2-2.9 0-5.3 1.8-7.5a40.1 40.1 0 0 0 6.6-12.4 11.9 11.9 0 0 1 2.1-3.8zm7.8-18.4c-.8-.3-.5-.9-.3-1.5 1.2-2.4 2.5-4.9 3.5-7.4 2.5-6.1 5.8-11.8 8.1-18a7.4 7.4 0 0 0 .5-2.5c.2-3 1.9-5 4.1-6.9.2-.2.5-.6.9-.2s0 .6-.2.8c-2.2 2.3-3.1 5.1-3.6 8.2s-2.9 7.6-4.6 11.3c-2.3 5.3-5.1 10.4-7.8 15.5-.2.3-.2.7-.6.7zm-32.5 6.5a16.8 16.8 0 0 1 2.9-7.8c3.4-5.1 7.1-9.9 9.9-15.3.8-1.5 1.4-3.1 2.2-4.6s.3-.8.7-.6.4.6.3.9-.6 1.9-1.1 2.8a99.1 99.1 0 0 1-9.8 16.6c-2.3 3.3-4.3 6.9-3.5 11.2.1.3.1.6-.3.7s-.5-.2-.6-.5a9.8 9.8 0 0 1-.7-3.4z"/><path d="M205 77.6a69.6 69.6 0 0 1-3 16.3c-.1.4-.1 1-.7.8s-.2-.7-.1-1c.6-5.3 1.7-10.6 1.7-16 0-2.1 0-4.4-1.3-6.3a1.9 1.9 0 0 1-.2-.7c-.1-.6-.8-1.5 0-1.8s1.3.5 1.7 1.2a13.8 13.8 0 0 1 1.9 7.5zm-83.3 81.2c-.5-.2-.4-.6-.3-.9a111.5 111.5 0 0 1 6.9-18c.3-.7.6-2 1.4-1.7s-.1 1.5-.3 2.1a179 179 0 0 0-7 17.6c-.1.4-.2.8-.7.9zm12 39.3a7.4 7.4 0 0 1-3.4 1 2.3 2.3 0 0 1-1.6-.4c-1.7-1.1-1.7-6.9-.1-8.1a1 1 0 0 1 .9-.2c.5.3.3.8.2 1.2a9.4 9.4 0 0 0-.3 4.1c.2 1.7 1.2 2.3 2.8 2s1.1-.4 1.5.4zM123.1 224a7.2 7.2 0 0 1 .9-3.4c.2-.3.4-.8.9-.6s.4.6.3 1.1l-.3 1.9c-.1 2.9.4 3.6 2.9 3.4.4 0 1-.2 1.1.3s-.6.7-1 .8c-3 1-4.8-.3-4.8-3.5zm-.4-52.5c-1.8 0-2.7-.6-2.9-2.2a6.6 6.6 0 0 1 1.6-4.7c.6-.7 1.3-.9 2-.3s-.3 1-.6 1.3a4.6 4.6 0 0 0-1.1 2.9 1.1 1.1 0 0 0 1 1.4c.7.1 1.8-.1 1.7.8s-1.3.6-1.7.8zm36.9-59.5c-1.9.1-3.1-1.4-2.9-3.4a5.8 5.8 0 0 1 .7-2.1c.5-.7 1.1-1.5 1.9-1s-.1 1.1-.4 1.6a3.1 3.1 0 0 0-.3 2.8 2 2 0 0 0 2.5.7c.3-.1.7-.3.9.2s-.3.6-.7.7zm6-24.6c.1.6-.1 1.5.6 2s1.5 0 2.3-.3.6-1 1.1-.3-.2.9-.5 1.2a3.5 3.5 0 0 1-4.2.6 3.8 3.8 0 0 1-.7-4.2c.2-.5.6-.8 1.1-.6s.4.9.3 1.6zm26.9 8.6a3.7 3.7 0 0 1-4.3 3.5 2.7 2.7 0 0 1-1.9-3.5c.1-.4.3-.7.7-.7a.8.8 0 0 1 .8.6c.2.7-.1 1.8.9 1.9a3.4 3.4 0 0 0 2.8-1.2c.2-.3.4-.7 1-.6zm2.5 20.1c-.5-.2-.5-.5-.4-.9a60.9 60.9 0 0 1 3.7-8.8c.2-.4.5-.7.9-.6s.4.7.2 1.1l-4 8.8c0 .2-.3.3-.4.4zm-24.9 6.2q-1.9-.1-2.1-1.8a3.2 3.2 0 0 1 1.4-3c.5-.3.9 0 .8.6a9.3 9.3 0 0 1-.5 1c-.2.5-.6 1 0 1.5s1 .1 1.5-.1l1.5-1c.4-.3.8-.9 1.2-.3s-.3.8-.6 1.1a5.5 5.5 0 0 1-3.2 2zm-19.8 39.3c-.1 1.6 0 3.4 2 4.4a.5.5 0 0 1 .3.7 1 1 0 0 1-.7.2 2.7 2.7 0 0 1-2.5-1.8 8.3 8.3 0 0 1-.6-4.4c.1-.7.3-1.4 1.1-1.3s.4.9.4 1.4zm0 66.6a3.1 3.1 0 0 1-2.3 3.2 1.8 1.8 0 0 1-2.2-.8 2.4 2.4 0 0 1-.2-2.7 1.4 1.4 0 0 1 1.1-.6c.5.1.7.4.6.8s-.4 1.4.3 1.6 1.2-.5 1.6-1l.5-.9zm26.4-157a7.2 7.2 0 0 1 1.8-3.1 1.1 1.1 0 0 1 1.3-.2c.6.4 0 .8-.3 1.2l-.9 1.6c-.4 1.1-.6 2.2.9 2.8s.6.2.5.6-.4.3-.7.3-2.6-1.2-2.6-3.2z"/></symbol><symbol id="white-jar" viewBox="0 0 125.6 258.7"><path fill="#fff" d="M68.9 258.5c-9.1.1-17.8-.8-26.6-1.6-3.3-.3-6.7.3-9.9-.4-8-1.6-16.3-2.1-23.3-7.3-3.6-2.8-5.9-6-6.4-10.6s-1.4-7.3-1.5-11.1-.1-5.1-.2-7.7c-.2-4.6-.6-9.1-.5-13.7s.6-6.8.3-10.2c-.8-8.2.3-16.5-.4-24.8A68.3 68.3 0 0 1 .8 161c.5-4.6-.4-9-.2-13.6.3-13.4-.8-26.8-.6-40.2.1-3.1.7-6.2.8-9.2S1 89.7.7 85.6a75.2 75.2 0 0 1 .6-13.4A65 65 0 0 1 3 61.6a28.7 28.7 0 0 1 8.3-14 11.1 11.1 0 0 0 3.4-7.3h.1c.2-1.2.8-2.5.5-3.5s-2.1-.6-3.1-1.1-.8-.3-.8-.7-.3-3.6.7-5.2l.6-.5c.4-.3 1.4.2 1.4-.4s-.1-2.4 0-3.6l-.6-.2-1.4-.2c-2.6-.5-2.9-1.3-1.3-3.4s1.3-2.6 2.3-3.7-.1-1.2-.1-1.8-.6-3.9-.8-5.8a7.3 7.3 0 0 1 6.3-7.8C27.6.8 36.8-.3 46.1.1c6.8.3 13.7 1 20.5.6 8.9-.5 17.7.1 26.5.4a74.3 74.3 0 0 1 18 3.4 1 1 0 0 1 .8 1.1c.1 2.1.6 4.4.1 6.4s1.2 6 1.3 9.1c0 .6.5.5.8.7a2 2 0 0 1 1.6 1.7 2.1 2.1 0 0 1-1.3 1.9 7.1 7.1 0 0 1-2.1 1.1c-2.1.2-1.6 1.7-1.6 2.9s.4.4.8.4a4.1 4.1 0 0 1 3.5 3.5 1.3 1.3 0 0 1-.7 1.4 2.4 2.4 0 0 1-1.1.6c-.9.4-2.5.8-2.4 1.1s-.2 2.7.4 4a20 20 0 0 0 1.6 2.8c4.4 5.7 6.8 12.5 10 18.9a24.8 24.8 0 0 1 2 13.7c-.7 8.5-.2 17 .2 25.5.2 5.2-.5 10.3.1 15.5.8 7.9.4 15.8.4 23.6-.1 4.6.2 9.2 0 13.7-.1 2.1-.5 4.3-.4 6.4.7 9.6-.4 19.1-.3 28.7.1 7.6.6 15.2.5 22.8a147.1 147.1 0 0 1-1.2 16.2c-.4 3.3-.3 6.6-1.1 9.9a18.1 18.1 0 0 1-5.5 9.7c-2.1 1.9-4.4 3.9-7.2 4.7-6.6 1.8-13 3.9-19.8 4.8s-14.5 1.8-21.6 1.2zm.6-2.2c5.4.6 11.8-.3 18.1-1.1s13.9-2.9 20.7-4.7c3.2-.9 5.5-2.9 7.7-5.1a15.2 15.2 0 0 1 2.2-2.2c1.8-1.2 2.4-2.9 2.9-4.9s.7-7 1.2-10.5a136.5 136.5 0 0 0 1.4-21.2c-.1-6.1-.4-12.2-.4-18.3-.1-8.1 1-16.2.4-24.3-.5-6.2.5-12.5.3-18.9-.3-11 .1-22-1-32.9-.5-4.1.5-8.2.1-12.2a155.4 155.4 0 0 1-.3-24.6 20.1 20.1 0 0 0-.3-6.9 43.2 43.2 0 0 0-4.8-11.3c-2.6-4.2-3.9-9-7.1-13a7.5 7.5 0 0 1-1.9-6.3c.1-.7-.2-.9-1-.8-6.3 1.2-12.6 2-18.9 3.2-8.1 1.4-16.3 1-24.5 1.7-6.4.6-12.7-.5-19-1-3.2-.3-6.5-.1-9.7-.3a106.6 106.6 0 0 1-17.7-3.5c-.6-.2-1-.4-1.1.5-.3 4.5-1.6 8.6-5 11.9a21.5 21.5 0 0 0-6.1 9.7 61.6 61.6 0 0 0-2.5 11.3c-.4 4.8-1 9.5-.7 14.3a112.7 112.7 0 0 1 .2 11.6c-.3 5.4-.9 10.7-.8 16.2 0 11.2 1 22.5.4 33.7-.3 4.7.8 9.4.4 14.1a116.3 116.3 0 0 0-.4 11.8c.1 4.2.5 8.4.2 12.7a79.9 79.9 0 0 0-.1 9.8 67.6 67.6 0 0 1-.1 9 49.2 49.2 0 0 0-.2 9.4c.3 4 .2 8 .5 12.1s0 10.6 2.5 15.6a15.8 15.8 0 0 0 4.6 5.9c4.4 3.4 9.4 5.1 15 6.1a89.6 89.6 0 0 0 18.6 1.9c.2-.1.3 0 .5 0 8.2.7 16.5 1.7 25.7 1.5zm-53.7-246c-1.3-1.2-.9-2.3-.4-3.4s-.1-.7-.5-.9-.7 0-.9.4a5.8 5.8 0 0 0-.5 1.4c-.6 3.1.3 6.1.6 9.1.1.6.6.6 1.1.7l9.5.6c7.9.5 15.9.8 23.8.8 11.8-.2 23.7-.1 35.5-1.2 6-.7 12-.5 17.9-1.9 2.6-.7 5.3-.8 7.7-2.1.7-.4 1.3-.7 1.2-1.6s-.1-2.3-.1-3.4-.2-2.2-1.8-1.2a6 6 0 0 1-1.9.6c-.8.1-1.2.5-1.1 1.5a6 6 0 0 1-.3 2.9c-.6-1.1-.3-2-.5-2.9s.1-.9-.4-.9-.3.5-.3.9a8.8 8.8 0 0 1-.6 2.7c-.7-.8-.4-1.7-.4-2.5s.4-.9-.3-1-.6.5-.7.9-.2 2.7-.4 4.2c-.7-1.2-.7-1.5-.5-4.1.1-.3.3-.7-.3-.8s-.6.2-.6.6a11.8 11.8 0 0 1-.4 2c-.1.4.2 1.1-.4 1s-.5-.7-.6-1.1.7-1.9 0-2.4-1.7-.1-2.6-.1h-1.1c-.7-.1-.9.2-.9.9a17.5 17.5 0 0 1-.5 4.4 10.8 10.8 0 0 1-.6-4.6c0-.2.2-.6-.3-.6s-.2.4-.3.6-.1 1.9-.2 2.8.1.8-.4.7-.3-.4-.3-.8v-1.9c-.1-.4.3-1.1-.3-1.2s-.4.7-.4 1.1-.1 3.1-.2 4.6.4.9-.2.9-.6-.5-.6-.9a12.9 12.9 0 0 1-.1-4.8c0-.3.3-.8-.3-.7s-.9-.3-.9.5a15.2 15.2 0 0 1-.3 2.1c-.6-.5-.5-1.1-.6-1.7s.2-.8-.4-.8-.7.4-.8.8-.1 1.6-.3 2.6a3.8 3.8 0 0 1-.4-2.5c0-.4.1-.8-.5-.8s-.7.3-.7.7v2.2c-.1 1.5-.3 2.1-.8 2.6a16.3 16.3 0 0 1-.1-4.4c0-.8-.2-1.1-1-1l-8.3.4c-.7 0-.6.4-.6.9s-.1 3.9-.9 5.7a20.9 20.9 0 0 1-.1-5.6c0-.3.3-.8-.1-.9h-1.5c-.4.1-.2.5-.2.8v3.3c-1.1-1.5-.5-3.1-1.5-4.5-.1 1.7-.2 3-.3 4.3s.2.7-.2.8-.6-.4-.6-.8a18.2 18.2 0 0 1 0-3.3c0-.4.1-.7-.4-.7l-14.7-.2c-.5-.1-.7.1-.5.7a4 4 0 0 1 .1 2.9 10.9 10.9 0 0 1-.9-2.1c-.2-1.4-.9-1.7-2.2-1.7H38.9c-.7 0-1 .2-1 1s-.1 2.7-.2 4.1c-1-1.3-.8-2.7-.9-4.1s.2-1-.6-1-.6.5-.6 1a5.3 5.3 0 0 0-.1 1.3c-.7-.5-.6-1.1-.6-1.7s0-.6-.4-.6-.4.3-.4.6V13c-.9-.7-.6-1.4-.7-1.9s.4-1.4-.6-1.4-.5.9-.6 1.4-.2 2.2-.3 3.3c-.8-1.3-.7-2.7-.8-4.1s0-.7-.5-.8-.5.2-.6.5 0 2.2-.5 2.1-.3-1.3-.4-2.1-.1-.4-.3-.4-.3.2-.3.4a28.9 28.9 0 0 0-.4 2.9c0 .2.2.6-.3.6a.7.7 0 0 1-.4-.7c.1-.9.1-1.8.2-2.6s.1-.9-.5-.9c-2.3 0-4.4-1.1-6.6-1.6-.7-.2-.8.1-.8.7a6.4 6.4 0 0 1-.3 3c-.9-1.1-.5-2.2-.6-3.3s0-.9-.6-.9-.4.5-.4.8-.3 3.1-.4 4.6a15.2 15.2 0 0 1-.2-5.2c0-.4-.1-.6-.4-.7s-.5.1-.6.5a7.8 7.8 0 0 0-.4 3.1zM42 21.9a2.4 2.4 0 0 1 1.7-.5c2.1 0 4.2-.2 6.3-.1 10.1.2 20.3.1 30.4-.2 1 0 1.1-.3 1.1-1.2s-.6-.7-1.1-.7c-2.3.2-4.5.5-6.7.5-10.7-.2-21.3.7-31.9.3-8.1-.4-16.2-.6-24.3-1.5-2.5-.3-4.7-.4-5.5 2.7 0 .3-.3.5-.4.7s-1 1-.7 1.6 1.1.5 1.7.6a58.6 58.6 0 0 1 9.3.9l4.7 1c5.3.8 10.7 0 16 .7s13.6.8 20.4.9c15.6 0 31.2.3 46.7-2.6a8.8 8.8 0 0 0 3.5-1c.2-.1.6-.2.5-.5a.6.6 0 0 0-.5-.5c-1.1-.2-1.4-1-1.5-1.9s-.3-.6-.8-.5A27.3 27.3 0 0 1 104 22c-2.2.2-4.4.7-6.6.7-5.9 0-11.8 0-17.7.2-8.5.2-17.1.1-25.6-.1a83.1 83.1 0 0 1-12.1-.9zm68.2-16.2c-.3-.5-.8-.5-1.3-.6a68.8 68.8 0 0 0-15.5-2.6c-8.7-.2-17.5-.9-26.2-.4-7.2.4-14.3-.2-21.5-.5a112.6 112.6 0 0 0-24.6 2.1c-2.1.4-4.2.3-6.2 1.5a32.1 32.1 0 0 0 3.5 1c2.8.5 5.4 1.8 8.2 2 7.1.6 14.2.6 21.3.6 8.8 0 17.6.4 26.4.2l10.2-.5c4.9-.1 9.8-.8 14.8-.7a23.1 23.1 0 0 0 10.9-2.1zm-42 29.7c5.7-.3 11.4-.4 17.1-1a180.4 180.4 0 0 0 21.8-3.7c1.6-.4 2.5-.7 2.2-2.6s-.1-1-.9-.8a126.2 126.2 0 0 1-14.9 1.8c-3.6.1-7.3.1-10.9.3-10.2.4-20.4-.1-30.6-.3-5.9-.2-11.8-1.5-17.7-1.3A36.5 36.5 0 0 1 22 26.2a39.1 39.1 0 0 0-5.8-1c-.3 0-.9-.2-1 .4a11.9 11.9 0 0 0 .3 3.3c.2.6 1.2.1 1.9.2l2.1.4c6.6 1.6 13.2 3.4 20 4.1 9.5.9 19 2.2 28.7 1.8zM63 40.1c10-.7 22.7-.5 35.2-3.4 4.6-1 9.5-1.1 13.9-2.9.4-.2 1.3-.1 1-.9s-.6-1.5-1.6-1.3l-1.4.3a148.5 148.5 0 0 1-23.8 4.3c-10 .8-19.9 1.4-29.9.7-7.5-.4-14.9-1.4-22.3-2.4s-13-4.6-20.1-4.4c-1.1 0-1.4.4-1.4 1.1s-1.2 2.1.6 2.5c6.4 1.6 12.8 3.6 19.4 4.5 3.5.5 7 .3 10.5.6 5.8.4 11.4 1.5 19.9 1.3zM88.4 21h5.4c.6 0 .9-.2.9-.9s-.6-1.1 0-1.1.5.7.6 1.2 0 .7.6.6.4-.4.4-.8-.1-.4-.1-.7-.3-.9.3-.9.5.4.5.8v.8c.1.3-.3.8.4.8s.3-.6.3-.9-.4-1.3.4-1.5 1.2.7 1.2 1.3.4 1 1.1.9c2.9-.3 5.8-.8 8.7-.9s1.9-.5 1.6-2.2-1-2.1-2.8-1.6c-8 2.2-16.4 2.7-24.7 3.2-.4 0-1.2-.3-1.1.4s-.1 1.7 1.4 1.5 3.2 0 4.9 0z"/><path fill="#fff" d="M19.9 246.1a21.4 21.4 0 0 1-9.8-7 15.9 15.9 0 0 1-3.4-9c-.3-6.5-1.5-12.9-1.8-19.3s.7-15.6 1.3-23.3c.3-4.6.6-9.3 1-13.9a188.7 188.7 0 0 0 1.1-23.8c-.1-4.7-.9-9.4-1.1-14.1a17.4 17.4 0 0 1 .4-6.8c.1 1.2.3 2.4.3 3.6.1 5.8 1.3 11.6 1.4 17.4s-.3 13-.8 19.5l-1.2 17.3c-.4 7.1-1.3 14.1-1.3 21.2 0 5.5 1.3 10.9 1.6 16.3.2 2.4.3 4.8.7 7.2.9 5.7 4.4 9.6 9 12.9zm96.6-78.2c.1-1.5.2-3 .2-4.5l.6-24.7c.1-5.8 0-11.5.1-17.3s1.3-11.7 1.4-17.6-.2-9.5-.5-14.2c-.3-2.6-.3-5.3-.4-8a43.3 43.3 0 0 0-1.1-9.5 1.4 1.4 0 0 1 .1-.9 16.5 16.5 0 0 1 1.4 5.7c.7 10.5 2 20.9 1.1 31.3-1.2 14.2-.3 28.4-1.2 42.6-.4 5.5-.4 11.1-1.3 16.7v.4zm-7.7 75.8c3-4.8 4.6-10.2 6.2-15.6 2.1-7 2.8-14.3 3.4-21.6.4-5.4.7-10.7.7-16.1a63.4 63.4 0 0 0-.4-7.6 4.7 4.7 0 0 1 .2-2 43.7 43.7 0 0 1 .9 5 176.5 176.5 0 0 1-1.3 32.5 66.9 66.9 0 0 1-5.7 19.6 14.4 14.4 0 0 1-4 5.8zm-78.9 7.2c2-.2 3.5.7 5.1.9 5.8.8 11.7 1.4 17.6.1s12.7-1.1 19.2-1 13.4.4 20.1.4a20.1 20.1 0 0 0 9.7-3.3l1-.4c-2.4 2.3-5.5 3.4-8.7 4.2a43.9 43.9 0 0 1-8.1.3c-8.2-.2-16.5-.3-24.7-.3-4.2-.1-8.2.9-12.3 1.5a41.2 41.2 0 0 1-8.6-.1 33.1 33.1 0 0 1-10.3-2.3zm-25-136.3c.4-4 .7-8.1 1-12.2.2-2.2.3-4.4.4-6.6.2-7.7 1.1-15.5 1.7-23.2a84.1 84.1 0 0 1 1.7-11.2c0-.2.2-.4 0-.6-1.5 17.9-2.9 35.9-4.3 53.9zm101.5-72.8c-.6 6.8 3.8 11.8 6 17.8-4.3-4.3-7.9-15.2-6-17.8zM18.6 40c2 4.8-1.9 7.7-3.8 11.2l1.8-3.5c.6-1.2 1.1-2.4 1.8-3.6s.3-2.7.2-4.1zm31.9-28.3c0-.7-.2-1.3.6-1.5s.6.4.5.7.3 2-.6 2.2-.4-1-.5-1.4zm-29.6 9.9c0 1 .2 2.2-.7 2.3s-.7-1.2-.8-1.9a13.4 13.4 0 0 1-.1-2c-.1-.5.1-.9.6-.9a.8.8 0 0 1 .8.7 16.2 16.2 0 0 1 .2 1.8zm4.3 2.3a4.4 4.4 0 0 1-1.2-3.1c-.1-.4.1-.7.6-.8s.6.3.7.7-.1 2-.1 3.2zM36.4 4.3a17.2 17.2 0 0 0-6.4.6c1.6.6 14 1.6 21.5 1.2s14.5.3 21.8.6a173.4 173.4 0 0 0 21.6-.9c-2.7-.7-5.5-.5-8.2-.5l-8.5.2a59.7 59.7 0 0 1-8.5-.6c-2.8-.5-5.6-1-8.4-1.3s-5.6-.4-8.4-.6c0-.4.2-.3.4-.3A63.8 63.8 0 0 1 68.4 4a36.4 36.4 0 0 0 7.4.6h16.4c1.8.1 3.6.5 5.4.7s.8 0 .8.5-.4.6-.8.7a37 37 0 0 1-8.8.9c-5.5 0-11.1 1-16.6.3-9.7-1.3-19.4-.8-29.1-1-4.7-.1-9.3-.6-14-.9-.3-.1-.7-.1-.8-.5s.1-.5.3-.6a13.2 13.2 0 0 1 7.1-1.2.7.7 0 0 1 .7.8zm59.6 27l-3.4.4c-4.1.5-8.3 1.2-12.4 1.5a126.9 126.9 0 0 1-18.5 0c-6.6-.6-13.2-1.5-19.8-2.1s-13-.5-19.3-2c-.4-.1-.9 0-.8-.5s.5-.2.8-.1c4.5 1.2 9.2 1.2 13.9 1.5s11.7.9 17.6 1.7a143.2 143.2 0 0 0 22.7.7C82.9 32.2 88.9 31 95 31h.9z"/></symbol></svg>