<svg height="64" viewBox="0 0 64 64" width="64" xmlns="http://www.w3.org/2000/svg"><circle cx="32" cy="32" fill="#2ba9e0" r="30.4"/><path d="m58.1 28.7a16.9 16.9 0 0 1 -.1 2.3 6.8 6.8 0 0 1 -2.2 4.8c-1.6 1.2-3.9 1.1-5.8.9h-1.6a4 4 0 0 0 -1.9.2 3.8 3.8 0 0 1 -1.5.5h-1.7a9.7 9.7 0 0 0 -3.4.1 11.9 11.9 0 0 0 -2.5 1.3 18.8 18.8 0 0 1 -2.4 1.3 2.8 2.8 0 0 1 -1.3.3h.2l1.2-.4c1.4-.7 2.6-1.8 4.1-2.4l.5-.2c2.1-.7 4.4.3 6.5-.5a4.2 4.2 0 0 1 1.5-.4h1.7l3.1.2a6.2 6.2 0 0 0 2.9-.9 4.9 4.9 0 0 0 1.8-2 14.2 14.2 0 0 0 .8-5.4zm-.1-.5a22.3 22.3 0 0 0 -2-2.8l.7.7a12.7 12.7 0 0 1 1.3 2.1z" fill="#353d16"/><path d="m58 28.4a14.2 14.2 0 0 1 -.8 5.4 4.9 4.9 0 0 1 -1.8 2 6.2 6.2 0 0 1 -2.9.9l-3.1-.2h-1.7a4.2 4.2 0 0 0 -1.5.4c-2.1.8-4.4-.2-6.5.5l-.5.2v-.3l.7-.3.8-.3a17.6 17.6 0 0 1 2.3 0 6.5 6.5 0 0 0 3.1-.2h.1l1.6-.5h1.7a16.1 16.1 0 0 0 3.1.1 5.4 5.4 0 0 0 2.7-.7 6 6 0 0 0 1.6-1.9 12.2 12.2 0 0 0 .7-5.1l-1.8-2.5c-2.9-2.6-7.1-3-11.3-3h-1a34.4 34.4 0 0 1 -6.4-.4h-.7l-1.2-.2a2.7 2.7 0 0 0 -1.4.5 4.5 4.5 0 0 1 -3.2.6l-1.6-.5h-.1c-.4-.2-.7-.4-1.1-.3s-.8.4-1.2.8l-.5.3a2.2 2.2 0 0 1 -2.5.5.9.9 0 0 1 -.6-.3 5.4 5.4 0 0 0 -1.2-.4.5.5 0 0 0 -.5.3c-.3.4-.5.9-1.1 1.1a3.1 3.1 0 0 1 -1.3.3h-.4l-3.7.8h-.6a11.1 11.1 0 0 0 -2.6.7 5.2 5.2 0 0 0 -1.8 1.8l-.3.3a5.7 5.7 0 0 1 -1.1 1.1l-.3.2a2.7 2.7 0 0 0 -.8.7 2.3 2.3 0 0 0 -.4 1.4c-.1.6-.1 1.2-.2 1.8s-.1 1.3-.1 2-.2 0-.2.1h-.3a17 17 0 0 1 .1-2.2 11.1 11.1 0 0 1 .2-1.7 2.6 2.6 0 0 1 .5-1.7 3.1 3.1 0 0 1 1.1-.9 5.7 5.7 0 0 0 1.1-1.1 6.6 6.6 0 0 1 2.2-2.2 17.8 17.8 0 0 1 3.3-.9l3.8-.7 1.5-.4a1.6 1.6 0 0 0 .9-.9c.7-1.2 2-.1 2.9.2a2 2 0 0 0 2.1-.4 4.3 4.3 0 0 1 1.9-1.3 2.4 2.4 0 0 1 1.4.5l1.5.5a4.9 4.9 0 0 0 2.9-.6 3.1 3.1 0 0 1 1.7-.5l1.9.3a44.6 44.6 0 0 0 7.3.3c4.1.1 8.6.4 11.6 3.2a22.3 22.3 0 0 1 2 2.8z" fill="#353d16"/><path d="m57.5 28.5a12.2 12.2 0 0 1 -.7 5.1 6 6 0 0 1 -1.6 1.9 5.4 5.4 0 0 1 -2.7.7 16.1 16.1 0 0 1 -3.1-.1h-1.7l-1.6.5h-.1a6.5 6.5 0 0 1 -3.1.2 17.6 17.6 0 0 0 -2.3 0l.7-.2a10.8 10.8 0 0 1 3.1-.1 4.6 4.6 0 0 0 2.9-1.5.1.1 0 0 0 -.1-.1 51.1 51.1 0 0 0 -5.5.5 11.4 11.4 0 0 0 -2.5.6 13.9 13.9 0 0 0 -2.1 1.1 11.5 11.5 0 0 1 -2.5 1.2c-1.3.7-2.8.7-4.2 1l-2 .7-.8.6a5 5 0 0 1 -.7.8 4.6 4.6 0 0 0 -1.8 1h-.1c-.1 0-.1.2 0 .2h.2v.4a.1.1 0 0 0 -.2 0h-1a4.9 4.9 0 0 0 -1.7.6 22 22 0 0 0 -3.7.5 15.5 15.5 0 0 1 -4.3 0l-2.3-.7 3-.7 1.3-.5c.1-.1.1-.2 0-.2a8.3 8.3 0 0 1 -4.7-.1l-1.1-.4a.7.7 0 0 1 -.6-.7c0-.3.3-.6.6-.8l.9-.6a11.5 11.5 0 0 1 2.5-1.2c.1 0 .1-.2 0-.2l-1.9.2-.9.2-.9.2a2.2 2.2 0 0 1 -1.6.1 1.6 1.6 0 0 1 -.8-1 3.2 3.2 0 0 1 -.2-1.4c.2-.3.3-.7.5-1a.5.5 0 0 0 .3.4 1.2 1.2 0 0 0 1.7-.2 5 5 0 0 0 1.1-1.7 10.4 10.4 0 0 1 1.2-1.8l.6-.5.4.2a4.9 4.9 0 0 0 -1.1 1.4c-.1.1 0 .1.1.1a33.6 33.6 0 0 1 5.4-2.6l1.6-.6c.2.2.4.4.6.4a.6.6 0 0 0 .7-.1 1.2 1.2 0 0 0 .5-1.1 3.2 3.2 0 0 1 1.4-.3l1.4-.3.7-.2.8-.2h4a1.8 1.8 0 0 0 -1 .7 1.4 1.4 0 0 0 .2 1.4 1.1 1.1 0 0 0 1.4.2 1.4 1.4 0 0 0 .6-1.3c0-.1 0-.1-.1-.1l4.2-.8a.8.8 0 0 0 .2.5 1 1 0 0 0 .9.7c.4 0 .7-.5.7-.8a.7.7 0 0 0 -.1-.6h.1a.1.1 0 0 0 .1.1 44.8 44.8 0 0 1 8.2-1 45.1 45.1 0 0 1 8.2.4l2.3.4a4.8 4.8 0 0 1 2 .7.3.3 0 0 0 .1-.2zm-13.4 5.1a1.3 1.3 0 0 0 -.4-1h-.5a1 1 0 0 0 -.9.1.7.7 0 0 0 -.3.6 2.8 2.8 0 0 0 -.1.9.4.4 0 0 0 .1.3l.4.2a1.4 1.4 0 0 0 .9 0 1.2 1.2 0 0 0 .8-1.1zm-2.7.4c.1 0 .1-.1 0-.1a18.2 18.2 0 0 0 -7 .8l-1.7.7a1 1 0 0 0 -.9-.2h-.1a1.3 1.3 0 0 0 -.7.6 1.1 1.1 0 0 0 -.1.5l-1.3.7-1.1.8c-.1 0-.1 0-.1.1h-.1c0 .1.1.3.2.2s.1-.1.1-.2a10.6 10.6 0 0 1 2.5-.9l.2.2a1.1 1.1 0 0 0 1.4 0 1.2 1.2 0 0 0 .5-1h.1l3-1h.1a.7.7 0 0 0 .8 1c.3 0 .5-.3.6-.6a.9.9 0 0 0 -.3-.6h1.3zm-.2-4.2c.1-.4-.3-.8-.7-1h-.1a.6.6 0 0 0 -.6 0 .5.5 0 0 0 -.3.5c0 .2-.1.4 0 .6s.1.3.3.4h1.1a.5.5 0 0 0 .3-.5zm-5.7 2c.1-.1.1-.2 0-.2h-3.2a2.8 2.8 0 0 0 -1.3.3l-.9.6-1 .7h-.2a.1.1 0 0 0 0 .2.1.1 0 0 0 .1.1.1.1 0 0 1 .1-.1 30.3 30.3 0 0 0 5.1-.9zm-9.1 2.4c0-.1 0-.2-.1-.2h-1.5a1.3 1.3 0 0 0 .1-.6 1.4 1.4 0 0 0 -.7-1.1 1 1 0 0 0 -.9-.1l-.4.2-.4.3a.9.9 0 0 0 -.1.9 1.4 1.4 0 0 0 .2.7 6.4 6.4 0 0 0 -2.9 1.8c-.1.1.1.2.1.1h.3l1.3-.5 1.3-.5c.9-.2 1.9.1 2.7-.2a1.8 1.8 0 0 0 1-.8zm-.9 5.4a2.1 2.1 0 0 0 0-.8c0-.1-.1-.1-.1-.2a.1.1 0 0 1 -.1-.1h-.2a1.8 1.8 0 0 0 -1.3.3.8.8 0 0 0 -.4 1.1 1.3 1.3 0 0 0 1.1.6 1.1 1.1 0 0 0 1-.9zm-4.2-1.5a1 1 0 0 0 -.8-1 .9.9 0 0 0 -1 0c-.4.3-.3.9-.1 1.3a1 1 0 0 0 1.1.6 1.1 1.1 0 0 0 .8-.9z" fill="#676b2c"/><path d="m57.5 28.4h-.1a4.9 4.9 0 0 0 -1.7-.6l-2-.4-4.1-.4a45.9 45.9 0 0 0 -8.3.1l-4.7.8h-.2a.5.5 0 0 0 -.4-.2h-.8q-.3.2-.3.3l-4.3.8a2.2 2.2 0 0 0 -1-.9h-.6a.1.1 0 0 0 -.1.1h-4l-.8.3-.7.2h-.8l-1.5.3a1.1 1.1 0 0 0 -.8-.8l.6-.2a16.8 16.8 0 0 1 3.2-.9c.1 0 .1-.2 0-.1h-5.7a8.3 8.3 0 0 0 -2.7.3l-1.1.6-1.2.7-2.7 1.6c-.1.1 0 .2.1.2l-.7.5a5.8 5.8 0 0 0 -2 3.1c0 .3-.1.7-.1 1s-.3.9-.5 1.3-.1 0-.1.1a2.1 2.1 0 0 1 -.4 1.1 6.1 6.1 0 0 0 -.5-1.2c0-.7.1-1.3.1-2s.1-1.2.2-1.8a2.3 2.3 0 0 1 .4-1.4 2.7 2.7 0 0 1 .8-.7l.3-.2a5.7 5.7 0 0 0 1.1-1.1l.3-.3a5.2 5.2 0 0 1 1.8-1.8 11.1 11.1 0 0 1 2.6-.7h.6l3.7-.8h.4a3.1 3.1 0 0 0 1.3-.3c.6-.2.8-.7 1.1-1.1a.5.5 0 0 1 .5-.3 5.4 5.4 0 0 1 1.2.4.9.9 0 0 0 .6.3 2.2 2.2 0 0 0 2.5-.5l.5-.3c.4-.4.8-.8 1.2-.8s.7.1 1.1.3h.1l1.6.5a4.5 4.5 0 0 0 3.2-.6 2.7 2.7 0 0 1 1.4-.5l1.2.2h.7a34.4 34.4 0 0 0 6.4.4h1c4.2 0 8.4.4 11.3 3zm-17.8-2.5c.1-.1.1-.2 0-.2a20.8 20.8 0 0 1 -2.5 0l-1.1-.2-1.2-.4a5.1 5.1 0 0 0 -2.1-.3l-.9.3a4.7 4.7 0 0 1 -.9.6 16 16 0 0 1 -2.3.3h-.1c-.1-.1-.2.1-.1.2a5.5 5.5 0 0 0 3.8-.1.5.5 0 0 0 .3.4.6.6 0 0 0 .9.1.9.9 0 0 0 .4-.8.5.5 0 0 0 -.2-.4h.2a10 10 0 0 0 2.1 1 4.9 4.9 0 0 0 2.4-.1z" fill="#a6ab65"/><path d="m57.5 28.4a.3.3 0 0 1 -.1.2 4.8 4.8 0 0 0 -2-.7l-2.3-.4a45.1 45.1 0 0 0 -8.2-.4 44.8 44.8 0 0 0 -8.2 1 .1.1 0 0 1 -.1-.1l4.7-.8a45.9 45.9 0 0 1 8.3-.1l4.1.4 2 .4a4.9 4.9 0 0 1 1.7.6z" fill="#231f20"/><path d="m54.7 24.4a7.1 7.1 0 0 1 1.3 1.2c-3-2.8-7.5-3.1-11.6-3.2a44.6 44.6 0 0 1 -7.3-.3l-1.9-.3a3.1 3.1 0 0 0 -1.7.5 4.9 4.9 0 0 1 -2.9.6l-1.5-.5a2.4 2.4 0 0 0 -1.4-.5 4.3 4.3 0 0 0 -1.9 1.3 2 2 0 0 1 -2.1.4c-.9-.3-2.2-1.4-2.9-.2a1.6 1.6 0 0 1 -.9.9l-1.5.4-3.8.7a17.8 17.8 0 0 0 -3.3.9 6.6 6.6 0 0 0 -2.2 2.2 5.7 5.7 0 0 1 -1.1 1.1 3.1 3.1 0 0 0 -1.1.9 2.6 2.6 0 0 0 -.5 1.7 11.1 11.1 0 0 0 -.2 1.7 17 17 0 0 0 -.1 2.2 12.8 12.8 0 0 0 .6 5.1 5.9 5.9 0 0 0 1.7 2.7 9.9 9.9 0 0 0 3 1.2l3.4.6a12.9 12.9 0 0 0 2.8.1h.6a11.5 11.5 0 0 0 3.1-1.1l1.6-.8a2.7 2.7 0 0 1 1.2-.3 2.3 2.3 0 0 1 1.4.1l1 .2a1.2 1.2 0 0 0 .8-.1 7.9 7.9 0 0 0 2.9-1.8l1.1-1.2h.1a1.3 1.3 0 0 1 1-.4h.2a1.2 1.2 0 0 0 -1 .3c-.2.1-.3.3-.5.5l-1.2 1.2-1.3.9a4.6 4.6 0 0 1 -1.6.7 3.2 3.2 0 0 1 -1.6-.3 4.3 4.3 0 0 0 -1.6 0 9.5 9.5 0 0 0 -2.9 1.3 11.2 11.2 0 0 1 -3.1 1 13.7 13.7 0 0 1 -3.5-.2l-3.4-.6a9 9 0 0 1 -2.8-1.3 5.7 5.7 0 0 1 -1.6-2.7 13.5 13.5 0 0 1 -.6-3.4 24.1 24.1 0 0 1 .1-3.8 11 11 0 0 1 .2-1.8 4 4 0 0 1 .3-1.5 3.2 3.2 0 0 1 1-1l1.2-1a11.5 11.5 0 0 1 2.1-2.3 8.7 8.7 0 0 1 3.1-1l3.9-.8 1.8-.4a1 1 0 0 0 .7-.4 2.1 2.1 0 0 0 .4-.6c.6-.9 1.7-.4 2.4 0a2.9 2.9 0 0 0 1.6.4 3.3 3.3 0 0 0 1-.6 3.9 3.9 0 0 1 1.9-1.2 1.7 1.7 0 0 1 1.2.2 4.7 4.7 0 0 0 1.5.6 3.7 3.7 0 0 0 1.8.1l1.6-.7a2.9 2.9 0 0 1 1.6-.4l1.7.3 3.9.4c2.5 0 5-.1 7.5.1a15.5 15.5 0 0 1 6.3 2z" fill="#353d16"/><path d="m47.2 34.9a.1.1 0 0 1 .1.1 4.6 4.6 0 0 1 -2.9 1.3 10.8 10.8 0 0 0 -3.1.1l-.7.2-1.1.3.5-.2 1.4-.5c1.1-.2 2.1 0 3.2-.1a4.4 4.4 0 0 0 2.3-1l-2.8.2-2.7.3-2.5.7-2.2 1.2c-.1.1-.2.1-.2.2l-1.7.7a5.7 5.7 0 0 1 -2.4.8h-.5a10.1 10.1 0 0 0 -3.5 1 2.7 2.7 0 0 0 -.8.7 2.7 2.7 0 0 1 -.8.7 7.1 7.1 0 0 0 -1.5.8h1.3c.2 0 .5.1.7 0a.3.3 0 0 1 .1-.2l.2-.2.6-.3.6-.3 2.1-1.1-.2.2-.2.2-.6.3-1.3.6-.6.3-.5.4c-.1.2-.2.3-.4.3h-2.1c-.1 0-.1-.2 0-.2h.1a4.6 4.6 0 0 1 1.8-1 5 5 0 0 0 .7-.8l.8-.6 2-.7c1.4-.3 2.9-.3 4.2-1a11.5 11.5 0 0 0 2.5-1.2 13.9 13.9 0 0 1 2.1-1.1 11.4 11.4 0 0 1 2.5-.6 51.1 51.1 0 0 1 5.5-.5z" fill="#231f20"/><path d="m46.9 35.1a4.4 4.4 0 0 1 -2.3 1c-1.1.1-2.1-.1-3.2.1l-1.4.5-.5.2h-.2l-.8.2-1.4.4h-.3c-.1.1-.2.1-.2.2v-.2c0-.1.1-.1.2-.2l2.2-1.2 2.5-.7 2.7-.3z" fill="#a6ab65"/><path d="m43.7 32.6a1.3 1.3 0 0 1 .4 1 1.2 1.2 0 0 1 -.8.9 1.4 1.4 0 0 1 -.9 0l-.4-.2a.4.4 0 0 1 -.1-.3 2.8 2.8 0 0 1 .1-.9.7.7 0 0 1 .3-.6 1 1 0 0 1 .9-.1h.5zm-.4 1.7a.9.9 0 0 0 .6-.9 1 1 0 0 0 -.5-.8.9.9 0 0 0 -1 .1c-.2.1-.2.4-.3.6v.7c0 .1 0 .2.1.2h1.1z" fill="#231f20"/><path d="m43.9 33.4a.9.9 0 0 1 -.6.9h-1.1c-.1 0-.1-.1-.1-.2v-.7c.1-.2.1-.5.3-.6a.9.9 0 0 1 1-.1 1 1 0 0 1 .5.7zm-2.5.5c.1 0 .1.1 0 .1l-2.6.8h-1.3a.9.9 0 0 1 .3.6c-.1.3-.3.6-.6.6a.7.7 0 0 1 -.8-1h-.1l-3 1h-.1a1.2 1.2 0 0 1 -.5 1 1.1 1.1 0 0 1 -1.4 0l-.2-.2a10.6 10.6 0 0 0 -2.5.9c0 .1-.1.1-.1.2s-.2-.1-.2-.2h.1c0-.1 0-.1.1-.1l1.1-.8 1.3-.7a1.1 1.1 0 0 1 .1-.5 1.3 1.3 0 0 1 .7-.6h.1a1 1 0 0 1 .9.2l1.7-.7a18.2 18.2 0 0 1 7-.6zm-.5.1h-1.5a19.2 19.2 0 0 0 -6.6 1.5l.3.4c0 .1.1.2.1.3a15.8 15.8 0 0 1 3.1-.9v-.3h1.2l1.2-.2zm-3.7 2.1a.7.7 0 0 0 .4-.6c0-.1-.1-.2-.1-.3a.5.5 0 0 0 -.4-.2h-.2c-.1.1-.2.1-.2.2s-.2.4-.1.6a.7.7 0 0 0 .6.3zm-4.5.9a.9.9 0 0 0 .2-1.1l-.3-.3c-.1 0-.2-.1-.1-.1h-.3a1 1 0 0 0 -1.1.6 1 1 0 0 0 .4 1.1.9.9 0 0 0 1.2-.2zm-1.7-.2c0-.1-.1-.2-.1-.3a10.4 10.4 0 0 0 -1.8 1z" fill="#a6ab65"/><path d="m40.5 28.8c.4.2.8.6.7 1a.5.5 0 0 1 -.3.5h-1.1c-.2-.1-.3-.2-.3-.4v-.6a.5.5 0 0 1 .3-.5.6.6 0 0 1 .6 0zm.4 1.3a.8.8 0 0 0 .2-.4l-.3-.5s-.1.1-.1 0-.7-.5-.9-.2-.1.3-.2.5a1.1 1.1 0 0 0 .1.5c.1.3.5.3.7.2z" fill="#231f20"/><path d="m41.1 29.7a.8.8 0 0 1 -.2.4h-.5c-.2.1-.6.1-.7-.2a1.1 1.1 0 0 1 -.1-.5c.1-.2.1-.4.2-.5s.7 0 .9.2.1 0 .1 0zm-1.7 4.3h1.5l-2.2.6-1.2.2h-1.2v.2a15.8 15.8 0 0 0 -3.1.9c0-.1-.1-.2-.1-.3l-.3-.4a19.2 19.2 0 0 1 6.6-1.2z" fill="#a6ab65"/><path d="m40.6 36.6-.8.3-.7.3-.8.2 1-.4h.2z" fill="#231f20"/><path d="m39.7 25.7c.1 0 .1.1 0 .2l-1.3.4a4.9 4.9 0 0 1 -2.4.1 10 10 0 0 1 -2.1-1h-.2a.5.5 0 0 1 .2.4.9.9 0 0 1 -.4.8.6.6 0 0 1 -.9-.1.5.5 0 0 1 -.3-.4 5.5 5.5 0 0 1 -3.8.1c-.1-.1 0-.3.1-.2h.1a16 16 0 0 0 2.3-.3 4.7 4.7 0 0 0 .9-.6l.9-.3a5.1 5.1 0 0 1 2.1.3l1.2.4 1.1.2a20.8 20.8 0 0 0 2.5 0zm-.6.2h-2.1a19.5 19.5 0 0 1 -2.3-.6 4 4 0 0 0 -1.5-.3l.4.2h.3a.1.1 0 0 1 .1.1l1.1.6a4.3 4.3 0 0 0 2.2.4 5.8 5.8 0 0 0 1.8-.4zm-5.6.5a.6.6 0 0 0 .2-.7l-.3-.4h-.8s-.1-.1-.1 0h-.1v.3a1.3 1.3 0 0 0 .3.8 1.1 1.1 0 0 0 .8 0zm-.5-1.4h-.4a1.9 1.9 0 0 0 -.9.5l-.9.5h-1.9a5 5 0 0 0 3.4-.2.8.8 0 0 1 -.1-.4.4.4 0 0 0 .1-.3h.7z" fill="#fdff99"/><path d="m39.1 37.2v.3c-1.5.6-2.7 1.7-4.1 2.4l-1.2.4a2.3 2.3 0 0 1 .7-.7h.3a10 10 0 0 0 1.9-1.2l1.5-.9z" fill="#353d16"/><path d="m38.5 37.2.8-.2-1 .4-1.4.5a4.1 4.1 0 0 0 -1.1.7 6.3 6.3 0 0 0 -1.2 1h-.4l1.7-1.4.7-.4c0-.1.1-.1.2-.2h.3z" fill="#8b8c46"/><path d="m37 25.9h2.1a5.8 5.8 0 0 1 -1.8.4 4.3 4.3 0 0 1 -2.2-.4l-1.1-.6a.1.1 0 0 0 -.1-.1h-.3l-.4-.2a4 4 0 0 1 1.5.3 19.5 19.5 0 0 0 2.3.6z" fill="#676b2c"/><path d="m37.6 35.5a.7.7 0 0 1 -.4.6.7.7 0 0 1 -.6-.3c-.1-.2-.1-.5.1-.6s.1-.1.2-.2h.2a.5.5 0 0 1 .4.2c0 .1.1.2.1.3z" fill="#a6ab65"/><path d="m36.9 37.9 1.4-.5-1.5.9a10 10 0 0 1 -1.9 1.2h-.3a6.3 6.3 0 0 1 1.2-1 4.1 4.1 0 0 1 1.1-.6z" fill="#8b8c46"/><path d="m36.5 28a.7.7 0 0 1 .1.6c0 .3-.3.8-.7.8a1 1 0 0 1 -.9-.7.8.8 0 0 1 -.2-.5l-4.2.8c.1 0 .1 0 .1.1a1.4 1.4 0 0 1 -.6 1.3 1.1 1.1 0 0 1 -1.4-.2 1.4 1.4 0 0 1 -.2-1.4 1.8 1.8 0 0 1 1-.7h-4l-.8.2-.7.2-1.4.3a3.2 3.2 0 0 0 -1.4.3 1.2 1.2 0 0 1 -.5 1.1.6.6 0 0 1 -.7.1c-.2 0-.4-.2-.6-.4l-1.6.6a33.6 33.6 0 0 0 -5.4 2.6c-.1 0-.2 0-.1-.1a4.9 4.9 0 0 1 1.1-1.4l.4-.4.3-.2a18.2 18.2 0 0 1 4.3-2.4 25.4 25.4 0 0 1 4.6-1.6h-6.3l-1.2.4-2.4 1.3-1.9 1.1a6 6 0 0 1 1.9-.6h.3c.1-.1.1 0 .1 0a.9.9 0 0 1 .6.6 1.6 1.6 0 0 1 -.3.9l-.2.2-.6.5-.6.5a10.4 10.4 0 0 0 -1.2 1.7 5 5 0 0 1 -1.1 1.7 1.2 1.2 0 0 1 -1.7.2.5.5 0 0 1 -.3-.4v-.3a.8.8 0 0 0 .5.7c.6.3 1.2-.2 1.6-.6s1.1-2.3 2-3.2l.7-.5.7-.6a1.9 1.9 0 0 0 .2-.8.8.8 0 0 0 -.5-.5h-.3a5.9 5.9 0 0 0 -3 1.6 5.4 5.4 0 0 0 -1.7 3.1 1.3 1.3 0 0 0 -.1.6h-.1a.3.3 0 0 1 -.1.2c0-.3.1-.7.1-1a5.8 5.8 0 0 1 2-3.1l.7-.5c-.1 0-.2-.1-.1-.2l2.7-1.5 1.2-.7 1.1-.6a8.3 8.3 0 0 1 2.7-.3h5.7c.1-.1.1.1 0 .1a16.8 16.8 0 0 0 -3.2.9l-.6.2a1.1 1.1 0 0 1 .8.8l1.5-.3h.8l.7-.2.8-.3h4a.1.1 0 0 1 .1-.1h.6a2.2 2.2 0 0 1 1 .9l4.3-.8q0-.2.3-.3h.8a.5.5 0 0 1 .4.2zm0 .5a.8.8 0 0 0 -.2-.5h-1.1c-.3.1-.2.6 0 .8s.1.3.3.4.3.2.4.1.6-.5.6-.8zm-6.3 1.6a1.1 1.1 0 0 0 .2-1.2 1.3 1.3 0 0 0 -.6-.7c0 .1 0 .1-.1.1a1 1 0 0 0 -1.1.8.9.9 0 0 0 .4 1.1.9.9 0 0 0 1.2-.1zm-9.5 0a1.1 1.1 0 0 0 .2-1.3l-.4-.5h-.1a.9.9 0 0 0 -1.2.5c-.2.4.1.8.4 1.1a.9.9 0 0 0 .6.3zm-1.6-1.5h.1l-1 .4-2.2 1a9.4 9.4 0 0 0 -3.4 2.9l1.2-.7a37.6 37.6 0 0 1 5.5-2.3.9.9 0 0 1 -.3-.6 1.7 1.7 0 0 1 .1-.7z" fill="#fff"/><path d="m36.5 37.7v.2l-.7.4-1.7 1.4h-.4a3.3 3.3 0 0 1 -1 0h-.7v-.5h.5a5.7 5.7 0 0 0 2.4-.8z" fill="#a6ab65"/><path d="m36.3 28a.8.8 0 0 1 .2.5c0 .3-.3.7-.6.7s-.3 0-.4-.1-.3-.2-.3-.4-.3-.7 0-.8h1.1z" fill="#b6b76e"/><path d="m35.5 31.6c.1 0 .1.1 0 .2l-1.3.6a30.3 30.3 0 0 1 -5.1.9.1.1 0 0 0 -.1.1.1.1 0 0 1 -.1-.1.1.1 0 0 1 0-.2h.2l1-.7.9-.6a2.8 2.8 0 0 1 1.3-.3zm-.4.2h-3a2.7 2.7 0 0 0 -1.2.3l-1.4 1.1h.9a14.8 14.8 0 0 0 4.7-1.4z" fill="#231f20"/><path d="m33.7 31.7h1.4a14.8 14.8 0 0 1 -4.7 1.3h-.9l1.4-1a2.7 2.7 0 0 1 1.2-.3z" fill="#a6ab65"/><path d="m34.2 39.7h.4a2.3 2.3 0 0 0 -.7.7h-.3l.6-.6z" fill="#231f20"/><path d="m33.9 40.3h-.2c0 .1-.1.1-.2.1h.4z" fill="#231f20"/><path d="m34.2 39.7-.6.6h-1.2a1.3 1.3 0 0 0 -1 .4c.1-.1 0-.2-.1-.2l-.4.2h.1a1.9 1.9 0 0 1 1-.6h.8a3.3 3.3 0 0 0 1 0z" fill="#353d16"/><path d="m33.7 25.7a.6.6 0 0 1 -.2.7 1.1 1.1 0 0 1 -.8.1 1.3 1.3 0 0 1 -.3-.8v-.3h.1c0-.1.1 0 .1 0h.8z" fill="#fdff99"/><path d="m33.7 40.4h-.2c.1.1.2.1.2 0z" fill="#231f20"/><path d="m33 25h-.7a.4.4 0 0 1 -.1.3.8.8 0 0 0 .1.4 5 5 0 0 1 -3.4.2h1.9l.9-.5a1.9 1.9 0 0 1 .9-.5z" fill="#676b2c"/><path d="m32.9 35.9a.9.9 0 0 1 -.2 1.1.9.9 0 0 1 -1.2.1 1 1 0 0 1 -.4-1.1 1 1 0 0 1 1.1-.6h.3c-.1 0 0 .1.1.1zm-1 3.4v.5a1.9 1.9 0 0 0 -1 .6h-.1l-2.1 1.1-.6.3-.6.3-.2.2a.3.3 0 0 0 -.1.2c-.2.1-.5 0-.7 0h-1.2a7.1 7.1 0 0 1 1.5-.8 2.7 2.7 0 0 0 .8-.7 2.7 2.7 0 0 1 .8-.7 10.1 10.1 0 0 1 3.5-1z" fill="#a6ab65"/><path d="m31.4 40.5h-.1l-1.1 1.2a7.9 7.9 0 0 1 -2.9 1.8 1.2 1.2 0 0 1 -.8.1l-1-.2a2.3 2.3 0 0 0 -1.4-.1 2.7 2.7 0 0 0 -1.2.3c.1-.1.1-.2 0-.2h-.6a4.9 4.9 0 0 1 1.7-.4h1a.1.1 0 0 1 .1.1h.8l.6.2h.7a10.7 10.7 0 0 0 2.7-1.7l.6-.7z" fill="#353d16"/><path d="m31.3 40.3c.1 0 .2.1.1.2l-.9.4.2-.2.2-.2z" fill="#231f20"/><path d="m30.9 36.5c0 .1.1.2.1.3l-1.9.7a10.4 10.4 0 0 1 1.8-1z" fill="#a6ab65"/><path d="m29.9 41.2.6-.3-.6.7a10.7 10.7 0 0 1 -2.7 1.7h-.7l-.6-.2h-.8v-.4h1.9c.2 0 .3-.1.4-.3l.5-.4.6-.3z" fill="#676b2c"/><path d="m30.4 28.9a1.1 1.1 0 0 1 -.2 1.2.9.9 0 0 1 -1.2.1.9.9 0 0 1 -.4-1.1 1 1 0 0 1 1.1-.8c.1 0 .1 0 .1-.1a1.3 1.3 0 0 1 .6.7z" fill="#b6b76e"/><path d="m26.3 34c.1 0 .1.1.1.2a1.8 1.8 0 0 1 -1 .7c-.8.3-1.8 0-2.7.2l-1.3.5-1.3.5h-.3c0 .1-.2 0-.1-.1a6.4 6.4 0 0 1 2.9-1.8 1.4 1.4 0 0 1 -.2-.7.9.9 0 0 1 .1-.9l.4-.3.4-.2a1 1 0 0 1 .9.1 1.4 1.4 0 0 1 .7 1.1 1.3 1.3 0 0 1 -.1.6zm-.2.2h-1.4a1 1 0 0 1 -.4.5v-.2a1.2 1.2 0 0 0 .4-1.1 1.3 1.3 0 0 0 -.9-1h-.6l-.4.3-.3.3v.4a1.3 1.3 0 0 0 .6 1.1c.8.6 1.1.6 1.2.4a2 2 0 0 0 1.8-.7zm-2.6.7-.7-.4a4.2 4.2 0 0 0 -2.5 1.4l1.2-.5a5.6 5.6 0 0 1 1.2-.4z" fill="#231f20"/><path d="m24.8 34.3h1.3a2 2 0 0 1 -1.8.7v-.2a1 1 0 0 0 .4-.5z" fill="#a6ab65"/><path d="m25.5 38.8a2.1 2.1 0 0 1 0 .8 1.1 1.1 0 0 1 -1 .9 1.3 1.3 0 0 1 -1.1-.6.8.8 0 0 1 .4-1.1 1.8 1.8 0 0 1 1.3-.3h.2a.1.1 0 0 0 .1.1c0 .1.1.1.1.2zm-.2.8c0-.2.1-.4 0-.6a.4.4 0 0 0 -.1-.3 2 2 0 0 0 -1.3.2.7.7 0 0 0 -.3.9.9.9 0 0 0 .9.5c.4.1.7-.3.8-.7z" fill="#231f20"/><path d="m25.3 39c.1.2 0 .4 0 .6s-.4.8-.8.7a.9.9 0 0 1 -.9-.5.7.7 0 0 1 .3-.9 2 2 0 0 1 1.3-.2.4.4 0 0 1 .1.3zm-.6-5.6a1.2 1.2 0 0 1 -.4 1.1c0-.4.4-.7.4-1.1z" fill="#a6ab65"/><path d="m24.7 33.4c0 .4-.4.7-.4 1.1v.2c-.1.2-.4.2-1.2-.4a1.3 1.3 0 0 1 -.6-1.1v-.2l.3-.3.4-.3h.6a1.3 1.3 0 0 1 .9 1z" fill="#a6ab65"/><path d="m24.2 34.8h.1v.2h-.1z" fill="#a6ab65"/><path d="m20.9 27.1h2.1a25.4 25.4 0 0 0 -4.6 1.7 18.2 18.2 0 0 0 -4.3 2.4l-.3.2-.4.4-.4-.2.6-.5.2-.2a1.6 1.6 0 0 0 .3-.9.9.9 0 0 0 -.6-.6s0-.1-.1 0h-.3a6 6 0 0 0 -1.9.6l1.9-1.1 2.4-1.3 1.2-.4h4.2z" fill="#676b2c"/><path d="m22.9 43.6c.1 0 .1.1 0 .2h-1l.4-.2z" fill="#231f20"/><path d="m22.9 43.8-1.6.8a11.5 11.5 0 0 1 -3.1 1.1h-.6c.1 0 .1-.2-.1-.2h.7a9.2 9.2 0 0 0 2.9-1.1h.2l.6-.3z" fill="#353d16"/><path d="m22.8 34.5.7.4h-.8a5.6 5.6 0 0 0 -1.2.4l-1.2.5a4.2 4.2 0 0 1 2.5-1.3z" fill="#a6ab65"/><path d="m22.5 33.4a1.3 1.3 0 0 0 .6 1.1 1.3 1.3 0 0 1 -.6-1.1z" fill="#231f20"/><path d="m22.3 43.6-.4.2-1.5.2-2.2.3a7.4 7.4 0 0 1 -2.1.1 11.5 11.5 0 0 1 -4.1-.8c-.1-.1-.1-.2 0-.2l2.3.7a15.5 15.5 0 0 0 4.3 0 22 22 0 0 1 3.7-.5z" fill="#a6ab65"/><path d="m21.9 43.8-.6.3h-.2a9.2 9.2 0 0 1 -2.9 1.1h-1.7a19.3 19.3 0 0 1 -4.7-1.3l-1.2-.6h1.4c-.1 0-.1.1 0 .2a11.5 11.5 0 0 0 4.1.8 7.4 7.4 0 0 0 2.1-.1l2.2-.3z" fill="#a6ab65"/><path d="m20.5 37.1a1 1 0 0 1 .8 1 1.1 1.1 0 0 1 -.8.9 1 1 0 0 1 -1.1-.6c-.2-.4-.3-1 .1-1.3a.9.9 0 0 1 1 0zm.1 1.7a.9.9 0 0 0 .5-.8.9.9 0 0 0 -.6-.7h-.2a.6.6 0 0 0 -.8.1 1.1 1.1 0 0 0 .1 1.1.8.8 0 0 0 1 .3z" fill="#231f20"/><path d="m21.1 38a.9.9 0 0 1 -.5.8.8.8 0 0 1 -1-.4 1.1 1.1 0 0 1 -.1-1.1.6.6 0 0 1 .8-.1h.2a.9.9 0 0 1 .6.8z" fill="#a6ab65"/><path d="m20.9 28.8a1.1 1.1 0 0 1 -.2 1.3l-.5.2a.9.9 0 0 1 -.6-.3c-.3-.3-.6-.7-.4-1.1a.9.9 0 0 1 1.2-.5h.1z" fill="#b6b76e"/><path d="m19.2 28.6h-.1a1.7 1.7 0 0 0 -.1.7.9.9 0 0 0 .3.6 37.6 37.6 0 0 0 -5.5 2.3l-1.2.7a9.4 9.4 0 0 1 3.4-2.9l2.2-1z" fill="#a6ab65"/><path d="m17.5 45.5c.2 0 .2.2.1.2h-.1l-1.6-.2-1-.2h2.6z" fill="#231f20"/><path d="m17.6 45.7a12.9 12.9 0 0 1 -2.8-.1l-3.4-.6a9.9 9.9 0 0 1 -3-1.2 5.9 5.9 0 0 1 -1.7-2.7 12.8 12.8 0 0 1 -.6-5.1h.3a.4.4 0 0 0 .1.3 14.2 14.2 0 0 0 .6 4.7 4.7 4.7 0 0 0 1.6 2.5 6.1 6.1 0 0 0 2.8 1.1l3.3.6h.1l1 .2 1.6.2z" fill="#353d16"/><path d="m16.3 42c.1 0 .1.1 0 .2l-1.3.5-3 .7h-1.4l1.2.6a19.3 19.3 0 0 0 4.7 1.3h-1.6a20.7 20.7 0 0 1 -4.7-1.8c-.1-.1 0-.2.1-.2h1.3a16.1 16.1 0 0 0 3.8-.8 12.1 12.1 0 0 1 -1.9 0 7 7 0 0 1 -2.5-.5c-.6-.2-1.5-.5-1.2-1.3a1.8 1.8 0 0 1 .7-.8l1-.7 1.8-.9-1.7.2-1.8.5a1.9 1.9 0 0 1 -1.5-.2 2.4 2.4 0 0 1 -.9-1.8 2.5 2.5 0 0 1 -.4.7c-.1.1-.1 0-.2 0a2.7 2.7 0 0 0 -.3-1.2v-.5a6.1 6.1 0 0 1 .5 1.3 2.1 2.1 0 0 0 .4-1.1c0-.1 0-.1.1-.1-.1.1 0 .2.1.2a3.2 3.2 0 0 0 .2 1.4 1.6 1.6 0 0 0 .8 1 2.2 2.2 0 0 0 1.6-.1l.9-.2.9-.2 1.9-.2c.1 0 .1.2 0 .2a11.5 11.5 0 0 0 -2.5 1.2l-.9.6c-.3.2-.6.5-.6.8a.7.7 0 0 0 .6.7l1.1.4a8.3 8.3 0 0 0 4.7.1z" fill="#231f20"/><path d="m14.9 45.3h-.1l-3.3-.6a6.1 6.1 0 0 1 -2.8-1.1 4.7 4.7 0 0 1 -1.6-2.6 14.2 14.2 0 0 1 -.6-4.6 2.7 2.7 0 0 1 .3 1.2c.1 0 .1.1.2 0a2.5 2.5 0 0 0 .4-.7 2.4 2.4 0 0 0 .9 1.8 1.9 1.9 0 0 0 1.5.2l1.8-.5 1.7-.2-1.8.9-1 .7a1.8 1.8 0 0 0 -.7.8c-.3.8.6 1.1 1.2 1.3a7 7 0 0 0 2.5.5 12.1 12.1 0 0 0 1.9 0 16.1 16.1 0 0 1 -3.8.8h-1.3c-.1 0-.2.1-.1.2a20.7 20.7 0 0 0 4.7 1.9zm-5.7-2.7a3.8 3.8 0 0 0 -1.3-3.7l-.9-.6c-.1 0-.2.1-.1.2h.1a3.1 3.1 0 0 0 .6 2.1c.5.7.9 1.4 1.4 2s.1.1.2 0z" fill="#353d16"/><path d="m13.9 29.9a1.9 1.9 0 0 1 -.2.8l-.7.6-.7.5c-.9.9-1.2 2.2-2 3.2s-1 .9-1.6.6a.8.8 0 0 1 -.5-.7v-.2c.1 0 0-.1 0-.1a1.3 1.3 0 0 1 .1-.6 5.4 5.4 0 0 1 1.7-2.9 5.9 5.9 0 0 1 3-1.6h.4a.8.8 0 0 1 .5.4z" fill="#fdff99"/><path d="m7.9 38.9a3.8 3.8 0 0 1 1.3 3.7c-.1.1-.2.1-.2 0s-.9-1.3-1.4-2a3.1 3.1 0 0 1 -.6-2.1h-.1c-.1-.1 0-.2.1-.2zm1.1 3.5a3.4 3.4 0 0 0 .1-1 4 4 0 0 0 -1.9-2.8 3.4 3.4 0 0 0 .1 1 3.1 3.1 0 0 0 .5 1z" fill="#231f20"/><path d="m9.1 41.4a3.4 3.4 0 0 1 -.1 1l-1.2-1.8a3.1 3.1 0 0 1 -.5-1 3.4 3.4 0 0 1 -.1-1 4 4 0 0 1 1.9 2.8z" fill="#676b2c"/><path d="m8.2 34.6s.1.1 0 .1z" fill="#231f20"/><path d="m8.2 34.9v.3a.6.6 0 0 1 -.1-.4.3.3 0 0 0 .1-.2h.1z" fill="#231f20"/><path d="m8.1 35.2c-.2.3-.3.7-.5 1h-.1c.2-.4.3-.8.5-1.3a.6.6 0 0 0 .1.3z" fill="#676b2c"/><path d="m7.5 36.2h.1c-.1 0-.2-.1-.1-.2zm-1-.2v.4a.4.4 0 0 1 -.1-.3h-.1c0-.1.1-.1.2-.1z" fill="#231f20"/><g fill="none" stroke-miterlimit="10" stroke-width=".18"><path d="m24.7 33.4a1.2 1.2 0 0 1 -.4 1.1m-1.2 0a1.3 1.3 0 0 1 -.6-1.1m19.4.6a2.8 2.8 0 0 1 .1-.9.7.7 0 0 1 .3-.6 1 1 0 0 1 .9-.1h.5a1.3 1.3 0 0 1 .4 1 1.2 1.2 0 0 1 -.8.9 1.4 1.4 0 0 1 -.9 0l-.4-.2a.4.4 0 0 1 -.1-.1z" stroke="#a6ab65"/><path d="m42.3 34.3h1a.9.9 0 0 0 .6-.9 1 1 0 0 0 -.5-.8.9.9 0 0 0 -1 .1c-.2.1-.2.4-.3.6v.7c0 .1 0 .2.1.2zm-1.1-4.5a.5.5 0 0 1 -.3.5h-1.1c-.2-.1-.3-.2-.3-.4v-.6a.5.5 0 0 1 .3-.5.6.6 0 0 1 .6 0h.1c.4.2.8.6.7 1z" stroke="#a6ab65"/><path d="m40.8 29.2s-.1.1-.1 0-.7-.5-.9-.2-.1.3-.2.5a1.1 1.1 0 0 0 .1.5c.1.3.5.3.7.2h.5a.8.8 0 0 0 .2-.4z" stroke="#a6ab65"/><path d="m57.5 28.4a.3.3 0 0 1 -.1.2 4.8 4.8 0 0 0 -2-.7l-2.3-.4a45.1 45.1 0 0 0 -8.2-.4 44.8 44.8 0 0 0 -8.2 1 .1.1 0 0 1 -.1-.1l4.7-.8a45.9 45.9 0 0 1 8.3-.1l4.1.4 2 .4a4.9 4.9 0 0 1 1.7.6z" stroke="#676b2c"/><path d="m35.1 31.8h-3a2.7 2.7 0 0 0 -1.2.3l-1.4 1.1h.9a14.8 14.8 0 0 0 4.7-1.4z" stroke="#a6ab65"/><path d="m35.5 31.8-1.3.6a30.3 30.3 0 0 1 -5.1.9.1.1 0 0 0 -.1.1.1.1 0 0 1 -.1-.1.1.1 0 0 1 0-.2h.2l1-.7.9-.6a2.8 2.8 0 0 1 1.3-.3h3.2c.1.1.1.2 0 .3z" stroke="#a6ab65"/><path d="m33.2 25 .4.2h.3a.1.1 0 0 1 .1.1l1.1.6a4.3 4.3 0 0 0 2.2.4 5.8 5.8 0 0 0 1.8-.4h-2.1a19.5 19.5 0 0 1 -2.3-.6 4 4 0 0 0 -1.5-.3zm.5.7-.3-.4h-.8s-.1-.1-.1 0h-.1v.3a1.3 1.3 0 0 0 .3.8 1.1 1.1 0 0 0 .8-.1.6.6 0 0 0 .2-.6z" stroke="#676b2c"/><path d="m30.8 26h-1.9a5 5 0 0 0 3.4-.2.8.8 0 0 1 -.1-.4.4.4 0 0 0 .1-.3h.3a1.9 1.9 0 0 0 -.9.5z" stroke="#676b2c"/><path d="m33.9 25.8a.9.9 0 0 1 -.4.8.6.6 0 0 1 -.9-.1.5.5 0 0 1 -.3-.4 5.5 5.5 0 0 1 -3.8.1c-.1-.1 0-.3.1-.2h.1a16 16 0 0 0 2.3-.3 4.7 4.7 0 0 0 .9-.6l.9-.3a5.1 5.1 0 0 1 2.1.3l1.2.4 1.1.2a20.8 20.8 0 0 0 2.5 0c.1 0 .1.1 0 .2l-1.3.4a4.9 4.9 0 0 1 -2.4.1 10 10 0 0 1 -2.1-1h-.2a.5.5 0 0 1 .2.4zm2.8 9.4c-.2.1-.2.4-.1.6a.7.7 0 0 0 .6.3.7.7 0 0 0 .4-.6c0-.1-.1-.2-.1-.3a.5.5 0 0 0 -.4-.2h-.2c-.1.1-.2.1-.2.2z" stroke="#676b2c"/><path d="m33.2 36.1a15.8 15.8 0 0 1 3.1-.9v-.2h1.2l1.2-.2 2.2-.6h-1.5a19.2 19.2 0 0 0 -6.6 1.5l.3.4c0 .1.1.2.1.3zm-2.1-.1a1 1 0 0 0 .4 1.1.9.9 0 0 0 1.2-.1.9.9 0 0 0 .2-1.1l-.3-.3c-.1 0-.2-.1-.1-.1h-.3a1 1 0 0 0 -1.1.5zm-.2.5a10.4 10.4 0 0 0 -1.8 1l1.9-.7c0-.1-.1-.2-.1-.3z" stroke="#676b2c"/><path d="m31.1 37a10.6 10.6 0 0 0 -2.5.9c0 .1-.1.1-.1.2s-.2-.1-.2-.2h.1c0-.1 0-.1.1-.1l1.1-.8 1.3-.7a1.1 1.1 0 0 1 .1-.5 1.3 1.3 0 0 1 .7-.6h.1a1 1 0 0 1 .9.2l1.7-.7a18.2 18.2 0 0 1 7-.8c.1 0 .1.1 0 .1l-2.6.8h-1.3a.9.9 0 0 1 .3.6c-.1.3-.3.6-.6.6a.7.7 0 0 1 -.8-1h-.1l-3 1h-.1a1.2 1.2 0 0 1 -.5 1 1.1 1.1 0 0 1 -1.4 0l-.2-.2z" stroke="#676b2c"/><path d="m25.2 42.7h-.2c-.1 0-.1-.2 0-.2h.1a4.6 4.6 0 0 1 1.8-1 5 5 0 0 0 .7-.8l.8-.6 2-.7c1.4-.3 2.9-.3 4.2-1a11.5 11.5 0 0 0 2.5-1.2 13.9 13.9 0 0 1 2.1-1.2 11.4 11.4 0 0 1 2.5-.6 51.1 51.1 0 0 1 5.5-.5.1.1 0 0 1 .1.1 4.6 4.6 0 0 1 -2.9 1.3 10.8 10.8 0 0 0 -3.1.1l-.7.2-1.1.3.5-.2 1.4-.5c1.1-.2 2.1 0 3.2-.1a4.4 4.4 0 0 0 2.3-1l-2.8.2-2.7.3-2.5.7-2.2 1.2c-.1.1-.2.1-.2.2l-1.7.7a5.7 5.7 0 0 1 -2.4.8h-.5a10.1 10.1 0 0 0 -3.5 1 2.7 2.7 0 0 0 -.8.7 2.7 2.7 0 0 1 -.8.7 7.1 7.1 0 0 0 -1.5.8h1.3c.2 0 .5.1.7 0a.3.3 0 0 1 .1-.2l.2-.2.6-.3.6-.3 2.1-1.1-.2.2-.2.2-.6.3-1.3.6-.6.3-.5.4c-.1.2-.2.3-.4.3h-1.9zm-1.3-3.8a.7.7 0 0 0 -.3.9.9.9 0 0 0 .9.5c.4.1.7-.3.8-.7s.1-.4 0-.6a.4.4 0 0 0 -.1-.3 2 2 0 0 0 -1.3.2z" stroke="#a6ab65"/><path d="m25.1 38.5h.2a.1.1 0 0 0 .1.1c0 .1.1.1.1.2a2.1 2.1 0 0 1 0 .8 1.1 1.1 0 0 1 -1 .9 1.3 1.3 0 0 1 -1.1-.6.8.8 0 0 1 .4-1.1 1.8 1.8 0 0 1 1.3-.3zm-.8-3.8a2 2 0 0 0 1.8-.7h-1.4a1 1 0 0 1 -.4.7z" stroke="#a6ab65"/><path d="m24.7 33.4a1.3 1.3 0 0 0 -.9-1h-.6l-.4.3-.3.3v.4a1.3 1.3 0 0 0 .6 1.1c.8.6 1.1.6 1.2.4v-.4c0-.4.4-.7.4-1.1zm-1.2 1.5-.7-.4a4.2 4.2 0 0 0 -2.5 1.4l1.2-.5a5.6 5.6 0 0 1 1.2-.4z" stroke="#a6ab65"/><path d="m20 36.1h-.2c0 .1-.2 0-.1-.1a6.4 6.4 0 0 1 2.9-1.8 1.4 1.4 0 0 1 -.2-.7.9.9 0 0 1 .1-.9l.4-.3.4-.2a1 1 0 0 1 .9.1 1.4 1.4 0 0 1 .7 1.1 1.3 1.3 0 0 1 -.1.6h1.5c.1 0 .1.1.1.2a1.8 1.8 0 0 1 -1 .7c-.8.3-1.8 0-2.7.2l-1.3.5-1.3.5zm-.4 2.3a.8.8 0 0 0 1 .4.9.9 0 0 0 .5-.8.9.9 0 0 0 -.6-.7h-.2a.6.6 0 0 0 -.8.1 1.1 1.1 0 0 0 .1 1z" stroke="#a6ab65"/><path d="m21.3 38.1a1.1 1.1 0 0 1 -.8.9 1 1 0 0 1 -1.1-.6c-.2-.4-.3-1 .1-1.3a.9.9 0 0 1 1 0 1 1 0 0 1 .8 1zm15-10.1h-1.1c-.3.1-.2.6 0 .8s.1.3.3.4.3.2.4.1.6-.4.6-.7a.8.8 0 0 0 -.2-.6zm-7.7 1.1a.9.9 0 0 0 .4 1.1.9.9 0 0 0 1.2-.1 1.1 1.1 0 0 0 .2-1.2 1.3 1.3 0 0 0 -.6-.7c0 .1 0 .1-.1.1a1 1 0 0 0 -1.1.8zm-9.4-.2c-.2.4.1.8.4 1.1a.9.9 0 0 0 .6.3l.5-.2a1.1 1.1 0 0 0 .2-1.3l-.4-.5h-.1a.9.9 0 0 0 -1.2.6z" stroke="#a6ab65"/><path d="m12.6 32.9 1.2-.7a37.6 37.6 0 0 1 5.5-2.3.9.9 0 0 1 -.3-.6 1.7 1.7 0 0 1 .1-.7h.1l-1 .4-2.2 1a9.4 9.4 0 0 0 -3.4 2.9z" stroke="#a6ab65"/><path d="m13 31.5-.6.5a10.4 10.4 0 0 0 -1.2 1.7 5 5 0 0 1 -1.1 1.7 1.2 1.2 0 0 1 -1.7.2.5.5 0 0 1 -.3-.4v-.3a.8.8 0 0 0 .5.7c.6.3 1.2-.2 1.6-.6s1.1-2.3 2-3.2l.7-.5.7-.6a1.9 1.9 0 0 0 .2-.8.8.8 0 0 0 -.5-.5h-.3a5.9 5.9 0 0 0 -3 1.6 5.4 5.4 0 0 0 -1.7 3 1.3 1.3 0 0 0 -.1.6h-.1a.3.3 0 0 1 -.1.2c0-.3.1-.7.1-1a5.8 5.8 0 0 1 2-3.1l.7-.5c-.1 0-.2-.1-.1-.2l2.7-1.5 1.2-.7 1.1-.6a8.3 8.3 0 0 1 2.7-.3h5.7c.1-.1.1.1 0 .1a16.8 16.8 0 0 0 -3.2.9l-.6.2a1.1 1.1 0 0 1 .8.8l1.5-.3h.8l.7-.2.8-.3h4a.1.1 0 0 1 .1-.1h.6a2.2 2.2 0 0 1 1 .9l4.3-.8q0-.2.3-.3h.8a.5.5 0 0 1 .4.2h.1a.7.7 0 0 1 .1.6c0 .3-.3.8-.7.8a1 1 0 0 1 -.9-.7.8.8 0 0 1 -.2-.5l-4.2.8c.1 0 .1 0 .1.1a1.4 1.4 0 0 1 -.6 1.3 1.1 1.1 0 0 1 -1.4-.2 1.4 1.4 0 0 1 -.2-1.4 1.8 1.8 0 0 1 1-.7h-4l-.8.2-.7.2-1.4.3a3.2 3.2 0 0 0 -1.4.3 1.2 1.2 0 0 1 -.5 1.1.6.6 0 0 1 -.7.1c-.2 0-.4-.2-.6-.4l-1.6.6a33.6 33.6 0 0 0 -5.4 2.6c-.1 0-.2 0-.1-.1a4.9 4.9 0 0 1 1.1-1.4l.4-.4.3-.2a18.2 18.2 0 0 1 4.3-2.4 25.4 25.4 0 0 1 4.6-1.6h-6.3l-1.2.4-2.4 1.3-1.9 1.1a6 6 0 0 1 1.9-.6h.3c.1-.1.1 0 .1 0a.9.9 0 0 1 .6.6 1.6 1.6 0 0 1 -.3.9l-.2.2z" stroke="#a6ab65"/><path d="m9.1 41.4a4 4 0 0 0 -1.9-2.8 3.4 3.4 0 0 0 .1 1 3.1 3.1 0 0 0 .5 1l1.2 1.8a3.4 3.4 0 0 0 .1-1z" stroke="#676b2c"/><path d="m7 38.3.9.6a3.8 3.8 0 0 1 1.3 3.7c-.1.1-.2.1-.2 0s-.9-1.3-1.4-2a3.1 3.1 0 0 1 -.6-2.1h-.1c-.1-.1 0-.2.1-.2z" stroke="#676b2c"/><path d="m6.5 36a6.1 6.1 0 0 1 .5 1.3 2.1 2.1 0 0 0 .4-1.1c0-.1 0-.1.1-.1-.1.1 0 .2.1.2a3.2 3.2 0 0 0 .2 1.4 1.6 1.6 0 0 0 .8 1 2.2 2.2 0 0 0 1.6-.1l.9-.2.9-.2 1.9-.2c.1 0 .1.2 0 .2a11.5 11.5 0 0 0 -2.5 1.2l-.9.6c-.3.2-.6.5-.6.8a.7.7 0 0 0 .6.7l1.1.4a8.3 8.3 0 0 0 4.7.1c.1 0 .1.1 0 .2l-1.3.5-3 .7h-1.4l1.2.6a19.3 19.3 0 0 0 4.7 1.3h-1.6a20.7 20.7 0 0 1 -4.7-1.8c-.1-.1 0-.2.1-.2h1.3a16.1 16.1 0 0 0 3.8-.8 12.1 12.1 0 0 1 -1.9 0 7 7 0 0 1 -2.5-.5c-.6-.2-1.5-.5-1.2-1.3a1.8 1.8 0 0 1 .7-.8l1-.7 1.8-.9-1.7.2-1.8.5a1.9 1.9 0 0 1 -1.5-.2 2.4 2.4 0 0 1 -.9-1.8 2.5 2.5 0 0 1 -.4.7c-.1.1-.1 0-.2 0a2.7 2.7 0 0 0 -.3-1.2" stroke="#353d16"/></g><path d="m32.2 43c0-.2.2-1.8.7-4.7a118.6 118.6 0 0 0 1.4-16.8 9.6 9.6 0 0 0 -.5-3.5c2.3.6 3.7 1.5 4.2 2.8a10.7 10.7 0 0 1 5.2-1.4 6.5 6.5 0 0 1 4.4 1.5 5.1 5.1 0 0 1 1.7 3.7 5.9 5.9 0 0 1 -1.6 4.1 8.8 8.8 0 0 1 -4.3 2.8 8.9 8.9 0 0 1 4.1 2.1 5.4 5.4 0 0 1 1.8 4.1 6.4 6.4 0 0 1 -2.8 5.7 11.5 11.5 0 0 1 -6.9 2 11.9 11.9 0 0 1 -7.4-2.4zm11.8-20a3.3 3.3 0 0 0 -2.5-.9 8.1 8.1 0 0 0 -3.1.6c0 1.3-.3 4.5-.8 9.7s-.9 8.4-.9 9.9a7.4 7.4 0 0 0 2.7.6 5 5 0 0 0 3.7-1.5 4.9 4.9 0 0 0 1.4-3.7 5.2 5.2 0 0 0 -1.5-3.8 6.2 6.2 0 0 0 -4.2-1.6v-1.1a7.3 7.3 0 0 0 4.5-2.1 5.5 5.5 0 0 0 1.7-3.7 3.4 3.4 0 0 0 -1-2.4zm-30.2 20c0-.2.3-1.8.7-4.7a118.6 118.6 0 0 0 1.4-16.8 13.3 13.3 0 0 0 -.4-3.5c2.2.6 3.6 1.5 4.2 2.8a10.3 10.3 0 0 1 5.1-1.4 6.3 6.3 0 0 1 4.4 1.5 4.8 4.8 0 0 1 1.7 3.7 6.3 6.3 0 0 1 -1.5 4.1 9.2 9.2 0 0 1 -4.3 2.8 8.6 8.6 0 0 1 4 2.1 5.4 5.4 0 0 1 1.8 4.1 6.6 6.6 0 0 1 -2.7 5.7 12 12 0 0 1 -7 2 12.1 12.1 0 0 1 -7.4-2.4zm11.8-20a3.3 3.3 0 0 0 -2.5-.9 8.5 8.5 0 0 0 -3.1.6c0 1.3-.2 4.5-.8 9.7s-.8 8.4-.8 9.9a6.6 6.6 0 0 0 2.7.6 4.8 4.8 0 0 0 3.6-1.5 5 5 0 0 0 1.5-3.7 5.2 5.2 0 0 0 -1.5-3.8 6.2 6.2 0 0 0 -4.2-1.6v-1.1a7.9 7.9 0 0 0 4.5-2.1 5.3 5.3 0 0 0 1.6-3.7 3.4 3.4 0 0 0 -1-2.4z" fill="#353d16"/></svg>