<svg xmlns="http://www.w3.org/2000/svg" width="16" height="16" viewBox="0 0 16 16"><circle cx="8" cy="8" r="7.7" fill="#2ba9e0"/><path fill="#353d16" d="M14.6 7.2v.6a1.8 1.8 0 0 1-.5 1.2 2.6 2.6 0 0 1-1.5.2H10l-.6.3-.6.4 1-.6h.1c.6-.1 1.2.1 1.7-.1h1.6l.7-.2c.2-.2.4-.3.5-.6a3 3 0 0 0 .2-1.3zm0-.2l-.5-.7.2.2z"/><path fill="#353d16" d="M14.6 7.1a3 3 0 0 1-.2 1.3c-.1.3-.3.4-.5.6l-.7.2h-1.6c-.5.2-1.1 0-1.7.1h3.3l.7-.2a1 1 0 0 0 .4-.5 2.7 2.7 0 0 0 .2-1.3l-.5-.8a3.9 3.9 0 0 0-2.8-.8H8.4a1.1 1.1 0 0 1-.8.2h-.7l-.3.2a.1.1 0 0 0-.1.1.8.8 0 0 1-.7.1h-.4c-.1 0-.1 0-.1.1L5 6.1H3.5l-.7.2-.5.4-.3.8h-.1l-.2.2c-.1.1-.1.2-.1.4v.4a.9.9 0 0 0-.1.5h-.1v-.5a.9.9 0 0 0 .1-.5.6.6 0 0 1 .1-.4l.3-.2.3-.3.5-.5.9-.3.9-.2h.4l.3-.2c.1-.3.5 0 .7.1a.4.4 0 0 0 .5-.1l.5-.4.4.2h.3a1.1 1.1 0 0 0 .8-.2h2.8a4.3 4.3 0 0 1 2.9.8z"/><path fill="#676b2c" d="M14.5 7.1a2.7 2.7 0 0 1-.2 1.3 1 1 0 0 1-.4.5l-.7.2h-2a1.1 1.1 0 0 0 .7-.3l-1.4.2h-.7l-.5.3-.6.3-1.1.3-.5.2h-.2l-.2.2c-.1.1-.3.1-.4.3h-.8l-.9.2H3.5l-.6-.2.8-.2H2.5a.3.3 0 0 1-.1-.2V10h.3l.6-.3h-.8c-.2 0-.3.1-.4 0s-.2-.1-.3-.2v-.7h.5c.2-.1.2-.3.3-.5L3 8h.3l-.3.3 1.4-.7h.7c.1-.1.2-.2.1-.3h2.2l-.3.2a.6.6 0 0 0 .1.4c.1 0 .2.1.3 0s.2-.2.2-.3l1-.2v.2H9a.2.2 0 0 0 .2-.2l2.1-.3 2.1.2h1.1zm-3.4 1.3v-.2h-.4c0 .1-.1.1-.1.2v.2h.4zm-.7.1a3.7 3.7 0 0 0-1.8.2l-.4.2h-.3l-.2.1-.3.2-.3.2.7-.2h.4c.1 0 .1-.1.1-.2l.8-.3V9h.2l.2-.2h.2zm-.1-1c.1-.2 0-.3-.1-.3h-.3v.2h.4zm-1.4.4H7.7l-.2.2-.2.2 1.2-.2zm-2.3.6h-.4L6 8.1h-.4c-.1 0-.1.1 0 .2v.2a1 1 0 0 0-.7.4h1.4zm-.3 1.4c.1 0 .1-.1 0-.2h-.4a.4.4 0 0 0-.1.3l.3.2c.1 0 .2-.1.2-.3zm-1-.4l-.2-.2a.2.2 0 1 0-.3.3l.3.2c.1 0 .2-.1.2-.3z"/><path fill="#a6ab65" d="M14.5 7.1l-.5-.2h-3.6L9.2 7h-.5l-1.1.2a.2.2 0 0 0-.2-.2H5.2A.2.2 0 0 0 5 7h.2l.8-.3H3.6l-.3.2-.7.4-.2.2a2.2 2.2 0 0 0-.5.8v.2c0 .1-.1.2-.1.3h-.1a.4.4 0 0 1-.1.3c0-.2 0-.3-.1-.4a.9.9 0 0 1 .1-.5v-.1c0-.2 0-.3.1-.4l.2-.2H2l.3-.3.5-.4.7-.2H5l.3-.2c0-.1 0-.1.1-.1h.4a.8.8 0 0 0 .7-.1.1.1 0 0 1 .1-.1l.3-.2h.7a1.1 1.1 0 0 0 .8-.2h2.8a3.9 3.9 0 0 1 2.8.8zM10 6.4H8.1a.2.2 0 0 0 .3 0c.1 0 .1-.1.1-.2a.1.1 0 0 0-.1-.1h.1l.5.3h.6z"/><path fill="#231f20" d="M14.5 7.1h-1.1l-2.1-.2-2.1.1 1.2-.2H14l.5.2z"/><path fill="#353d16" d="M13.8 6.1c.1 0 .2.2.3.3a4.3 4.3 0 0 0-2.9-.8H8.4a1.1 1.1 0 0 1-.8.2h-.3l-.4-.2-.5.4a.4.4 0 0 1-.5.1c-.2-.1-.6-.4-.7-.1h-.7l-.9.2-.9.3-.5.5-.3.3-.3.2a.6.6 0 0 0-.1.4.9.9 0 0 1-.1.5V9a2.7 2.7 0 0 0 .2 1.3 1.6 1.6 0 0 0 .4.7 1.1 1.1 0 0 0 .8.3l.8.2h.9l.8-.3.4-.2h1.1a1.8 1.8 0 0 0 .7-.5l.3-.3-.3.3-.4.3H5.9a1.5 1.5 0 0 0-.7.3l-.8.2h-.9l-.9-.2a1.1 1.1 0 0 1-.7-.3 1.6 1.6 0 0 1-.4-.7 1.9 1.9 0 0 1-.1-.8V8a.4.4 0 0 0 .1-.3l.3-.3.3-.2c.2-.2.3-.5.5-.6l.8-.3 1-.2H5a.1.1 0 0 0 .1-.1c.2-.3.5-.1.6 0h.4l.3-.2a.9.9 0 0 1 .5-.3h.7a.3.3 0 0 0 .4 0h4.2a3.3 3.3 0 0 1 1.6.6z"/><path fill="#231f20" d="M11.9 8.7a1.1 1.1 0 0 1-.7.3l.6-.2h-1.4l-.6.2-.6.3h-.1l-.4.2-.6.2H8a1.3 1.3 0 0 0-.9.2c-.1.1-.2.1-.2.2l-.2.2-.4.2h.9l.5-.2a.1.1 0 0 0-.1.1h-.1l-.4.2h-.8c.1-.2.3-.2.4-.3l.2-.2h.2l.5-.2 1.1-.3.6-.3.5-.3h.7z"/><path fill="#a6ab65" d="M11.8 8.8l-.6.2h-2l.6-.3.6-.2h1.4z"/><path fill="#231f20" d="M11 8.2v.2l-.2.2h-.4v-.3c0-.1.1-.1.1-.2h.5zm-.1.4c.1 0 .1-.1.1-.2s0-.2-.1-.2h-.3v.2h.3z"/><path fill="#a6ab65" d="M11 8.4c0 .1 0 .2-.1.2h-.3v-.3h.3c.1-.1.1 0 .1.1zm-.6.1l-.7.2h-.2l-.2.2h-.2v-.1l-.8.3c0 .1 0 .2-.1.2h-.4l-.7.2.3-.2.3-.2.2-.2h.3l.4-.2a3.7 3.7 0 0 1 1.8-.2zm-.1 0h-.4a4.7 4.7 0 0 0-1.7.4h.1l.8-.2h.6zm-1 .5h-.1c-.1 0-.1.1 0 .2zm-1.1.3c0-.1.1-.2 0-.3H8c-.1-.1-.2 0-.2.1s0 .2.1.3zm-.4-.1h-.1l-.4.3z"/><path fill="#231f20" d="M10.2 7.2c.1 0 .2.1.1.3h-.4v-.2h.3zm.1.3a.1.1 0 0 0-.1-.1H10c-.1.1-.1.1-.1.2h.4z"/><path fill="#a6ab65" d="M10.3 7.4h-.4c0-.1 0-.1.1-.2h.2a.1.1 0 0 1 .1.2zm-.4 1.1h.4l-.6.2h-.6l-.8.3h-.1a4.7 4.7 0 0 1 1.7-.5z"/><path fill="#fdff99" d="M9.9 6.4h.1l-.4.2H9l-.5-.3h-.1a.1.1 0 0 1 .1.1c0 .1 0 .2-.1.2a.2.2 0 0 1-.3 0h1.8zm-.1.1h-1l.6.2zm-1.4.1c0-.1.1-.1 0-.2a.1.1 0 0 0-.1-.1h-.2v.2zm-.2-.4h-.1l-.2.2h-.7a1 1 0 0 0 .9-.1h.1z"/><path fill="#353d16" d="M9.8 9.3l-1 .6h-.3l.2-.2.5-.3.4-.2h.2z"/><path fill="#8b8c46" d="M9.7 9.3h-.4c-.2 0-.3.1-.3.2l-.3.2h-.1l.4-.1h.7z"/><path fill="#676b2c" d="M9.3 6.4h.1l-.6-.2h.5z"/><path fill="#a6ab65" d="M9.4 8.9h-.2c-.1-.1-.1-.2 0-.2h.2z"/><path fill="#8b8c46" d="M9.3 9.5h.3l-.4.2-.5.3.3-.3c0-.1.1-.2.3-.2z"/><path fill="#fff" d="M9.1 7h.1a.2.2 0 0 1-.2.2h-.2V7l-1 .2c0 .1-.1.2-.2.3s-.2 0-.3 0a.6.6 0 0 1-.1-.4l.2-.1H5.2c.1.1 0 .2-.1.3h-.7L3 8.3l.3-.4h.2a2.4 2.4 0 0 1 1.1-.6l1.1-.5H3.8l-.6.3-.5.3.5-.2h.1c.1 0 .1.1.1.2v.2h-.1a.1.1 0 0 0-.1.1H3l-.3.4c-.1.2-.1.4-.3.5H2c0 .1 0 .2.1.2s.3 0 .4-.1A5.6 5.6 0 0 1 3 8l.2-.2h.1v-.3c0-.1-.1-.1-.1-.2a1.2 1.2 0 0 0-.8.4 1 1 0 0 0-.4.7v.2h-.1v-.1a2.2 2.2 0 0 1 .5-.8l.2-.2.7-.4.3-.2H6l-.8.1H5a.2.2 0 0 1 .2.2h2.2a.2.2 0 0 1 .2.2L8.7 7h.4zm0 .1h-.3c-.1 0 0 .1 0 .2H9c.1 0 .1-.1.1-.2zm-1.6.4a.4.4 0 0 0 .1-.3c0-.1-.1-.1-.2-.2s-.2 0-.3.2 0 .2.1.2zm-2.4 0a.4.4 0 0 0 .1-.3.1.1 0 0 0-.1-.1H5c-.1-.1-.2 0-.2.1s0 .2.1.3h.2zm-.4-.4c0 .1-.1.1-.2.1l-.6.3a2.7 2.7 0 0 0-.8.7h.3a3.5 3.5 0 0 1 1.4-.6c-.1-.1-.1-.1-.1-.2z"/><path fill="#a6ab65" d="M9.1 9.4H9l-.4.4h-.5l.6-.2z"/><path fill="#b6b76e" d="M9.1 7c0 .1 0 .2-.1.2h-.2c0-.1-.1-.2 0-.2h.3z"/><path fill="#231f20" d="M8.9 7.9l-.4.2-1.2.2.2-.2.2-.2h1.2zm-.1 0H7.7l-.3.3h.2z"/><path fill="#a6ab65" d="M8.4 7.9h.4l-1.2.3h-.2l.3-.2h.7z"/><path fill="#231f20" d="M8.6 10h.1l-.2.2h.1zm-.1.1z"/><path fill="#353d16" d="M8.6 10h-.8c.1-.1 0-.1 0-.1h.8z"/><path fill="#fdff99" d="M8.4 6.4c.1.1 0 .1 0 .2h-.2v-.2h.2z"/><path fill="#676b2c" d="M8.3 6.2h-.2a1 1 0 0 1-.9.1h.7l.2-.2z"/><path fill="#a6ab65" d="M8.2 9c.1.1 0 .2 0 .3h-.3c-.1-.1-.2-.2-.1-.3s.1-.2.2-.1h.2zm-.2.9h-.3l-.5.2h-.9l.4-.2.2-.2c0-.1.1-.1.2-.2a1.3 1.3 0 0 1 .9.4z"/><path fill="#353d16" d="M7.8 10.2l-.3.3a1.8 1.8 0 0 1-.7.5l.7-.5h.3z"/><path fill="#231f20" d="M7.8 10.1s.1 0 0 .1h-.2a.1.1 0 0 1 .1-.1h.1z"/><path fill="#a6ab65" d="M7.7 9.1h.1l-.5.2z"/><path fill="#676b2c" d="M7.5 10.3l-.7.5h.3z"/><path fill="#b6b76e" d="M7.6 7.2a.4.4 0 0 1-.1.3h-.3c-.1 0-.1-.1-.1-.2s.2-.3.3-.2c.1 0 .2 0 .2.1z"/><path fill="#231f20" d="M6.6 8.5l-.3.2H4.9a1 1 0 0 1 .7-.4v.1c-.1-.1-.1-.2 0-.2H6l.2.3h.4zm-.1.1h-.4a.1.1 0 0 0 0-.2.2.2 0 0 0-.2-.2h-.2c-.1 0-.1 0-.1.1s0 .2.1.2.3.2.3.1zm-.7.1h-.1L5 9h.3l.3-.2zm.5 1c.1.1.1.2 0 .2s-.1.3-.2.3l-.3-.2a.4.4 0 0 1 .1-.3h.4zm0 .2h-.4c0 .1-.1.2 0 .3h.2z"/><path fill="#a6ab65" d="M6.3 9.8l-.2.2h-.2c-.1-.1 0-.2 0-.3h.4zm-.2-1.4a.1.1 0 0 1 0 .2c-.1-.1.1-.1 0-.2z"/><path fill="#a6ab65" d="M6.1 8.4c.1.1-.1.1 0 .2H6c0 .1-.1.1-.3-.1s-.1-.1-.1-.2 0-.1.1-.1h.2a.2.2 0 0 1 .2.2zm-.1.3z"/><path fill="#676b2c" d="M5.2 6.7h.5l-1.1.5a2.4 2.4 0 0 0-1.1.6h-.3a.1.1 0 0 1 .1-.1h.1c0-.1.1-.1 0-.2s0-.2-.1-.2h-.1l-.5.2.5-.3.6-.3h1.4z"/><path fill="#353d16" d="M5.7 11l-.4.2-.8.3h-.2c.1 0 .1-.1 0-.1h.2l.7-.3h.5z"/><path fill="#a6ab65" d="M5.7 8.6h-.1l-.3.2H5z"/><path fill="#231f20" d="M5.6 8.4c0 .1 0 .2.1.2s-.1-.1-.1-.2z"/><path fill="#a6ab65" d="M5.5 10.9H4l-1.1-.3.6.2h1.1z"/><path fill="#a6ab65" d="M5.4 11h-.2l-.7.3h-.4L2.9 11l-.3-.2h.3l1.1.3h1.4z"/><path fill="#231f20" d="M5.1 9.3l.2.2c0 .2-.1.3-.2.3l-.3-.2a.2.2 0 1 1 .3-.3zm0 .4c.1 0 .1-.1.1-.2v-.2h-.4s0 .2.1.2.1.3.2.2z"/><path fill="#a6ab65" d="M5.2 9.5c0 .1 0 .2-.1.2s-.2 0-.2-.1-.1-.2-.1-.2h.3z"/><path fill="#b6b76e" d="M5.2 7.2a.4.4 0 0 1-.1.3h-.2c-.1-.1-.2-.2-.1-.3s.1-.2.2-.1h.1a.1.1 0 0 1 .1.1z"/><path fill="#a6ab65" d="M4.7 7.1v.2c0 .1 0 .1.1.2a3.5 3.5 0 0 0-1.4.6h-.3a2.7 2.7 0 0 1 .8-.7l.6-.3c.1.1.2.1.2 0z"/><path fill="#231f20" d="M4.3 11.4c.1 0 .1.1 0 .1z"/><path fill="#353d16" d="M4.3 11.5h-.7l-.8-.2A1.1 1.1 0 0 1 2 11a1.6 1.6 0 0 1-.4-.7A2.7 2.7 0 0 1 1.4 9h.1a5 5 0 0 0 .2 1.2.9.9 0 0 0 .4.6 1.1 1.1 0 0 0 .7.3l.8.2h.7z"/><path fill="#231f20" d="M4 10.5h-.3l-.8.2h-.3l.3.2 1.2.3h-.4a3.3 3.3 0 0 1-1.2-.5h.3l1-.2H2.7c-.2 0-.4-.1-.3-.3V10l.3-.2.5-.2h-.4l-.4.2H2c-.2-.1-.2-.3-.2-.5v.2h-.2a.4.4 0 0 0-.1-.3c.1.1.1.2.1.4a.4.4 0 0 0 .1-.3h.1v.4c.1.1.1.2.3.2h1.3l-.6.3h-.3v.2a.3.3 0 0 0 .1.2H4z"/><path fill="#353d16" d="M3.7 11.4h-.1l-.8-.2a1.1 1.1 0 0 1-.7-.3.9.9 0 0 1-.4-.6 5 5 0 0 1-.2-1.2.4.4 0 0 1 .1.3h.1v-.2c0 .2 0 .4.2.5h.4l.4-.2h.5l-.5.2-.3.2v.2c-.1.2.1.3.3.3h1.1l-1 .2h-.3a3.3 3.3 0 0 0 1.2.8zm-1.5-.7a.8.8 0 0 0-.3-.9l-.2-.2c-.1.1 0 .3.1.5l.4.5z"/><path fill="#fdff99" d="M3.4 7.5v.2h-.2L3 8a5.6 5.6 0 0 0-.5.8c-.1.1-.3.2-.4.1S2 8.8 2 8.7v-.2a1 1 0 0 1 .4-.7 1.2 1.2 0 0 1 .8-.4h.1s.1 0 .1.1z"/><path fill="#231f20" d="M1.9 9.8a.8.8 0 0 1 .3.9l-.4-.5c-.1-.2-.2-.4-.1-.5zm.3.8v-.2c-.1-.3-.2-.6-.5-.7v.2l.2.3z"/><path fill="#676b2c" d="M2.2 10.4v.2l-.3-.4-.2-.3v-.2c.3.1.4.4.5.7zm-.3-1.6v.3c0-.1.1-.2.1-.3z"/><path fill="none" stroke="#a6ab65" stroke-miterlimit="10" stroke-width=".04" d="M6.1 8.4a.1.1 0 0 1 0 .2m-.4 0c-.1 0-.1-.1-.1-.2m4.9.1v-.2c0-.1.1-.1.1-.2h.4v.2l-.2.2h-.4z"/><path fill="none" stroke="#a6ab65" stroke-miterlimit="10" stroke-width=".04" d="M10.6 8.6h.3c.1 0 .1-.1.1-.2s0-.2-.1-.2h-.3v.2zm-.3-1.1h-.4v-.2h.3c.1-.1.2 0 .1.2z"/><path fill="none" stroke="#a6ab65" stroke-miterlimit="10" stroke-width=".04" d="M10.2 7.3H10c-.1.1-.1.1-.1.2h.4a.1.1 0 0 0-.1-.2z"/><path fill="none" stroke="#676b2c" stroke-miterlimit="10" stroke-width=".04" d="M14.5 7.1h-1.1l-2.1-.2-2.1.1 1.2-.2H14l.5.2z"/><path fill="none" stroke="#a6ab65" stroke-miterlimit="10" stroke-width=".04" d="M8.8 7.9H7.7l-.3.3h.2z"/><path fill="none" stroke="#a6ab65" stroke-miterlimit="10" stroke-width=".04" d="M8.9 7.9l-.4.2-1.2.2.2-.2.2-.2h1.2z"/><path fill="none" stroke="#676b2c" stroke-miterlimit="10" stroke-width=".04" d="M8.3 6.2h.5l.6.2H8.3z"/><path fill="none" stroke="#676b2c" stroke-miterlimit="10" stroke-width=".04" d="M8.4 6.4a.1.1 0 0 0-.1-.1h-.2v.2h.2c.1 0 .2 0 .1-.1zm-.7.1h-.5a1 1 0 0 0 .9-.1l-.2.2z"/><path fill="none" stroke="#676b2c" stroke-miterlimit="10" stroke-width=".04" d="M8.5 6.4c0 .1 0 .2-.1.2a.2.2 0 0 1-.3 0H10l-.4.2H9l-.5-.3h-.1a.1.1 0 0 1 .1-.1zm.7 2.4c-.1 0-.1.1 0 .2z"/><path fill="none" stroke="#676b2c" stroke-miterlimit="10" stroke-width=".04" d="M8.3 9l.8-.2h.6l.6-.2h-.4a4.7 4.7 0 0 0-1.7.4z"/><path fill="none" stroke="#676b2c" stroke-miterlimit="10" stroke-width=".04" d="M7.8 9c-.1.1 0 .2.1.3h.3c0-.1.1-.2 0-.3H8c-.1-.2-.2-.1-.2 0zm-.1.1l-.4.3.5-.2z"/><path fill="none" stroke="#676b2c" stroke-miterlimit="10" stroke-width=".04" d="M7.8 9.3l-.7.2.3-.2.3-.2.2-.2h.3l.4-.2a3.7 3.7 0 0 1 1.8-.2l-.7.2h-.2l-.2.2h-.2v-.1l-.8.3c0 .1 0 .2-.1.2z"/><path fill="none" stroke="#a6ab65" stroke-miterlimit="10" stroke-width=".04" d="M6.3 10.7c.1-.2.3-.2.4-.3l.2-.2h.2l.5-.2 1.1-.3.6-.3.5-.4h.7l1.4-.2a1.1 1.1 0 0 1-.7.3l.6-.2h-1.4l-.6.2-.6.3h-.1l-.4.2-.6.2H8a1.3 1.3 0 0 0-.9.2c-.1.1-.2.1-.2.2l-.2.2-.4.2h.9l.5-.2a.1.1 0 0 0-.1.1h-.1l-.4.2h-.8zm-.4-1c0 .1-.1.2 0 .3h.2l.2-.2h-.4z"/><path fill="none" stroke="#a6ab65" stroke-miterlimit="10" stroke-width=".04" d="M6.2 9.7h.1c.1.1.1.2 0 .2s-.1.3-.2.3l-.3-.2a.4.4 0 0 1 .1-.3zm-.1-1zm0-.3a.2.2 0 0 0-.2-.2h-.2c-.1 0-.1 0-.1.1s0 .2.1.2.3.2.3.1h.1c-.1-.1.1-.1 0-.2zm-.3.3h-.1L5 9h.3l.3-.2z"/><path fill="none" stroke="#a6ab65" stroke-miterlimit="10" stroke-width=".04" d="M5 9h-.1a1 1 0 0 1 .7-.4v-.2c-.1-.1-.1-.2 0-.2H6l.2.3h.4l-.3.2H5zm-.1.6c0 .1.1.2.2.1s.1-.1.1-.2v-.2h-.4s0 .3.1.3z"/><path fill="none" stroke="#a6ab65" stroke-miterlimit="10" stroke-width=".04" d="M5.3 9.5c0 .2-.1.3-.2.3l-.3-.2a.2.2 0 1 1 .3-.3zM9.1 7h-.3c-.1 0 0 .1 0 .2H9c.1 0 .1-.1.1-.2zm-2 .3c0 .1 0 .2.1.2h.3a.4.4 0 0 0 .1-.3c0-.1-.1-.1-.2-.2-.1 0-.2.1-.3.3zm-2.3-.1c-.1.1 0 .2.1.3h.2a.4.4 0 0 0 .1-.3.1.1 0 0 0-.1-.1H5c-.1-.1-.2 0-.2.1z"/><path fill="none" stroke="#a6ab65" stroke-miterlimit="10" stroke-width=".04" d="M3.1 8.2h.3a3.5 3.5 0 0 1 1.4-.6c-.1-.1-.1-.1-.1-.2v-.3c0 .1-.1.1-.2.1l-.6.3a2.7 2.7 0 0 0-.8.7z"/><path fill="none" stroke="#a6ab65" stroke-miterlimit="10" stroke-width=".04" d="M3.2 7.9H3l-.3.4c-.1.2-.1.4-.3.5H2c0 .1 0 .2.1.2s.3 0 .4-.1A5.6 5.6 0 0 1 3 8l.2-.2h.1v-.3c0-.1-.1-.1-.1-.2a1.2 1.2 0 0 0-.8.4 1 1 0 0 0-.4.7v.2h-.1v-.1a2.2 2.2 0 0 1 .5-.8l.2-.2.7-.4.3-.2H6l-.8.1H5a.2.2 0 0 1 .2.2h2.2a.2.2 0 0 1 .2.2L8.7 7h.5a.2.2 0 0 1-.2.2h-.2V7l-1 .2c0 .1-.1.2-.2.3s-.2 0-.3 0a.6.6 0 0 1-.1-.4l.2-.1H5.2c.1.1 0 .2-.1.3h-.7L3 8.3l.3-.4h.2a2.4 2.4 0 0 1 1.1-.6l1.1-.5H3.8l-.6.3-.5.3.5-.2h.1c.1 0 .1.1.1.2v.2h-.1a.1.1 0 0 0-.1.3z"/><path fill="none" stroke="#676b2c" stroke-miterlimit="10" stroke-width=".04" d="M2.2 10.4c-.1-.3-.2-.6-.5-.7v.2l.2.3.3.4z"/><path fill="none" stroke="#676b2c" stroke-miterlimit="10" stroke-width=".04" d="M1.7 9.6l.2.2a.8.8 0 0 1 .3.9l-.4-.5c-.1-.2-.2-.4-.1-.5z"/><path fill="none" stroke="#353d16" stroke-miterlimit="10" stroke-width=".04" d="M1.5 9c.1.1.1.2.1.4a.4.4 0 0 0 .1-.3h.1v.4c.1.1.1.2.3.2h1.3l-.6.3h-.3v.2a.3.3 0 0 0 .1.2h1.1l-.8.2h-.3l.3.2 1.2.3h-.4a3.3 3.3 0 0 1-1.2-.5h.3l1-.2H2.7c-.2 0-.4-.1-.3-.3V10l.3-.2.5-.2h-.4l-.4.2H2c-.2-.1-.2-.3-.2-.5v.2h-.2a.4.4 0 0 0-.1-.3"/><path fill="#353d16" d="M8 10.8a4.4 4.4 0 0 0 .2-1.2 22.9 22.9 0 0 0 .4-4.3c0-.4-.1-.7-.1-.9s.9.4 1 .7a3.1 3.1 0 0 1 1.3-.3 1.6 1.6 0 0 1 1.2.4 1.5 1.5 0 0 1 .4.9 1.7 1.7 0 0 1-.4 1.1 3 3 0 0 1-1.1.7 1.9 1.9 0 0 1 1 .5 1.4 1.4 0 0 1 .5 1 1.6 1.6 0 0 1-.7 1.5 3.5 3.5 0 0 1-1.8.5 3.3 3.3 0 0 1-1.9-.6zm3-5.1l-.6-.2h-.8A15.2 15.2 0 0 1 9.4 8c-.1 1.3-.2 2.1-.2 2.5l.7.2a1.3 1.3 0 0 0 .9-.4 1.3 1.3 0 0 0 .4-1 1.1 1.1 0 0 0-.4-.9A1.4 1.4 0 0 0 9.7 8v-.2a3.3 3.3 0 0 0 1.2-.5 1.8 1.8 0 0 0 .4-1 .9.9 0 0 0-.3-.6zm-7.6 5.1a4.3 4.3 0 0 1 .2-1.2 34.6 34.6 0 0 0 .3-4.3 2.2 2.2 0 0 0-.1-.9 1.9 1.9 0 0 1 1.1.7 2.8 2.8 0 0 1 1.3-.3 1.5 1.5 0 0 1 1.1.4 1.1 1.1 0 0 1 .4.9 1.7 1.7 0 0 1-.4 1.1 2.3 2.3 0 0 1-1.1.7 2.2 2.2 0 0 1 1.1.5 1.3 1.3 0 0 1 .4 1 1.6 1.6 0 0 1-.7 1.5 2.9 2.9 0 0 1-1.7.5 3.1 3.1 0 0 1-1.9-.6zm3-5.1l-.7-.2H5c0 .4-.1 1.2-.2 2.5a21.4 21.4 0 0 0-.3 2.5l.7.2a1.8 1.8 0 0 0 1-.4 1.7 1.7 0 0 0 .3-1 1.1 1.1 0 0 0-.4-.9 1.2 1.2 0 0 0-1-.4v-.2a3.3 3.3 0 0 0 1.2-.5 1.3 1.3 0 0 0 .4-1 1.4 1.4 0 0 0-.3-.6z"/></svg>