<svg height="64" viewBox="0 0 64 64" width="64" xmlns="http://www.w3.org/2000/svg"><path d="m15 8.7a6.4 6.4 0 0 1 3.9 1.3 3.9 3.9 0 0 1 1.3 2.8 3.7 3.7 0 0 1 -.9 2.5 4.6 4.6 0 0 1 -2.2 1.4 17.3 17.3 0 0 1 -3.6.3h-6v-.5h.6a2.1 2.1 0 0 0 1.3-.3.9.9 0 0 0 .5-.8 12.3 12.3 0 0 0 .1-2.4v-7.5a13.6 13.6 0 0 0 -.1-2.4 1.5 1.5 0 0 0 -.4-.8l-1.6-.2h-.2v-.5h5.4c4.1 0 6.2 1.2 6.2 3.6a3 3 0 0 1 -1 2.4 6.7 6.7 0 0 1 -3.3 1.1zm-2.8-.2h.5a5.6 5.6 0 0 0 3.4-.8 3 3 0 0 0 .8-2.5 4.2 4.2 0 0 0 -.3-1.8 2.2 2.2 0 0 0 -1.1-1 4.5 4.5 0 0 0 -2.4-.4h-.9zm0 .5v3.5c0 1.4.1 2.3.1 2.7a1.9 1.9 0 0 0 .4.9 2.4 2.4 0 0 0 1.4.3 3.7 3.7 0 0 0 2.7-.9 3.8 3.8 0 0 0 .9-2.8 3.6 3.6 0 0 0 -1-2.8 5.6 5.6 0 0 0 -3.6-.9z" fill="#fff"/><path d="m21.6 7.1v-.4h4.7v.4h-1.2a.5.5 0 0 0 -.3.5 5.4 5.4 0 0 0 -.1 1.6v6.6l.3.5c.2.2.5.2 1 .2h.3v.5h-4.7v-.4h1.2a.7.7 0 0 0 .3-.6 5.4 5.4 0 0 0 .1-1.6v-5a6.2 6.2 0 0 0 -.1-1.6.5.5 0 0 0 -.3-.5h-1.2z" fill="#fff"/><path d="m28.1 6.7h4.8v.4h-1.2a.7.7 0 0 0 -.4.5v8.4c0 .8-.1 1.5-.1 2a4.9 4.9 0 0 1 -.6 1.3 3.4 3.4 0 0 1 -1.3 1 4.8 4.8 0 0 1 -1.8.3 3.4 3.4 0 0 1 -1.8-.4 1.2 1.2 0 0 1 -.6-1 .8.8 0 0 1 .2-.6.9.9 0 0 1 .6-.3.5.5 0 0 1 .5.3.5.5 0 0 1 .3.5c0 .1-.1.3-.1.4a.4.4 0 0 0 -.1.3l.3.3.7.2a1.8 1.8 0 0 0 1.4-.6 1.7 1.7 0 0 0 .7-1.3 12.5 12.5 0 0 0 .2-2.4v-6.7c0-.8-.1-1.3-.1-1.6l-.3-.5h-1.3z" fill="#fff"/><path d="m33 11.8a4.6 4.6 0 0 1 1.6-3.8 5.4 5.4 0 0 1 3.9-1.4 5.4 5.4 0 0 1 4 1.4 4.6 4.6 0 0 1 1.6 3.8 5.3 5.3 0 0 1 -1.5 3.9 5.5 5.5 0 0 1 -4 1.5 5.4 5.4 0 0 1 -4-1.5 5 5 0 0 1 -1.6-3.9zm1.7 0a6.1 6.1 0 0 0 1 3.7 3.5 3.5 0 0 0 3 1.3 3.2 3.2 0 0 0 2.7-1.3 5.3 5.3 0 0 0 1-3.6 5.6 5.6 0 0 0 -1-3.7 3.4 3.4 0 0 0 -2.8-1.3 3.4 3.4 0 0 0 -2.9 1.3 5.9 5.9 0 0 0 -1 3.6z" fill="#fff"/><path d="m52.6 6.7h3.4v.4a1.3 1.3 0 0 0 -1 .3 1.3 1.3 0 0 0 -.5.6v4.6c0 .9-.1 1.6-.1 2a3.4 3.4 0 0 1 -.6 1.2 3 3 0 0 1 -1.4 1 6.5 6.5 0 0 1 -2 .4 5.2 5.2 0 0 1 -2.3-.5 2.8 2.8 0 0 1 -1.4-1.2 3.7 3.7 0 0 1 -.4-2v-4.2a6.2 6.2 0 0 0 -.1-1.6.5.5 0 0 0 -.3-.5h-1.2v-.5h4.7v.4h-1.2a.5.5 0 0 0 -.3.5 5.4 5.4 0 0 0 -.1 1.6v3.2a14.9 14.9 0 0 0 .1 2.4 1.8 1.8 0 0 0 .9 1.2 2.9 2.9 0 0 0 1.9.5 4.7 4.7 0 0 0 1.7-.3 2.7 2.7 0 0 0 1.2-.9 2.1 2.1 0 0 0 .4-1.1 7.2 7.2 0 0 0 .1-1.7v-3.4a3.5 3.5 0 0 0 -.1-1.2l-.4-.6-1-.2z" fill="#fff"/><g fill="none"><path d="m13 29.3 1.8-1 2-1.2a5.3 5.3 0 0 1 1.2-.3h5.6a20.2 20.2 0 0 0 -4.1 1.5 14.7 14.7 0 0 0 -3.9 2.1c-.1.1-.2.1-.2.2a.8.8 0 0 0 -.4.4l-.4-.2.6-.4c0-.1.1-.2.2-.3a1.9 1.9 0 0 0 .2-.7 1 1 0 0 0 -.5-.6h-.4a5.8 5.8 0 0 0 -1.7.5z" stroke="#fff" stroke-miterlimit="10" stroke-width=".48"/><path d="m9.3 36.8c-.1-.1-.1.1 0 .1a3.5 3.5 0 0 0 .5 1.8l1.3 1.8c0 .1.1.1.2 0a3.7 3.7 0 0 0 -1.1-3.3z" stroke="#fff" stroke-miterlimit="10" stroke-width=".48"/><path d="m33.1 25.4a.6.6 0 0 1 -.2.7h-.6c-.3-.1-.3-.5-.3-.7v-.3h.8z" stroke="#fff" stroke-miterlimit="10" stroke-width=".48"/><path d="m21.3 27.8c.2.1.3.3.4.4a1.3 1.3 0 0 1 -.2 1.2l-.5.2-.5-.3a.9.9 0 0 1 -.3-1 .7.7 0 0 1 1-.4z" stroke="#fff" stroke-miterlimit="10" stroke-width=".48"/><path d="m40.5 32.8a.4.4 0 0 0 .1.3l.3.2a2.2 2.2 0 0 0 .8 0 .9.9 0 0 0 .7-.8.9.9 0 0 0 -.3-.9h-.4a1 1 0 0 0 -.9.1l-.3.5z" stroke="#fff" stroke-miterlimit="10" stroke-width=".48"/><path d="m30.8 35.5h.1c0 .1 0 .1.1.2a.9.9 0 0 0 1.2 0 1.1 1.1 0 0 0 .5-.9.1.1 0 0 0 .1.1l2.7-.9s.1 0 0-.1h.1a.4.4 0 0 0 0 .5c.1.3.3.5.6.4a.6.6 0 0 0 .6-.5 1.4 1.4 0 0 0 -.2-.6l1.1-.2 2.4-.6c0-.1 0-.2-.1-.2a15.2 15.2 0 0 0 -6.3.8l-1.5.6a1.1 1.1 0 0 0 -.8-.2.6.6 0 0 0 -.6.5.8.8 0 0 0 -.2.4l-1.1.6-1 .7h-.1c-.1.1 0 .2.1.1h.1a10.2 10.2 0 0 1 2.2-.7z" stroke="#fff" stroke-miterlimit="10" stroke-width=".48"/><path d="m25.4 36.9a2 2 0 0 0 -1.1.2 1 1 0 0 0 -.4 1 1.3 1.3 0 0 0 1.1.6c.4 0 .7-.4.8-.8a.9.9 0 0 0 0-.7c0-.1 0-.2-.1-.2h-.3z" stroke="#fff" stroke-miterlimit="10" stroke-width=".48"/><path d="m20.9 34.7h.1l1.2-.4 1.1-.5c.8-.2 1.7.1 2.5-.2a1.8 1.8 0 0 0 .8-.7.1.1 0 0 0 -.1-.1 5.7 5.7 0 0 0 -1.3 0 .6.6 0 0 0 .1-.4 1.2 1.2 0 0 0 -.7-1.1c.1 0 0-.1 0-.1a.9.9 0 0 0 -.7 0l-.4.2-.3.2a1.2 1.2 0 0 0 -.2.8c.1.3.1.5.3.7a5 5 0 0 0 -2.6 1.6c-.1 0 0 .1.1.1s.1 0 .1-.1z" stroke="#fff" stroke-miterlimit="10" stroke-width=".48"/><path d="m25.8 27.7h3.1c.1 0 .1-.1.1-.2h.4c-.4.1-.8.3-.9.6a1.2 1.2 0 0 0 .2 1.3.9.9 0 0 0 1.2.1 1 1 0 0 0 .5-1.1l3.7-.7a.8.8 0 0 0 .2.4.9.9 0 0 0 .8.6c.3 0 .6-.4.6-.7a.4.4 0 0 0 -.1-.5h.1c0 .1 0 .1.1.1a45.5 45.5 0 0 1 7.3-.9 36.8 36.8 0 0 1 7.4.4l2 .3a4.3 4.3 0 0 1 1.8.6c0 .1.1 0 .1-.1a11.4 11.4 0 0 1 -.6 4.6 5 5 0 0 1 -1.5 1.7 5.2 5.2 0 0 1 -2.4.7l-2.7-.2h-1.5a3.7 3.7 0 0 0 -1.5.4 7 7 0 0 1 -2.9.3 6.7 6.7 0 0 0 -2 0l.6-.2a13.2 13.2 0 0 1 2.8-.2 3.6 3.6 0 0 0 2.6-1.1.1.1 0 0 0 -.1-.1 40.7 40.7 0 0 0 -4.9.5 9.5 9.5 0 0 0 -2.3.5l-1.8 1a8.8 8.8 0 0 1 -2.2 1c0 .1-.1.1 0 .1a13.4 13.4 0 0 1 -3.8 1 4.9 4.9 0 0 0 -1.7.6l-.8.5a2.2 2.2 0 0 1 -.6.7c-.5.4-1.2.5-1.6 1h-.1c-.1 0-.1.1 0 .1h1.9a.5.5 0 0 0 .4-.2.8.8 0 0 1 .4-.4l.6-.2 1.1-.6.5-.3-.5.6a8 8 0 0 1 -2.5 1.6h-.6l-.5-.2h-.3l-.5-.2h-.9a4.2 4.2 0 0 0 -1.5.4l-3.3.5a12.1 12.1 0 0 1 -3.8 0 8.3 8.3 0 0 1 -2.1-.6 26.1 26.1 0 0 0 2.7-.6l1.2-.5c.1 0 0-.2-.1-.1a8.5 8.5 0 0 1 -4.2-.1l-1-.3c-.2-.2-.5-.4-.5-.7s.3-.5.5-.7l.9-.6 2.2-1c0-.1 0-.2-.1-.2l-1.6.2h-.9l-.7.3a2.6 2.6 0 0 1 -1.5 0 1.1 1.1 0 0 1 -.7-.8 3.2 3.2 0 0 1 -.2-1.1 3.6 3.6 0 0 0 .4-.9l.3.4a1.2 1.2 0 0 0 1.6-.2 7.8 7.8 0 0 0 1-1.5 8.6 8.6 0 0 1 1-1.6l.5-.4.4.2a4 4 0 0 0 -1 1.2c0 .1 0 .1.1.1a30.2 30.2 0 0 1 4.8-2.3l1.4-.6.6.4a.7.7 0 0 0 .6-.1 1 1 0 0 0 .4-1 6.1 6.1 0 0 1 1.3-.3l1.2-.2" stroke="#fff" stroke-miterlimit="10" stroke-width=".48"/><path d="m39.8 29.1c.1-.4-.2-.7-.6-.9h-.6c-.2.1-.3.2-.3.4v.6a.3.3 0 0 0 .3.3h1a.5.5 0 0 0 .2-.4z" stroke="#fff" stroke-miterlimit="10" stroke-width=".48"/><path d="m34.8 30.9c0-.1 0-.2-.1-.2h-2.9a2.3 2.3 0 0 0 -1.1.3 1.6 1.6 0 0 0 -.8.6l-.9.6h-.1a.1.1 0 0 0 -.1.1h.3a16.3 16.3 0 0 0 4.4-.8z" stroke="#fff" stroke-miterlimit="10" stroke-width=".48"/><path d="m22.1 36.5a1 1 0 0 0 -.7-.9.7.7 0 0 0 -.9.1c-.4.2-.3.8-.1 1.1a.7.7 0 0 0 .9.5c.4 0 .7-.4.8-.8z" stroke="#fff" stroke-miterlimit="10" stroke-width=".48"/><path d="m33.3 25.5a.8.8 0 0 0 -.2-.4h.2l1.9.8a3.8 3.8 0 0 0 2.1-.1l1.2-.3a.1.1 0 0 0 0-.2 16.1 16.1 0 0 1 -2.2 0l-1.1-.2-1-.3a4 4 0 0 0 -1.9-.2l-.8.2-.8.6c-.7.2-1.4 0-2 .2h-.2c-.1 0-.1.1 0 .1a4.5 4.5 0 0 0 3.4 0 .8.8 0 0 0 .2.4.6.6 0 0 0 .8 0 .7.7 0 0 0 .4-.6z" stroke="#fff" stroke-miterlimit="10" stroke-width=".48"/><path d="m9.7 34.8a.1.1 0 0 0 -.1.1 1.9 1.9 0 0 1 -.3 1 3.6 3.6 0 0 0 -.4-1.1h-.1c.1-.6.1-1.2.2-1.8a7.6 7.6 0 0 1 .1-1.5 2.3 2.3 0 0 1 .4-1.5 1.3 1.3 0 0 1 .7-.5.2.2 0 0 1 .2-.2 4.7 4.7 0 0 0 1-1l.3-.3a4.9 4.9 0 0 1 1.6-1.6 8.6 8.6 0 0 1 2.3-.6h.5l3.4-.7h.3l1.2-.3a1.8 1.8 0 0 0 .9-1 .5.5 0 0 1 .5-.3l1 .4.6.3a2.3 2.3 0 0 0 2.3-.5l.4-.3c.3-.3.7-.7 1.1-.7s.6.1.9.3h.1a4.4 4.4 0 0 0 1.5.5 5.4 5.4 0 0 0 2.8-.5 2.4 2.4 0 0 1 1.3-.5l1.1.2h.5a37.6 37.6 0 0 0 5.8.3h.9c3.7 0 7.5.3 10.1 2.7a23.9 23.9 0 0 1 1.6 2.2h-.1a3.9 3.9 0 0 0 -1.5-.6l-1.8-.4-3.7-.4a45.4 45.4 0 0 0 -7.4.2 30.7 30.7 0 0 0 -4.2.7h-.1l-.4-.2h-.8c-.1.1-.2.2-.2.3l-3.9.7a1.1 1.1 0 0 0 -.9-.7h-.5s-.1.1 0 .1h-3.7l-.6.2-.7.3h-.6a2.2 2.2 0 0 0 -1.4.3v-.2a1.2 1.2 0 0 0 -.7-.7l.5-.2 2.8-.8c.1 0 .1-.1 0-.1h-5.1a5.8 5.8 0 0 0 -2.3.3l-1.1.5-1 .8-2.4 1.4c-.1 0 0 .1.1.1l-.7.5a5.7 5.7 0 0 0 -1.7 2.8 2.8 2.8 0 0 0 -.1.9" stroke="#fff" stroke-miterlimit="10" stroke-width=".48"/><path d="m53.7 25.9a9.9 9.9 0 0 1 1.1 1.7l-1.7-2.4z" stroke="#fff" stroke-miterlimit="10" stroke-width=".48"/><path d="m40.8 31.5a1 1 0 0 1 .9-.1h.4a.9.9 0 0 1 .3.9.9.9 0 0 1 -.7.8 2.2 2.2 0 0 1 -.8 0l-.3-.2a.4.4 0 0 1 -.1-.3v-.6z" stroke="#fff" stroke-miterlimit="10" stroke-width=".48"/><path d="m38.3 28.6c0-.2.1-.3.3-.4h.6c.4.2.7.5.6.9a.5.5 0 0 1 -.2.4h-1a.3.3 0 0 1 -.3-.3z" stroke="#fff" stroke-miterlimit="10" stroke-width=".48"/><path d="m43.1 26.6a45.5 45.5 0 0 0 -7.3.9c-.1 0-.1 0-.1-.1a30.7 30.7 0 0 1 4.2-.7 45.4 45.4 0 0 1 7.4-.2l3.7.4 1.8.3a3.9 3.9 0 0 1 1.5.6h.1c0 .1-.1.2-.1.1a4.3 4.3 0 0 0 -1.8-.6l-2-.3a36.8 36.8 0 0 0 -7.4-.4z" stroke="#fff" stroke-miterlimit="10" stroke-width=".48"/><path d="m37.3 35.9.9-.4c0-.1.1-.1.2-.1l.9-.2-.7.2-.6.3z" stroke="#fff" stroke-miterlimit="10" stroke-width=".48"/><path d="m33.9 37.9h-.3a8.7 8.7 0 0 1 1.5-1.3l.6-.4h.5l1.3-.4.7-.2-.9.4-1.3.4-1 .6z" stroke="#fff" stroke-miterlimit="10" stroke-width=".48"/><path d="m33.1 38.6c0 .1-.1.1-.1 0z" stroke="#fff" stroke-miterlimit="10" stroke-width=".48"/><path d="m31.1 38.6-.8.4c.1-.1.2-.1.2-.2h.1l.4-.2c.1-.1.2 0 .1 0z" stroke="#fff" stroke-miterlimit="10" stroke-width=".48"/><path d="m33.5 31.4a16.3 16.3 0 0 1 -4.4.8h-.3a.1.1 0 0 1 .1-.1h.1l.9-.6a1.6 1.6 0 0 1 .8-.6 2.3 2.3 0 0 1 1.1-.3h2.9c.1 0 .1.1.1.2z" stroke="#fff" stroke-miterlimit="10" stroke-width=".48"/><path d="m32 25.4c0 .2 0 .6.3.7h.6a.6.6 0 0 0 .2-.7l-.3-.4h-.8z" stroke="#fff" stroke-miterlimit="10" stroke-width=".48"/><path d="m28.5 25.8c-.1 0-.1-.1 0-.1h.2c.6-.2 1.3 0 2-.2l.8-.6.8-.2a4 4 0 0 1 1.9.2l1 .3 1.1.2a16.1 16.1 0 0 0 2.2 0 .1.1 0 0 1 0 .2l-1.2.3a3.8 3.8 0 0 1 -2.1.1l-1.9-.8h-.2a.8.8 0 0 1 .2.4.7.7 0 0 1 -.4.7.6.6 0 0 1 -.8 0 .8.8 0 0 1 -.2-.4 4.5 4.5 0 0 1 -3.4-.1z" stroke="#fff" stroke-miterlimit="10" stroke-width=".48"/><path d="m30.8 34.7a.9.9 0 0 0 .4.9.7.7 0 0 0 1-.1.8.8 0 0 0 .2-1 .2.2 0 0 0 -.2-.2h-.4a1 1 0 0 0 -1 .4z" stroke="#fff" stroke-miterlimit="10" stroke-width=".48"/><path d="m28.4 36.4h.1l1-.7 1.1-.6a.8.8 0 0 1 .2-.4.6.6 0 0 1 .6-.5 1.1 1.1 0 0 1 .8.2l1.5-.6a15.2 15.2 0 0 1 6.3-.8c.1 0 .1.1.1.2l-2.4.6-1.1.2a1.4 1.4 0 0 1 .2.6.6.6 0 0 1 -.6.5c-.3.1-.5-.1-.6-.4a.4.4 0 0 1 0-.5h-.1c.1.1 0 .1 0 .1l-2.7.9a.1.1 0 0 1 -.1-.1 1.1 1.1 0 0 1 -.5.9.9.9 0 0 1 -1.2 0c-.1-.1-.1-.1-.1-.2h-.1a10.2 10.2 0 0 0 -2.2.9h-.1c-.1-.1-.2-.2-.1-.3z" stroke="#fff" stroke-miterlimit="10" stroke-width=".48"/><path d="m23.9 38.1a1 1 0 0 1 .4-1 2 2 0 0 1 1.1-.2h.3c.1 0 .1.1.1.2a.9.9 0 0 1 0 .7c-.1.4-.4.8-.8.8a1.3 1.3 0 0 1 -1.1-.5z" stroke="#fff" stroke-miterlimit="10" stroke-width=".48"/><path d="m23.5 41.6h-.9l.4-.2h.5c.1 0 .1.2 0 .2z" stroke="#fff" stroke-miterlimit="10" stroke-width=".48"/><path d="m20.7 34.8a5 5 0 0 1 2.6-1.6c-.2-.2-.2-.4-.3-.7a1.2 1.2 0 0 1 .2-.8l.3-.2.4-.2a.9.9 0 0 1 .7 0s.1.1 0 .1a1.2 1.2 0 0 1 .7 1.1.6.6 0 0 1 -.1.4 5.7 5.7 0 0 1 1.3 0 .1.1 0 0 1 .1.1 1.8 1.8 0 0 1 -.8.7c-.8.3-1.7 0-2.5.2l-1.1.5-1.2.4h-.1c0 .1-.1.1-.1.2s-.2-.2-.1-.2z" stroke="#fff" stroke-miterlimit="10" stroke-width=".48"/><path d="m20.4 36.8c-.2-.3-.3-.9.1-1.1a.7.7 0 0 1 .9-.1 1 1 0 0 1 .7.9c-.1.4-.4.8-.8.8a.7.7 0 0 1 -.9-.5z" stroke="#fff" stroke-miterlimit="10" stroke-width=".48"/><path d="m17.8 43.1h1.5a8.8 8.8 0 0 0 2.6-1h.2l.5-.3h1l-1.5.7a9 9 0 0 1 -2.7 1.1h-.6c.1 0 0-.1 0-.1z" stroke="#fff" stroke-miterlimit="10" stroke-width=".48"/><path d="m10.4 33.7-.2.3v-.3c0-.1 0-.1.1-.2h.1z" stroke="#fff" stroke-miterlimit="10" stroke-width=".48"/><path d="m20.2 28.3a.9.9 0 0 0 .3 1l.5.3.5-.2a1.3 1.3 0 0 0 .2-1.2c-.1-.1-.2-.3-.4-.4h-.1a.7.7 0 0 0 -1 .5z" stroke="#fff" stroke-miterlimit="10" stroke-width=".48"/><path d="m9.8 34.9c-.1 0-.1-.1-.1-.2.1.1.1.1.1.2z" stroke="#fff" stroke-miterlimit="10" stroke-width=".48"/><path d="m9.3 36.9c-.1 0-.1-.2 0-.1l.9.5a3.7 3.7 0 0 1 1.1 3.3c-.1.1-.2.1-.2 0l-1.3-1.8a3.5 3.5 0 0 1 -.5-1.8z" stroke="#fff" stroke-miterlimit="10" stroke-width=".48"/><path d="m8.8 34.7v.4a.4.4 0 0 0 -.1-.3h.1z" stroke="#fff" stroke-miterlimit="10" stroke-width=".48"/><path d="m9 39.3a11.4 11.4 0 0 1 -.5-4.5h.2a.4.4 0 0 1 .1.3 14 14 0 0 0 .6 4.1 3.6 3.6 0 0 0 1.5 2.2 4.6 4.6 0 0 0 2.4 1l3 .6h.9l1.6.2a6.9 6.9 0 0 1 -2.5-.1l-3.1-.5a8.2 8.2 0 0 1 -2.6-1 4.7 4.7 0 0 1 -1.6-2.3z" stroke="#fff" stroke-miterlimit="10" stroke-width=".48"/><path d="m33.2 38.6a2.7 2.7 0 0 0 1.2-.3 12 12 0 0 0 2.1-1.3 9.1 9.1 0 0 1 2.2-1.1 10.1 10.1 0 0 1 3-.2h1.6a3.3 3.3 0 0 0 1.3-.4 5 5 0 0 1 1.7-.2h1.4c1.8.2 3.7.3 5.2-.9a6 6 0 0 0 2-4.2c0-.7.1-1.4.1-2.1l-.2-.3a9.9 9.9 0 0 0 -1.1-1.7l-.6-.6a4 4 0 0 0 -1.2-1.1 12.6 12.6 0 0 0 -5.7-1.7c-2.2-.3-4.4-.1-6.7-.2a19.5 19.5 0 0 1 -3.4-.3l-1.6-.2a2.2 2.2 0 0 0 -1.4.3 4.2 4.2 0 0 1 -1.4.6 4.3 4.3 0 0 1 -1.6 0 4.2 4.2 0 0 1 -1.4-.6l-1.1-.2a5.7 5.7 0 0 0 -1.6 1.1l-.9.6a2.3 2.3 0 0 1 -1.4-.4c-.7-.4-1.6-.8-2.2 0l-.3.6-.7.4-1.6.3-3.4.7a8.4 8.4 0 0 0 -2.8.9 12.4 12.4 0 0 0 -1.9 2.1 4.8 4.8 0 0 1 -1.1.9c-.3.3-.7.5-.9.9a6.1 6.1 0 0 0 -.3 1.3c0 .6-.1 1.1-.1 1.7s-.1 2.2-.1 3.3a11.3 11.3 0 0 0 .6 3.1 4.9 4.9 0 0 0 1.4 2.3 5.8 5.8 0 0 0 2.5 1.2l3.1.6a15.1 15.1 0 0 0 3 .1 7.1 7.1 0 0 0 2.8-.9c.9-.4 1.7-.9 2.6-1.2a2.6 2.6 0 0 1 1.5.1 3.4 3.4 0 0 0 1.4.2 5.9 5.9 0 0 0 1.4-.6l1.2-.9 1.1-1a1 1 0 0 1 .4-.5 1 1 0 0 1 .9-.2h.8" stroke="#fff" stroke-miterlimit="10" stroke-width=".48"/></g><path d="m13.6 53.1a6.9 6.9 0 0 1 3.9 1.3 3.6 3.6 0 0 1 1.2 2.8 4.4 4.4 0 0 1 -.8 2.5 3.8 3.8 0 0 1 -2.2 1.3 11.9 11.9 0 0 1 -3.6.4h-6.1v-.6h.6a2.6 2.6 0 0 0 1.4-.2 1.1 1.1 0 0 0 .5-.8c0-.3.1-1.1.1-2.4v-7.5c0-1.2-.1-2-.1-2.4a1.1 1.1 0 0 0 -.5-.8 4 4 0 0 0 -1.5-.2h-.3v-.5h5.4q6.3 0 6.3 3.6a3 3 0 0 1 -1.1 2.4 6.3 6.3 0 0 1 -3.2 1.1zm-2.8-.2h.5a5.3 5.3 0 0 0 3.3-.8 3 3 0 0 0 .9-2.5 4.2 4.2 0 0 0 -.3-1.8 2.1 2.1 0 0 0 -1.1-1 4.9 4.9 0 0 0 -2.4-.4h-.9zm0 .5v3.5a16.4 16.4 0 0 0 .1 2.7 1.3 1.3 0 0 0 .4.9 2.2 2.2 0 0 0 1.4.3 3.7 3.7 0 0 0 2.7-.9 3.8 3.8 0 0 0 .9-2.8 4 4 0 0 0 -1-2.8 5.6 5.6 0 0 0 -3.6-.9z" fill="#fff"/><path d="m31 61.4h-2.8a15.7 15.7 0 0 1 -2.2-2.7 14.7 14.7 0 0 0 -1-1.3l-.7-.8-.6-.2h-.4v3.9l.3.5c.2.2.5.2 1 .2h.4v.4h-4.9v-.4h1.3a.7.7 0 0 0 .3-.6 5.4 5.4 0 0 0 .1-1.6v-5a5.8 5.8 0 0 0 -.1-1.6.5.5 0 0 0 -.3-.5h-1.2v-.4h3.8a7.8 7.8 0 0 1 2.4.3 2.4 2.4 0 0 1 1.5.9 1.9 1.9 0 0 1 .5 1.4 2.1 2.1 0 0 1 -.7 1.7 3.4 3.4 0 0 1 -2.2.9c.5.2 1.1 1 2.1 2.3a13.5 13.5 0 0 0 1.8 2 3 3 0 0 0 1.6.2zm-7.7-5.3h2.2l.7-.4a1.6 1.6 0 0 0 .4-.7 3 3 0 0 0 .2-1 2.6 2.6 0 0 0 -.6-1.8c-.3-.4-1.1-.6-2.3-.6h-.6z" fill="#fff"/><path d="m31.4 51.5v-.4h4.7v.4h-1.2a.5.5 0 0 0 -.3.5 5.4 5.4 0 0 0 -.1 1.6v5a6.2 6.2 0 0 0 .1 1.6.5.5 0 0 0 .3.5c.1.2.4.2.9.2h.3v.4h-4.7v-.3h1.2a1.3 1.3 0 0 0 .4-.6v-8.3l-.3-.5h-1.3z" fill="#fff"/><path d="m46 61.6-7.2-9.6v7.1a3.5 3.5 0 0 0 .1 1.2c0 .2.2.3.5.5a2.9 2.9 0 0 0 1.2.2v.4h-3.8v-.4l1.1-.2c.2-.2.4-.3.4-.5a3.5 3.5 0 0 0 .1-1.2v-5.4a6.2 6.2 0 0 0 -.1-1.6.7.7 0 0 0 -.4-.5h-1v-.4h3l6.1 8v-6.2a2 2 0 0 0 -.2-.9 1.2 1.2 0 0 0 -.5-.5h-1.1v-.4h3.7v.4l-1 .2c-.2.2-.4.3-.5.5s-.1.5-.1.9v8.5z" fill="#fff"/><path d="m56.9 58.2h.4l-.2 3.2h-8.5v-.4h.2c.5 0 .8 0 1-.2l.3-.5v-8.2l-.3-.5h-1v-.4h7.3l.2 2.6h-.3a5.7 5.7 0 0 0 -.6-1.5 1.6 1.6 0 0 0 -.8-.6h-3v4.3h1.1l1-.2c.2 0 .3-.2.4-.3a3.1 3.1 0 0 0 .1-1.1h.4v3.5h-.4a3.1 3.1 0 0 0 -.1-1.1 1 1 0 0 0 -.5-.4h-2v2.5a6.7 6.7 0 0 0 .2 2.1 1.9 1.9 0 0 0 1.3.3h.7a3 3 0 0 0 1.4-.2 2.4 2.4 0 0 0 1-.8 7.5 7.5 0 0 0 .7-2.1z" fill="#fff"/><path d="m7 18.6h16.2" fill="#fff" stroke="#fff" stroke-miterlimit="10" stroke-width=".48"/><path d="m31.9 18.6h23.8" fill="#fff" stroke="#fff" stroke-miterlimit="10" stroke-width=".48"/><path d="m5.5 44.9h52.3" fill="#fff" stroke="#fff" stroke-miterlimit="10" stroke-width=".48"/></svg>