<svg xmlns="http://www.w3.org/2000/svg" width="32" height="32" viewBox="0 0 32 32"><circle cx="16" cy="16" r="15.6" fill="#2ba9e0"/><path fill="#353d16" d="M29.4 14.3a4.9 4.9 0 0 1-.1 1.2 3 3 0 0 1-1.1 2.4 3.9 3.9 0 0 1-3 .5h-.8l-1 .2-.7.2h-.9a5.5 5.5 0 0 0-1.8.1 6.7 6.7 0 0 0-1.2.6 3.7 3.7 0 0 1-1.2.7l-.7.2h.1l.6-.2c.7-.3 1.3-.9 2.1-1.2h.2c1.1-.4 2.3.2 3.4-.2s.5-.2.7-.3h2.5A2.8 2.8 0 0 0 28 18a3.1 3.1 0 0 0 .9-1.1 6.6 6.6 0 0 0 .4-2.8.3.3 0 0 1 .1.2zm-.1-.2a13.7 13.7 0 0 0-1-1.4c.1.1.2.3.4.4z"/><path fill="#353d16" d="M29.3 14.1a6.6 6.6 0 0 1-.4 2.8A3.1 3.1 0 0 1 28 18a2.8 2.8 0 0 1-1.5.4H24c-.2.1-.5.1-.7.3s-2.3-.2-3.4.2h-.3l.4-.2h1.6a3 3 0 0 0 1.6-.2l.8-.5h2.5l1.4-.4a2.7 2.7 0 0 0 .8-1 7.5 7.5 0 0 0 .4-2.6 5.7 5.7 0 0 0-1-1.3c-1.4-1.4-3.6-1.6-5.7-1.6h-4.8l-.7.2a2.5 2.5 0 0 1-1.7.3l-.8-.2h-.1a.4.4 0 0 0-.5-.1c-.2 0-.4.2-.6.4l-.3.2a1.1 1.1 0 0 1-1.2.2h-.4c-.3-.2-.4-.3-.6-.3l-.2.2-.6.6h-.8l-2 .4h-.3l-1.3.4a2 2 0 0 0-.9.9c-.1 0-.1.1-.2.2l-.6.5h-.1a.8.8 0 0 0-.4.4 1 1 0 0 0-.2.7c0 .3-.1.6-.1.9s-.1.7-.1 1.1h-.2a4.1 4.1 0 0 1 .1-1.1 2.8 2.8 0 0 1 .1-.9 1.5 1.5 0 0 1 .2-.9l.6-.5.6-.5a2.9 2.9 0 0 1 1.1-1.1 8.4 8.4 0 0 1 1.7-.5l1.9-.4h.8l.5-.5c.3-.6 1-.1 1.4.1a1.1 1.1 0 0 0 1.1-.2c.3-.2.6-.6 1-.7a.9.9 0 0 1 .7.3l.8.2a2.1 2.1 0 0 0 1.5-.3l.8-.2h1a23.6 23.6 0 0 0 3.8.2c2 0 4.3.2 5.9 1.6a13.7 13.7 0 0 1 1 1.4z"/><path fill="#676b2c" d="M29.1 14.2a7.5 7.5 0 0 1-.4 2.6 2.7 2.7 0 0 1-.8 1l-1.4.4H24l-.8.2a3 3 0 0 1-1.6.2h-.9a4.9 4.9 0 0 1 1.7-.1 3.5 3.5 0 0 0 1.4-.6l-2.8.2-1.3.4-1.1.5a6.7 6.7 0 0 1-1.2.6c-.1 0-.1 0-.1.1a12.9 12.9 0 0 1-2.1.5l-1 .3a.8.8 0 0 0-.4.4l-.4.3c-.3.2-.7.3-.9.6v.2h-.6l-.9.2-1.9.3a8.1 8.1 0 0 1-2.2 0l-1.1-.4 1.5-.3.7-.3a5.3 5.3 0 0 1-2.5 0l-.5-.6c-.2-.1-.3-.2-.3-.4s.1-.3.3-.4l.5-.3a3.4 3.4 0 0 1 1.2-.6c.1 0 .1-.1 0-.1H4.9a1.4 1.4 0 0 1-.9 0 1 1 0 0 1-.4-.5 1.7 1.7 0 0 1-.1-.7 1.4 1.4 0 0 0 .2-.6l.2.3a.8.8 0 0 0 .9-.1l.6-.9A2.4 2.4 0 0 1 6 16l.3-.2h.2a2.1 2.1 0 0 0-.6.8H6a13.4 13.4 0 0 1 2.7-1.3l.8-.3.3.2h.4a.4.4 0 0 0 .2-.5h.1l.7-.2h.7l.4-.2h2.4a.7.7 0 0 0-.5.4.6.6 0 0 0 .8.8c.3-.2.4-.4.3-.7l2.2-.4v.2a.7.7 0 0 0 .5.4c.2 0 .3-.3.4-.4s0-.3-.1-.4h.1a20.1 20.1 0 0 1 4.2-.5 19.7 19.7 0 0 1 4.2.2l1.2.2a3.8 3.8 0 0 1 1 .3c0 .1.1 0 0 0zm-6.9 2.6a.8.8 0 0 0-.2-.5c-.1 0-.1 0-.1-.1h-.6c-.1 0-.2.2-.2.3v.6h.7a.7.7 0 0 0 .4-.3zm-1.4.2a8.9 8.9 0 0 0-3.6.4l-.9.3h-.4c-.2 0-.3.1-.4.3s-.1.1-.1.2l-.6.3-.6.5h-.1c0 .1.1.2.1.1h.1l1.2-.4h.1a.6.6 0 0 0 .7.1.5.5 0 0 0 .3-.5h.1l1.5-.5s.1 0 0-.1h.1a.2.2 0 0 0 0 .3.3.3 0 0 0 .3.3c.2 0 .3-.2.4-.3s-.1-.3-.2-.3h.7zm-.1-2.1c.1-.3-.1-.4-.3-.5H20c-.1 0-.1.1-.2.2v.3a.2.2 0 0 0 .2.2h.6c.1 0 .1-.1.1-.2zm-2.9 1h-1.7a.7.7 0 0 0-.6.1l-.5.3-.5.4a10.9 10.9 0 0 0 2.6-.5zm-4.7 1.2h-.8c0-.1.1-.2.1-.3a.7.7 0 0 0-.4-.6.4.4 0 0 0-.5 0h-.2c0 .1-.1.1-.2.2a.3.3 0 0 0 0 .4c0 .2 0 .3.1.4a2.9 2.9 0 0 0-1.5.9h.2l.7-.2.6-.3c.5-.1 1 .1 1.4-.1a1 1 0 0 0 .5-.4zm-.4 2.8v-.4h-.3a.7.7 0 0 0-.6.2.4.4 0 0 0-.2.5.9.9 0 0 0 .6.4c.2-.2.4-.5.5-.7zm-2.2-.8a.7.7 0 0 0-.4-.5.5.5 0 0 0-.5 0 .6.6 0 0 0-.1.7.7.7 0 0 0 .6.3.7.7 0 0 0 .4-.5z"/><path fill="#a6ab65" d="M29.1 14.2H29l-.8-.4h-1.1l-2.1-.4a31.2 31.2 0 0 0-4.3.1l-2.3.4h-.8c-.1 0-.1.1-.1.2l-2.2.4-.5-.5H12l-.4.2h-.4l-.8.2a.4.4 0 0 0-.4-.4h.3a4.7 4.7 0 0 1 1.6-.4c.1-.1.1-.1 0-.1H9a3 3 0 0 0-1.3.2l-.6.2-.6.4-1.4.7-.3.2a3.1 3.1 0 0 0-1 1.6 1.3 1.3 0 0 0-.1.6l-.3.6a.8.8 0 0 1-.2.6c-.1-.2-.1-.4-.3-.6 0-.4.1-.7.1-1.1s.1-.6.1-.9a1 1 0 0 1 .2-.7.8.8 0 0 1 .4-.4h.1l.6-.5c.1-.1.1-.2.2-.2a2 2 0 0 1 .9-.9l1.3-.4h.3l2-.4h.8l.6-.6.2-.2c.2 0 .3.1.6.3h.4a1.1 1.1 0 0 0 1.2-.2l.3-.2c.2-.2.4-.4.6-.4a.4.4 0 0 1 .5.1h.1l.8.2a2.5 2.5 0 0 0 1.7-.3l.7-.2h4.8c2.1 0 4.3.2 5.7 1.6a5.7 5.7 0 0 1 1 1.6zm-9.2-1.3c.1-.1.1-.1 0-.1h-1.8l-.6-.2-1.1-.2-.5.2-.4.3h-1.3a3.1 3.1 0 0 0 1.9 0l.2.2a.4.4 0 0 0 .5 0 .5.5 0 0 0 .2-.4c0-.1-.1-.1-.1-.2h.1l1.1.5h1.2z"/><path fill="#231f20" d="M29 14.2c.1 0 0 .1 0 0a3.8 3.8 0 0 0-1-.3l-1.2-.2a19.7 19.7 0 0 0-4.2-.2 20.1 20.1 0 0 0-4.2.5l2.3-.4a31.2 31.2 0 0 1 4.3-.1l2.1.3h1.1l.8.4z"/><path fill="#353d16" d="M27.6 12.1c.3.1.5.4.7.6-1.6-1.4-3.9-1.6-5.9-1.6a23.6 23.6 0 0 1-3.8-.2h-1l-.8.2a2.1 2.1 0 0 1-1.5.3l-.8-.2a.9.9 0 0 0-.7-.3c-.4.1-.7.5-1 .7a1.1 1.1 0 0 1-1.1.2c-.4-.2-1.1-.7-1.4-.1l-.5.5H9l-1.9.4a8.4 8.4 0 0 0-1.7.5 2.9 2.9 0 0 0-1.1 1.1l-.6.5-.6.5a1.5 1.5 0 0 0-.2.9 2.8 2.8 0 0 0-.1.9 4.1 4.1 0 0 0-.1 1.1 10.9 10.9 0 0 0 .3 2.6 4.2 4.2 0 0 0 .9 1.4 4.7 4.7 0 0 0 1.5.6l1.8.3h1.7a4.4 4.4 0 0 0 1.6-.6l.9-.4h1.3l.5.2h.4a11.9 11.9 0 0 0 1.5-.9l.5-.6h.1l.5-.2c.2 0 .4.1.6 0h-1l-.3.3-.6.6-.7.5-.7.3a1.4 1.4 0 0 1-.9-.1 1.1 1.1 0 0 0-.8 0 5.1 5.1 0 0 0-1.5.7l-1.6.5H6.9l-1.7-.4a3.5 3.5 0 0 1-1.4-.6 4.2 4.2 0 0 1-.9-1.4q-.1-.7-.3-1.8a12.8 12.8 0 0 1 .1-2.1 2.8 2.8 0 0 1 .1-.9 2.2 2.2 0 0 1 .1-.8l.5-.5a1.8 1.8 0 0 0 .7-.5 5.8 5.8 0 0 1 1-1.2 4.9 4.9 0 0 1 1.6-.5l2-.4.9-.2.4-.2.2-.3c.3-.5.9-.2 1.2 0l.9.2.5-.3c.3-.2.6-.6.9-.6a.9.9 0 0 1 .7.1l.7.3a1.4 1.4 0 0 0 .9 0l.9-.3a1.1 1.1 0 0 1 .8-.2h.9l2 .2h3.8a7.1 7.1 0 0 1 3.2 1.2z"/><path fill="#231f20" d="M23.8 17.5a3.5 3.5 0 0 1-1.4.6 4.9 4.9 0 0 0-1.7.1h-.6l.7-.3a9.7 9.7 0 0 1 1.7 0 3.1 3.1 0 0 0 1.2-.5h-1.5l-1.4.2a3.1 3.1 0 0 0-1.3.3l-1.1.6h-.1l-.9.4-1.2.4h-.3a4.1 4.1 0 0 0-1.8.5l-.4.3-.3.4-.8.4h.6c.1 0 .3.1.4 0h.1a.1.1 0 0 1 .1-.1h.2l.4-.2 1-.5h-.1l-.4.2-.6.3-.3.2-.3.2c0 .1-.1.1-.2.1h-1c.2-.3.6-.4.9-.6l.4-.3a.8.8 0 0 1 .4-.4l1-.3a12.9 12.9 0 0 0 2.1-.5c0-.1 0-.1.1-.1a6.7 6.7 0 0 0 1.2-.6l1.1-.5 1.3-.4z"/><path fill="#a6ab65" d="M23.7 17.6a3.1 3.1 0 0 1-1.2.5 9.7 9.7 0 0 0-1.7 0l-.7.3h-.7l-.8.3h-.2l1.1-.6a3.1 3.1 0 0 1 1.3-.3l1.4-.2z"/><path fill="#231f20" d="M22 16.3a.8.8 0 0 1 .2.5.7.7 0 0 1-.4.5h-.7v-.6c0-.1.1-.3.2-.3h.6c0 .1 0 .1.1.1zm-.2.9a.5.5 0 0 0 .3-.5.5.5 0 0 0-.3-.4c-.1 0-.3-.1-.5 0s-.1.2-.1.4v.3h.6z"/><path fill="#a6ab65" d="M22.1 16.7a.5.5 0 0 1-.3.5h-.6v-.3c0-.2 0-.3.1-.4s.4 0 .5 0a.5.5 0 0 1 .3.2zm-1.3.3l-1.3.4h-.7c.1 0 .2.1.2.3s-.2.3-.4.3a.3.3 0 0 1-.3-.3.2.2 0 0 1 0-.3h-.1c.1.1 0 .1 0 .1l-1.5.5h-.1a.5.5 0 0 1-.3.5.6.6 0 0 1-.7-.1h-.1l-1.2.4h-.1c0 .1-.1 0-.1-.1h.1l.6-.5.6-.3c0-.1 0-.2.1-.2s.2-.3.4-.3h.4l.9-.3a8.9 8.9 0 0 1 3.6-.1zm-.2 0h-.8a9.9 9.9 0 0 0-3.4.8l.2.2 1.6-.5h.3a.1.1 0 0 1 .1-.1h.8zm-1.9 1.1l.2-.3c0-.1-.1-.1-.1-.2h-.2a.1.1 0 0 0-.1.1h-.1c-.1.1-.1.2 0 .4s.1 0 .3 0zm-2.4.5c.2-.2.3-.4.1-.6s0-.1-.1-.2h-.1a.1.1 0 0 0-.1-.1.6.6 0 0 0-.6.4.5.5 0 0 0 .3.5zm-.8-.1c0-.1 0-.1-.1-.2l-.9.5z"/><path fill="#231f20" d="M20.4 14.4c.2.1.4.2.3.5s0 .2-.1.2H20a.2.2 0 0 1-.2-.2v-.3c.1-.1.1-.2.2-.2h.4zm.2.6v-.2c0-.1 0-.2-.1-.2h-.1c-.1-.1-.3-.3-.4-.1s-.1.1-.1.2v.3h.7z"/><path fill="#a6ab65" d="M20.6 14.8v.2h-.7v-.3c0-.1 0-.2.1-.2s.3 0 .4.1h.1c.1 0 .1.1.1.2zm-.8 2.2h.8l-1.2.3h-.8a.1.1 0 0 0-.1.1h-.3l-1.6.5-.2-.2a9.9 9.9 0 0 1 3.4-.7z"/><path fill="#231f20" d="M20.4 18.4H20l-.4.2h-.4l.5-.3h.7z"/><path fill="#fdff99" d="M19.9 12.8c.1 0 .1 0 0 .1l-.6.2h-1.2l-1.1-.5h-.1c0 .1.1.1.1.2a.5.5 0 0 1-.2.4.4.4 0 0 1-.5 0l-.2-.2a3.1 3.1 0 0 1-1.9 0h1.3l.4-.3.5-.2 1.1.2.6.2h1.8zm-.3.1h-1l-1.2-.4H17l.6.3 1.1.2zm-2.9.2c.2-.1.2-.2.2-.3l-.2-.3h-.5c0 .2 0 .4.2.5zm-.2-.7h-.2l-.5.3-.4.2h-1a3.2 3.2 0 0 0 1.7-.1v-.2c0-.1 0-.2.1-.2h.3z"/><path fill="#353d16" d="M19.6 18.7h.1c-.8.3-1.4.9-2.1 1.2l-.6.2.3-.3h.2l1-.6.7-.4h.4z"/><path fill="#8b8c46" d="M19.4 18.6h.3l-.5.3-.7.2-.6.4-.6.5h-.2l.9-.8.3-.2h.3z"/><path fill="#676b2c" d="M18.6 12.9h1l-.9.2-1.1-.2-.6-.3h.4z"/><path fill="#a6ab65" d="M18.9 17.8l-.2.3c-.2 0-.3 0-.3-.1s-.1-.3 0-.4h.1a.1.1 0 0 1 .1-.1h.2c0 .2.1.2.1.3z"/><path fill="#8b8c46" d="M18.5 19l.7-.2-.7.4-1 .6h-.2l.6-.5z"/><path fill="#fff" d="M18.3 13.9c.1.1.1.2.1.4s-.2.4-.4.4a.7.7 0 0 1-.5-.4v-.2l-2.2.4c.1.3 0 .5-.3.7a.6.6 0 0 1-.8-.8.7.7 0 0 1 .5-.4h-2.4l-.4.2h-.7l-.7.2h-.1a.4.4 0 0 1-.2.5h-.4l-.3.1-.8.3A13.4 13.4 0 0 0 6 16.6h-.1a2.1 2.1 0 0 1 .6-.8l.2-.2h.1a10.1 10.1 0 0 1 2.3-1.2 9 9 0 0 1 2.3-.8H8.2l-.7.2-1.2.7-.9.5.9-.3h.2q.3.2.3.3a.7.7 0 0 1-.1.5h-.1l-.3.3-.3.2a2.4 2.4 0 0 0-.6.9l-.6.9a.8.8 0 0 1-.9.1l-.2-.3h.1c0 .1.1.3.2.3a.7.7 0 0 0 .9-.3c.4-.5.6-1.1 1-1.6l.4-.3.3-.3c.1-.1.2-.2.1-.4l-.2-.2h-.2a3 3 0 0 0-1.6.8 3.8 3.8 0 0 0-.9 1.4v.3h-.1a1.3 1.3 0 0 1 .1-.6 3.1 3.1 0 0 1 1-1.6l.3-.2 1.4-.8.6-.4.6-.2a3 3 0 0 1 1.3-.1h2.9c.1 0 .1 0 0 .1a4.7 4.7 0 0 0-1.6.4H10a.4.4 0 0 1 .4.4l.8-.2h.4l.4-.2h2.8l.5.5 2.2-.4c0-.1 0-.2.1-.2h.7zm0 .3c0-.1 0-.2-.1-.2h-.6c-.1.1 0 .3 0 .4s.1.2.2.2h.2a.5.5 0 0 0 .3-.4zm-3.2.8a.6.6 0 0 0 .1-.6l-.3-.3h-.1c-.2 0-.5.2-.5.4a.5.5 0 0 0 .8.5zm-4.9 0a.6.6 0 0 0 .1-.7l-.2-.2H10c-.2-.1-.5.1-.6.3a.9.9 0 0 0 .3.6h.5zm-.8-.7l-.5.3-1.1.4a4.7 4.7 0 0 0-1.7 1.4l.6-.3a13.9 13.9 0 0 1 2.8-1.2l-.2-.3a.4.4 0 0 1 .1-.3z"/><path fill="#a6ab65" d="M18.3 18.9l-.3.2-.9.8H16v-.2h.3l1.2-.4z"/><path fill="#b6b76e" d="M18.2 14c.1 0 .1.1.1.2a.5.5 0 0 1-.3.4h-.2c-.1 0-.1-.1-.2-.2s-.1-.3 0-.4h.6z"/><path fill="#231f20" d="M17.8 15.8l-.7.3a10.9 10.9 0 0 1-2.6.5l.5-.4.5-.3a.7.7 0 0 1 .6-.1zm-.2.1h-1.5l-.7.2a1.8 1.8 0 0 1-.7.5h.5z"/><path fill="#a6ab65" d="M16.9 15.9h.7l-2.4.6h-.5a1.8 1.8 0 0 0 .7-.5l.7-.2z"/><path fill="#231f20" d="M17.1 20h.2l-.3.3h-.2l.3-.2zm-.1.2z"/><path fill="#353d16" d="M17.1 20l-.3.2c-.2.1-.4 0-.6 0l-.5.2s0-.1-.1 0h-.1a.6.6 0 0 1 .5-.4h1.1z"/><path fill="#fdff99" d="M16.9 12.8c0 .1 0 .2-.2.3h-.3c-.2-.1-.2-.3-.2-.5h.5z"/><path fill="#676b2c" d="M16.5 12.4h-.3c-.1 0-.1.1-.1.2v.2a3.2 3.2 0 0 1-1.7.1h1l.4-.2.5-.3z"/><path fill="#a6ab65" d="M16.4 18c.2.2.1.4-.1.6h-.5a.5.5 0 0 1-.3-.5.6.6 0 0 1 .6-.4.1.1 0 0 1 .1.1h.1c.1.1.1.1.1.2zm-.5 1.8v.2a.6.6 0 0 0-.5.3h-.1l-1 .5-.4.2h-.2a.1.1 0 0 0-.1.1h-.1c-.1.1-.3 0-.4 0h-.6l.8-.4.3-.4.4-.3a4.1 4.1 0 0 1 1.9-.2z"/><path fill="#353d16" d="M15.7 20.3h-.1l-.5.6a11.9 11.9 0 0 1-1.5.9h-.4l-.5-.2h-1.4c.1 0 .1-.1 0-.1H11l.9-.2h1.6a5.5 5.5 0 0 0 1.4-.9l.4-.4z"/><path fill="#231f20" d="M15.6 20.3c.1-.1.1 0 .1 0l-.4.2h.3z"/><path fill="#a6ab65" d="M15.4 18.3c.1.1.1.1.1.2l-1 .3z"/><path fill="#676b2c" d="M14.9 20.7l.4-.2-.4.4a5.5 5.5 0 0 1-1.4.9h-1v-.2h1c.1 0 .2 0 .2-.1l.3-.2.3-.2z"/><path fill="#b6b76e" d="M15.2 14.4a.6.6 0 0 1-.1.6.5.5 0 0 1-.8-.5c0-.2.3-.4.5-.4h.1z"/><path fill="#231f20" d="M13.1 17a1 1 0 0 1-.5.4c-.4.2-.9 0-1.4.1l-.6.3-.7.2h-.2a2.9 2.9 0 0 1 1.5-.9c-.1-.1-.1-.2-.1-.4a.3.3 0 0 1 0-.4c.1-.1.2-.1.2-.2h.2a.4.4 0 0 1 .5 0 .7.7 0 0 1 .4.6c0 .1-.1.2-.1.3zm-.1.1h-.7l-.2.3a1.4 1.4 0 0 0 .2-.6c-.1-.3-.3-.5-.5-.5h-.5c-.1.1-.1.1-.1.2v.2c.1.2.1.5.3.6s.6.3.7.2a1.1 1.1 0 0 0 .8-.4zm-1.3.4a.5.5 0 0 1-.4-.2 3.3 3.3 0 0 0-1.3.7l.6-.2.6-.3z"/><path fill="#a6ab65" d="M12.3 17.2h.7a1.1 1.1 0 0 1-.9.4l.2-.3z"/><path fill="#231f20" d="M12.7 19.5v.4c-.1.2-.3.5-.5.5a.9.9 0 0 1-.6-.4.4.4 0 0 1 .2-.5.7.7 0 0 1 .6-.2h.3zm-.1.4v-.3c0-.1 0-.1-.1-.2h-.7a.4.4 0 0 0-.1.5c.1.2.3.2.4.3s.4-.1.5-.3z"/><path fill="#a6ab65" d="M12.6 19.6v.3c-.1.2-.2.4-.5.4s-.3-.1-.4-.3a.4.4 0 0 1 .1-.5h.7c.1 0 .1 0 .1.1zm-.3-2.9a1.4 1.4 0 0 1-.2.6c-.1-.2.2-.4.2-.6z"/><path fill="#a6ab65" d="M12.3 16.7c0 .2-.3.4-.2.6H12c0 .1-.1.1-.2.1h.3c-.1.1-.3.1-.7-.2s-.2-.4-.3-.6v-.2c0-.1 0-.1.1-.2h.5c.2 0 .4.2.5.5z"/><path fill="#a6ab65" d="M12 17.4h-.2c.1.1.2.1.2 0z"/><path fill="#676b2c" d="M10.3 13.5h1.1a9 9 0 0 0-2.3.8 10.1 10.1 0 0 0-2.3 1.2h-.1l-.2.2h-.2l.3-.3h.1a.7.7 0 0 0 .1-.5q0-.2-.3-.3h-.2l-.9.3.9-.5 1.2-.7.7-.2h2.1z"/><path fill="#231f20" d="M11.3 21.9c.1 0 .1.1 0 .1h-.5c.1 0 .2 0 .2-.1z"/><path fill="#353d16" d="M11.3 22h.1l-.9.4a4.4 4.4 0 0 1-1.6.6h-.3c.1 0 .1-.1 0-.1h.3a3.4 3.4 0 0 0 1.5-.6h.1l.3-.2z"/><path fill="#a6ab65" d="M11.3 17.3a.5.5 0 0 0 .4.2h-.5l-.6.3-.6.2a3.3 3.3 0 0 1 1.3-.7z"/><path fill="#231f20" d="M11.1 16.7c.1.2.1.5.3.6s-.2-.4-.3-.6z"/><path fill="#a6ab65" d="M11 21.9c0 .1-.1.1-.2.1h-.7l-1.1.3H7.9a7.9 7.9 0 0 1-2.2-.5h.1l1.1.4a8.1 8.1 0 0 0 2.2 0z"/><path fill="#a6ab65" d="M10.8 22l-.3.2h-.1a3.4 3.4 0 0 1-1.5.6h-.8l-2.4-.7-.7-.2h.7a7.9 7.9 0 0 0 2.2.5H9l1.1-.2z"/><path fill="#231f20" d="M10.1 18.6a.7.7 0 0 1 .4.5.7.7 0 0 1-.4.5.7.7 0 0 1-.6-.3.6.6 0 0 1 .1-.7.5.5 0 0 1 .5 0zm0 .9a.5.5 0 0 0 .3-.4c0-.2-.1-.4-.3-.4h-.5c-.1.2-.1.5.1.6a.4.4 0 0 0 .4.2z"/><path fill="#a6ab65" d="M10.4 19.1a.5.5 0 0 1-.3.4.4.4 0 0 1-.4-.2c-.2-.1-.2-.4-.1-.6h.5c.2 0 .3.2.3.4z"/><path fill="#b6b76e" d="M10.3 14.3a.6.6 0 0 1-.1.7h-.5a.9.9 0 0 1-.3-.6c.1-.2.4-.4.6-.3h.1z"/><path fill="#a6ab65" d="M9.4 14.2a.4.4 0 0 0-.1.3l.2.3A13.9 13.9 0 0 0 6.7 16l-.6.3A4.7 4.7 0 0 1 7.8 15l1.1-.5z"/><path fill="#231f20" d="M8.6 22.9c.1 0 .1.1 0 .1z"/><path fill="#353d16" d="M8.6 23H7.2l-1.8-.3a4.7 4.7 0 0 1-1.5-.6 4.2 4.2 0 0 1-.9-1.4 10.9 10.9 0 0 1-.3-2.6h.2v.2a8.5 8.5 0 0 0 .3 2.3 2.5 2.5 0 0 0 .9 1.3 3.5 3.5 0 0 0 1.4.6l1.7.3h1.4z"/><path fill="#231f20" d="M8 21.1l-.7.3-1.5.3H5l.7.3 2.4.7h-.9a11.7 11.7 0 0 1-2.4-.9h.8l1.9-.5h-1l-1.3-.2c-.2-.1-.7-.3-.6-.7L5 20l.5-.4.9-.4h-.8l-1 .2a.8.8 0 0 1-.8-.1 1 1 0 0 1-.4-.9.8.8 0 0 1-.2.4h-.1a.8.8 0 0 0-.2-.6V18c.2.2.2.4.3.6a.8.8 0 0 0 .2-.6h.1a1.7 1.7 0 0 0 .1.7 1 1 0 0 0 .4.5 1.4 1.4 0 0 0 .9 0h1.8c.1 0 .1.1 0 .1a3.4 3.4 0 0 0-1.2.6l-.5.3c-.2.1-.3.2-.3.4s.1.3.3.4l.5.2a5.3 5.3 0 0 0 2.5-.1z"/><path fill="#353d16" d="M7.2 22.8l-1.7-.3a3.5 3.5 0 0 1-1.4-.6 2.5 2.5 0 0 1-.9-1.3 8.5 8.5 0 0 1-.3-2.3.8.8 0 0 1 .2.6h.1a.8.8 0 0 0 .2-.4 1 1 0 0 0 .4.9.8.8 0 0 0 .8.1l1-.2h.8l-.9.4-.5.3-.4.4c-.1.4.4.6.6.7l1.3.2h1l-1.9.5h-.8a11.7 11.7 0 0 0 2.4 1zm-2.9-1.4a2 2 0 0 0-.6-1.9l-.5-.3s-.1.1 0 .1a2 2 0 0 0 .3 1.1 8.6 8.6 0 0 0 .7 1c0 .1.1.1.1 0z"/><path fill="#fdff99" d="M6.7 14.9c.1.2 0 .3-.1.4l-.3.3-.4.3c-.4.5-.6 1.1-1 1.6a.7.7 0 0 1-.9.3c-.1 0-.2-.2-.2-.3V17a3.8 3.8 0 0 1 .9-1.5 3 3 0 0 1 1.6-.8h.2z"/><path fill="#231f20" d="M3.7 19.5a2 2 0 0 1 .6 1.9c0 .1-.1.1-.1 0a8.6 8.6 0 0 1-.7-1 2 2 0 0 1-.3-1.1c-.1 0 0-.1 0-.1zm.5 1.8a.5.5 0 0 0 0-.5 1.7 1.7 0 0 0-.9-1.4v.5l.3.5z"/><path fill="#676b2c" d="M4.2 20.8a.5.5 0 0 1 0 .5l-.6-.9-.3-.5v-.5a1.7 1.7 0 0 1 .9 1.4z"/><path fill="#231f20" d="M3.8 17.3zm0 .2z"/><path fill="#676b2c" d="M3.7 17.6a1.4 1.4 0 0 1-.2.6h-.1l.3-.6z"/><path fill="#231f20" d="M3.5 18.1zm-.6 0z"/><path fill="none" stroke="#a6ab65" stroke-miterlimit="10" stroke-width=".09" d="M12.3 16.7a1.4 1.4 0 0 1-.2.6m-.7 0c-.2-.1-.2-.4-.3-.6m10 .3v-.4c0-.1.1-.3.2-.3h.6c0 .1 0 .1.1.1a.8.8 0 0 1 .2.5.7.7 0 0 1-.4.5h-.7z"/><path fill="none" stroke="#a6ab65" stroke-miterlimit="10" stroke-width=".09" d="M21.3 17.2h.5a.5.5 0 0 0 .3-.5.5.5 0 0 0-.3-.4c-.1 0-.3-.1-.5 0s-.1.2-.1.4v.3h.1zm-.6-2.3c0 .1 0 .2-.1.2H20a.2.2 0 0 1-.2-.2v-.3c.1-.1.1-.2.2-.2h.4c.2.1.4.2.3.5z"/><path fill="none" stroke="#a6ab65" stroke-miterlimit="10" stroke-width=".09" d="M20.5 14.6h-.1c-.1-.1-.3-.3-.4-.1s-.1.1-.1.2v.3h.7v-.2c0-.1 0-.2-.1-.2z"/><path fill="none" stroke="#676b2c" stroke-miterlimit="10" stroke-width=".09" d="M29 14.2c.1 0 0 .1 0 0a3.8 3.8 0 0 0-1-.3l-1.2-.2a19.7 19.7 0 0 0-4.2-.2 20.1 20.1 0 0 0-4.2.5l2.3-.4a31.2 31.2 0 0 1 4.3-.1l2.1.3h1.1l.8.4z"/><path fill="none" stroke="#a6ab65" stroke-miterlimit="10" stroke-width=".09" d="M17.6 15.9h-1.5l-.7.2a1.8 1.8 0 0 1-.7.5h.5z"/><path fill="none" stroke="#a6ab65" stroke-miterlimit="10" stroke-width=".09" d="M17.8 15.9l-.7.3a10.9 10.9 0 0 1-2.6.5l.5-.4.5-.3a.7.7 0 0 1 .6-.1h1.7z"/><path fill="none" stroke="#676b2c" stroke-miterlimit="10" stroke-width=".09" d="M16.6 12.4h.4l.6.3 1.1.2.9-.2h-1l-1.2-.4zm.3.4l-.2-.3h-.5c0 .2 0 .4.2.5h.3c.2 0 .2-.1.2-.2z"/><path fill="none" stroke="#676b2c" stroke-miterlimit="10" stroke-width=".09" d="M15.4 12.9h-1a3.2 3.2 0 0 0 1.7-.1v-.2c0-.1 0-.2.1-.2h.1l-.5.3z"/><path fill="none" stroke="#676b2c" stroke-miterlimit="10" stroke-width=".09" d="M17 12.8a.5.5 0 0 1-.2.4.4.4 0 0 1-.5 0l-.2-.2a3.1 3.1 0 0 1-1.9 0h1.3l.4-.3.5-.2 1.1.2.6.2h1.8c.1 0 .1 0 0 .1l-.6.2h-1.2l-1.1-.6h-.1c0 .1.1.1.1.2zm1.4 4.8c-.1.1-.1.2 0 .4s.1.1.3.1l.2-.3c0-.1-.1-.1-.1-.2h-.2a.1.1 0 0 0-.1.1z"/><path fill="none" stroke="#676b2c" stroke-miterlimit="10" stroke-width=".09" d="M16.6 18.1l1.6-.5h.3a.1.1 0 0 1 .1-.1h.8l1.2-.3h-.8a9.9 9.9 0 0 0-3.4.8l.2.2z"/><path fill="none" stroke="#676b2c" stroke-miterlimit="10" stroke-width=".09" d="M15.5 18.1a.5.5 0 0 0 .3.5h.5c.2-.2.3-.4.1-.6s0-.1-.1-.2h-.1a.1.1 0 0 0-.1-.1.6.6 0 0 0-.6.4zm-.1.2l-.9.5 1-.3c0-.1 0-.1-.1-.2z"/><path fill="none" stroke="#676b2c" stroke-miterlimit="10" stroke-width=".09" d="M15.5 18.6l-1.2.4h-.1c0 .1-.1 0-.1-.1h.1l.6-.5.6-.3c0-.1 0-.2.1-.2s.2-.3.4-.3h.4l.9-.3a8.9 8.9 0 0 1 3.6-.4l-1.3.4h-.7c.1 0 .2.1.2.3s-.2.3-.4.3a.3.3 0 0 1-.3-.3.2.2 0 0 1 0-.3h-.1c.1.1 0 .1 0 .1l-1.5.5h-.1a.5.5 0 0 1-.3.5.6.6 0 0 1-.7-.1h-.1z"/><path fill="none" stroke="#a6ab65" stroke-miterlimit="10" stroke-width=".09" d="M12.5 21.5c.2-.3.6-.4.9-.6l.4-.3a.8.8 0 0 1 .4-.4l1-.3a12.9 12.9 0 0 0 2.1-.5c0-.1 0-.1.1-.1a6.7 6.7 0 0 0 1.2-.6l1.1-.5 1.3-.4 2.8-.2a3.5 3.5 0 0 1-1.4.6 4.9 4.9 0 0 0-1.7.1h-.6l.7-.3a9.7 9.7 0 0 1 1.7 0 3.1 3.1 0 0 0 1.2-.5h-1.5l-1.4.2a3.1 3.1 0 0 0-1.3.3l-1.1.6h-.1l-.9.4-1.2.4h-.3a4.1 4.1 0 0 0-1.8.5l-.4.3-.3.4-.8.4h.6c.1 0 .3.1.4 0h.1a.1.1 0 0 1 .1-.1h.2l.4-.2 1-.5h-.1l-.4.2-.6.3-.3.2-.3.2c0 .1-.1.1-.2.1h-1zm-.7-2a.4.4 0 0 0-.1.5c.1.2.3.2.4.3s.4-.2.5-.4v-.3c0-.1 0-.1-.1-.2z"/><path fill="none" stroke="#a6ab65" stroke-miterlimit="10" stroke-width=".09" d="M12.4 19.3h.3v.4c-.1.2-.3.5-.5.5a.9.9 0 0 1-.6-.4.4.4 0 0 1 .2-.5.7.7 0 0 1 .6 0zm-.3-1.9H12c0 .1-.1.1-.2.1h.3a1.1 1.1 0 0 0 .9-.4h-.7z"/><path fill="none" stroke="#a6ab65" stroke-miterlimit="10" stroke-width=".09" d="M12.3 16.7c-.1-.3-.3-.5-.5-.5h-.5c-.1.1-.1.1-.1.2v.2c.1.2.1.5.3.6s.6.3.7.2c-.2-.3.1-.5.1-.7zm-.6.8a.5.5 0 0 1-.4-.2 3.3 3.3 0 0 0-1.3.7l.6-.2.6-.3z"/><path fill="none" stroke="#a6ab65" stroke-miterlimit="10" stroke-width=".09" d="M9.9 18.1h-.2a2.9 2.9 0 0 1 1.5-.9c-.1-.1-.1-.2-.1-.4a.3.3 0 0 1 0-.4c.1-.1.2-.1.2-.2h.2a.4.4 0 0 1 .5 0 .7.7 0 0 1 .4.6c0 .1-.1.2-.1.3h.8a1 1 0 0 1-.5.4c-.4.2-.9 0-1.4.1l-.6.3-.7.2zm-.2 1.2a.4.4 0 0 0 .4.2.5.5 0 0 0 .3-.4c0-.2-.1-.4-.3-.4h-.5c-.1.2-.1.5.1.6z"/><path fill="none" stroke="#a6ab65" stroke-miterlimit="10" stroke-width=".09" d="M10.5 19.1a.7.7 0 0 1-.4.5.7.7 0 0 1-.6-.3.6.6 0 0 1 .1-.7.5.5 0 0 1 .5 0 .7.7 0 0 1 .4.5zm7.7-5.1h-.6c-.1.1 0 .3 0 .4s.1.2.2.2h.2a.5.5 0 0 0 .3-.4c0-.1 0-.2-.1-.2zm-3.9.5a.5.5 0 0 0 .8.5.6.6 0 0 0 .1-.6l-.3-.3h-.1c-.2 0-.5.2-.5.4zm-4.9-.1a.9.9 0 0 0 .3.6h.5a.6.6 0 0 0 .1-.7l-.2-.2H10c-.2-.1-.5.1-.6.3z"/><path fill="none" stroke="#a6ab65" stroke-miterlimit="10" stroke-width=".09" d="M6.1 16.4l.6-.3a13.9 13.9 0 0 1 2.8-1.2l-.2-.3a.4.4 0 0 1 .1-.3l-.5.3-1.1.4a4.7 4.7 0 0 0-1.7 1.4z"/><path fill="none" stroke="#a6ab65" stroke-miterlimit="10" stroke-width=".09" d="M6.3 15.8L6 16a2.4 2.4 0 0 0-.6.9l-.6.9a.8.8 0 0 1-.9.1l-.2-.3h.1c0 .1.1.3.2.3a.7.7 0 0 0 .9-.3c.4-.5.6-1.1 1-1.6l.4-.3.3-.3c.1-.1.2-.2.1-.4l-.2-.2h-.2a3 3 0 0 0-1.6.8 3.8 3.8 0 0 0-.9 1.4v.3h-.1a1.3 1.3 0 0 1 .1-.6 3.1 3.1 0 0 1 1-1.6l.3-.2 1.4-.8.6-.4.6-.2a3 3 0 0 1 1.3-.1h2.9c.1 0 .1 0 0 .1a4.7 4.7 0 0 0-1.6.4H10a.4.4 0 0 1 .4.4l.8-.2h.4l.4-.2h2.8l.5.5 2.2-.4c0-.1 0-.2.1-.2h.7c.1.1.1.2.1.4s-.2.4-.4.4a.7.7 0 0 1-.5-.4V14l-2.2.4c.1.3 0 .5-.3.7a.6.6 0 0 1-.8-.8.7.7 0 0 1 .5-.4h-2.4l-.4.2h-.7l-.7.2h-.1a.4.4 0 0 1-.2.5h-.4l-.3.2-.8.3A13.4 13.4 0 0 0 6 16.6h-.1a2.1 2.1 0 0 1 .6-.8l.2-.2h.1a10.1 10.1 0 0 1 2.3-1.2 9 9 0 0 1 2.3-.8H8.2l-.7.2-1.2.7-.9.5.9-.3h.2q.3.2.3.3a.7.7 0 0 1-.1.5h-.1z"/><path fill="none" stroke="#676b2c" stroke-miterlimit="10" stroke-width=".09" d="M4.2 20.8a1.7 1.7 0 0 0-.9-1.4v.5l.3.5.6.9a.5.5 0 0 0 0-.5z"/><path fill="none" stroke="#676b2c" stroke-miterlimit="10" stroke-width=".09" d="M3.2 19.2l.5.3a2 2 0 0 1 .6 1.9c0 .1-.1.1-.1 0a8.6 8.6 0 0 1-.7-1 2 2 0 0 1-.3-1.1c-.1 0 0-.1 0-.1z"/><path fill="none" stroke="#353d16" stroke-miterlimit="10" stroke-width=".09" d="M2.9 18.1c.2.2.2.4.3.6a.8.8 0 0 0 .2-.6h.1a1.7 1.7 0 0 0 .1.7 1 1 0 0 0 .4.5 1.4 1.4 0 0 0 .9 0h1.8c.1 0 .1.1 0 .1a3.4 3.4 0 0 0-1.2.6l-.5.3c-.2.1-.3.2-.3.4s.1.3.3.4l.5.2a5.3 5.3 0 0 0 2.5 0l-.7.3-1.5.3H5l.7.3 2.4.7h-.9a11.7 11.7 0 0 1-2.4-.9h.8l1.9-.5h-1l-1.3-.2c-.2-.1-.7-.3-.6-.7L5 20l.5-.4.9-.4h-.8l-1 .2a.8.8 0 0 1-.8-.1 1 1 0 0 1-.4-.9.8.8 0 0 1-.2.4h-.1a.8.8 0 0 0-.2-.6"/><path fill="#353d16" d="M16.1 21.6q0-.2.3-2.4a55 55 0 0 0 .8-8.6 4.2 4.2 0 0 0-.3-1.8 3.1 3.1 0 0 1 2.2 1.4 5.8 5.8 0 0 1 2.6-.6 3.5 3.5 0 0 1 2.3.7 2.6 2.6 0 0 1 .9 1.9 3.2 3.2 0 0 1-.8 2.1 4.5 4.5 0 0 1-2.3 1.4 5.3 5.3 0 0 1 2.1 1.1 3 3 0 0 1 1 2.1 3.3 3.3 0 0 1-1.4 2.9 6.1 6.1 0 0 1-3.6 1.1 5.8 5.8 0 0 1-3.8-1.3zm6-10.2a1.7 1.7 0 0 0-1.2-.5 4.1 4.1 0 0 0-1.6.3c0 .7-.2 2.3-.4 5s-.5 4.3-.5 5.1l1.4.3a2.6 2.6 0 0 0 1.9-.8 2.5 2.5 0 0 0 .7-1.9 2.5 2.5 0 0 0-.7-1.9 3.3 3.3 0 0 0-2.2-.8v-.6a4.5 4.5 0 0 0 2.4-1.1 2.9 2.9 0 0 0 .8-1.9 1.7 1.7 0 0 0-.6-1.2zM6.7 21.6q0-.2.3-2.4a54.2 54.2 0 0 0 .7-8.6 4.4 4.4 0 0 0-.2-1.8 3.1 3.1 0 0 1 2.2 1.4 5.8 5.8 0 0 1 2.6-.6 3.5 3.5 0 0 1 2.3.7 2.6 2.6 0 0 1 .9 1.9 2.9 2.9 0 0 1-.9 2.1 3.8 3.8 0 0 1-2.2 1.4 5.3 5.3 0 0 1 2.1 1.1 3 3 0 0 1 1 2.1 3.2 3.2 0 0 1-1.5 2.9 5.6 5.6 0 0 1-3.5 1.1 5.7 5.7 0 0 1-3.8-1.3zm6-10.2a1.7 1.7 0 0 0-1.2-.5 4.1 4.1 0 0 0-1.6.3c0 .7-.2 2.3-.4 5S9 20.5 9 21.3l1.4.3a2.6 2.6 0 0 0 1.9-.8 2.5 2.5 0 0 0 .7-1.9 2.2 2.2 0 0 0-.8-1.9 2.9 2.9 0 0 0-2.1-.8v-.6a4.5 4.5 0 0 0 2.4-1.1 2.9 2.9 0 0 0 .8-1.9 1.7 1.7 0 0 0-.6-1.2z"/></svg>