<svg height="256" viewBox="0 0 256 256" width="256" xmlns="http://www.w3.org/2000/svg"><path d="m62.7 38.4q10.2.8 15.3 5.1a14.1 14.1 0 0 1 5 11 14.8 14.8 0 0 1 -3.4 9.8 15.4 15.4 0 0 1 -8.7 5.4 60.1 60.1 0 0 1 -14.2 1.3h-23.7v-2.1h2.3c2.6 0 4.4-.3 5.4-1a4.3 4.3 0 0 0 1.9-3 82 82 0 0 0 .4-9.7v-29.5a58.7 58.7 0 0 0 -.5-9.5 3.7 3.7 0 0 0 -1.7-2.9c-.9-.6-2.9-.8-6-.8h-1.2v-2.1l10-.2 11.3-.4c16.6 0 24.9 4.8 24.9 14.3a12 12 0 0 1 -4.3 9.5c-2.8 2.3-7.1 3.9-12.8 4.8zm-11-.9h1.9c6.4 0 10.8-1 13.2-3.1s3.5-5.3 3.5-9.8a16 16 0 0 0 -1.4-7.3 9.3 9.3 0 0 0 -4.1-4c-1.9-.9-5-1.4-9.5-1.4h-3.6zm0 2.2v13.5c0 5.7.1 9.4.3 10.9a5.6 5.6 0 0 0 1.7 3.6q1.3 1.2 5.4 1.2c4.8 0 8.3-1.2 10.7-3.7s3.6-6.1 3.6-11-1.4-8.7-4.1-11-7.4-3.6-14.2-3.6z" fill="#fff"/><path d="m88.6 32v-1.4h18.5v1.4h-.9c-2 0-3.3.1-3.9.5a2.4 2.4 0 0 0 -1.2 1.8 39.6 39.6 0 0 0 -.3 6.4v19.8a44.9 44.9 0 0 0 .2 6.2 2.9 2.9 0 0 0 1.2 2.2c.6.5 1.9.7 3.7.7h1.2v1.4h-18.5v-1.4h1.2a7.8 7.8 0 0 0 3.6-.6 3.3 3.3 0 0 0 1.3-2.1c.1-.9.2-3.1.2-6.4v-19.8c0-3.2-.1-5.3-.2-6.3a2.9 2.9 0 0 0 -1.2-1.9 10.9 10.9 0 0 0 -4-.5z" fill="#fff"/><path d="m114.5 30.6h18.7v1.4h-1c-2 0-3.3.1-3.9.5a2.4 2.4 0 0 0 -1.2 1.8 39.6 39.6 0 0 0 -.3 6.4v26.3a50.5 50.5 0 0 1 -.4 7.8 11.8 11.8 0 0 1 -2.3 5.3 11.2 11.2 0 0 1 -4.9 3.9 17.4 17.4 0 0 1 -7.2 1.4 12.5 12.5 0 0 1 -7-1.7 4.8 4.8 0 0 1 -2.5-4 3.4 3.4 0 0 1 .9-2.4 2.9 2.9 0 0 1 2.2-.9 3 3 0 0 1 2.1.8 2.9 2.9 0 0 1 .9 2.1 4.5 4.5 0 0 1 -.3 1.6 3.7 3.7 0 0 0 -.4 1.1c0 .6.4 1.1 1.2 1.4a5.8 5.8 0 0 0 2.8.6 8 8 0 0 0 5.7-2.2 8.7 8.7 0 0 0 2.8-5.1 68.7 68.7 0 0 0 .5-9.7v-26.3a40.7 40.7 0 0 0 -.3-6.3 2.9 2.9 0 0 0 -1.2-1.9 10.5 10.5 0 0 0 -4-.5h-.9z" fill="#fff"/><path d="m133.6 50.5q0-9.3 6.3-15c4.2-3.8 9.4-5.6 15.6-5.6s11.5 1.8 15.8 5.6 6.3 8.8 6.3 15.2-2 11.3-6.1 15.2-9.3 5.8-15.9 5.8-11.7-1.9-15.8-5.8-6.2-9-6.2-15.4zm6.9.2c0 6.5 1.3 11.4 3.8 14.6s6.5 4.9 11.7 4.9a13.2 13.2 0 0 0 10.8-4.9c2.6-3.2 3.9-8.1 3.9-14.5s-1.3-11.1-3.9-14.4-6.3-5-11.3-5-8.6 1.6-11.2 4.8-3.8 8.1-3.8 14.5z" fill="#fff"/><path d="m210.8 30.6h13.4v1.4a7.3 7.3 0 0 0 -4 1.2 4.4 4.4 0 0 0 -1.6 2.3 26 26 0 0 0 -.3 5v13.4a47.5 47.5 0 0 1 -.4 7.6 9.6 9.6 0 0 1 -2.3 4.9 13 13 0 0 1 -5.4 3.9 22 22 0 0 1 -8 1.4 21.3 21.3 0 0 1 -9.2-1.8 11.7 11.7 0 0 1 -5.3-4.7 16.1 16.1 0 0 1 -1.6-7.8v-16.7c0-3.2-.1-5.3-.2-6.3a2.9 2.9 0 0 0 -1.2-1.9 10.9 10.9 0 0 0 -4-.5h-.9v-1.4h18.4v1.4h-.8c-2 0-3.3.1-3.9.5a2.4 2.4 0 0 0 -1.2 1.8 27.7 27.7 0 0 0 -.4 6.4v12.7a41.8 41.8 0 0 0 .7 9.4 8.2 8.2 0 0 0 3.4 4.8 12.3 12.3 0 0 0 7.5 2.1 16 16 0 0 0 6.7-1.4 9.7 9.7 0 0 0 4.5-3.5 9.6 9.6 0 0 0 1.8-4.2 39.5 39.5 0 0 0 .4-6.9v-13.8a23.4 23.4 0 0 0 -.4-4.8 3.5 3.5 0 0 0 -1.7-2.1 7.7 7.7 0 0 0 -4-1z" fill="#fff"/><g fill="none"><path d="m55.3 119.6 6.8-4.1c2.7-1.6 5.4-3.1 8.2-4.5a21.5 21.5 0 0 1 4.5-1.4 38.5 38.5 0 0 1 4.8-.2h17.3c-5.6 1.2-10.9 3.6-16.2 5.9s-10.7 4.8-15.3 8.4l-1 .8-1.5 1.4-1.3-.6a15.7 15.7 0 0 0 2.1-1.7 2.4 2.4 0 0 0 .8-.9 3.6 3.6 0 0 0 .8-3 2.8 2.8 0 0 0 -1.9-2.3h-.5l-1 .2a22.5 22.5 0 0 0 -6.6 2z" stroke="#fff" stroke-miterlimit="10" stroke-width="1.91"/><path d="m40.7 149.1c-.4-.2-.7.4-.3.5l.3.2a10.6 10.6 0 0 0 2 7.3c1.6 2.4 3.3 4.8 5 7.1.1.3.5.3.5 0a13.5 13.5 0 0 0 -4.3-13.1 11.1 11.1 0 0 0 -3.2-2z" stroke="#fff" stroke-miterlimit="10" stroke-width="1.91"/><path d="m134.5 104.3a2.2 2.2 0 0 1 -.8 2.5 2.5 2.5 0 0 1 -2.6.2 3.3 3.3 0 0 1 -1.1-2.8v-1l.2-.4h3.1a3 3 0 0 1 1.2 1.5z" stroke="#fff" stroke-miterlimit="10" stroke-width="1.91"/><path d="m87.9 113.8a4 4 0 0 1 1.4 1.5 4.3 4.3 0 0 1 -.4 4.6 3.2 3.2 0 0 1 -2 .8 3.8 3.8 0 0 1 -2-1c-1.1-1.1-2-2.5-1.4-4.1a2.9 2.9 0 0 1 4-1.7c.2.1.3 0 .4-.1z" stroke="#fff" stroke-miterlimit="10" stroke-width="1.91"/><path d="m163.5 133.5c.1.4.1.8.5 1.1a2.2 2.2 0 0 0 1.4.6 5.7 5.7 0 0 0 2.9.2 4.1 4.1 0 0 0 2.9-3.3 3.9 3.9 0 0 0 -1.4-3.5l-.2-.3-.7-.2-.5-.2c-.1-.1-.1-.1-.2 0a3.9 3.9 0 0 0 -3.2.2 3.6 3.6 0 0 0 -1.3 2.3 10.8 10.8 0 0 0 -.2 3.1z" stroke="#fff" stroke-miterlimit="10" stroke-width="1.91"/><path d="m125.5 144.2h.1l.5.5a3.9 3.9 0 0 0 4.9.3 4.3 4.3 0 0 0 1.8-3.7.3.3 0 0 0 .3.3c3.6-1.3 7.2-2.4 10.8-3.4.2 0 .2-.2.2-.4h.2a2.6 2.6 0 0 0 2.5 3.8 2.7 2.7 0 0 0 2.2-2.3 2.6 2.6 0 0 0 -.8-2.1l-.2-.2h.3a32.1 32.1 0 0 0 4.3-.7l9.3-2.6a.3.3 0 0 0 -.1-.6 61.9 61.9 0 0 0 -24.9 3.1 60.7 60.7 0 0 0 -5.9 2.4 4.8 4.8 0 0 0 -3.1-.8l-.2.3a3.9 3.9 0 0 0 -2.5 2 4.1 4.1 0 0 0 -.5 1.9 35.5 35.5 0 0 0 -4.4 2.1 19.9 19.9 0 0 0 -4 3h-.1a.2.2 0 0 0 -.2.2l-.2.3c-.3.3.2.7.4.4l.5-.5a46.7 46.7 0 0 1 8.8-3.3z" stroke="#fff" stroke-miterlimit="10" stroke-width="1.91"/><path d="m104.2 149.6a6.9 6.9 0 0 0 -4.6.9 3.3 3.3 0 0 0 -1.3 3.9 4.8 4.8 0 0 0 4 2.2c1.8.1 3-1.4 3.4-3a7.1 7.1 0 0 0 .1-2.9 2.2 2.2 0 0 0 -.5-.8.2.2 0 0 0 -.2-.2 1.1 1.1 0 0 0 -.8-.1z" stroke="#fff" stroke-miterlimit="10" stroke-width="1.91"/><path d="m86.4 141.1h.3a37.5 37.5 0 0 0 4.7-1.7 40.7 40.7 0 0 1 4.4-1.8c3.2-.8 6.6.4 9.7-.8a5.9 5.9 0 0 0 3.3-2.7c.1-.2-.1-.4-.3-.4a18.2 18.2 0 0 0 -5.2.2 6.3 6.3 0 0 0 .3-1.9 5.5 5.5 0 0 0 -2.5-4.2.4.4 0 0 0 -.1-.3 3.2 3.2 0 0 0 -3-.3l-1.5.8-1.3 1.1a3.7 3.7 0 0 0 -.5 3.1 5.2 5.2 0 0 0 1 2.6c-4.1.8-7.3 3.6-10.3 6.3-.3.2.1.7.4.4z" stroke="#fff" stroke-miterlimit="10" stroke-width="1.91"/><path d="m105.7 113.3a54.2 54.2 0 0 1 5.7-.1h6.6c.3 0 .4-.2.3-.4a.6.6 0 0 1 .6 0h.8a4.7 4.7 0 0 0 -3.5 2.6 4.3 4.3 0 0 0 .9 4.9 3.8 3.8 0 0 0 4.8.5 4.6 4.6 0 0 0 2-4.7.4.4 0 0 1 -.1-.3c4.9-.7 9.9-1.7 14.8-2.8a3.3 3.3 0 0 0 .4 1.9 3.8 3.8 0 0 0 3.2 2.4c1.4 0 2.5-1.7 2.7-2.9a3.6 3.6 0 0 0 -.4-2.1h.1a.4.4 0 0 0 .4.4 166.5 166.5 0 0 1 58-2.1l8 1.3c2.4.5 4.9.9 6.9 2.4.3.2.6-.3.4-.5.1.1.1.2.2.2 0 6.4-.2 12.6-2.6 18a15.5 15.5 0 0 1 -5.6 6.7 18.1 18.1 0 0 1 -9.5 2.6 63.9 63.9 0 0 1 -10.7-.5h-1.2a26.3 26.3 0 0 0 -4.9-.3 16.5 16.5 0 0 0 -5.7 1.5h-.2c-3.5 1.4-7.2 1.2-11.2 1a36.6 36.6 0 0 0 -8.1 0l2.5-.9c3.6-1 7.4-.2 11.2-.5a16.5 16.5 0 0 0 9.9-4.3.4.4 0 0 0 -.2-.6c-6.5.3-12.9 1-19.3 1.9a47.3 47.3 0 0 0 -9 2.2 65.1 65.1 0 0 0 -7.4 3.9 39.2 39.2 0 0 1 -8.5 4.1c-.2 0-.2.2-.2.3-4.5 2.5-9.9 2.7-14.9 3.8a24 24 0 0 0 -6.8 2.4 14.2 14.2 0 0 0 -2.8 2.2 17.2 17.2 0 0 1 -2.7 2.7c-2 1.3-4.6 1.6-6.1 3.6h-.3a.3.3 0 0 0 0 .6l5 .3h2.3a2.1 2.1 0 0 0 1.5-.9 4.6 4.6 0 0 1 1.8-1.3l2.1-1.2 4.5-2.2a15.1 15.1 0 0 1 2.2-1.1l-2.3 2.3a28.2 28.2 0 0 1 -9.6 6.2 5.3 5.3 0 0 1 -2.3.4l-2.2-.5-1-.3-2.2-.5a12.9 12.9 0 0 0 -3.4.1 20 20 0 0 0 -6 1.9c-4.5.2-8.8 1.2-13.2 1.9a43.4 43.4 0 0 1 -23-2.4h-.1v-.2a57 57 0 0 0 10.7-2.5l4.5-1.7c.4-.2.3-.7-.1-.6a33.7 33.7 0 0 1 -16.7-.3 24.6 24.6 0 0 1 -3.8-1.4c-1-.4-2.1-1.2-2-2.4a4.1 4.1 0 0 1 1.9-3c1.1-.8 2.3-1.5 3.5-2.2a52.2 52.2 0 0 1 8.6-4.1.3.3 0 0 0 -.1-.6 49.1 49.1 0 0 0 -6.6.6l-3.3.6-2.9.9c-1.9.6-4 1.1-5.9.2a5.5 5.5 0 0 1 -2.9-3.4 16.8 16.8 0 0 1 -.7-5l.2-.2c.5-1.3 1.1-2.6 1.6-3.8a3.4 3.4 0 0 0 1 1.6c1.9 1.6 4.5.8 6.1-.6s2.9-4 4.1-6.1a26.7 26.7 0 0 1 4-6.1 19.3 19.3 0 0 1 2.1-1.7l1.3.6a22.2 22.2 0 0 0 -3.8 4.9c-.2.3.2.6.4.5a115.2 115.2 0 0 1 19-9.3l5.6-2a4.9 4.9 0 0 0 2.1 1.4 3.1 3.1 0 0 0 2.5-.4 4.2 4.2 0 0 0 1.7-3.9 14.1 14.1 0 0 1 5-1.2 16.4 16.4 0 0 0 4.9-1" stroke="#fff" stroke-miterlimit="10" stroke-width="1.91"/><path d="m161.1 118.8c.2-1.7-1.1-2.9-2.5-3.7s-.3 0-.4.1a2.2 2.2 0 0 0 -2.2-.1 2.3 2.3 0 0 0 -1 1.7 5.5 5.5 0 0 0 -.1 2.2 2.1 2.1 0 0 0 1.1 1.6 4.1 4.1 0 0 0 1.9.2 4.9 4.9 0 0 0 2.1-.4 2.1 2.1 0 0 0 1.1-1.6z" stroke="#fff" stroke-miterlimit="10" stroke-width="1.91"/><path d="m141 125.8c.3-.2.2-.6-.1-.6l-11.4-.3a7.3 7.3 0 0 0 -4.4.9 20.3 20.3 0 0 0 -3.4 2.3 15.5 15.5 0 0 1 -3.3 2.4h-.6c-.2.1-.3.4-.2.5a.4.4 0 0 0 .4.4l.5-.3c6-.6 12-1.3 17.7-3.3a25.5 25.5 0 0 0 4.8-2z" stroke="#fff" stroke-miterlimit="10" stroke-width="1.91"/><path d="m90.9 148.2a3.6 3.6 0 0 0 -2.7-3.6 3 3 0 0 0 -3.6.1c-1.3 1.1-1.2 3.1-.4 4.5a3.6 3.6 0 0 0 3.9 2.1 3.5 3.5 0 0 0 2.8-3.1z" stroke="#fff" stroke-miterlimit="10" stroke-width="1.91"/><path d="m135.2 104.5a3.1 3.1 0 0 0 -.6-1.3h.5v.2a38.5 38.5 0 0 0 7.5 3.2 16.3 16.3 0 0 0 8.2-.2c1.6-.4 3.2-1 4.7-1.5s.3-.7-.1-.7a48.2 48.2 0 0 1 -8.5.1 20.5 20.5 0 0 1 -4.2-.7l-4-1.3c-2.4-.7-4.9-1.4-7.5-1a7.5 7.5 0 0 0 -3.2 1c-1.1.7-1.9 1.7-3.2 2.1s-5.3.2-7.9.9c-.2 0-.2.1-.2.2h-.4c-.4-.2-.6.4-.2.6a17.5 17.5 0 0 0 13.3-.4 4.2 4.2 0 0 0 1 1.7 2.7 2.7 0 0 0 3.2.2 2.8 2.8 0 0 0 1.6-3.1z" stroke="#fff" stroke-miterlimit="10" stroke-width="1.91"/><path d="m42.2 141.3a.5.5 0 0 0 -.4.3 7.4 7.4 0 0 1 -1.3 4.1 17.4 17.4 0 0 0 -1.7-4.5c0-2.4.2-4.9.4-7.2s.4-4.2.6-6.2.3-3.8 1.4-5.2a21.5 21.5 0 0 1 2.7-2.3l1-.7a21.6 21.6 0 0 0 4-4l1-1.2c1.9-2.4 3.7-4.7 6.3-6s6.1-2 9.2-2.7l2.1-.4 13.2-2.7 1.3-.3a23 23 0 0 0 4.5-1.2 7.4 7.4 0 0 0 3.8-3.8h.1a2 2 0 0 1 1.7-1.3c1 0 2.3.6 4.2 1.6a14.6 14.6 0 0 0 2.3 1c2.9 1.2 5.8.6 8.8-1.8l1.6-1.3c1.5-1.3 2.9-2.6 4.4-2.8s2.4.4 3.7 1.1l.5.3a19 19 0 0 0 5.7 1.8 17.9 17.9 0 0 0 11.1-2.1c1.9-1.1 3.3-1.8 5.1-1.7a22.2 22.2 0 0 1 4.3.6l2.2.5c7.6 1.2 15.2 1.1 22.7 1.1h3.6c14.7 0 29.7 1.3 39.8 10.5a73.7 73.7 0 0 1 6.2 8.8h-.1a14.5 14.5 0 0 0 -6-2.2l-7.3-1.3c-4.8-.7-9.6-1.2-14.5-1.5a167.6 167.6 0 0 0 -29.2.7 151.5 151.5 0 0 0 -16.4 2.7.2.2 0 0 0 -.2.2h-.1l-.2-.3h-.2a1.8 1.8 0 0 0 -1.5-.8c-.2 0-.3.1-.3.2h-.4a5.5 5.5 0 0 0 -2.2.1 1.9 1.9 0 0 0 -1 1h-.1c-5 1.1-10 2.1-15 2.8a5.7 5.7 0 0 0 -3.6-3h-.1a3.4 3.4 0 0 0 -2-.2c-.1 0-.2.2-.2.4h-11.5l-2.8.4-2.6.8a13.4 13.4 0 0 1 -2.6.9l-2.6.4a13.7 13.7 0 0 0 -5.3 1.2c-.1-.2-.1-.4-.2-.6a4.2 4.2 0 0 0 -2.7-2.8l1.9-.7a54.8 54.8 0 0 1 11.2-3.1.3.3 0 0 0 0-.6l-20 .3c-3.1 0-6.3 0-9.3 1.2a21.4 21.4 0 0 0 -4 2c-1.5.7-2.9 1.5-4.3 2.3l-9.3 5.6a.3.3 0 0 0 .2.6l-2.5 1.9a20.8 20.8 0 0 0 -6.8 11 9.9 9.9 0 0 0 -.4 3.5" stroke="#fff" stroke-miterlimit="10" stroke-width="1.91"/><path d="m215.6 106.1a29.3 29.3 0 0 1 4.4 6.8v.4a71.8 71.8 0 0 0 -6.8-9.7z" stroke="#fff" stroke-miterlimit="10" stroke-width="1.91"/><path d="m165 128.1a3.9 3.9 0 0 1 3.2-.2c.1-.1.1-.1.2 0l.5.2.7.2.2.3a3.9 3.9 0 0 1 1.4 3.5 4.1 4.1 0 0 1 -2.9 3.3 5.7 5.7 0 0 1 -2.9-.2 2.2 2.2 0 0 1 -1.4-.6c-.4-.3-.4-.7-.5-1.1a10.8 10.8 0 0 1 .2-3.1 3.6 3.6 0 0 1 1.3-2.3z" stroke="#fff" stroke-miterlimit="10" stroke-width="1.91"/><path d="m155 116.8a2.3 2.3 0 0 1 1-1.7 2.2 2.2 0 0 1 2.2.1c.1-.1.3-.2.4-.1s2.7 2 2.5 3.7a2.1 2.1 0 0 1 -1.1 1.6 4.9 4.9 0 0 1 -2.1.4 4.1 4.1 0 0 1 -1.9-.2 2.1 2.1 0 0 1 -1.1-1.6 5.5 5.5 0 0 1 .1-2.2z" stroke="#fff" stroke-miterlimit="10" stroke-width="1.91"/><path d="m174 109a156.5 156.5 0 0 0 -29 3.6.4.4 0 0 1 -.4-.4.2.2 0 0 1 .2-.2 151.5 151.5 0 0 1 16.4-2.7 167.6 167.6 0 0 1 29.2-.7c4.9.3 9.7.8 14.5 1.5l7.3 1.3a14.5 14.5 0 0 1 6 2.2h.1c.2.2-.1.7-.4.5-2-1.5-4.5-1.9-6.9-2.4l-8-1.3a156.3 156.3 0 0 0 -29-1.4z" stroke="#fff" stroke-miterlimit="10" stroke-width="1.91"/><path d="m151 145.5 3.4-1.6.8-.3a23.3 23.3 0 0 1 3.6-.8l-2.5 1.1-2.5.9z" stroke="#fff" stroke-miterlimit="10" stroke-width="1.91"/><path d="m137.7 153.4-1.3.4a49.7 49.7 0 0 1 6-5.2l2.4-1.4.8-.5 1.1-.5a28.8 28.8 0 0 1 5-1.5l2.7-.8-3.4 1.6a20.3 20.3 0 0 0 -4.9 1.7 22.6 22.6 0 0 0 -4.2 2.6q-2.1 1.7-4.2 3.6z" stroke="#fff" stroke-miterlimit="10" stroke-width="1.91"/><path d="m134.6 156.5a.4.4 0 0 1 -.5-.2h.7z" stroke="#fff" stroke-miterlimit="10" stroke-width="1.91"/><path d="m126.5 156.4-2.9 1.5.6-.7.5-.6 1.4-.7c.4-.2.7.4.4.5z" stroke="#fff" stroke-miterlimit="10" stroke-width="1.91"/><path d="m136.2 127.8c-5.7 2-11.7 2.7-17.7 3.3l-.5.3a.4.4 0 0 1 -.4-.4c-.1-.1 0-.4.2-.5h.6a15.5 15.5 0 0 0 3.3-2.4 20.3 20.3 0 0 1 3.4-2.3 7.3 7.3 0 0 1 4.4-.9l11.4.3c.3 0 .4.4.1.6a25.5 25.5 0 0 1 -4.8 2z" stroke="#fff" stroke-miterlimit="10" stroke-width="1.91"/><path d="m130 104.2a3.3 3.3 0 0 0 1.1 2.8 2.5 2.5 0 0 0 2.6-.2 2.2 2.2 0 0 0 .8-2.5 3 3 0 0 0 -1.2-1.5h-3.1l-.2.4z" stroke="#fff" stroke-miterlimit="10" stroke-width="1.91"/><path d="m116.2 106c-.4-.2-.2-.8.2-.6h.4c0-.1 0-.2.2-.2 2.6-.7 5.4 0 7.9-.9s2.1-1.4 3.2-2.1a7.5 7.5 0 0 1 3.2-1c2.6-.4 5.1.3 7.5 1l4 1.3a20.5 20.5 0 0 0 4.2.7 48.2 48.2 0 0 0 8.5-.1c.4 0 .4.5.1.7s-3.1 1.1-4.7 1.5a16.3 16.3 0 0 1 -8.2.2 38.5 38.5 0 0 1 -7.5-3.2v-.2h-.5a3.1 3.1 0 0 1 .6 1.3 2.8 2.8 0 0 1 -1.5 3 2.7 2.7 0 0 1 -3.2-.2 4.2 4.2 0 0 1 -1-1.7 17.5 17.5 0 0 1 -13.4.5z" stroke="#fff" stroke-miterlimit="10" stroke-width="1.91"/><path d="m125.5 140.8a3.4 3.4 0 0 0 1.5 3.8 3.2 3.2 0 0 0 4-.4 3.4 3.4 0 0 0 .7-4.1l-.8-.9a.1.1 0 0 0 -.1.1c-.3.1-.6-.3-.4-.5l-.9-.4h-.2a3.5 3.5 0 0 0 -3.8 2.4z" stroke="#fff" stroke-miterlimit="10" stroke-width="1.91"/><path d="m115.8 147.6.2-.3a.2.2 0 0 1 .2-.2h.1a19.9 19.9 0 0 1 4-3 35.5 35.5 0 0 1 4.4-2.1 4.1 4.1 0 0 1 .5-1.9 3.9 3.9 0 0 1 2.5-2l.2-.3a4.8 4.8 0 0 1 3.1.8 60.7 60.7 0 0 1 5.9-2.4 61.9 61.9 0 0 1 24.9-3.1.3.3 0 0 1 .1.6l-9.3 2.6a32.1 32.1 0 0 1 -4.3.7h-.3l.2.2a2.6 2.6 0 0 1 .8 2.1 2.7 2.7 0 0 1 -2.2 2.3 2.6 2.6 0 0 1 -2.5-3.8h-.2c0 .2 0 .4-.2.4-3.6 1-7.2 2.1-10.8 3.4a.3.3 0 0 1 -.3-.3 4.3 4.3 0 0 1 -1.8 3.7 3.9 3.9 0 0 1 -4.9-.3l-.5-.5h-.1a46.7 46.7 0 0 0 -8.8 3.3l-.5.5c-.2.3-.7-.1-.4-.4z" stroke="#fff" stroke-miterlimit="10" stroke-width="1.91"/><path d="m98.3 154.4a3.3 3.3 0 0 1 1.3-3.9 6.9 6.9 0 0 1 4.6-.9h.1a1.1 1.1 0 0 1 .8.1.2.2 0 0 1 .2.2 2.2 2.2 0 0 1 .5.8 7.1 7.1 0 0 1 -.1 2.9c-.4 1.6-1.6 3.1-3.4 3a4.8 4.8 0 0 1 -4-2.2z" stroke="#fff" stroke-miterlimit="10" stroke-width="1.91"/><path d="m96.6 168.1h-3.5l1.5-.7h2a.3.3 0 0 1 .1.6z" stroke="#fff" stroke-miterlimit="10" stroke-width="1.91"/><path d="m85.4 141.2c3-2.7 6.2-5.5 10.3-6.3a5.2 5.2 0 0 1 -1-2.6 3.7 3.7 0 0 1 .5-3.1l1.3-1.1 1.5-.8a3.2 3.2 0 0 1 3 .3.4.4 0 0 1 .1.3 5.5 5.5 0 0 1 2.5 4.2 6.3 6.3 0 0 1 -.3 1.9 18.2 18.2 0 0 1 5.2-.2c.2 0 .4.2.3.4a5.9 5.9 0 0 1 -3.3 2.7c-3.1 1.2-6.5 0-9.7.8a40.7 40.7 0 0 0 -4.4 1.8 37.5 37.5 0 0 1 -4.7 1.7h-.3l-.6.5c-.3.2-.7-.3-.4-.5z" stroke="#fff" stroke-miterlimit="10" stroke-width="1.91"/><path d="m84.2 149.2c-.8-1.4-.9-3.4.4-4.5a3 3 0 0 1 3.6-.1 3.6 3.6 0 0 1 2.7 3.6 3.5 3.5 0 0 1 -2.8 3.1 3.6 3.6 0 0 1 -3.9-2.1z" stroke="#fff" stroke-miterlimit="10" stroke-width="1.91"/><path d="m74.1 173.9a37 37 0 0 0 5.9-.3 34.1 34.1 0 0 0 10.4-4l.6-.3 2.1-1.1h3.7a48.7 48.7 0 0 0 -5.6 2.8 33.6 33.6 0 0 1 -10.9 4.1l-2.4.3v-.4c.3 0 .3-.6-.1-.6z" stroke="#fff" stroke-miterlimit="10" stroke-width="1.91"/><path d="m44.7 136a.4.4 0 0 1 .2.5l-.2.4z" stroke="#fff" stroke-miterlimit="10" stroke-width="1.91"/><path d="m44.7 136.9-.4 1.1a4.3 4.3 0 0 1 -.2-1.1l.3-.7c.1-.2.2-.2.3-.2z" stroke="#fff" stroke-miterlimit="10" stroke-width="1.91"/><path d="m83.5 115.6c-.6 1.6.3 3 1.4 4.1a3.8 3.8 0 0 0 2 1 3.2 3.2 0 0 0 2-.8 4.3 4.3 0 0 0 .4-4.6 4 4 0 0 0 -1.4-1.5c-.1.1-.2.2-.4.1a2.9 2.9 0 0 0 -4 1.7z" stroke="#fff" stroke-miterlimit="10" stroke-width="1.91"/><path d="m42.5 141.6v.4c-.2 0-.5-.3-.4-.5v-.2a.3.3 0 0 1 .4.3z" stroke="#fff" stroke-miterlimit="10" stroke-width="1.91"/><path d="m40.4 149.6c-.4-.1-.1-.7.3-.5a11.1 11.1 0 0 1 3.2 2.1 13.5 13.5 0 0 1 4.3 13.1c0 .3-.4.3-.5 0-1.7-2.3-3.4-4.7-5-7.1a10.6 10.6 0 0 1 -2-7.3z" stroke="#fff" stroke-miterlimit="10" stroke-width="1.91"/><path d="m38.8 141.1c0 .4-.1.9-.1 1.3l-.4-.9v-.2a.4.4 0 0 1 .5-.2z" stroke="#fff" stroke-miterlimit="10" stroke-width="1.91"/><path d="m39.5 159.2c-2-5.8-2.4-11.8-2.3-17.9h1v.2l.4.9a53 53 0 0 0 2.2 16.3c1.4 4 3.3 6.9 5.8 8.8s6.5 3.2 9.7 3.9 8.3 1.6 11.8 2.1h.2l3.5.7c2 .4 3.9.6 5.9.8h.1v.4a54.7 54.7 0 0 1 -9.8-.4 118.4 118.4 0 0 1 -11.9-2.1c-3.7-.8-7.4-1.9-10.4-4.1s-5-6-6.2-9.6z" stroke="#fff" stroke-miterlimit="10" stroke-width="1.91"/><path d="m134.8 156.3a15.9 15.9 0 0 0 4.6-1.3 62.4 62.4 0 0 0 8.3-4.9 35.1 35.1 0 0 1 8.8-4.6c3.9-1.2 8-.7 12-.5a31.1 31.1 0 0 0 6.1-.1 16.3 16.3 0 0 0 5.2-1.5 13.5 13.5 0 0 1 6.6-.9l5.6.5c7 .6 14.8 1 20.7-3.5s7-10.5 7.6-16.7a59 59 0 0 0 .3-8.4l-.6-1v-.4a29.3 29.3 0 0 0 -4.4-6.8l-2.4-2.4a23.2 23.2 0 0 0 -4.7-4.3c-6.7-4.1-14.5-6-22.2-6.8s-17.7-.3-26.5-.5a89.4 89.4 0 0 1 -13.7-1.2c-2.1-.3-4.1-.9-6.2-1a10.2 10.2 0 0 0 -5.6 1.4 18.9 18.9 0 0 1 -5.5 2.3 16.2 16.2 0 0 1 -6.2 0 21.8 21.8 0 0 1 -5.5-2.2 6.4 6.4 0 0 0 -4.3-.8c-2.5.5-4.5 2.7-6.4 4.3a10.2 10.2 0 0 1 -3.7 2c-2 .5-3.8-.4-5.5-1.4s-6.3-2.9-8.4 0a18.8 18.8 0 0 1 -1.4 2.4 6.5 6.5 0 0 1 -2.7 1.5c-2 .6-4.2.9-6.2 1.3l-13.6 2.8c-3.8.8-7.8 1.5-11.1 3.7s-5 5.3-7.5 8a24.7 24.7 0 0 1 -4.2 3.7 10.4 10.4 0 0 0 -3.4 3.5 13.1 13.1 0 0 0 -1.1 5.2c-.2 2.1-.5 4.3-.6 6.5a81.6 81.6 0 0 0 -.3 13.1 47.5 47.5 0 0 0 2.2 12.3 22 22 0 0 0 5.7 9.2c2.8 2.4 6.3 3.6 9.8 4.5s8 1.7 12 2.2a49.9 49.9 0 0 0 12.2.5 30 30 0 0 0 10.9-3.3c3.3-1.7 6.6-3.8 10.3-4.7a11.4 11.4 0 0 1 5.8.2c1.9.5 3.6 1.2 5.7.7a18.1 18.1 0 0 0 5.3-2.4 53.3 53.3 0 0 0 4.6-3.2 43.7 43.7 0 0 0 4.4-4.2 15.4 15.4 0 0 1 1.7-1.9 3.8 3.8 0 0 1 3.4-.9 13 13 0 0 0 3.4.1" stroke="#fff" stroke-miterlimit="10" stroke-width="1.91"/></g><path d="m57.3 213.5q10.2.8 15.3 5.1a14.3 14.3 0 0 1 5 11 14.6 14.6 0 0 1 -3.4 9.8 15.4 15.4 0 0 1 -8.7 5.4 59.5 59.5 0 0 1 -14.2 1.3h-23.7v-2h2.3a11.1 11.1 0 0 0 5.4-1 4.7 4.7 0 0 0 1.9-3.1 82 82 0 0 0 .4-9.7v-29.4a80.3 80.3 0 0 0 -.4-9.5 4.1 4.1 0 0 0 -1.8-3c-.9-.5-2.9-.8-6-.8h-1.2v-2l10-.3 11.3-.4c16.6 0 24.9 4.8 24.9 14.3a12 12 0 0 1 -4.3 9.5c-2.8 2.4-7.1 4-12.8 4.8zm-11-.8h1.9q9.6 0 13.2-3c2.3-2.1 3.5-5.3 3.5-9.9a16 16 0 0 0 -1.4-7.3 9.9 9.9 0 0 0 -4.1-4c-1.9-.9-5-1.4-9.5-1.4h-3.6zm0 2.1v13.5c0 5.8.1 9.4.3 11a5.6 5.6 0 0 0 1.7 3.5q1.4 1.2 5.4 1.2c4.8 0 8.3-1.2 10.7-3.7s3.6-6.1 3.6-10.9-1.4-8.7-4.1-11.1-7.4-3.5-14.2-3.5z" fill="#fff"/><path d="m126 246.1h-10.9c-1.9-1.3-4.9-4.9-8.8-10.6-1.3-1.8-2.6-3.6-4-5.2a26.4 26.4 0 0 0 -2.8-3.1 3.8 3.8 0 0 0 -2.4-.6h-1.6v9a43.3 43.3 0 0 0 .2 6.2 2.9 2.9 0 0 0 1.2 2.2c.6.5 1.9.7 3.7.7h1.9v1.4h-19.3v-1.4h1.3a7.8 7.8 0 0 0 3.6-.6 3.1 3.1 0 0 0 1.3-2.1c.1-.9.2-3 .2-6.4v-19.8c0-3.2-.1-5.3-.2-6.2a2.9 2.9 0 0 0 -1.2-2 10.9 10.9 0 0 0 -4-.5h-.7v-1.4l5.8-.3 9.1-.2a34.6 34.6 0 0 1 9.4 1 13.1 13.1 0 0 1 5.9 3.6 8.1 8.1 0 0 1 2.2 5.8 9 9 0 0 1 -2.9 6.7c-1.9 1.9-4.8 3.1-8.6 3.5 1.7.8 4.4 3.8 8.2 8.8s5.4 6.8 7.2 8.1a10 10 0 0 0 6.2 2zm-30.5-20.8 4.6-.2a15.9 15.9 0 0 0 4.1-.7 6.7 6.7 0 0 0 2.9-1.5 7.3 7.3 0 0 0 1.7-2.7 12.2 12.2 0 0 0 .6-4.1 10.7 10.7 0 0 0 -2.1-6.9c-1.5-1.7-4.5-2.5-9.3-2.5h-2.5z" fill="#fff"/><path d="m127.7 207.1v-1.4h18.4v1.4h-.8a10.2 10.2 0 0 0 -3.9.5 2.5 2.5 0 0 0 -1.3 1.8 39.6 39.6 0 0 0 -.3 6.4v19.8c0 3.2.1 5.3.2 6.2a3.6 3.6 0 0 0 1.2 2.2 6.7 6.7 0 0 0 3.7.7h1.2v1.4h-18.4v-1.4h1.2a7.8 7.8 0 0 0 3.6-.6 3.4 3.4 0 0 0 1.2-2.1 39.6 39.6 0 0 0 .3-6.4v-19.8a38.2 38.2 0 0 0 -.3-6.2 2.9 2.9 0 0 0 -1.2-2 10.5 10.5 0 0 0 -4-.5z" fill="#fff"/><path d="m185.2 247-28.5-37.8v28a21.8 21.8 0 0 0 .3 4.6 3.8 3.8 0 0 0 2 2 9.7 9.7 0 0 0 4.8.9v1.4h-15.1v-1.4a11.4 11.4 0 0 0 4.4-1 3.6 3.6 0 0 0 1.8-1.9 20.6 20.6 0 0 0 .3-4.6v-21.4a27.8 27.8 0 0 0 -.4-6.2 2.9 2.9 0 0 0 -1.4-2 11.4 11.4 0 0 0 -4.2-.5v-1.4h11.9l23.9 31.6v-24.1a8.8 8.8 0 0 0 -.5-3.8 3.9 3.9 0 0 0 -2.3-1.7 11.6 11.6 0 0 0 -4-.6v-1.4h14.6v1.4a10.2 10.2 0 0 0 -4 1 3.7 3.7 0 0 0 -1.9 1.8 11.4 11.4 0 0 0 -.4 3.7v33.4z" fill="#fff"/><path d="m228.2 233.5h1.4l-.8 12.6h-33.5v-1.4h.9c2 0 3.3-.2 3.9-.8a3.6 3.6 0 0 0 1.1-2c.1-.8.2-2.9.2-6.3v-19.8c0-3.1-.1-5.1-.2-6.1a3.1 3.1 0 0 0 -1.2-2 7.9 7.9 0 0 0 -3.8-.6v-1.4h28.8l1 10.1h-1.4c-.7-2.8-1.4-4.8-2.4-6a5.7 5.7 0 0 0 -3.2-2.2 29.9 29.9 0 0 0 -6.2-.5h-5.6v16.9h4.3c2 0 3.4-.1 4.1-.5a2.6 2.6 0 0 0 1.6-1.5 15.5 15.5 0 0 0 .4-4h1.4v13.8h-1.4a11.4 11.4 0 0 0 -.6-4.5 2.5 2.5 0 0 0 -1.7-1.5 14.8 14.8 0 0 0 -3.6-.3h-4.5v9.5c0 4.8.3 7.6.9 8.5s2.3 1.2 5 1.2h3a13.8 13.8 0 0 0 5.3-.8 9.6 9.6 0 0 0 3.9-3.3 20.5 20.5 0 0 0 2.9-7.1z" fill="#fff"/><path d="m31.3 77.4 63.9-.1" fill="#fff" stroke="#fff" stroke-miterlimit="10" stroke-width="1.91"/><path d="m129.4 77.4h94" fill="#fff" stroke="#fff" stroke-miterlimit="10" stroke-width="1.91"/><path d="m25.4 181.1h206.4" fill="#fff" stroke="#fff" stroke-miterlimit="10" stroke-width="1.91"/></svg>