<?xml version="1.0" encoding="utf-8"?>
<!-- Generator: Adobe Illustrator 24.1.0, SVG Export Plug-In . SVG Version: 6.00 Build 0)  -->
<svg version="1.1" id="Layer_1" xmlns="http://www.w3.org/2000/svg" xmlns:xlink="http://www.w3.org/1999/xlink" x="0px" y="0px"
	 viewBox="0 0 32 32" style="enable-background:new 0 0 32 32;" xml:space="preserve">
<style type="text/css">
	.st0{fill:none;stroke:#FFFFFF;stroke-width:0.329;stroke-miterlimit:10;}
</style>
<path class="st0" d="M3.4,14.4l1.2-0.7L6,12.9l0.7-0.3h3.8c-1,0.2-1.9,0.5-2.7,1c-1,0.3-1.8,0.8-2.6,1.5H4.5l0.4-0.4h0.1v-0.4
	c-0.1-0.3-0.1-0.4-0.4-0.4H4.5L3.4,14.4z"/>
<path class="st0" d="M1,19.3c0,0-0.1,0.1,0,0.1c0,0.4,0.1,0.9,0.4,1.2l0.8,1.2h0.1c0.1-0.8-0.2-1.7-0.8-2.2L1,19.3z"/>
<path class="st0" d="M16.9,11.8c0,0.2,0,0.3-0.1,0.4h-0.4c-0.1-0.1-0.1-0.3-0.1-0.4v-0.3h0.5L16.9,11.8z"/>
<path class="st0" d="M9.1,13.4h0.1c0.1,0.3,0.1,0.6,0,0.8H8.5c-0.2-0.2-0.3-0.5-0.1-0.8c0.1-0.1,0.3-0.2,0.5-0.2L9.1,13.4z"/>
<path class="st0" d="M21.8,16.7h0.1c0,0.1,0.1,0.1,0.1,0.1l0,0h0.5c0.3,0,0.4-0.3,0.4-0.5s0-0.4-0.1-0.5h-0.8l-0.3,0.4L21.8,16.7z"
	/>
<path class="st0" d="M15.4,18.5h0.1c0.2,0.2,0.6,0.2,0.8,0c0.1-0.2,0.2-0.3,0.3-0.5l1.9-0.5v0.4l0.4,0.3c0.2,0,0.4-0.2,0.4-0.4
	c0-0.2,0-0.3-0.1-0.4H20l1.5-0.4c-1.4-0.1-2.9,0.1-4.2,0.5l-1,0.4h-0.5c-0.3,0.1-0.4,0.2-0.4,0.4c-0.1,0.1-0.1,0.1-0.1,0.3l-0.7,0.4
	c-0.3,0.1-0.5,0.3-0.7,0.5L15.4,18.5z"/>
<path class="st0" d="M11.8,19.4H11c-0.2,0.2-0.3,0.4-0.3,0.7l0.7,0.3c0.4,0.1,0.5-0.1,0.7-0.4v-0.5L11.8,19.4z"/>
<path class="st0" d="M8.8,17.9l0.8-0.3l0.7-0.3c0.5-0.1,1.1,0.1,1.6-0.1l0.5-0.4h-0.8v-0.3c0-0.3-0.1-0.6-0.4-0.7h-0.8
	c0,0.1-0.1,0.1-0.1,0.3c-0.1,0.1-0.1,0.3-0.1,0.4c0,0.3,0,0.4,0.1,0.5c-0.7,0.2-1.3,0.5-1.8,1c0,0.1,0.1,0.1,0.1,0.1h0L8.8,17.9z"/>
<path class="st0" d="M12.1,13.3h2.3c-0.3,0.1-0.5,0.3-0.5,0.5c-0.1,0.3-0.1,0.6,0.1,0.8c0.2,0.2,0.6,0.2,0.8,0
	c0.2-0.2,0.3-0.4,0.3-0.7l2.5-0.4v0.3c0.2,0.2,0.5,0.3,0.8,0.1c0.1-0.1,0.2-0.2,0.2-0.3v-0.5h0.1c1.6-0.3,3.3-0.5,4.9-0.5
	c1.6-0.1,3.3,0,4.9,0.1l1.4,0.3c0.4,0.1,0.8,0.1,1.1,0.4h0.1c0.1,1-0.1,2.1-0.4,3c-0.2,0.4-0.6,0.8-1,1.1c-0.5,0.3-1.1,0.4-1.6,0.4
	c-0.6,0.1-1.2,0.1-1.8,0h-1.1l-1,0.3c-0.6,0.3-1.3,0.3-1.9,0.1h-1c0.6-0.1,1.3-0.1,1.9,0c0.6-0.1,1.2-0.4,1.6-0.8l-3.3,0.3l-1.5,0.4
	l-1.2,0.5l-1.5,0.8c-0.8,0.3-1.6,0.5-2.5,0.7c-0.4,0-0.9,0.2-1.2,0.4l-0.4,0.3l-0.4,0.5L11.8,22c-0.1,0-0.1,0.1,0,0.1h0.8
	c0.1,0,0.3,0.1,0.4,0h0.3c0-0.1,0.1-0.1,0.3-0.1s0.3-0.1,0.3-0.3l0.8-0.4h0.4l-0.4,0.4c-0.5,0.5-1,0.8-1.6,1.1h-1
	c-0.1,0-0.3,0-0.3-0.1h-0.7l-1,0.3L8,23.3c-0.9,0.1-1.7,0.1-2.6,0c-0.5-0.1-0.9-0.2-1.4-0.4l1.8-0.4l0.8-0.3c-0.9,0.3-1.9,0.3-2.9,0
	L3,21.9c-0.1,0-0.3-0.1-0.3-0.4c0-0.3,0.1-0.4,0.3-0.4l0.5-0.4L5.1,20c0.1,0,0-0.1,0-0.1H3.4l-0.5,0.3c-0.3,0-0.7,0.1-1,0
	s-0.4-0.4-0.5-0.5c0-0.3,0-0.7-0.1-1h0.1c0.1-0.2,0.1-0.5,0.3-0.7c0,0.1,0,0.3,0.1,0.3s0.7,0.1,1,0c0.3-0.3,0.6-0.7,0.8-1.1
	c0.1-0.3,0.3-0.7,0.5-1l0.4-0.3h0.3l-0.7,0.8c0,0.1,0,0.1,0.1,0.1c1-0.8,2-1.6,3.2-2.2l1-0.3l0.3,0.3h0.5c0.2-0.2,0.3-0.4,0.3-0.7
	h1.6"/>
<path class="st0" d="M21.4,14.2c0-0.3-0.1-0.6-0.4-0.7h-0.4l-0.3,0.3v0.4l0.3,0.3h0.7L21.4,14.2z"/>
<path class="st0" d="M18,15.3h-2.7l-0.5,0.4l-0.5,0.4c-0.1,0-0.1,0.1-0.1,0.1l0,0h0.1l3-0.5L18,15.3z"/>
<path class="st0" d="M9.5,19.2c0-0.3-0.1-0.5-0.4-0.5c-0.2-0.1-0.4-0.1-0.5,0c-0.2,0.1-0.3,0.3-0.2,0.5c0,0.1,0.1,0.1,0.1,0.2
	c0.1,0.3,0.4,0.4,0.7,0.4C9.3,19.7,9.5,19.4,9.5,19.2z"/>
<path class="st0" d="M17,11.8v-0.3l1.2,0.5c0.5,0.1,0.9,0.1,1.4-0.1h0.8c0.1-0.1,0.1-0.1,0-0.1h-2.2l-0.7-0.3h-1.8l-0.5,0.4h-1.4
	c-0.1,0-0.1,0.1,0,0.1c0.7,0.3,1.5,0.2,2.2-0.1v0.3h0.5C17,12.2,17,12,17,11.8z"/>
<path class="st0" d="M1.2,18.1c0,0.3-0.1,0.5-0.3,0.7c0-0.3-0.1-0.6-0.3-0.8v-1.2c0.1-0.3,0.2-0.6,0.1-1c0-0.3,0.1-0.7,0.3-1
	l0.4-0.3h0.1l0.7-0.7l0.3-0.3c0.2-0.4,0.5-0.7,1-1L5.2,12h0.3l2.3-0.4c0-0.1,0.1-0.1,0.1-0.1h0h0.8c0.3-0.2,0.5-0.4,0.7-0.7h0.3
	c0.3,0,0.5,0.1,0.7,0.3h0.4c0.5,0.2,1.1,0.1,1.5-0.3l0.3-0.3c0.2-0.3,0.4-0.4,0.7-0.5l0.7,0.3l1,0.3c0.7,0.1,1.3,0,1.9-0.3l0.8-0.3
	h1.1c1.3,0.2,2.6,0.3,3.8,0.1h0.7c2.4-0.3,4.7,0.3,6.7,1.6l1.1,1.5L30,13l-1.2-0.3l-2.5-0.3c-1.6-0.1-3.3,0-4.9,0.1L18.6,13h-1.1
	l-2.5,0.4c-0.2-0.2-0.4-0.4-0.7-0.4h-4.1l-1,0.3c0-0.3-0.1-0.4-0.4-0.5h0.3c0.6-0.3,1.2-0.5,1.9-0.5c0.1,0,0.1-0.1,0-0.1H7.7
	c-0.5,0-1,0.1-1.5,0.3l-0.7,0.3L4.8,13l-1.6,1l-0.4,0.3c-0.6,0.5-1,1.2-1.1,1.9c0,0.1-0.1,0.4-0.1,0.5"/>
<path class="st0" d="M30.6,12c0.4,0.4,0.6,0.8,0.8,1.2c-0.3-0.3-0.7-1.1-1.2-1.6L30.6,12z"/>
<path class="st0" d="M22.1,15.7h0.8c0.1,0.1,0.3,0.4,0.1,0.5s-0.1,0.5-0.4,0.5h-0.5c-0.1,0-0.1-0.1-0.1-0.1l0,0h-0.1v-0.5L22.1,15.7
	z"/>
<path class="st0" d="M20.3,13.8l0.3-0.3H21c0.3,0.1,0.4,0.4,0.4,0.7v0.3h-0.7l-0.3-0.3L20.3,13.8z"/>
<path class="st0" d="M23.6,12.6c-1.7,0-3.3,0.2-4.9,0.5l2.7-0.4c1.6-0.2,3.3-0.2,4.9-0.1l2.5,0.3l1.2,0.3l1.1,0.3H31
	c-0.3-0.3-0.7-0.3-1.1-0.4l-1.4-0.3C26.9,12.5,25.2,12.5,23.6,12.6z"/>
<path class="st0" d="M19.7,18.8c0.1-0.2,0.3-0.3,0.5-0.3H21l-0.4,0.3H19.7z"/>
<path class="st0" d="M17.4,20c0,0.1-0.1,0.1-0.3,0.1s0.7-0.7,1.1-0.8l0.4-0.3c0-0.1,0.1-0.1,0.1-0.1l0,0h0.1l0.8-0.3h0.5
	c-0.2,0-0.4,0.1-0.5,0.3l-1,0.3l-0.7,0.4L17.4,20z"/>
<path class="st0" d="M15.5,20.5l-0.4,0.3c0.1,0,0.1,0,0.1-0.1L15.5,20.5z"/>
<path class="st0" d="M17.1,15.7l-3,0.5H14c0-0.1,0.1-0.1,0.1-0.1h0l0.5-0.4l0.5-0.4H18L17.1,15.7z"/>
<path class="st0" d="M16.2,11.8c0,0.2,0,0.3,0.1,0.4h0.4c0.1-0.1,0.1-0.3,0.1-0.4v-0.3h-0.5L16.2,11.8z"/>
<path class="st0" d="M13.8,12c-0.1,0-0.1-0.1,0-0.1h1.4l0.5-0.4h1.8l0.7,0.3h2.2c0.1,0,0.1,0,0,0.1h-0.8c-0.4,0.2-0.9,0.2-1.4,0.1
	L17,11.5h-0.1v0.3c0,0.3,0,0.4-0.3,0.5H16V12C15.4,12.4,14.5,12.4,13.8,12z"/>
<path class="st0" d="M15.4,17.9c-0.1,0.3,0,0.6,0.3,0.7c0.3,0.1,0.4,0,0.7-0.1c0.2-0.2,0.3-0.5,0.1-0.7h-0.1c-0.1,0-0.1,0-0.1-0.1
	H16C15.8,17.6,15.5,17.7,15.4,17.9z"/>
<path class="st0" d="M13.7,19h0.1c0.2-0.3,0.4-0.4,0.7-0.5l0.7-0.4c0-0.1,0-0.1,0.1-0.3c0.1-0.1,0.1-0.3,0.4-0.4h0.5l1-0.4
	c1.4-0.5,2.8-0.6,4.2-0.5L20,16.8h-0.8c0.1,0.1,0.1,0.3,0.1,0.4c0,0.2-0.2,0.4-0.4,0.4l-0.4-0.3V17l-1.9,0.5c0,0.2-0.1,0.4-0.3,0.5
	c-0.2,0.2-0.6,0.2-0.8,0h-0.1l-1.5,0.5h-0.1V19z"/>
<path class="st0" d="M10.7,20.3c0-0.3,0.1-0.5,0.3-0.7h1.1v0.5c-0.1,0.3-0.3,0.5-0.7,0.4L10.7,20.3z"/>
<path class="st0" d="M10.4,22.6c0.1,0,0.1,0.1,0,0.1V22.6z"/>
<path class="st0" d="M8.5,17.9c0.5-0.5,1.1-0.8,1.8-1c-0.1-0.1-0.1-0.3-0.1-0.5c0-0.2,0-0.3,0.1-0.4c0-0.1,0.1-0.1,0.1-0.3h0.8
	c0.3,0.1,0.4,0.4,0.4,0.7v0.3h0.8l-0.5,0.4c-0.5,0.3-1.1,0-1.6,0.1l-0.7,0.3l-0.8,0.3H8.6C8.6,17.9,8.6,17.9,8.5,17.9
	C8.5,17.9,8.5,17.9,8.5,17.9z"/>
<path class="st0" d="M8.4,19.3c-0.2-0.2-0.2-0.4,0-0.6c0,0,0.1-0.1,0.2-0.1c0.2-0.1,0.4-0.1,0.5,0c0.3,0,0.4,0.3,0.4,0.5
	s-0.1,0.5-0.4,0.5C8.8,19.7,8.5,19.6,8.4,19.3z"/>
<path class="st0" d="M6.7,23.6h1c0.6,0,1.2-0.2,1.8-0.5h1.1l-1,0.4c-0.6,0.4-1.2,0.6-1.9,0.7H7.3c0.1,0,0.1-0.1,0-0.1L6.7,23.6z"/>
<path class="st0" d="M1.7,17.1c0,0,0.1,0,0,0.1V17.1z"/>
<path class="st0" d="M1.7,17.2c-0.1,0-0.1-0.1-0.1-0.1l0,0h0.1V17.2z"/>
<path class="st0" d="M8.2,13.7c-0.1,0.3,0,0.6,0.3,0.7h0.7c0.1-0.3,0.1-0.6,0-0.8H8.9C8.7,13.4,8.4,13.5,8.2,13.7z"/>
<path class="st0" d="M1,19.4c-0.1,0,0-0.1,0-0.1l0.5,0.4c0.6,0.5,1,1.4,0.8,2.2H2.2l-0.8-1.2C1.1,20.3,1,19.9,1,19.4z"/>
<path class="st0" d="M0.7,17.9v0.3H0.6c-0.1,0-0.1-0.1-0.1-0.2C0.5,17.9,0.6,17.9,0.7,17.9z"/>
<path class="st0" d="M0.8,21.1c-0.3-1-0.5-2-0.4-3h0.3c-0.1,0.9,0.1,1.9,0.4,2.7c0.1,0.6,0.5,1.1,1,1.5c0.5,0.4,1,0.6,1.6,0.7
	l1.9,0.3L3.6,23c-0.6-0.2-1.2-0.4-1.8-0.8C1.4,21.9,1,21.5,0.8,21.1z"/>
<path class="st0" d="M16.9,20.5h0.8l1.4-1l1.5-0.7c0.7-0.2,1.4-0.2,2.1-0.1h1.1l0.8-0.3h2.1c1.2,0.2,2.5-0.1,3.6-0.7
	c0.7-0.7,1.2-1.7,1.2-2.7c0.1-0.5,0.2-1,0.1-1.5h-0.1c-0.2-0.5-0.5-0.9-0.8-1.2l-0.4-0.4l-0.7-0.7c-1.2-0.7-2.5-1.1-3.8-1.2h-4.5
	l-2.3-0.3h-1l-1,0.3l-1,0.4h-1.1L14,10h-0.8l-1.1,0.7l-0.5,0.4l-1-0.3c-0.4-0.3-1.1-0.5-1.4,0l-0.3,0.4l-0.4,0.3H7.4L5.1,12
	l-1.9,0.5L1.9,14l-0.7,0.7l-0.5,0.5c-0.1,0.3-0.2,0.6-0.3,1v1.1c-0.1,0.7-0.2,1.5-0.1,2.2c0.1,0.7,0.2,1.4,0.4,2.1
	c0.2,0.6,0.5,1.1,1,1.5c0.5,0.4,1,0.7,1.6,0.8l2.1,0.4h2.1c0.7-0.1,1.3-0.2,1.9-0.5c0.5-0.3,1.1-0.6,1.6-0.8h1.9l1-0.4l0.8-0.5
	l0.7-0.8l0.3-0.3h1.2"/>
</svg>
