<svg xmlns="http://www.w3.org/2000/svg" width="256" height="256" viewBox="0 0 256 256"><circle cx="128" cy="128" r="123.9" fill="#2ba9e0"/><path fill="#353d16" d="M234.6 114.4a78.7 78.7 0 0 1-.4 9.7c-.8 7.2-3 14.7-8.9 19.2s-15.9 4.8-24 4c-2.1-.2-4.3-.5-6.5-.6a14.8 14.8 0 0 0-7.5 1.1 25.8 25.8 0 0 1-6.2 1.7 40.8 40.8 0 0 1-7 .1c-4.6-.3-9.4-.9-13.9.5s-7 3.1-10.2 5.2a71.4 71.4 0 0 1-9.6 5.7 18.2 18.2 0 0 1-5.4 1.5l.8-.8a19.8 19.8 0 0 0 4.7-1.5c5.9-2.7 10.8-7.3 16.9-9.9l1.9-.7c8.7-2.9 18.1 1.4 26.7-2.1a16.2 16.2 0 0 1 6.1-1.6 38.2 38.2 0 0 1 6.8.5 90 90 0 0 0 12.7.6c4.2-.2 8.4-1 11.9-3.3a20.5 20.5 0 0 0 7.2-8.5c3.1-6.8 3.3-14.7 3.2-22.1a9.2 9.2 0 0 1 .7 1.3zm-.7-1.8v.4a91.5 91.5 0 0 0-7.8-11.2l2.7 2.8a33.3 33.3 0 0 1 5.1 8z"/><path fill="#353d16" d="M233.9 113.1c.1 7.4-.1 15.3-3.2 22.1a20.5 20.5 0 0 1-7.2 8.5c-3.5 2.3-7.7 3.1-11.9 3.3a90 90 0 0 1-12.7-.6 38.2 38.2 0 0 0-6.8-.5 16.2 16.2 0 0 0-6.1 1.6c-8.6 3.5-18-.8-26.7 2.1l-1.9.7-.4-1.1 3-1 2.9-1.3a49.2 49.2 0 0 1 9.4 0c4.6.3 8.9.6 13-1h.1a18.4 18.4 0 0 1 6.7-1.7 36.3 36.3 0 0 1 5.7.3l1.3.2a85.8 85.8 0 0 0 12.4.6 22.4 22.4 0 0 0 11.1-3 18.9 18.9 0 0 0 6.5-7.7c2.8-6.3 3.1-13.4 3-20.8 0-.1-.1-.2-.1-.3a86 86 0 0 0-7.2-10.2c-11.7-10.7-29-12.3-46-12.4h-4.2c-8.7 0-17.6.1-26.3-1.4l-2.6-.5a29.4 29.4 0 0 0-4.9-.8c-2.1 0-3.7.8-5.9 2a20.7 20.7 0 0 1-12.9 2.3 19.8 19.8 0 0 1-6.6-2.2l-.6-.3c-1.5-.8-2.8-1.5-4.2-1.3s-3.4 1.7-5.1 3.2l-1.9 1.6c-3.5 2.7-6.8 3.4-10.2 2a15.1 15.1 0 0 1-2.6-1.2c-2.3-1.2-3.8-1.8-4.9-1.8a2.1 2.1 0 0 0-2 1.3h-.1c-1 1.7-2 3.5-4.4 4.5a24.7 24.7 0 0 1-5.2 1.3l-1.5.3-15.3 3.1-2.4.5c-3.7.7-7.5 1.4-10.7 3s-5.2 4.2-7.4 7l-1.1 1.4a28.5 28.5 0 0 1-4.6 4.6l-1.2.8a16.7 16.7 0 0 0-3.1 2.7c-1.3 1.6-1.6 3.9-1.8 6s-.5 4.6-.7 7.1-.4 5.5-.5 8.3c-.2-.2-.6 0-.6.3h-1.2c.1-2.9.3-5.9.5-8.8s.5-4.7.7-7.1.6-5 2.2-7a24.5 24.5 0 0 1 4.6-3.8 25 25 0 0 0 4.3-4.3c2.7-3.3 5.1-6.8 9.1-8.8s9-2.7 13.5-3.6l15.3-3.2a35 35 0 0 0 6.4-1.5c1.9-.8 2.6-2.1 3.6-3.8 2.9-4.8 8.2-.3 11.7 1.1s6 .1 8.5-1.9 4.7-4.6 7.8-5.1 4.1.9 5.9 1.8a18.4 18.4 0 0 0 17.8-.2c2.3-1.2 4.3-2.3 6.9-2.2s5.2.9 7.7 1.3c10 1.7 20.1 1.4 30.2 1.4 16.3.1 34.7 1.4 47.3 12.9a91.5 91.5 0 0 1 7.8 11.2z"/><path fill="#676b2c" d="M232.1 113.7c.1 7.4-.2 14.5-3 20.8a18.9 18.9 0 0 1-6.5 7.7 22.4 22.4 0 0 1-11.1 3 85.8 85.8 0 0 1-12.4-.6l-1.3-.2a36.3 36.3 0 0 0-5.7-.3 18.4 18.4 0 0 0-6.7 1.7h-.1c-4.1 1.6-8.4 1.3-13 1a49.2 49.2 0 0 0-9.4 0c1-.3 1.9-.7 2.9-.9 4.2-1.2 8.6-.3 12.9-.6a18.3 18.3 0 0 0 11.5-5 .3.3 0 0 0-.2-.6 207.7 207.7 0 0 0-22.3 2.1 45.1 45.1 0 0 0-10.4 2.5 69.6 69.6 0 0 0-8.6 4.4 47.6 47.6 0 0 1-9.9 4.8.3.3 0 0 0-.3.3c-5.2 2.9-11.4 3.1-17.2 4.3a32.4 32.4 0 0 0-7.9 2.8 18.5 18.5 0 0 0-3.2 2.5c-1.1 1-1.9 2.3-3.2 3.1s-5.3 1.9-7 4.2h-.4a.4.4 0 1 0 0 .7h.5v1.4h-.6a17.8 17.8 0 0 0-4 0 24 24 0 0 0-7 2.3c-5.1.2-10.1 1.3-15.2 2.1A55.8 55.8 0 0 1 56 177a52.9 52.9 0 0 1-9.4-2.7h-.1v-.2a58.6 58.6 0 0 0 12.4-2.8 56.2 56.2 0 0 0 5.3-1.9c.4-.2.3-.8-.2-.7a39.4 39.4 0 0 1-19.3-.4 32.9 32.9 0 0 1-4.4-1.6c-1.1-.6-2.4-1.5-2.3-2.9s1.2-2.6 2.2-3.4l4-2.5a65.5 65.5 0 0 1 10-4.8c.4-.1.4-.7 0-.7-2.6.2-5.2.3-7.7.7a25.7 25.7 0 0 0-3.8.8l-3.4 1c-2.2.6-4.6 1.2-6.8.2a6.6 6.6 0 0 1-3.3-4 19.5 19.5 0 0 1-.9-5.8l.3-.2 1.8-4.4a4.6 4.6 0 0 0 1.3 1.9c2.1 1.8 5.1.9 7-.8s3.4-4.5 4.7-6.9A33.6 33.6 0 0 1 48 128a15.5 15.5 0 0 1 2.4-1.9l1.6.7a27 27 0 0 0-4.5 5.6.4.4 0 0 0 .5.5 139.1 139.1 0 0 1 22-10.6c2.2-.9 4.4-1.6 6.6-2.3a5.1 5.1 0 0 0 2.4 1.6 3.4 3.4 0 0 0 2.9-.5 4.8 4.8 0 0 0 1.9-4.5 16.3 16.3 0 0 1 5.8-1.3 22.3 22.3 0 0 0 5.7-1.2l3-1a12.6 12.6 0 0 1 3.3-.5c2.2-.2 4.4-.2 6.6-.2h7.6a.3.3 0 0 0 .3-.5 2.2 2.2 0 0 1 .8 0h.9a5.6 5.6 0 0 0-4.1 3 5 5 0 0 0 1 5.7 4.4 4.4 0 0 0 5.6.6 5.5 5.5 0 0 0 2.3-5.4.4.4 0 0 1-.1-.3c5.7-.9 11.4-1.9 17.1-3.2a5.9 5.9 0 0 0 .5 2.2 4.6 4.6 0 0 0 3.7 2.7c1.6 0 2.9-1.8 3.1-3.3a3.1 3.1 0 0 0-.5-2.5h.2a.5.5 0 0 0 .5.4 195.7 195.7 0 0 1 67.1-2.2l9.2 1.6c2.8.5 5.7 1 8 2.7.4.3.7-.2.5-.5h.1c0 .1.1.2.1.3zm-54.8 20.9a4.5 4.5 0 0 0-1.6-4c0-.2-.1-.3-.3-.4l-.7-.3-.6-.2h-.2a4.2 4.2 0 0 0-3.8.3 3.8 3.8 0 0 0-1.4 2.6 11 11 0 0 0-.3 3.6c.1.5.1 1 .5 1.3a4.6 4.6 0 0 0 1.6.7 6.6 6.6 0 0 0 3.4.2 4.7 4.7 0 0 0 3.4-3.8zm-10.8 1.7a.4.4 0 0 0-.1-.7 72.3 72.3 0 0 0-28.8 3.5l-6.9 2.7a4.4 4.4 0 0 0-3.5-.8c-.2 0-.3.1-.3.2a4.9 4.9 0 0 0-2.9 2.4 4.1 4.1 0 0 0-.5 2.1l-5.2 2.5a21.9 21.9 0 0 0-4.6 3.4h-.2l-.2.3-.2.3c-.3.3.2.8.5.5l.5-.6a52.7 52.7 0 0 1 10.3-3.7h.1a3.4 3.4 0 0 0 .6.6 4.4 4.4 0 0 0 5.6.4 4.8 4.8 0 0 0 2-4.3c.1.2.2.4.5.3 4.1-1.4 8.2-2.7 12.4-3.8.3-.1.3-.3.3-.5h.2a3 3 0 0 0 2.9 4.3 3 3 0 0 0 2.6-2.5 3.1 3.1 0 0 0-1-2.5c0-.1 0-.2-.1-.2h.2a29.8 29.8 0 0 0 5.1-.7c3.6-1.1 7.1-2.2 10.7-3.2zm-.9-17.1c.3-2-1.2-3.4-2.8-4.3s-.3 0-.4.1a2.5 2.5 0 0 0-2.6-.1 2.6 2.6 0 0 0-1.2 1.9 7.7 7.7 0 0 0-.1 2.6 2.4 2.4 0 0 0 1.3 1.8 3.9 3.9 0 0 0 2.1.3 7 7 0 0 0 2.5-.5 2.5 2.5 0 0 0 1.2-1.8zm-23.2 8a.4.4 0 0 0-.2-.7L129 126a10 10 0 0 0-5.1 1.1 20.2 20.2 0 0 0-3.8 2.7 24.8 24.8 0 0 1-3.9 2.7h-.7a.3.3 0 0 0-.3.5c0 .3.2.5.5.4l.6-.3c6.9-.7 13.9-1.4 20.5-3.7a38.8 38.8 0 0 0 5.6-2.2zm-37.4 9.6a.3.3 0 0 0-.3-.5 20 20 0 0 0-6 .2 8.3 8.3 0 0 0 .3-2.2 5.8 5.8 0 0 0-2.8-4.8c0-.2 0-.3-.2-.4a3.4 3.4 0 0 0-3.5-.3 7 7 0 0 0-1.7.9 5.7 5.7 0 0 0-1.5 1.2 4.5 4.5 0 0 0-.6 3.6 6.4 6.4 0 0 0 1.1 3c-4.7.9-8.4 4.2-11.9 7.2-.4.4.2.9.5.6l.7-.6c.1 0 .2.1.3 0a50.5 50.5 0 0 0 5.5-1.8 45.5 45.5 0 0 1 5.1-2.1c3.7-.9 7.6.4 11.2-.9a6.9 6.9 0 0 0 3.8-3.1zm-3.6 22.4a9.2 9.2 0 0 0 .1-3.3 2.1 2.1 0 0 0-.6-1l-.2-.2a1.4 1.4 0 0 0-.9-.1h-.1c-1.8-.1-3.8-.1-5.3 1a3.7 3.7 0 0 0-1.6 4.5 5.6 5.6 0 0 0 4.6 2.6c2.1.1 3.5-1.7 4-3.5zm-17.1-6.3a4.3 4.3 0 0 0-3.1-4.2 3.6 3.6 0 0 0-4.2.1c-1.6 1.3-1.4 3.6-.5 5.3a4.2 4.2 0 0 0 4.5 2.4 4 4 0 0 0 3.3-3.6z"/><path fill="#a6ab65" d="M232 113.4h-.2a16.9 16.9 0 0 0-7-2.6l-8.3-1.5c-5.6-.8-11.2-1.5-16.8-1.8a182.7 182.7 0 0 0-33.9.7q-9.6 1-18.9 3a.3.3 0 0 0-.3.3h-.1l-.2-.3h-.2a2.6 2.6 0 0 0-1.8-.9.5.5 0 0 0-.4.2h-.4a5.7 5.7 0 0 0-2.6.1 2.3 2.3 0 0 0-1.1 1.1h-.2q-8.5 2-17.4 3.3a6.3 6.3 0 0 0-4.1-3.5h-.1a4.4 4.4 0 0 0-2.3-.2.4.4 0 0 0-.2.5h-13.4l-3.2.4-3 .9a16 16 0 0 1-3.1 1 15.7 15.7 0 0 1-3 .5 18 18 0 0 0-6.1 1.3c-.1-.2-.1-.4-.2-.6a4.9 4.9 0 0 0-3.1-3.3l2.2-.8a58.1 58.1 0 0 1 13-3.5c.4 0 .4-.7 0-.7l-23.2.2c-3.7 0-7.3 0-10.7 1.3-1.7.7-3.2 1.5-4.8 2.3l-4.9 2.7c-3.7 2.1-7.3 4.3-10.8 6.5a.4.4 0 0 0 .2.7 19.4 19.4 0 0 0-2.9 2.1 25 25 0 0 0-7.9 12.7 14 14 0 0 0-.5 4.1c-.7 1.7-1.4 3.4-2.2 5.1-.2-.1-.4.1-.4.3a9.2 9.2 0 0 1-1.6 4.8 21 21 0 0 0-1.9-5.3h-.1c.1-2.8.3-5.6.5-8.3s.5-4.9.7-7.1.5-4.4 1.8-6a16.7 16.7 0 0 1 3.1-2.7l1.2-.8a28.5 28.5 0 0 0 4.6-4.6l1.1-1.4c2.2-2.8 4.3-5.4 7.4-7s7-2.3 10.7-3l2.4-.5 15.3-3.1 1.5-.3a24.7 24.7 0 0 0 5.2-1.3c2.4-1 3.4-2.8 4.4-4.5h.1a2.1 2.1 0 0 1 2-1.3c1.1 0 2.6.6 4.9 1.8a15.1 15.1 0 0 0 2.6 1.2c3.4 1.4 6.7.7 10.2-2l1.9-1.6c1.7-1.5 3.3-2.9 5.1-3.2s2.7.5 4.2 1.3l.6.3a19.8 19.8 0 0 0 6.6 2.2 20.7 20.7 0 0 0 12.9-2.4c2.2-1.2 3.8-2 5.9-2a29.4 29.4 0 0 1 4.9.8l2.6.5c8.7 1.5 17.6 1.4 26.3 1.4h4.2c17 .1 34.3 1.7 46 12.4a86 86 0 0 1 7.2 10.1zM159.4 103a.4.4 0 0 0-.1-.7 65.4 65.4 0 0 1-9.9 0 26.7 26.7 0 0 1-4.8-.8c-1.6-.4-3.1-1-4.7-1.5a21 21 0 0 0-8.6-1.3 9.6 9.6 0 0 0-3.7 1.3c-1.3.7-2.3 1.9-3.7 2.4-3 1-6.2.1-9.2.9l-.3.3-.5-.2c-.4-.1-.6.6-.1.7a20.1 20.1 0 0 0 15.4-.3 3.7 3.7 0 0 0 1.1 1.9 3.3 3.3 0 0 0 3.7.3 3.2 3.2 0 0 0 1.7-3.5 4.7 4.7 0 0 0-.6-1.5h.5v.2a39.6 39.6 0 0 0 8.7 3.8 18.4 18.4 0 0 0 9.6-.3 56 56 0 0 0 5.5-1.7z"/><path fill="#231f20" d="M231.9 113.5c.2.3-.1.8-.5.5-2.3-1.7-5.2-2.2-8-2.7l-9.2-1.6a195.7 195.7 0 0 0-67.1 2.2.5.5 0 0 1-.5-.4.3.3 0 0 1 .3-.3q9.3-2 18.9-3a182.7 182.7 0 0 1 33.9-.7c5.6.3 11.2 1 16.8 1.8l8.3 1.5a16.9 16.9 0 0 1 7 2.6z"/><path fill="#353d16" d="M220.6 96.9a31.1 31.1 0 0 1 5.5 5c-12.6-11.5-31-12.8-47.3-12.9-10.1 0-20.2.3-30.2-1.4-2.5-.4-5.1-1.2-7.7-1.3s-4.6 1-6.9 2.2a18.4 18.4 0 0 1-17.8.2c-1.8-.9-3.7-2.1-5.9-1.8s-5.4 3.3-7.8 5.1-5.3 3.1-8.5 1.9-8.8-5.9-11.7-1.1c-1 1.7-1.7 3-3.6 3.8a35 35 0 0 1-6.4 1.5L57 101.3c-4.5.9-9.3 1.5-13.5 3.6s-6.4 5.5-9.1 8.8a25 25 0 0 1-4.3 4.3 24.5 24.5 0 0 0-4.6 3.8c-1.6 2-1.9 4.6-2.2 7s-.5 4.7-.7 7.1-.4 5.9-.5 8.8a60.4 60.4 0 0 0 2.6 20.7c1.4 4.2 3.6 8.4 7.2 11.1s7.7 3.9 11.9 4.9a132.9 132.9 0 0 0 13.8 2.4 55.4 55.4 0 0 0 11.5.5l2.7-.3a39 39 0 0 0 12.7-4.7 65.4 65.4 0 0 1 6.5-3.2 23.2 23.2 0 0 1 4.7-1.3 13.8 13.8 0 0 1 5.7.5 26 26 0 0 0 4 1 7.8 7.8 0 0 0 3.4-.5c4.3-1.5 8.4-4.5 11.8-7.5 1.6-1.4 3-3.1 4.5-4.7l.6-.6a4.9 4.9 0 0 1 4-1.5 26.9 26.9 0 0 0 4.9.3l-.3.3a.8.8 0 0 0-.1.4 17.6 17.6 0 0 1-3.9-.2 4.4 4.4 0 0 0-3.9 1.1 13.1 13.1 0 0 0-2 2.1 38.2 38.2 0 0 1-5.1 4.8 40.4 40.4 0 0 1-5.4 3.8 21.8 21.8 0 0 1-6.2 2.8c-2.3.5-4.3-.3-6.5-1a13.8 13.8 0 0 0-6.7-.1c-4.3.9-8.1 3.4-12 5.3a34.9 34.9 0 0 1-12.6 3.9 60.7 60.7 0 0 1-14.1-.7c-4.6-.7-9.3-1.5-13.9-2.6s-8.1-2.5-11.3-5.3-5.2-6.7-6.6-10.7a52.3 52.3 0 0 1-2.5-14.2 110.3 110.3 0 0 1 .4-15.2c.2-2.5.5-5 .7-7.5a15.1 15.1 0 0 1 1.4-6 12.7 12.7 0 0 1 3.9-4.1 24.7 24.7 0 0 0 4.9-4.2c2.8-3.2 5-6.9 8.7-9.3s8.4-3.2 12.8-4.1l15.8-3.2c2.4-.5 4.9-.9 7.2-1.6a5.9 5.9 0 0 0 3.1-1.7 24.6 24.6 0 0 0 1.7-2.7c2.4-3.4 6.7-1.6 9.7 0s4 2.2 6.4 1.7a11 11 0 0 0 4.2-2.4c2.3-1.8 4.5-4.3 7.5-4.9a7.3 7.3 0 0 1 5 .9 28.9 28.9 0 0 0 6.3 2.6 18.8 18.8 0 0 0 7.1.1 21.8 21.8 0 0 0 6.5-2.7 12.3 12.3 0 0 1 6.5-1.6c2.4.2 4.7.9 7.1 1.3a106.5 106.5 0 0 0 15.9 1.3c10.2.3 20.4-.3 30.6.8s18 3.1 25.7 7.9z"/><path fill="#231f20" d="M190 139.8a.3.3 0 0 1 .2.6 18.3 18.3 0 0 1-11.5 5c-4.3.3-8.7-.6-12.9.6-1 .2-1.9.6-2.9.9a21.3 21.3 0 0 0-4.2 1l2.1-.8a27.8 27.8 0 0 1 5.7-2.1c4.3-.8 8.6.1 12.9-.4a17.9 17.9 0 0 0 9.6-4c-3.9.1-7.7.4-11.6.8s-7.4.8-11.1 1.4a40.9 40.9 0 0 0-10.2 2.9c-3.1 1.4-6 3.2-9 4.9l-.9.5a44.3 44.3 0 0 1-6.7 3 .2.2 0 0 1-.2.2 29.4 29.4 0 0 1-9.6 3.2l-1.7.3h-.4c-5 .8-10.1 1.4-14.4 4.1a20.8 20.8 0 0 0-3.2 2.7 10.4 10.4 0 0 1-3.1 2.8c-2 1.2-4.6 1.7-6.1 3.5l5.2.3a5.7 5.7 0 0 0 2.6-.2 2 2 0 0 0 .8-.8l.8-.8a15.5 15.5 0 0 1 2.2-1.2l2.5-1.3 8.5-4.2-.6.7-.7.7-2.6 1.3-5.2 2.6-2.5 1.3a7 7 0 0 0-2 1.5 2.5 2.5 0 0 1-1.7 1.1h-2.7l-5.3-.3h-.5a.4.4 0 1 1 0-.7h.4c1.7-2.3 4.7-2.6 7-4.2s2.1-2.1 3.2-3.1a18.5 18.5 0 0 1 3.2-2.5 32.4 32.4 0 0 1 7.9-2.8c5.8-1.2 12-1.4 17.2-4.3a.3.3 0 0 1 .3-.3 47.6 47.6 0 0 0 9.9-4.8 69.6 69.6 0 0 1 8.6-4.4 45.1 45.1 0 0 1 10.4-2.5 207.7 207.7 0 0 1 22.3-2.2z"/><path fill="#a6ab65" d="M189 140.6a17.9 17.9 0 0 1-9.6 4c-4.3.5-8.6-.4-12.9.4a27.8 27.8 0 0 0-5.7 2.1l-2.1.8-.9.3-3.1.9a40.2 40.2 0 0 0-5.9 1.8 3.4 3.4 0 0 0-1.2.6l-1 .4-.4-.8.9-.5c3-1.7 5.9-3.5 9-4.9a40.9 40.9 0 0 1 10.2-2.9c3.7-.6 7.4-1 11.1-1.4s7.7-.7 11.6-.8z"/><path fill="#231f20" d="M175.7 130.6a4.5 4.5 0 0 1 1.6 4 4.7 4.7 0 0 1-3.4 3.8 6.6 6.6 0 0 1-3.4-.2 4.6 4.6 0 0 1-1.6-.7c-.4-.3-.4-.8-.5-1.3a11 11 0 0 1 .3-3.6 3.8 3.8 0 0 1 1.4-2.6 4.2 4.2 0 0 1 3.8-.3h.2l.6.2.7.3c.2.1.3.2.3.4zm-1.5 6.9a3.9 3.9 0 0 0 2.4-3.6 4 4 0 0 0-2.1-3.3c-1.4-.5-3-.8-4.1.1a3.4 3.4 0 0 0-1.1 2.5 8.1 8.1 0 0 0-.1 3.1c0 .2 0 .6.3.7s.4.2.6.3l1.4.4a4.2 4.2 0 0 0 2.7-.2z"/><path fill="#a6ab65" d="M176.6 133.9a3.9 3.9 0 0 1-2.4 3.6 4.2 4.2 0 0 1-2.7.2l-1.4-.4c-.2-.1-.5-.1-.6-.3s-.3-.5-.3-.7a8.1 8.1 0 0 1 .1-3.1 3.4 3.4 0 0 1 1.1-2.5c1.1-.9 2.7-.6 4.1-.1a4 4 0 0 1 2.1 3.3zm-10.2 1.7a.4.4 0 0 1 .1.7c-3.6 1-7.1 2.1-10.7 3a29.8 29.8 0 0 1-5.1.7h-.2c.1 0 .1.1.1.2a3.1 3.1 0 0 1 1 2.5 3 3 0 0 1-2.6 2.5 3 3 0 0 1-2.9-4.3h-.2c0 .2 0 .4-.3.5-4.2 1.1-8.3 2.4-12.4 3.8-.3.1-.4-.1-.5-.3a4.8 4.8 0 0 1-2 4.3 4.4 4.4 0 0 1-5.6-.4 3.4 3.4 0 0 1-.6-.6h-.1a52.7 52.7 0 0 0-10.3 3.7l-.5.6c-.3.3-.8-.2-.5-.5l.2-.3.2-.3h.2a21.9 21.9 0 0 1 4.6-3.4l5.2-2.5a4.1 4.1 0 0 1 .5-2.1 4.9 4.9 0 0 1 2.9-2.4c0-.1.1-.2.3-.2a4.4 4.4 0 0 1 3.5.8l6.9-2.7a72.3 72.3 0 0 1 28.8-3.3zm-2.1.6h-6a71.9 71.9 0 0 0-27 6.2 5.7 5.7 0 0 1 1.2 1.8 2.9 2.9 0 0 1 .2.9l.3-.3c4.1-1.4 8.3-2.7 12.5-3.8-.1-.2-.1-.4.1-.5l2.1-.7.8-.2 1.8-.2a29.8 29.8 0 0 0 5.1-.7c3-.8 5.9-1.7 8.9-2.5zm-15.1 8.3a2 2 0 0 0 1-3.5 1.7 1.7 0 0 0-1.3-.7c-.1-.1-.2-.1-.4 0h-.6l-.8.5a2.3 2.3 0 0 0-.3 2.7 2 2 0 0 0 2.4 1zm-18.5 3.9a3.7 3.7 0 0 0 .9-4.6 3.6 3.6 0 0 0-1-1.1h-.1c-.4.2-.7-.3-.5-.5l-1-.4h-.2a4.1 4.1 0 0 0-4.4 2.7 3.8 3.8 0 0 0 1.7 4.4 3.6 3.6 0 0 0 4.6-.5zm-6.6-.6a3.4 3.4 0 0 1-.5-1.4 35.1 35.1 0 0 0-7.6 4.2 45.6 45.6 0 0 1 8.1-2.8z"/><path fill="#231f20" d="M162.8 114.9c1.6.9 3.1 2.3 2.8 4.3a2.5 2.5 0 0 1-1.2 1.8 7 7 0 0 1-2.5.5 3.9 3.9 0 0 1-2.1-.3 2.4 2.4 0 0 1-1.3-1.8 7.7 7.7 0 0 1 .1-2.6 2.6 2.6 0 0 1 1.2-1.9 2.5 2.5 0 0 1 2.6.1c.1-.1.2-.2.4-.1zm1.6 5.2a1.8 1.8 0 0 0 .5-1.6 2.6 2.6 0 0 0-1-2c-.1.2-.4.4-.6.1s-2.5-2-3.6-.7a2.6 2.6 0 0 0-.5 1.8 3.8 3.8 0 0 0 .2 2.1c.5 1.1 2 1.1 3 .9a2.8 2.8 0 0 0 2-.6z"/><path fill="#a6ab65" d="M164.9 118.5a1.8 1.8 0 0 1-.5 1.6 2.8 2.8 0 0 1-2 .6c-1 .2-2.5.2-3-.9a3.8 3.8 0 0 1-.2-2.1 2.6 2.6 0 0 1 .5-1.8c1.1-1.3 2.8-.2 3.6.7s.5.1.6-.1a2.6 2.6 0 0 1 1 2zm-6.6 17.6h6c-3 .8-5.9 1.7-8.9 2.4a29.8 29.8 0 0 1-5.1.7l-1.8.2-.8.2-2.1.7c-.2.1-.2.3-.1.5-4.2 1.1-8.4 2.4-12.5 3.8l-.3.3a2.9 2.9 0 0 0-.2-.9 5.7 5.7 0 0 0-1.2-1.8 71.9 71.9 0 0 1 27-6.1z"/><path fill="#231f20" d="M162.9 146.9l-2.9 1.3-3 1-3.1.8h-.1a28.7 28.7 0 0 1 4-1.8l.9-.3a21.3 21.3 0 0 1 4.2-1z"/><path fill="#fdff99" d="M159.3 102.3a.4.4 0 0 1 .1.7 56 56 0 0 1-5.4 1.7 18.4 18.4 0 0 1-9.6.3 39.6 39.6 0 0 1-8.7-3.8v-.2h-.5a4.7 4.7 0 0 1 .6 1.5 3.2 3.2 0 0 1-1.8 3.5 3.3 3.3 0 0 1-3.7-.3 3.7 3.7 0 0 1-1.1-1.9 20.1 20.1 0 0 1-15.4.3c-.5-.1-.3-.8.1-.7l.5.2.3-.3c3-.8 6.2.1 9.2-.9 1.4-.5 2.4-1.7 3.7-2.4a9.6 9.6 0 0 1 3.7-1.3 21 21 0 0 1 8.6 1.3c1.6.5 3.1 1.1 4.7 1.5a26.7 26.7 0 0 0 4.8.8 65.4 65.4 0 0 0 9.9 0zm-2.5.8a48.3 48.3 0 0 1-8.5-.1 75.1 75.1 0 0 1-9.3-2.5 17.1 17.1 0 0 0-6.3-1.1 3.8 3.8 0 0 1 1.8.9h1.2c.2 0 .3.1.4.3l4.7 2.3a17.6 17.6 0 0 0 9 1.8 24.5 24.5 0 0 0 7-1.6zm-22.8 2a2.5 2.5 0 0 0 .9-2.9 3.1 3.1 0 0 0-1.3-1.7H130c-.2.1-.2.3-.2.5a4.1 4.1 0 0 0-.1 1.1 4 4 0 0 0 1.3 3.3 3 3 0 0 0 3-.3zm-2.1-5.5v-.2l-1.6.2a9.7 9.7 0 0 0-3.8 1.9 7.8 7.8 0 0 1-3.5 1.8c-2.6.6-5.2.1-7.8.6a19.1 19.1 0 0 0 13.8-.9v-1.7a2 2 0 0 1 .3-1.1c.3-.4.7-.4 1.1-.5h1.6c-.1 0-.1 0-.1-.1z"/><path fill="#353d16" d="M157 149.2l.4 1.1c-6.1 2.6-11 7.2-16.9 9.9a19.8 19.8 0 0 1-4.7 1.5 33.1 33.1 0 0 1 2.7-2.6l1.2-.5a63.2 63.2 0 0 0 7.9-4.7c2-1.3 4.1-2.7 6.2-3.9h.1z"/><path fill="#8b8c46" d="M154.7 149.1l3.1-.9a28.7 28.7 0 0 0-4 1.8 29.7 29.7 0 0 0-5.7 2 29.2 29.2 0 0 0-4.8 2.9 48.1 48.1 0 0 0-4.8 4.2l-1.6.5a56.9 56.9 0 0 1 7-6l2.7-1.7 1-.4a3.4 3.4 0 0 1 1.2-.6 40.2 40.2 0 0 1 5.9-1.8z"/><path fill="#676b2c" d="M148.3 103a48.3 48.3 0 0 0 8.5.1 24.5 24.5 0 0 1-7 1.6 17.6 17.6 0 0 1-9-1.8l-4.7-2.3c-.1-.2-.2-.3-.4-.3h-1.2a3.8 3.8 0 0 0-1.8-.9 17.1 17.1 0 0 1 6.3 1.1 75.1 75.1 0 0 0 9.3 2.5z"/><path fill="#a6ab65" d="M150.9 142.3a2.1 2.1 0 0 1-1.7 2.2 2 2 0 0 1-2.4-.9 2.3 2.3 0 0 1 .3-2.7l.8-.5h.6c.2-.1.3-.1.4 0a1.7 1.7 0 0 1 1.3.7 2.1 2.1 0 0 1 .7 1.2z"/><path fill="#8b8c46" d="M148.1 152a29.7 29.7 0 0 1 5.7-2c-2.1 1.2-4.2 2.6-6.2 3.9a63.2 63.2 0 0 1-7.9 4.7l-1.2.5a48.1 48.1 0 0 1 4.8-4.2 29.2 29.2 0 0 1 4.8-2.9z"/><path fill="#fff" d="M146.4 111.6a3.1 3.1 0 0 1 .5 2.5c-.2 1.5-1.5 3.3-3.1 3.3a4.6 4.6 0 0 1-3.7-2.7 5.9 5.9 0 0 1-.5-2.2c-5.7 1.3-11.4 2.3-17.1 3.2a.4.4 0 0 0 .1.3 5.5 5.5 0 0 1-2.3 5.4 4.4 4.4 0 0 1-5.6-.6 5 5 0 0 1-1-5.7 5.6 5.6 0 0 1 4.1-3h-.9a2.2 2.2 0 0 0-.8 0 .3.3 0 0 1-.3.5h-7.6c-2.2 0-4.4 0-6.6.2a12.6 12.6 0 0 0-3.3.5l-3 1a22.3 22.3 0 0 1-5.7 1.2 16.3 16.3 0 0 0-5.8 1.3 4.8 4.8 0 0 1-1.9 4.5 3.4 3.4 0 0 1-2.9.5 5.1 5.1 0 0 1-2.4-1.6c-2.2.7-4.4 1.4-6.6 2.3a139.1 139.1 0 0 0-22 10.6.4.4 0 0 1-.5-.5A27 27 0 0 1 52 127l1.7-1.7 1.2-.9c5.3-4.2 11.6-7 17.8-9.7a103.6 103.6 0 0 1 18.6-6.8h-20a35.7 35.7 0 0 0-5.6.3 15.2 15.2 0 0 0-5.1 1.6c-3.3 1.5-6.4 3.3-9.5 5.1s-5.3 3.1-7.9 4.7a22.8 22.8 0 0 1 7.6-2.6l1.2-.2h.2c.2 0 .3 0 .3.1a3.6 3.6 0 0 1 2.3 2.6 4.8 4.8 0 0 1-1 3.6 9.4 9.4 0 0 1-1 1c-.7.7-1.6 1.3-2.4 2A15.5 15.5 0 0 0 48 128a33.6 33.6 0 0 0-4.7 7.1c-1.3 2.4-2.6 5.1-4.7 6.9s-4.9 2.6-7 .8a4.6 4.6 0 0 1-1.3-1.9l.6-1.3a3.4 3.4 0 0 0 1.9 3.1c2.5 1.2 5-.6 6.5-2.5 3.2-4.1 4.7-9.2 8.4-12.9a28.3 28.3 0 0 1 2.8-2.3 12.2 12.2 0 0 0 2.7-2.3 4.2 4.2 0 0 0 .8-3.4 2.8 2.8 0 0 0-2-1.8l-1.1.2h-.4a24.5 24.5 0 0 0-12.4 6.3 25.5 25.5 0 0 0-6.9 12 16.4 16.4 0 0 0-.4 2.5c-.1 0-.3 0-.3.2a2 2 0 0 0-.4.8 14 14 0 0 1 .5-4.1 25 25 0 0 1 7.9-12.7 19.4 19.4 0 0 1 2.9-2.1.4.4 0 0 1-.2-.7c3.5-2.2 7.1-4.4 10.8-6.5l4.9-2.7c1.6-.8 3.1-1.6 4.8-2.3 3.4-1.3 7-1.3 10.7-1.3l23.2-.2c.4 0 .4.7 0 .7a58.1 58.1 0 0 0-13 3.5l-2.2.8a4.9 4.9 0 0 1 3.1 3.3c.1.2.1.4.2.6a18 18 0 0 1 6.1-1.3 15.7 15.7 0 0 0 3-.5 16 16 0 0 0 3.1-1l3-.9 3.2-.4h13.4a.4.4 0 0 1 .2-.5 4.4 4.4 0 0 1 2.3.2h.1a6.3 6.3 0 0 1 4.1 3.5q8.8-1.4 17.4-3.3h.2a2.3 2.3 0 0 1 1.1-1.1 5.7 5.7 0 0 1 2.6-.1h.4a.5.5 0 0 1 .4-.2 2.6 2.6 0 0 1 1.8.9h.2l.2.3zm-.2 2a2 2 0 0 0-.6-1.8 5.5 5.5 0 0 0-2.2-.6 6 6 0 0 0-2.3.1c-1.3.5-.7 2.4-.2 3.3a4.4 4.4 0 0 0 1.2 1.5 3.3 3.3 0 0 0 1.9.6 3.3 3.3 0 0 0 2.2-3.1zm-25.7 6.7a4.5 4.5 0 0 0 1.1-5 5.7 5.7 0 0 0-2.6-2.7c0 .1-.1.2-.3.2a4.7 4.7 0 0 0-4.6 3.2 4.4 4.4 0 0 0 1.6 4.7 3.7 3.7 0 0 0 4.8-.4zm-38.5-.2a4.5 4.5 0 0 0 .5-5.3A5.2 5.2 0 0 0 81 113a.4.4 0 0 1-.5.2 3.5 3.5 0 0 0-4.7 2c-.6 1.8.4 3.4 1.7 4.7a3.3 3.3 0 0 0 2.2 1.1 2.8 2.8 0 0 0 2.3-.9zm-6.5-6h.1l-3.9 1.7c-3.1 1.4-6.1 2.7-9 4.3-5.3 2.9-10.4 6.5-13.8 11.5l4.8-2.6a145 145 0 0 1 22.3-9.6 5.3 5.3 0 0 1-1.1-2.4 4.8 4.8 0 0 1 .6-2.9z"/><path fill="#a6ab65" d="M146.2 151.1l.4.8-2.7 1.7a56.9 56.9 0 0 0-7 6l-1.8.4a17.2 17.2 0 0 1-3.9-.1l-1.3-.2h-2l-.3-1.9h.4l1.7-.3a29.4 29.4 0 0 0 9.6-3.2.2.2 0 0 0 .2-.2 44.3 44.3 0 0 0 6.7-3z"/><path fill="#b6b76e" d="M145.6 111.8a2 2 0 0 1 .6 1.8 3.3 3.3 0 0 1-2.2 3.1 3.3 3.3 0 0 1-1.9-.6 4.4 4.4 0 0 1-1.2-1.5c-.5-.9-1.1-2.8.2-3.3a6 6 0 0 1 2.3-.1 5.5 5.5 0 0 1 2.2.6z"/><path fill="#231f20" d="M142.2 126.5a.4.4 0 0 1 .2.7 38.8 38.8 0 0 1-5.6 2.3c-6.6 2.3-13.6 3-20.5 3.7l-.6.3c-.3.1-.5-.1-.5-.4a.3.3 0 0 1 .3-.5h.7a24.8 24.8 0 0 0 3.9-2.7 20.2 20.2 0 0 1 3.8-2.7 10 10 0 0 1 5.1-1.2zm-1.4.7l-6-.3-6.4-.2a10 10 0 0 0-5 1.5c-1.9 1.2-3.6 2.9-5.5 4.1l3.6-.4c6.6-.7 13.2-1.9 19.3-4.7z"/><path fill="#a6ab65" d="M134.8 126.9l6 .3c-6.1 2.8-12.7 4-19.3 4.7l-3.6.4c1.9-1.2 3.6-2.9 5.5-4.1a10 10 0 0 1 5-1.5z"/><path fill="#231f20" d="M136.9 159.6l1.6-.5a33.1 33.1 0 0 0-2.7 2.6h-1.2l2.3-2.2zm-1.1 2.1l-.8.8h-.8a.8.8 0 0 1 .1-.4l.3-.3h1.2z"/><path fill="#353d16" d="M136.9 159.6l-2.3 2.2a26.9 26.9 0 0 1-4.9-.3 4.9 4.9 0 0 0-4 1.5l-.3-.4c.4-.2.1-.8-.4-.6l-1.6.8.3-.4a8.4 8.4 0 0 1 4.2-2.6h2l1.3.2a17.2 17.2 0 0 0 3.9.1z"/><path fill="#fdff99" d="M134.9 102.2a2.5 2.5 0 0 1-.9 2.9 3 3 0 0 1-3 .3 4 4 0 0 1-1.3-3.3 4.1 4.1 0 0 1 .1-1.1c0-.2 0-.4.2-.5h3.6a3.1 3.1 0 0 1 1.3 1.7z"/><path fill="#231f20" d="M135 162.5h-.2c-.2.3-.5.1-.6-.1z"/><path fill="#676b2c" d="M132 99.4v.2c0 .1 0 .1.1.1h-1.6c-.4.1-.8.1-1.1.5a2 2 0 0 0-.3 1.1v1.7a19.1 19.1 0 0 1-13.7.9c2.6-.5 5.2 0 7.8-.6a7.8 7.8 0 0 0 3.5-1.8 9.7 9.7 0 0 1 3.8-1.9z"/><path fill="#a6ab65" d="M131.6 143.8a3.7 3.7 0 0 1-.9 4.6 3.6 3.6 0 0 1-4.6.5 3.8 3.8 0 0 1-1.7-4.4 4.1 4.1 0 0 1 4.4-2.7h.2l1 .4c-.2.2.1.7.5.5h.1a3.6 3.6 0 0 1 1 1.1zm-4 14.1l.3 1.9a8.4 8.4 0 0 0-4.2 2.6l-.3.4-8.5 4.2-2.5 1.3a15.5 15.5 0 0 0-2.2 1.2l-.8.8a2 2 0 0 1-.8.8 5.7 5.7 0 0 1-2.6.2l-5.2-.3c1.5-1.8 4.1-2.3 6.1-3.5a10.4 10.4 0 0 0 3.1-2.8 20.8 20.8 0 0 1 3.2-2.7c4.3-2.7 9.4-3.3 14.4-4.1z"/><path fill="#353d16" d="M125.4 162.6l.3.4-.6.6c-1.5 1.6-2.9 3.3-4.5 4.7-3.4 3-7.5 6-11.8 7.5a7.8 7.8 0 0 1-3.4.5 26 26 0 0 1-4-1 13.8 13.8 0 0 0-5.7-.5 23.2 23.2 0 0 0-4.7 1.3h-.1a.4.4 0 0 0-.1-.7 9.6 9.6 0 0 0-2.4 0 24 24 0 0 1 7-2.3 17.8 17.8 0 0 1 4 0h.6l1.9.4 1.1.4a9 9 0 0 0 2.5.6 5.9 5.9 0 0 0 2.8-.4c3.4-1.2 7.1-3.6 11.1-7.1l2.7-2.8z"/><path fill="#231f20" d="M125 162c.5-.2.8.4.4.6l-3.3 1.6.7-.7.6-.7z"/><path fill="#a6ab65" d="M123.6 146.4a3.4 3.4 0 0 0 .5 1.4 45.6 45.6 0 0 0-8.1 2.8 35.1 35.1 0 0 1 7.6-4.2z"/><path fill="#676b2c" d="M119.5 165.5l2.6-1.3-2.7 2.8c-4 3.5-7.7 5.9-11.1 7.1a5.9 5.9 0 0 1-2.8.4 9 9 0 0 1-2.5-.6l-1.1-.4-1.9-.4v-1.4l5.3.3h2.7a2.5 2.5 0 0 0 1.7-1.1 7 7 0 0 1 2-1.5l2.5-1.3z"/><path fill="#b6b76e" d="M121.6 115.3a4.5 4.5 0 0 1-1.1 5 3.7 3.7 0 0 1-4.8.4 4.4 4.4 0 0 1-1.6-4.7 4.7 4.7 0 0 1 4.6-3.2c.2 0 .3-.1.3-.2a5.7 5.7 0 0 1 2.6 2.7z"/><path fill="#231f20" d="M104.7 136.3a.3.3 0 0 1 .3.5 6.9 6.9 0 0 1-3.8 3.1c-3.6 1.3-7.5 0-11.2.9a45.5 45.5 0 0 0-5.1 2.1 50.5 50.5 0 0 1-5.5 1.8c-.1.1-.2 0-.3 0l-.7.6c-.3.3-.9-.2-.5-.6 3.5-3 7.2-6.3 11.9-7.2a6.4 6.4 0 0 1-1.1-3 4.5 4.5 0 0 1 .6-3.6 5.7 5.7 0 0 1 1.5-1.2 7 7 0 0 1 1.7-.9 3.4 3.4 0 0 1 3.5.3c.2.1.2.2.2.4a5.8 5.8 0 0 1 2.8 4.8 8.3 8.3 0 0 1-.3 2.2 20 20 0 0 1 6-.2zm-.6.6a25.4 25.4 0 0 0-5.5.3h-.2a4.9 4.9 0 0 1-1.7 1.8v-.8a5.4 5.4 0 0 0 1.6-4.5c-.1 0-.1-.1-.1-.2a5.8 5.8 0 0 0-3.8-4.1c-.2 0-.2-.1-.3-.2a3.6 3.6 0 0 0-2 .6l-1.5.9a2.8 2.8 0 0 0-1.2 1.6 7.6 7.6 0 0 0-.1 1.5 5.7 5.7 0 0 0 2.2 4.4c3.3 2.3 4.7 2.6 5.1 1.6 2.8 0 5.8-.5 7.5-2.9zm-10.7 2.9a5.3 5.3 0 0 1-3.1-1.7c-3.9.7-7.2 3.1-10.2 5.7l5.1-1.8a27.5 27.5 0 0 1 5-2 16.7 16.7 0 0 1 3.2-.2z"/><path fill="#a6ab65" d="M98.6 137.2a25.4 25.4 0 0 1 5.5-.3c-1.7 2.4-4.7 2.9-7.5 2.9a1.9 1.9 0 0 0 .1-.8 4.9 4.9 0 0 0 1.7-1.8z"/><path fill="#231f20" d="M101.5 155.9a9.2 9.2 0 0 1-.1 3.3c-.5 1.8-1.9 3.6-4 3.5a5.6 5.6 0 0 1-4.6-2.6 3.7 3.7 0 0 1 1.6-4.5c1.5-1.1 3.5-1.1 5.3-1h.1a1.4 1.4 0 0 1 .9.1l.2.2a2.1 2.1 0 0 1 .6 1zm-.9 3.2a7.6 7.6 0 0 0 .2-2.6 1.7 1.7 0 0 0-.4-1.1c-1.8-.2-3.9-.4-5.5.7s-2.1 2.3-1.4 3.7a4.8 4.8 0 0 0 3.8 2.1 3.1 3.1 0 0 0 3.3-2.8z"/><path fill="#a6ab65" d="M100.8 156.5a7.6 7.6 0 0 1-.2 2.6 3.1 3.1 0 0 1-3.3 2.8 4.8 4.8 0 0 1-3.8-2.1c-.7-1.4.2-2.9 1.4-3.7s3.7-.9 5.5-.7a1.7 1.7 0 0 1 .4 1.1zm-2.5-22.8a5.4 5.4 0 0 1-1.6 4.5c-.2-1.6 1.7-2.9 1.6-4.5z"/><path fill="#a6ab65" d="M98.3 133.7c.1 1.6-1.8 2.9-1.6 4.5v.8l-.4.3a3.4 3.4 0 0 1-1.4.5h1.7c-.4 1-1.8.7-5.1-1.6a6.1 6.1 0 0 1-2.2-4.4 7.6 7.6 0 0 1 .1-1.5 2.8 2.8 0 0 1 1.2-1.6l1.5-.9a3.6 3.6 0 0 1 2-.6c.1.1.1.2.3.2a5.8 5.8 0 0 1 3.8 4.1c0 .1 0 .2.1.2z"/><path fill="#a6ab65" d="M96.3 139.3l.4-.3a1.9 1.9 0 0 1-.1.8h-1.7a3.4 3.4 0 0 0 1.4-.5z"/><path fill="#676b2c" d="M82.7 107.8h8.6a103.6 103.6 0 0 0-18.6 6.8c-6.2 2.7-12.5 5.5-17.8 9.7l-1.2.9-1.7 1.6-1.6-.7c.8-.7 1.7-1.3 2.4-2a9.4 9.4 0 0 0 1-1 4.8 4.8 0 0 0 1-3.6 3.6 3.6 0 0 0-2.3-2.6c0-.1-.1-.1-.3-.1H52l-1.2.2a22.8 22.8 0 0 0-7.6 2.6c2.6-1.6 5.2-3.2 7.9-4.7s6.2-3.6 9.5-5.1a15.2 15.2 0 0 1 5.1-1.6 35.7 35.7 0 0 1 5.6-.3z"/><path fill="#231f20" d="M90.8 175.3a.4.4 0 0 1 .1.7h-.1a28.1 28.1 0 0 0-4.1.1l1.7-.8a9.6 9.6 0 0 1 2.4 0z"/><path fill="#353d16" d="M90.9 176h.1a65.4 65.4 0 0 0-6.5 3.2 39 39 0 0 1-12.7 4.8l-2.7.3v-.5c.4 0 .4-.6-.1-.7l-4.3-.5a38.3 38.3 0 0 0 6.9-.4 39.2 39.2 0 0 0 12-4.5l.7-.3 2.4-1.3a28.1 28.1 0 0 1 4.1-.1z"/><path fill="#a6ab65" d="M90.3 138.1a5.3 5.3 0 0 0 3.1 1.7 16.7 16.7 0 0 0-3.2.2 27.5 27.5 0 0 0-5 2l-5.1 1.8c3-2.6 6.3-5 10.2-5.7z"/><path fill="#231f20" d="M89.3 133.8a6.1 6.1 0 0 0 2.2 4.4 5.7 5.7 0 0 1-2.2-4.4z"/><path fill="#a6ab65" d="M88.4 175.3l-1.7.8a44.4 44.4 0 0 0-6.1.8l-8.7 1.4a50.7 50.7 0 0 1-8.7.4 51.5 51.5 0 0 1-16.9-3.5c-.3-.2-.2-.7.1-.7h.1a52.9 52.9 0 0 0 9.4 2.7 55.8 55.8 0 0 0 17.3.2c5.1-.8 10.1-1.9 15.2-2.1z"/><path fill="#a6ab65" d="M86.7 176.1l-2.4 1.3-.7.3a39.2 39.2 0 0 1-12 4.5 38.3 38.3 0 0 1-6.9.4 70.6 70.6 0 0 1-19.1-5.4c-1.6-.7-3.3-1.5-4.9-2.4a36.6 36.6 0 0 0 5.7-.5v.2c-.3 0-.4.5-.1.7a51.5 51.5 0 0 0 16.9 3.5 50.7 50.7 0 0 0 8.7-.4l8.7-1.4a44.4 44.4 0 0 1 6.1-.8z"/><path fill="#231f20" d="M81.2 148.7a4.3 4.3 0 0 1 3.1 4.2 4 4 0 0 1-3.3 3.6 4.2 4.2 0 0 1-4.5-2.4c-.9-1.7-1.1-4 .5-5.3a3.6 3.6 0 0 1 4.2-.1zm.1 7a3.2 3.2 0 0 0 2.2-3.3 3.5 3.5 0 0 0-2.3-2.9h-.5q-.3-.2-.3-.3a2.7 2.7 0 0 0-3.3.7c-1.1 1.2-.5 3.3.4 4.5a3.2 3.2 0 0 0 3.8 1.3z"/><path fill="#a6ab65" d="M83.5 152.4a3.2 3.2 0 0 1-6 1.9c-.9-1.2-1.5-3.3-.4-4.5a2.7 2.7 0 0 1 3.3-.7q0 .2.3.3h.5a3.5 3.5 0 0 1 2.3 3z"/><path fill="#b6b76e" d="M82.5 114.8a4.5 4.5 0 0 1-.5 5.3 2.8 2.8 0 0 1-2.3.9 3.3 3.3 0 0 1-2.2-1.1c-1.3-1.3-2.3-2.9-1.7-4.7a3.5 3.5 0 0 1 4.7-2 .4.4 0 0 0 .5-.2 5.2 5.2 0 0 1 1.5 1.8z"/><path fill="#a6ab65" d="M75.6 114h-.1a4.8 4.8 0 0 0-.6 2.9 5.3 5.3 0 0 0 1.1 2.4 145 145 0 0 0-22.3 9.5l-4.8 2.6c3.4-5 8.5-8.6 13.8-11.5 2.9-1.6 5.9-2.9 9-4.3z"/><path fill="#231f20" d="M69 183.1c.5.1.5.7.1.7H69c-2.3-.2-4.6-.5-6.8-.9l-4.1-.8a54.2 54.2 0 0 0 6.6.5z"/><path fill="#353d16" d="M69.1 183.8v.5a55.4 55.4 0 0 1-11.5-.5 132.9 132.9 0 0 1-13.8-2.4c-4.2-1-8.5-2.2-11.9-4.9s-5.8-6.9-7.2-11.1a60.4 60.4 0 0 1-2.6-20.7h1.2c0 .1 0 .1.1.2a11.7 11.7 0 0 1 .5 1.1 57.3 57.3 0 0 0 2.5 18.8c1.5 4.6 3.7 8.1 6.6 10.3s7.5 3.7 11.2 4.5 9.6 1.9 13.7 2.5h.2l4.1.8c2.2.4 4.5.7 6.8.9z"/><path fill="#231f20" d="M63.9 168.9c.5-.1.6.5.2.7a56.2 56.2 0 0 1-5.3 1.9 58.6 58.6 0 0 1-12.4 2.8 36.6 36.6 0 0 1-5.7.5c1.6.9 3.3 1.7 4.9 2.4a70.6 70.6 0 0 0 19.1 5.4 54.2 54.2 0 0 1-6.6-.5 80.9 80.9 0 0 1-19-7.2.4.4 0 0 1 .2-.7l5.6-.4a73.7 73.7 0 0 0 15.3-3.5 50.1 50.1 0 0 1-7.7.3 44 44 0 0 1-10.2-2.1c-2.3-.8-6.1-2.3-5-5.5a7.2 7.2 0 0 1 2.8-3.2c1.4-1 2.9-1.9 4.4-2.8a61.3 61.3 0 0 1 7.3-3.5 40.6 40.6 0 0 0-6.9.8c-2.5.5-4.9 1.4-7.3 1.9a8.2 8.2 0 0 1-6.5-.8c-2.4-1.7-3.2-4.6-3.5-7.5a7.5 7.5 0 0 1-1.7 3c-.1.2-.5.1-.6-.2a15.9 15.9 0 0 0-1.4-4.7v-1.6h.1a21 21 0 0 1 1.9 5.3 9.2 9.2 0 0 0 1.6-4.8c0-.2.2-.4.4-.3s0 .1-.1.2a.5.5 0 0 0 .4.6 19.5 19.5 0 0 0 .9 5.8 6.6 6.6 0 0 0 3.3 4c2.2 1 4.6.4 6.8-.2l3.4-1a25.7 25.7 0 0 1 3.8-.8c2.5-.4 5.1-.5 7.7-.7.4 0 .4.6 0 .7a65.5 65.5 0 0 0-10 4.8l-4 2.5c-1 .8-2.2 2-2.2 3.4s1.2 2.3 2.3 2.9a32.9 32.9 0 0 0 4.4 1.6 39.4 39.4 0 0 0 19.3.5z"/><path fill="#353d16" d="M58.1 182.1h-.2c-4.1-.6-8.6-1.4-13.7-2.5s-7.9-2-11.2-4.5-5.1-5.7-6.6-10.3a57.3 57.3 0 0 1-2.5-18.8 15.9 15.9 0 0 1 1.4 4.7c.1.3.5.4.6.2a7.5 7.5 0 0 0 1.7-3c.3 2.9 1.1 5.8 3.5 7.5a8.2 8.2 0 0 0 6.5.8c2.4-.5 4.8-1.4 7.3-1.9a40.6 40.6 0 0 1 6.9-.8 61.3 61.3 0 0 0-7.3 3.5c-1.5.9-3 1.8-4.4 2.8a7.2 7.2 0 0 0-2.8 3.2c-1.1 3.2 2.7 4.7 5 5.5a44 44 0 0 0 10.2 2.1 50.1 50.1 0 0 0 7.7-.3 73.7 73.7 0 0 1-15.3 3.5l-5.6.4a.4.4 0 0 0-.2.7 80.9 80.9 0 0 0 19 7.2zm-23.3-10.8a15.8 15.8 0 0 0-4.9-15.2 24.5 24.5 0 0 0-3.8-2.4c-.4-.2-.7.5-.3.7h.3a13.2 13.2 0 0 0 2.3 8.6l5.7 8.2a.4.4 0 0 0 .7.1z"/><path fill="#fdff99" d="M54 119.3a4.2 4.2 0 0 1-.8 3.4 12.2 12.2 0 0 1-2.7 2.3 28.3 28.3 0 0 0-2.8 2.3c-3.7 3.7-5.2 8.8-8.4 12.9-1.5 1.9-4 3.7-6.5 2.5a3.4 3.4 0 0 1-1.9-3.1l.2-.5c.1-.2-.1-.4-.3-.5a16.4 16.4 0 0 1 .4-2.5 25.5 25.5 0 0 1 6.9-12 24.5 24.5 0 0 1 12.4-6.3h.4l1.1-.2a2.8 2.8 0 0 1 2 1.7z"/><path fill="#231f20" d="M29.9 156.1a15.8 15.8 0 0 1 4.9 15.2.4.4 0 0 1-.7.1l-5.7-8.2a13.2 13.2 0 0 1-2.3-8.6h-.3c-.4-.2-.1-.9.3-.7a24.5 24.5 0 0 1 3.8 2.2zm4.4 14.2a17 17 0 0 0 .1-3.9 15.2 15.2 0 0 0-7.6-11.5 11.8 11.8 0 0 0 .4 4.2 15 15 0 0 0 2 4z"/><path fill="#676b2c" d="M34.4 166.4a17 17 0 0 1-.1 3.9l-5.1-7.2a15 15 0 0 1-2-4 11.8 11.8 0 0 1-.4-4.2 15.2 15.2 0 0 1 7.6 11.5z"/><path fill="#231f20" d="M30.8 138.6c.2.1.4.3.3.5l-.2.5a3.1 3.1 0 0 1-.1-1z"/><path fill="#231f20" d="M30.9 139.6l-.6 1.3a6.9 6.9 0 0 1-.2-1.3 2 2 0 0 1 .4-.8c0-.2.2-.2.3-.2a3.1 3.1 0 0 0 .1 1z"/><path fill="#676b2c" d="M30.3 140.9l-1.8 4.4-.3.2v-.5a.3.3 0 0 0-.3-.3c.8-1.7 1.5-3.4 2.2-5.1a6.9 6.9 0 0 0 .2 1.3z"/><path fill="#231f20" d="M28.2 145v.5a.5.5 0 0 1-.4-.6c.1-.1.1-.1.1-.2a.3.3 0 0 1 .3.3zm-4.3-.6v1.6a11.7 11.7 0 0 0-.5-1.1c-.1-.1-.1-.1-.1-.2s.4-.5.6-.3z"/><path fill="none" stroke="#a6ab65" stroke-miterlimit="10" stroke-width=".72" d="M98.3 133.7a5.4 5.4 0 0 1-1.6 4.5m-5.2 0a6.1 6.1 0 0 1-2.2-4.4m79.1 2.4a11 11 0 0 1 .3-3.6 3.8 3.8 0 0 1 1.4-2.6 4.2 4.2 0 0 1 3.8-.3h.2l.6.2.7.3c.2.1.3.2.3.4a4.5 4.5 0 0 1 1.6 4 4.7 4.7 0 0 1-3.4 3.8 6.6 6.6 0 0 1-3.4-.2 4.6 4.6 0 0 1-1.6-.7c-.4-.3-.4-.8-.5-1.3z"/><path fill="none" stroke="#a6ab65" stroke-miterlimit="10" stroke-width=".72" d="M170.1 137.3l1.4.4a4.2 4.2 0 0 0 2.7-.2 3.9 3.9 0 0 0 2.4-3.6 4 4 0 0 0-2.1-3.3c-1.4-.5-3-.8-4.1.1a3.4 3.4 0 0 0-1.1 2.5 8.1 8.1 0 0 0-.1 3.1c0 .2 0 .6.3.7s.4.2.6.3zm-4.5-18.1a2.5 2.5 0 0 1-1.2 1.8 7 7 0 0 1-2.5.5 3.9 3.9 0 0 1-2.1-.3 2.4 2.4 0 0 1-1.3-1.8 7.7 7.7 0 0 1 .1-2.6 2.6 2.6 0 0 1 1.2-1.9 2.5 2.5 0 0 1 2.6.1c.1-.1.2-.2.4-.1s3.1 2.3 2.8 4.3z"/><path fill="none" stroke="#a6ab65" stroke-miterlimit="10" stroke-width=".72" d="M163.9 116.5c-.1.2-.4.4-.6.1s-2.5-2-3.6-.7a2.6 2.6 0 0 0-.5 1.8 3.8 3.8 0 0 0 .2 2.1c.5 1.1 2 1.1 3 .9a2.8 2.8 0 0 0 2-.6 1.8 1.8 0 0 0 .5-1.6 2.6 2.6 0 0 0-1-2z"/><path fill="none" stroke="#676b2c" stroke-miterlimit="10" stroke-width=".72" d="M231.9 113.5c.2.3-.1.8-.5.5-2.3-1.7-5.2-2.2-8-2.7l-9.2-1.6a195.7 195.7 0 0 0-67.1 2.2.5.5 0 0 1-.5-.4.3.3 0 0 1 .3-.3q9.3-2 18.9-3a182.7 182.7 0 0 1 33.9-.7c5.6.3 11.2 1 16.8 1.8l8.3 1.5a16.9 16.9 0 0 1 7 2.6z"/><path fill="none" stroke="#a6ab65" stroke-miterlimit="10" stroke-width=".72" d="M140.8 127.2l-6-.3-6.4-.2a10 10 0 0 0-5 1.5c-1.9 1.2-3.6 2.9-5.5 4.1l3.6-.4c6.6-.7 13.2-1.9 19.3-4.7z"/><path fill="none" stroke="#a6ab65" stroke-miterlimit="10" stroke-width=".72" d="M142.4 127.2a38.8 38.8 0 0 1-5.6 2.3c-6.6 2.3-13.6 3-20.5 3.7l-.6.3c-.3.1-.5-.1-.5-.4a.3.3 0 0 1 .3-.5h.7a24.8 24.8 0 0 0 3.9-2.7 20.2 20.2 0 0 1 3.8-2.7 10 10 0 0 1 5.1-1.2l13.2.5a.4.4 0 0 1 .2.7z"/><path fill="none" stroke="#676b2c" stroke-miterlimit="10" stroke-width=".72" d="M132.7 99.4a3.8 3.8 0 0 1 1.8.9h1.2c.2 0 .3.1.4.3l4.7 2.3a17.6 17.6 0 0 0 9 1.8 24.5 24.5 0 0 0 7-1.6 48.3 48.3 0 0 1-8.5-.1 75.1 75.1 0 0 1-9.3-2.5 17.1 17.1 0 0 0-6.3-1.1zm2.2 2.8a3.1 3.1 0 0 0-1.3-1.7H130c-.2.1-.2.3-.2.5a4.1 4.1 0 0 0-.1 1.1 4 4 0 0 0 1.3 3.3 3 3 0 0 0 3-.3 2.5 2.5 0 0 0 .9-2.9z"/><path fill="none" stroke="#676b2c" stroke-miterlimit="10" stroke-width=".72" d="M123.1 103.3c-2.6.6-5.2.1-7.8.6a19.1 19.1 0 0 0 13.7-.9v-1.7a2 2 0 0 1 .3-1.1c.3-.4.7-.4 1.1-.5h1.6c-.1 0-.1 0-.1-.1v-.2l-1.6.2a9.7 9.7 0 0 0-3.8 1.9 7.8 7.8 0 0 1-3.4 1.8z"/><path fill="none" stroke="#676b2c" stroke-miterlimit="10" stroke-width=".72" d="M135.7 102.5a3.2 3.2 0 0 1-1.7 3.5 3.3 3.3 0 0 1-3.7-.3 3.7 3.7 0 0 1-1.1-1.9 20.1 20.1 0 0 1-15.4.3c-.5-.1-.3-.8.1-.7l.5.2.3-.3c3-.8 6.2.1 9.2-.9 1.4-.5 2.4-1.7 3.7-2.4a9.6 9.6 0 0 1 3.7-1.3 21 21 0 0 1 8.6 1.3c1.6.5 3.1 1.1 4.7 1.5a26.7 26.7 0 0 0 4.8.8 65.4 65.4 0 0 0 9.9 0 .4.4 0 0 1 .1.7 56 56 0 0 1-5.4 1.7 18.4 18.4 0 0 1-9.6.3 39.6 39.6 0 0 1-8.7-3.8v-.2h-.5a4.7 4.7 0 0 1 .5 1.5zm11.4 38.4a2.3 2.3 0 0 0-.3 2.7 2 2 0 0 0 2.4.9 2 2 0 0 0 1-3.5 1.7 1.7 0 0 0-1.3-.7c-.1-.1-.2-.1-.4 0h-.6z"/><path fill="none" stroke="#676b2c" stroke-miterlimit="10" stroke-width=".72" d="M133 144.7c4.1-1.4 8.3-2.7 12.5-3.8-.1-.2-.1-.4.1-.5l2.1-.7.8-.2 1.8-.2a29.8 29.8 0 0 0 5.1-.7c3-.7 5.9-1.6 8.9-2.4h-6a71.9 71.9 0 0 0-27 6.2 5.7 5.7 0 0 1 1.2 1.8 2.9 2.9 0 0 1 .2.9zm-8.6-.2a3.8 3.8 0 0 0 1.7 4.4 3.6 3.6 0 0 0 4.6-.5 3.7 3.7 0 0 0 .9-4.6 3.6 3.6 0 0 0-1-1.1h-.1c-.4.2-.7-.3-.5-.5l-1-.4h-.2a4.1 4.1 0 0 0-4.4 2.7zm-.8 1.9a35.1 35.1 0 0 0-7.6 4.2 45.6 45.6 0 0 1 8.1-2.8 3.4 3.4 0 0 1-.5-1.4z"/><path fill="none" stroke="#676b2c" stroke-miterlimit="10" stroke-width=".72" d="M124.4 148.5a52.7 52.7 0 0 0-10.3 3.7l-.5.6c-.3.3-.8-.2-.5-.5l.2-.3.2-.3h.2a21.9 21.9 0 0 1 4.6-3.4l5.2-2.5a4.1 4.1 0 0 1 .5-2.1 4.9 4.9 0 0 1 2.9-2.4c0-.1.1-.2.3-.2a4.4 4.4 0 0 1 3.5.8l6.9-2.7a72.3 72.3 0 0 1 28.8-3.5.4.4 0 0 1 .1.7c-3.6 1-7.1 2.1-10.7 3a29.8 29.8 0 0 1-5.1.7h-.2c.1 0 .1.1.1.2a3.1 3.1 0 0 1 1 2.5 3 3 0 0 1-2.6 2.5 3 3 0 0 1-2.9-4.3h-.2c0 .2 0 .4-.3.5-4.2 1.1-8.3 2.4-12.4 3.8-.3.1-.4-.1-.5-.3a4.8 4.8 0 0 1-2 4.3 4.4 4.4 0 0 1-5.6-.4 3.4 3.4 0 0 1-.6-.6z"/><path fill="none" stroke="#a6ab65" stroke-miterlimit="10" stroke-width=".72" d="M100.1 171.7h-.5a.4.4 0 1 1 0-.7h.4c1.7-2.3 4.7-2.6 7-4.2s2.1-2.1 3.2-3.1a18.5 18.5 0 0 1 3.2-2.5 32.4 32.4 0 0 1 7.9-2.8c5.8-1.2 12-1.4 17.2-4.3a.3.3 0 0 1 .3-.3 47.6 47.6 0 0 0 9.9-4.8 69.6 69.6 0 0 1 8.6-4.4 45.1 45.1 0 0 1 10.4-2.5A207.7 207.7 0 0 1 190 140a.3.3 0 0 1 .2.6 18.3 18.3 0 0 1-11.5 5c-4.3.3-8.7-.6-12.9.6-1 .2-1.9.6-2.9.9a21.3 21.3 0 0 0-4.2 1l2.1-.8a27.8 27.8 0 0 1 5.7-2.1c4.3-.8 8.6.1 12.9-.4a17.9 17.9 0 0 0 9.6-4c-3.9.1-7.7.4-11.6.8s-7.4.8-11.1 1.4a40.9 40.9 0 0 0-10.2 2.9c-3.1 1.4-6 3.2-9 4.9l-.9.5a44.3 44.3 0 0 1-6.7 3 .2.2 0 0 1-.2.2 29.4 29.4 0 0 1-9.6 3.2l-1.7.3h-.4c-5 .8-10.1 1.4-14.4 4.1a20.8 20.8 0 0 0-3.2 2.7 10.4 10.4 0 0 1-3.1 2.8c-2 1.2-4.6 1.7-6.1 3.5l5.2.3a5.7 5.7 0 0 0 2.6-.2 2 2 0 0 0 .8-.8l.8-.8a15.5 15.5 0 0 1 2.2-1.2l2.5-1.3 8.5-4.2-.6.7-.7.7-2.6 1.3-5.2 2.6-2.5 1.3a7 7 0 0 0-2 1.5 2.5 2.5 0 0 1-1.7 1.1h-2.7zm-5.2-15.6c-1.2.8-2.1 2.3-1.4 3.7a4.8 4.8 0 0 0 3.8 2.1 3.1 3.1 0 0 0 3.3-2.8 7.6 7.6 0 0 0 .2-2.6 1.7 1.7 0 0 0-.4-1.1c-1.8-.2-3.9-.4-5.5.7z"/><path fill="none" stroke="#a6ab65" stroke-miterlimit="10" stroke-width=".72" d="M99.7 154.6h.1a1.4 1.4 0 0 1 .9.1l.2.2a2.1 2.1 0 0 1 .6 1 9.2 9.2 0 0 1-.1 3.3c-.5 1.8-1.9 3.6-4 3.5a5.6 5.6 0 0 1-4.6-2.6 3.7 3.7 0 0 1 1.6-4.5c1.5-1.1 3.5-1.1 5.3-1zm-3-15.6l-.4.3a3.4 3.4 0 0 1-1.4.5h1.7c2.8 0 5.8-.5 7.5-2.9a25.4 25.4 0 0 0-5.5.3h-.2a4.9 4.9 0 0 1-1.7 1.8z"/><path fill="none" stroke="#a6ab65" stroke-miterlimit="10" stroke-width=".72" d="M98.3 133.7c-.1 0-.1-.1-.1-.2a5.8 5.8 0 0 0-3.8-4.1c-.2 0-.2-.1-.3-.2a3.6 3.6 0 0 0-2 .6l-1.5.9a2.8 2.8 0 0 0-1.2 1.6 7.6 7.6 0 0 0-.1 1.5 5.7 5.7 0 0 0 2.2 4.4c3.3 2.3 4.7 2.6 5.1 1.6a1.9 1.9 0 0 0 .1-.8v-.8c-.2-1.6 1.7-2.9 1.6-4.5zm-4.9 6.1a5.3 5.3 0 0 1-3.1-1.7c-3.9.7-7.2 3.1-10.2 5.7l5.1-1.8a27.5 27.5 0 0 1 5-2 16.7 16.7 0 0 1 3.2-.2z"/><path fill="none" stroke="#a6ab65" stroke-miterlimit="10" stroke-width=".72" d="M79.1 144.7l-.7.6c-.3.3-.9-.2-.5-.6 3.5-3 7.2-6.3 11.9-7.2a6.4 6.4 0 0 1-1.1-3 4.5 4.5 0 0 1 .6-3.6 5.7 5.7 0 0 1 1.5-1.2 7 7 0 0 1 1.7-.9 3.4 3.4 0 0 1 3.5.3c.2.1.2.2.2.4a5.8 5.8 0 0 1 2.8 4.8 8.3 8.3 0 0 1-.3 2.2 20 20 0 0 1 6-.2.3.3 0 0 1 .3.5 6.9 6.9 0 0 1-3.8 3.1c-3.6 1.3-7.5 0-11.2.9a45.5 45.5 0 0 0-5.1 2.1 50.5 50.5 0 0 1-5.5 1.8c-.1.1-.2 0-.3 0zm-1.6 9.6a3.2 3.2 0 0 0 6-1.9 3.5 3.5 0 0 0-2.3-2.9h-.5q-.3-.2-.3-.3a2.7 2.7 0 0 0-3.3.7c-1.1 1.1-.5 3.2.4 4.4z"/><path fill="none" stroke="#a6ab65" stroke-miterlimit="10" stroke-width=".72" d="M84.3 152.9a4 4 0 0 1-3.3 3.6 4.2 4.2 0 0 1-4.5-2.4c-.9-1.7-1.1-4 .5-5.3a3.6 3.6 0 0 1 4.2-.1 4.3 4.3 0 0 1 3.1 4.2zm61.3-41.1a5.5 5.5 0 0 0-2.2-.6 6 6 0 0 0-2.3.1c-1.3.5-.7 2.4-.2 3.3a4.4 4.4 0 0 0 1.2 1.5 3.3 3.3 0 0 0 1.9.6 3.3 3.3 0 0 0 2.2-3.1 2 2 0 0 0-.6-1.8zm-31.5 4.2a4.4 4.4 0 0 0 1.6 4.7 3.7 3.7 0 0 0 4.8-.4 4.5 4.5 0 0 0 1.1-5 5.7 5.7 0 0 0-2.6-2.7c0 .1-.1.2-.3.2a4.7 4.7 0 0 0-4.6 3.2zm-38.3-.8c-.6 1.8.4 3.4 1.7 4.7a3.3 3.3 0 0 0 2.2 1.1 2.8 2.8 0 0 0 2.3-.9 4.5 4.5 0 0 0 .5-5.3A5.2 5.2 0 0 0 81 113a.4.4 0 0 1-.5.2 3.5 3.5 0 0 0-4.7 2z"/><path fill="none" stroke="#a6ab65" stroke-miterlimit="10" stroke-width=".72" d="M48.9 131.5l4.8-2.6a145 145 0 0 1 22.3-9.5 5.3 5.3 0 0 1-1.1-2.4 4.8 4.8 0 0 1 .6-2.9h.1l-3.9 1.7c-3.1 1.4-6.1 2.7-9 4.3-5.3 2.8-10.4 6.4-13.8 11.4z"/><path fill="none" stroke="#a6ab65" stroke-miterlimit="10" stroke-width=".72" d="M50.4 126.1A15.5 15.5 0 0 0 48 128a33.6 33.6 0 0 0-4.7 7.1c-1.3 2.4-2.6 5.1-4.7 6.9s-4.9 2.6-7 .8a4.6 4.6 0 0 1-1.3-1.9l.6-1.3a3.4 3.4 0 0 0 1.9 3.1c2.5 1.2 5-.6 6.5-2.5 3.2-4.1 4.7-9.2 8.4-12.9a28.3 28.3 0 0 1 2.8-2.3 12.2 12.2 0 0 0 2.7-2.3 4.2 4.2 0 0 0 .8-3.4 2.8 2.8 0 0 0-2-1.8l-1.1.2h-.4a24.5 24.5 0 0 0-12.4 6.3 25.5 25.5 0 0 0-6.9 12 16.4 16.4 0 0 0-.4 2.5c-.1 0-.3 0-.3.2a2 2 0 0 0-.4.8 14 14 0 0 1 .5-4.1 25 25 0 0 1 7.9-12.7 19.4 19.4 0 0 1 2.9-2.1.4.4 0 0 1-.2-.7c3.5-2.2 7.1-4.4 10.8-6.5l4.9-2.7c1.6-.8 3.1-1.6 4.8-2.3 3.4-1.3 7-1.3 10.7-1.3l23.2-.2c.4 0 .4.7 0 .7a58.1 58.1 0 0 0-13 3.5l-2.2.8a4.9 4.9 0 0 1 3.1 3.3c.1.2.1.4.2.6a18 18 0 0 1 6.1-1.3 15.7 15.7 0 0 0 3-.5 16 16 0 0 0 3.1-1l3-.9 3.2-.4h13.4a.4.4 0 0 1 .2-.5 4.4 4.4 0 0 1 2.3.2h.1a6.3 6.3 0 0 1 4.1 3.5q8.8-1.4 17.4-3.3h.2a2.3 2.3 0 0 1 1.1-1.1 5.7 5.7 0 0 1 2.6-.1h.4a.5.5 0 0 1 .4-.2 2.6 2.6 0 0 1 1.8.9h.2l.2.3h-.1a3.1 3.1 0 0 1 .5 2.5c-.2 1.5-1.5 3.3-3.1 3.3a4.6 4.6 0 0 1-3.7-2.7 5.9 5.9 0 0 1-.5-2.2c-5.7 1.3-11.4 2.3-17.1 3.2a.4.4 0 0 0 .1.3 5.5 5.5 0 0 1-2.3 5.4 4.4 4.4 0 0 1-5.6-.6 5 5 0 0 1-1-5.7 5.6 5.6 0 0 1 4.1-3h-.9a2.2 2.2 0 0 0-.8 0 .3.3 0 0 1-.3.5h-7.6c-2.2 0-4.4 0-6.6.2a12.6 12.6 0 0 0-3.3.5l-3 1a22.3 22.3 0 0 1-5.7 1.2 16.3 16.3 0 0 0-5.8 1.3 4.8 4.8 0 0 1-1.9 4.5 3.4 3.4 0 0 1-2.9.5 5.1 5.1 0 0 1-2.4-1.6c-2.2.7-4.4 1.4-6.6 2.3a139.1 139.1 0 0 0-22 10.6.4.4 0 0 1-.5-.5 27 27 0 0 1 4.5-5.6l1.7-1.7 1.2-.9c5.3-4.2 11.6-7 17.8-9.7a103.6 103.6 0 0 1 18.6-6.8h-20a35.7 35.7 0 0 0-5.6.3 15.2 15.2 0 0 0-5.1 1.6c-3.3 1.5-6.4 3.3-9.5 5.1s-5.3 3.1-7.9 4.7a22.8 22.8 0 0 1 7.6-2.6l1.2-.2h.2c.2 0 .3 0 .3.1a3.6 3.6 0 0 1 2.3 2.6 4.8 4.8 0 0 1-1 3.6 9.4 9.4 0 0 1-1 1c-.7.9-1.6 1.5-2.4 2.2z"/><path fill="none" stroke="#676b2c" stroke-miterlimit="10" stroke-width=".72" d="M34.4 166.4a15.2 15.2 0 0 0-7.6-11.5 11.8 11.8 0 0 0 .4 4.2 15 15 0 0 0 2 4l5.1 7.2a17 17 0 0 0 .1-3.9z"/><path fill="none" stroke="#676b2c" stroke-miterlimit="10" stroke-width=".72" d="M26.1 153.7a24.5 24.5 0 0 1 3.8 2.4 15.8 15.8 0 0 1 4.9 15.2.4.4 0 0 1-.7.1l-5.7-8.2a13.2 13.2 0 0 1-2.3-8.6h-.3c-.4-.4-.1-1.1.3-.9z"/><path fill="none" stroke="#353d16" stroke-miterlimit="10" stroke-width=".72" d="M23.9 144.4h.1a21 21 0 0 1 1.9 5.3 9.2 9.2 0 0 0 1.6-4.8c0-.2.2-.4.4-.3s0 .1-.1.2a.5.5 0 0 0 .4.6 19.5 19.5 0 0 0 .9 5.8 6.6 6.6 0 0 0 3.3 4c2.2 1 4.6.4 6.8-.2l3.4-1a25.7 25.7 0 0 1 3.8-.8c2.5-.4 5.1-.5 7.7-.7.4 0 .4.6 0 .7a65.5 65.5 0 0 0-10 4.8l-4 2.5c-1 .8-2.2 2-2.2 3.4s1.2 2.3 2.3 2.9a32.9 32.9 0 0 0 4.4 1.6 39.4 39.4 0 0 0 19.3.4c.5-.1.6.5.2.7a56.2 56.2 0 0 1-5.3 1.9 58.6 58.6 0 0 1-12.4 2.8 36.6 36.6 0 0 1-5.7.5c1.6.9 3.3 1.7 4.9 2.4a70.6 70.6 0 0 0 19.1 5.4 54.2 54.2 0 0 1-6.6-.5 80.9 80.9 0 0 1-19-7.2.4.4 0 0 1 .2-.7l5.6-.4a73.7 73.7 0 0 0 15.3-3.5 50.1 50.1 0 0 1-7.7.3 44 44 0 0 1-10.2-2.1c-2.3-.8-6.1-2.3-5-5.5a7.2 7.2 0 0 1 2.8-3.2c1.4-1 2.9-1.9 4.4-2.8a61.3 61.3 0 0 1 7.3-3.5 40.6 40.6 0 0 0-6.9.8c-2.5.5-4.9 1.4-7.3 1.9a8.2 8.2 0 0 1-6.5-.8c-2.4-1.7-3.2-4.6-3.5-7.5a7.5 7.5 0 0 1-1.7 3c-.1.2-.5.1-.6-.2a15.9 15.9 0 0 0-1.4-4.7"/><path fill="#353d16" d="M128.7 172.8c.1-.7 1.1-7.1 2.9-19.1q5.6-37.8 5.6-68.5c0-6.7-.6-11.5-1.8-14.3 9.2 2.3 14.9 6.1 17.2 11.3a42.3 42.3 0 0 1 20.9-5.6c7.4 0 13.4 2.1 18.1 6.3a19.6 19.6 0 0 1 7 15.1c0 6-2.2 11.5-6.4 16.6s-10.2 8.9-17.6 11.3a35.8 35.8 0 0 1 16.5 8.7 21.4 21.4 0 0 1 7.5 16.6c0 10.1-3.8 17.9-11.3 23.3s-16.9 8.2-28.3 8.2a48.9 48.9 0 0 1-30.3-9.9zm48.2-81.5q-3.6-3.9-10.2-3.9a30.2 30.2 0 0 0-12.5 2.7c0 5.2-1.2 18.4-3.4 39.4s-3.4 34.6-3.4 40.5a29.2 29.2 0 0 0 10.9 2.3 20.1 20.1 0 0 0 15-6.1 20.7 20.7 0 0 0 5.9-15.1 20.4 20.4 0 0 0-6.2-15.2c-4.1-4.1-9.8-6.3-17.2-6.6l-.4-4.7c7.9-1.1 14.1-4 18.5-8.6s6.6-9.7 6.6-15a13.9 13.9 0 0 0-3.6-9.7zM53.8 172.8c.1-.7 1-7.1 2.8-19.1q5.7-37.8 5.7-68.5c0-6.7-.6-11.5-1.8-14.3 9.1 2.3 14.9 6.1 17.2 11.3a42.3 42.3 0 0 1 20.9-5.6c7.4 0 13.4 2.1 18.1 6.3a19.6 19.6 0 0 1 7 15.1c0 6-2.2 11.5-6.5 16.6s-10.1 8.9-17.6 11.3a35.8 35.8 0 0 1 16.5 8.7 21.2 21.2 0 0 1 7.6 16.6c0 10.1-3.8 17.9-11.3 23.3s-16.9 8.2-28.4 8.2a48.7 48.7 0 0 1-30.2-9.9zM102 91.3q-3.6-3.9-10.2-3.9a30.7 30.7 0 0 0-12.6 2.7c0 5.2-1.1 18.4-3.4 39.4s-3.4 34.6-3.4 40.5a29.6 29.6 0 0 0 10.9 2.3 20.1 20.1 0 0 0 15.1-6.1 20.7 20.7 0 0 0 5.9-15.1 20.4 20.4 0 0 0-6.2-15.2c-4.1-4.1-9.8-6.3-17.2-6.6l-.4-4.7c7.9-1.1 14-4 18.4-8.6s6.6-9.7 6.6-15a13.8 13.8 0 0 0-3.5-9.7z"/></svg>