<svg height="16" viewBox="0 0 16 16" width="16" xmlns="http://www.w3.org/2000/svg"><path d="m15.7 8a7.7 7.7 0 1 1 -7.7-7.7 7.7 7.7 0 0 1 7.7 7.7z" fill="#2ba9e0"/><g fill="#353d16"><path d="m13.6 6.9v.6a1.7 1.7 0 0 1 -.6 1.2 2.5 2.5 0 0 1 -1.5.3h-2.5l-.7.4-.6.3h.1l1-.7h.1c.6-.2 1.1.1 1.7-.1h1.6a1 1 0 0 0 .7-.2 1.2 1.2 0 0 0 .5-.5 3.2 3.2 0 0 0 .2-1.4z"/><path d="m13.6 6.8-.5-.7c0 .1.1.1.1.2z"/><path d="m13.6 6.8a3.2 3.2 0 0 1 -.2 1.4 1.2 1.2 0 0 1 -.5.5 1 1 0 0 1 -.7.2h-1.6c-.6.2-1.1-.1-1.7.1h3.3a.8.8 0 0 0 .7-.2l.4-.4a5.9 5.9 0 0 0 .2-1.3h-.1a2.5 2.5 0 0 0 -.4-.7 4 4 0 0 0 -2.9-.8h-1.9a.1.1 0 0 0 -.1-.1h-.7a1.1 1.1 0 0 1 -.8.1h-.7l-.3.2h-.1a.6.6 0 0 1 -.7.1h-.1l-.3-.2h-.2c0 .1-.1.2-.2.3h-.5l-.9.2h-.2l-.6.2a1.2 1.2 0 0 0 -.5.5h-.1c-.1.2-.1.3-.2.3h-.3a.6.6 0 0 0 -.1.4c0 .2-.1.3-.1.5v.5h-.1v-.3a.9.9 0 0 1 .1-.5.6.6 0 0 1 .1-.4l.3-.3.3-.2a1.5 1.5 0 0 1 .5-.6l.9-.2.9-.2h.4a.2.2 0 0 0 .2-.2c.2-.3.5-.1.8 0s.3 0 .5-.1a.9.9 0 0 1 .5-.3h.7a1.1 1.1 0 0 0 .8-.1h2.7a4.4 4.4 0 0 1 3 .8z"/></g><path d="m13.5 6.9a5.9 5.9 0 0 1 -.2 1.3l-.4.4a.8.8 0 0 1 -.7.2h-2.1a.8.8 0 0 0 .7-.3h-1.4l-.6.2-.5.3-.7.2a1.8 1.8 0 0 1 -1 .2l-.5.2-.2.2-.2.2-.5.2h-2.5l.3-.2h-1.5c0-.1 0-.2.1-.2l.3-.2.6-.3h-1.5l-.2-.1v-.4a.3.3 0 0 1 .1-.2h.1c.1.1.3 0 .4-.1l.3-.4.3-.3c0-.1.1-.1.1-.2h.1l-.2.4 1.4-.7h.4a.1.1 0 0 1 .1.1c.1 0 .2 0 .2-.1s.1-.1.1-.2h2.1l-.2-.1c-.1.1 0 .2 0 .3a.3.3 0 0 0 .4 0 .2.2 0 0 0 .1-.3l1.1-.2.3.2.2-.2c0-.1 0-.1-.1-.2h.1a6.6 6.6 0 0 1 2.1-.3h2.6l.5.2h.1zm-3.5 1.3c.1-.1 0-.2-.1-.3h-.1c0-.1-.1-.1-.2 0h-.1v.3h.3a.2.2 0 0 0 .2 0zm-.6.1-1.8.2-.5.2h-.4v.2h-.3l-.3.2.7-.1h.3l.2-.3.8-.2c0 .1.1.1.2.1s.1 0 .1-.1h.3zm-.1-1.1c0-.1-.1-.2-.2-.3h-.1v.2c0 .1 0 .1.1.1zm-1.4.5h-1.2c-.1 0-.1.1-.2.2h-.2l1.2-.2zm-2.4.6h-.3v-.2l-.2-.3h-.2c-.1 0-.1 0-.1.1h-.1a.4.4 0 0 0 -.1.3h.1a1.8 1.8 0 0 0 -.7.5h1.4zm-.2 1.4v-.2h-.4c-.1 0-.2.1-.1.3h.3a.2.2 0 0 0 .2-.1zm-1-.4c0-.1-.1-.2-.2-.3h-.3c-.1 0-.1.2 0 .3s.1.2.3.1z" fill="#676b2c"/><path d="m13.4 6.9-.4-.2h-3.7l-1.1.2h-.5l-1.1.2c0-.1-.1-.1-.2-.2h-2.2l-.2-.1h.1l.9-.3h-2.1l-.3.2-.4.2-.6.4h-.2a2.2 2.2 0 0 0 -.5.8v.3a.4.4 0 0 0 -.1.3h-.1a.4.4 0 0 1 -.1.3.4.4 0 0 0 -.1-.3v-.4c0-.2.1-.3.1-.5a.6.6 0 0 1 .1-.4h.3c.1 0 .1-.1.2-.3h.1a1.2 1.2 0 0 1 .5-.5l.6-.2h.2l.9-.4h.5c.1-.1.2-.2.2-.3h.2l.3.2h.1a.6.6 0 0 0 .7-.1h.1l.3-.2h.7a1.1 1.1 0 0 0 .8-.1h.7a.1.1 0 0 1 .1.1h1.9a4 4 0 0 1 2.9.8 2.5 2.5 0 0 1 .4.5zm-4.5-.7h-2l-.2.2h-.6a1.4 1.4 0 0 0 .9 0c.1 0 .1 0 .1.1h.2l.2-.2a.1.1 0 0 0 -.1-.1h.1l.5.2a.6.6 0 0 0 .6 0z" fill="#a6ab65"/><path d="m13.4 6.9-.5-.2h-2.6a6.6 6.6 0 0 0 -2.1.3l1.1-.2h3.7l.4.2z" fill="#231f20"/><path d="m12.7 5.8.4.3a4.4 4.4 0 0 0 -3-.8h-2.7a1.1 1.1 0 0 1 -.8.1h-.7a.9.9 0 0 0 -.5.3c-.2.1-.3.2-.5.1s-.6-.3-.8 0a.2.2 0 0 1 -.2.2h-.4l-.9.2-.9.2a1.5 1.5 0 0 0 -.5.6l-.3.2-.3.3a.6.6 0 0 0 -.1.4.9.9 0 0 0 -.1.5v.5a5.7 5.7 0 0 0 .1 1.3l.5.7.7.3h1.8a1.3 1.3 0 0 0 .8-.3h1.5l.7-.4.3-.3-.4.3-.3.2a.5.5 0 0 1 -.4.2h-.8l-.8.4-.7.2h-.9l-.9-.2-.7-.3a1.6 1.6 0 0 1 -.4-.7 2.8 2.8 0 0 1 -.1-.9 1.4 1.4 0 0 1 0-.9v-.7a.6.6 0 0 1 .1-.4l.2-.2.4-.3.5-.6.8-.2 1-.2h.6v-.4c.2-.2.4-.1.6 0s.3.2.4.1h.3a.9.9 0 0 1 .5-.3c.1-.1.2 0 .3 0l.4.2h.5l.4-.2h3.7a3.8 3.8 0 0 1 1.6.5z" fill="#353d16"/><path d="m10.8 8.5a.8.8 0 0 1 -.7.3h.1a.9.9 0 0 0 .6-.3h-1.4l-.7.2a.9.9 0 0 0 -.5.3h-.1l-.4.2-.6.2h-.2c-.3.1-.6.1-.8.3h-.2l-.2.2-.4.2h.9l.5-.3h-.3l-.3.2h-.9l.5-.2.2-.2.2-.2.5-.2a1.8 1.8 0 0 0 1-.2l.7-.2.5-.3.6-.2z" fill="#231f20"/><path d="m10.8 8.5a.9.9 0 0 1 -.6.3h-2a.9.9 0 0 1 .5-.3l.7-.2h1.4z" fill="#a6ab65"/><path d="m9.9 7.9c.1.1.2.2.1.3a.2.2 0 0 1 -.2.2h-.3v-.4h.1c.1-.1.2-.1.2 0h.1zm0 .4v-.4h-.3v.4h.4z" fill="#231f20"/><path d="m10 8.1v.2h-.5v-.4h.3z" fill="#a6ab65"/><path d="m9.4 8.2-.7.2h-.3v.2c0 .1 0 .1-.1.1s-.2 0-.2-.1l-.8.2-.2.3h-.3l-.7.3.3-.4h.3v-.3h.4l.5-.2zm-.2.1h-.3a4.7 4.7 0 0 0 -1.7.3v.2l.8-.2h1.2zm-.9.5c.1 0 .1-.1.1-.2h-.1zm-1.2.2a.2.2 0 0 0 .1-.3h-.2l-.3.2.2.3zm-.4 0-.5.3z" fill="#a6ab65"/><path d="m9.1 6.9c.1.1.2.2.2.3h-.2c-.1 0-.1 0-.1-.1h-.1v-.2zm.1.4h.1c0-.1-.1-.1-.1-.2z" fill="#231f20"/><path d="m9.3 7.2h-.1c0-.1.1-.1.1 0z" fill="#a6ab65"/><path d="m8.9 8.3h-.8l-.8.2v.1a4.7 4.7 0 0 1 1.6-.3z" fill="#a6ab65"/><path d="m8.9 6.2h-.3a.6.6 0 0 1 -.6 0l-.5-.2h-.1a.1.1 0 0 1 .1.1l-.2.2h-.2c0-.1 0-.1-.1-.1a1.4 1.4 0 0 1 -.9 0h.6l.2-.2h2zm-.1 0h-.6l-.5-.2h1.1zm-1.5.1h.1c0-.1 0-.1-.1-.2h-.2c0 .1 0 .2.1.2s.1.1.1 0z" fill="#fdff99"/><path d="m8.8 9.1-1 .7h-.3v-.1h.1l.5-.3.4-.3h.2z" fill="#353d16"/><path d="m8.6 9.1h-.4l-.3.2-.3.3h-.1l.5-.2c0-.1.1-.1.1-.2h.5z" fill="#8b8c46"/><path d="m8.2 6.2h-.5z" fill="#676b2c"/><path d="m8.4 8.6c0 .1 0 .2-.1.2h.1z" fill="#a6ab65"/><path d="m8.2 9.2h.4l-.4.3-.5.3h-.1l.3-.3z" fill="#8b8c46"/><path d="m8.1 6.7c.1.1.1.1.1.2l-.2.2-.3-.2-1.1.1a.2.2 0 0 1 -.1.3.3.3 0 0 1 -.4 0c0-.1-.1-.2 0-.3l.2-.2h-2.1c0 .1 0 .2-.1.2s-.1.1-.2.1a.1.1 0 0 0 -.1-.1h-.4l-1.4 1.1.2-.3h.2l1.1-.6 1.2-.4h-1.9l-.6.3-.5.3h.6a.1.1 0 0 1 .1.1v.3h-.3c0 .1-.1.1-.1.2l-.3.4-.3.4c-.1.1-.3.2-.4.1h-.1l.2.2.4-.2c.2-.2.3-.6.5-.8h.2v-.7c.1 0 .1-.1.1-.2h-.1l-.8.4a1.2 1.2 0 0 0 -.4.8h-.1v-.2a2.2 2.2 0 0 1 .5-.8h.2l.6-.4.4-.2.3-.2h2.1l-.9.2h-.1l.2.2h2.2c.1.1.2.1.2.2l1.1-.2h.4zm0 .2v-.2h-.3c-.1.1-.1.2 0 .2h.2zm-1.6.4a.4.4 0 0 0 .1-.3c-.1-.1-.1-.2-.2-.2l-.3.2a.4.4 0 0 0 .1.3.2.2 0 0 0 .3 0zm-2.4 0a.3.3 0 0 0 0-.4h-.1c-.1 0-.2 0-.3.2v.3h.3zm-.4-.4h-.2l-.6.3a1.8 1.8 0 0 0 -.8.7l.3-.2 1.3-.6z" fill="#fff"/><path d="m8.1 9.2c0 .1-.1.1-.1.2l-.5.3h-.1c-.1.1-.1 0-.2 0h-.1l.6-.2z" fill="#a6ab65"/><path d="m8.1 6.7v.4h-.3c-.1 0-.1-.1 0-.2h.3z" fill="#b6b76e"/><path d="m7.9 7.7-.4.2-1.2.2h.2c.1-.1.1-.2.2-.2h1.2zm-.1 0h-1.1l-.4.3h.3a2.7 2.7 0 0 0 1.2-.3z" fill="#231f20"/><path d="m7.4 7.7h.4a2.7 2.7 0 0 1 -1.2.3h-.3l.4-.2h.7z" fill="#a6ab65"/><path d="m7.5 9.7h.1v.2h-.2c0-.1.1-.1.1-.2z" fill="#231f20"/><path d="m7.5 9.7c0 .1-.1.1-.1.2h-.7l.3-.2h.2c.1 0 .1.1.2 0z" fill="#353d16"/><path d="m7.4 6.2h-.1c0 .1-.1.1-.1 0s-.1-.1-.1-.2h.2c.1.1.1.1.1.2z" fill="#fdff99"/><path d="m7.2 8.7a.2.2 0 0 1 -.1.3h-.2l-.2-.3.3-.1h.2z" fill="#a6ab65"/><path d="m6.9 9.6h.1l-.3.2-.5.3h-.9l.4-.2.2-.2h.2c.2 0 .5 0 .8-.1z" fill="#a6ab65"/><path d="m6.8 9.9-.3.3-.7.4h-.1a1 1 0 0 0 .7-.4l.2-.2z" fill="#353d16"/><path d="m6.7 8.9-.5.2z" fill="#a6ab65"/><path d="m6.4 10.1h.2l-.2.2a1 1 0 0 1 -.7.4h.4z" fill="#676b2c"/><path d="m6.6 7a.4.4 0 0 1 -.1.3.2.2 0 0 1 -.3 0 .4.4 0 0 1 -.1-.3l.3-.2c.1 0 .1.1.2.2z" fill="#b6b76e"/><path d="m5.5 8.3-.2.2h-1.4a1.8 1.8 0 0 1 .7-.5h-.1a.4.4 0 0 1 .1-.3h.1c0-.1 0-.1.1-.1h.2l.2.3v.2zm0 0h-.5a.4.4 0 0 0 .1-.3l-.2-.3h-.3a.4.4 0 0 0 .1.3h.3c.2.5.4.5.5.3zm-.7.2h-.2l-.6.2h.8z" fill="#231f20"/><path d="m5.1 8.3h.4c-.1.2-.3.2-.5.2h.1z" fill="#a6ab65"/><path d="m5.3 9.5v.2a.2.2 0 0 1 -.2.2h-.3c-.1-.2 0-.3.1-.3h.4zm0 .2v-.2h-.4v.2l.3.2a.2.2 0 0 0 .1-.2z" fill="#231f20"/><path d="m5.3 9.5v.2a.2.2 0 0 1 -.2.2l-.3-.2v-.2z" fill="#a6ab65"/><path d="m5.1 8.1a.4.4 0 0 1 -.1.3z" fill="#a6ab65"/><path d="m5.1 8.1v.3h-.4a.4.4 0 0 1 -.1-.3h.3l.2.3z" fill="#a6ab65"/><path d="m4.2 6.5h.5l-1.2.4-1.1.6v-.3a.1.1 0 0 0 -.1-.1h-.6l.5-.3.6-.3z" fill="#676b2c"/><path d="m4.7 10.7h-.4a1.3 1.3 0 0 1 -.8.3l.7-.2h.1a.1.1 0 0 0 .1-.1z" fill="#353d16"/><path d="m4.6 8.4h-.6z" fill="#a6ab65"/><path d="m4.6 8.1a.4.4 0 0 0 .1.3.4.4 0 0 1 -.1-.3z" fill="#231f20"/><path d="m4.5 10.7h-1.6l-1-.2h2.6z" fill="#a6ab65"/><path d="m4.4 10.7a.1.1 0 0 1 -.1.1h-.1l-.7.2h-.5l-1.1-.4 1 .2h1.5z" fill="#a6ab65"/><path d="m4.1 9c.1.1.2.2.2.3l-.2.2c-.2.1-.3 0-.3-.1s-.1-.3 0-.3zm0 .5v-.2a.3.3 0 0 0 -.1-.2h-.2c-.1.1 0 .2 0 .3z" fill="#231f20"/><path d="m4.2 9.3v.2h-.4c0-.1-.1-.2 0-.3h.3a.3.3 0 0 1 .1.1z" fill="#a6ab65"/><path d="m4.1 6.9a.3.3 0 0 1 0 .4h-.3v-.3c.1-.2.2-.2.3-.2h.1z" fill="#b6b76e"/><path d="m3.7 6.9v.2l-1.3.6-.3.3a1.8 1.8 0 0 1 .8-.7l.6-.3z" fill="#a6ab65"/><path d="m3.3 11.2h-1.6l-.7-.4-.5-.7a5.7 5.7 0 0 1 -.1-1.3h.1a2 2 0 0 0 .2 1.2.8.8 0 0 0 .4.7l.7.3h1.5z" fill="#353d16"/><path d="m3 10.3-.3.2h-.8l1.1.4h-.4l-1.2-.4h.4l1-.2h-1.2c-.1-.1-.3-.2-.3-.4l.2-.2h.3l.4-.3h-1.3c-.1 0-.1-.2-.2-.4v.2-.3a.4.4 0 0 1 .1.3.4.4 0 0 0 .1-.3h-.1v.4l.2.3h1.4l-.6.3-.3.2c-.1 0-.1.1-.1.2v.2h1.6z" fill="#231f20"/><path d="m2.6 11.1h-.8l-.7-.3a.8.8 0 0 1 -.4-.8 2 2 0 0 1 -.2-1.1v.3-.2c.1.2.1.4.2.5h1.5l-.4.3h-.3l-.2.2c0 .2.2.3.3.4h1.2l-1 .2h-.4zm-1.4-.6a1.1 1.1 0 0 0 -.3-1h-.3a.8.8 0 0 0 .2.5l.3.6z" fill="#353d16"/><path d="m2.4 7.2c0 .1 0 .2-.1.2v.2h-.3c-.2.2-.3.6-.5.8l-.4.2-.2-.1c.1-.1 0-.1 0-.1h.1a1.2 1.2 0 0 1 .4-.8l.8-.4z" fill="#fdff99"/><path d="m.9 9.5a1.1 1.1 0 0 1 .3 1h-.1l-.3-.6a.8.8 0 0 1 -.2-.5h.3zm.2.9a.4.4 0 0 0 .1-.3 1.8 1.8 0 0 0 -.5-.7v.3a.3.3 0 0 0 .1.2z" fill="#231f20"/><path d="m1.2 10.1a.4.4 0 0 1 -.1.3l-.3-.5a.3.3 0 0 1 -.1-.2v-.3a1.8 1.8 0 0 1 .5.7z" fill="#676b2c"/><path d="m.9 8.4s.1 0 0 .1z" fill="#231f20"/><path d="m.9 8.6a.3.3 0 0 0 -.1.2.4.4 0 0 1 .1-.3z" fill="#676b2c"/><g fill="none" stroke-miterlimit="10" stroke-width=".04"><path d="m5.1 8.1a.4.4 0 0 1 -.1.3" stroke="#a6ab65"/><path d="m4.7 8.4a.4.4 0 0 1 -.1-.3" stroke="#a6ab65"/><path d="m9.5 8.3v-.3h.1c.1-.1.2-.1.2 0h.1c.1.1.2.2.1.3a.2.2 0 0 1 -.2.2h-.3z" stroke="#a6ab65"/><path d="m9.6 8.3h.3v-.4h-.3z" stroke="#a6ab65"/><path d="m9.3 7.2h-.2c-.1 0-.1 0-.1-.1h-.1v-.2h.1c.2.1.3.2.3.3z" stroke="#a6ab65"/><path d="m9.2 7h.1c0 .1-.1.1-.1 0z" stroke="#a6ab65"/><path d="m13.4 6.9-.5-.2h-2.6a6.6 6.6 0 0 0 -2.1.3l1.1-.2h3.7l.4.2z" stroke="#676b2c"/><path d="m7.8 7.7h-1.1l-.4.3h.3a2.7 2.7 0 0 0 1.2-.3z" stroke="#a6ab65"/><path d="m7.9 7.7-.4.2-1.2.2h.2c.1-.1.1-.2.2-.2h1.2z" stroke="#a6ab65"/><path d="m7.3 6h.9-.5z" stroke="#676b2c"/><path d="m7.4 6.2c0-.1 0-.1-.1-.2h-.2c0 .1 0 .2.1.2s.1.1.1 0z" stroke="#676b2c"/><path d="m7.5 6.2-.2.2h-.2c0-.1 0-.1-.1-.1a1.4 1.4 0 0 1 -.9 0h.6l.2-.3h1.7a.6.6 0 0 1 -.6 0l-.5-.2h-.1a.1.1 0 0 1 .1.4z" stroke="#676b2c"/><path d="m8.2 8.6h.1c.1 0 .1-.1.1-.2h-.2z" stroke="#676b2c"/><path d="m7.3 8.8.8-.2h.8a4.7 4.7 0 0 0 -1.7.3v.2z" stroke="#676b2c"/><path d="m6.7 8.8.2.3h.2a.2.2 0 0 0 .1-.3h-.2z" stroke="#676b2c"/><path d="m6.7 8.9-.5.3.5-.2z" stroke="#676b2c"/><path d="m6.8 9-.7.3.3-.3h.3v-.3h.4l.5-.2 1.8-.2-.7.2h-.3v.2c0 .1 0 .1-.1.1s-.2 0-.2-.1l-.8.2-.2.3h-.3z" stroke="#676b2c"/><g stroke="#a6ab65"><path d="m5.2 10.5.5-.2.2-.2.2-.2.5-.2a1.8 1.8 0 0 0 1-.2l.7-.2.5-.3.6-.2h1.4a.8.8 0 0 1 -.7.3h.1a.9.9 0 0 0 .6-.3h-1.4l-.7.2a.9.9 0 0 0 -.5.3h-.1l-.4.2-.6.2h-.2c-.3.1-.6.1-.8.3h-.2l-.2.2-.4.2h.9l.5-.3h-.3l-.3.2h-.9z"/><path d="m4.9 9.5v.2l.3.2a.2.2 0 0 0 .2-.2v-.2z"/><path d="m5.2 9.4h.1v.2a.2.2 0 0 1 -.2.2h-.3c-.1-.2 0-.3.1-.3z"/><path d="m5 8.4c.2 0 .4 0 .5-.2h-.5z"/><path d="m5.1 8.1-.2-.3h-.3a.4.4 0 0 0 .1.3h.3z"/><path d="m4.8 8.5h-.2l-.6.2h.8z"/><path d="m3.9 8.8a1.8 1.8 0 0 1 .7-.5h-.1a.4.4 0 0 1 .1-.3h.1c0-.1 0-.1.1-.1h.2l.2.3v.2h.3l-.2.2h-1.4z"/><path d="m3.8 9.4h.3v-.1a.3.3 0 0 0 -.1-.2h-.2c-.1.1 0 .2 0 .3z"/><path d="m4.3 9.3-.2.2c-.2.1-.3 0-.3-.1s-.1-.3 0-.3h.3c.1 0 .2.1.2.2z"/><path d="m8.1 6.7h-.3c-.1.1-.1.2 0 .2h.2v-.2z"/><path d="m6.1 7a.4.4 0 0 0 .1.3.2.2 0 0 0 .3 0 .4.4 0 0 0 .1-.3c-.1-.1-.1-.2-.2-.2z"/><path d="m3.7 7v.3h.3a.3.3 0 0 0 0-.4c-.1-.1-.2-.1-.3.1z"/><path d="m2.1 8 .3-.2 1.3-.6v-.3h-.2l-.6.3a1.8 1.8 0 0 0 -.8.8z"/><path d="m2.1 7.6c0 .1-.1.1-.1.2l-.3.4-.3.4c-.1.1-.3.2-.4.1h-.1l.2.2.4-.2c.2-.2.3-.6.5-.8h.2v-.5c.1 0 .1-.1.1-.2h-.1l-.8.4a1.2 1.2 0 0 0 -.4.8h-.1v-.2a2.2 2.2 0 0 1 .5-.8h.2l.6-.4.4-.2.3-.2h2.1l-.9.2h-.1l.2.2h2.2c.1.1.2.1.2.2l1.1-.2h.4c.1.1.1.1.1.2l-.2-.1-.3-.2-1.1.1a.2.2 0 0 1 -.1.3.3.3 0 0 1 -.4 0c0-.1-.1-.2 0-.3l.2-.2h-2.1c0 .1 0 .2-.1.2s-.1.1-.2.1a.1.1 0 0 0 -.1-.1h-.4l-1.4 1.1.2-.3h.2l1.1-.6 1.2-.4h-1.9l-.6.3-.5.3h.6a.1.1 0 0 1 .1.1v.3h-.3z"/></g><path d="m1.2 10.1a1.8 1.8 0 0 0 -.5-.7v.3a.3.3 0 0 0 .1.2l.3.5a.4.4 0 0 0 .1-.3z" stroke="#676b2c"/><path d="m.6 9.4h.3a1.1 1.1 0 0 1 .3 1h-.1l-.3-.5a.8.8 0 0 1 -.2-.5z" stroke="#676b2c"/><path d="m.5 8.8a.4.4 0 0 1 .1.3.4.4 0 0 0 .1-.3h.1v.4l.2.3h1.4l-.6.3-.3.2c-.1 0-.1.1-.1.2v.2h1.6l-.3.2h-.8l1.1.4h-.4l-1.2-.4h.4l1-.2h-1.2c-.1-.1-.3-.2-.3-.4l.2-.2h.3l.4-.3h-1.3c-.1-.1-.1-.3-.2-.5v.2-.3" stroke="#353d16"/></g></svg>