<?xml version="1.0" encoding="utf-8"?>
<!-- Generator: Adobe Illustrator 24.1.0, SVG Export Plug-In . SVG Version: 6.00 Build 0)  -->
<svg version="1.1" id="Layer_1" xmlns="http://www.w3.org/2000/svg" xmlns:xlink="http://www.w3.org/1999/xlink" x="0px" y="0px"
	 viewBox="0 0 16 16" style="enable-background:new 0 0 16 16;" xml:space="preserve">
<style type="text/css">
	.st0{fill:none;stroke:#FFFFFF;stroke-width:0.13;stroke-miterlimit:10;}
	.st1{fill:none;}
	.st2{fill:#FFFFFF;}
	.st3{font-family:'KeplerStd-Regular';}
	.st4{font-size:12px;}
</style>
<circle cx="7.9" cy="7.6" r="6.6"/>
<path class="st0" d="M19.4,8.9l0.4-0.3l0.6-0.3h1.7l-1,0.4l-1,0.5h-0.3c0.1,0,0.1,0,0.1-0.1H20V8.9l-0.2-0.2L19.4,8.9z"/>
<path class="st0" d="M18.4,10.8l0.2,0.5l0.3,0.4c0.1-0.3,0-0.6-0.3-0.8L18.4,10.8z"/>
<path class="st0" d="M24.6,7.9c0,0.1,0,0.1-0.1,0.1l0,0h-0.1c-0.1-0.1-0.1-0.1-0.1-0.2L24.6,7.9L24.6,7.9z"/>
<path class="st0" d="M21.5,8.5h0.1c0.1,0.1,0.1,0.2,0,0.3c0,0,0,0,0,0h-0.3c0-0.1-0.1-0.2-0.1-0.3H21.5z"/>
<path class="st0" d="M26.5,9.8h0.3L27,9.6c0-0.1,0-0.2-0.1-0.2h-0.3c-0.1,0.1-0.1,0.1-0.1,0.2V9.8z"/>
<path class="st0" d="M24,10.5h0.4c0-0.1,0.1-0.2,0.1-0.3l0.7-0.1h0.3V10h0.3l0.6-0.2c-0.5-0.1-1.1,0-1.6,0.2H24c0,0.1-0.1,0.1,0,0.1
	l-0.3,0.2l-0.3,0.2c-0.1,0,0,0.1,0,0L24,10.5z"/>
<path class="st0" d="M22.6,10.9h-0.3c-0.1,0.1-0.1,0.2-0.1,0.3h0.3l0.2-0.2v-0.1H22.6z"/>
<path class="st0" d="M21.4,10.3h1.3l0.2-0.2h-0.3l-0.2-0.3H22v0.4c-0.2,0-0.4,0.2-0.6,0.4V10.3z"/>
<path class="st0" d="M22.7,8.5h0.9l-0.2,0.2c-0.1,0.1,0,0.2,0,0.3h0.4c0.1-0.1,0.1-0.2,0.1-0.3h1c0,0.1,0.1,0.1,0.2,0.1l0.2-0.2
	c0.1,0,0.1-0.1,0-0.2s-0.1-0.1-0.1,0h0.1l1.9-0.2h2.9c0,0.4,0,0.8-0.2,1.2l-0.3,0.4L28.9,10h-1.8c0.2,0,0.5-0.1,0.6-0.3h-1.2
	l-0.6,0.6l-0.5,0.2l-0.6,0.3c-0.3,0.2-0.7,0.3-1,0.3h-0.4l-0.2,0.2H23c-0.1,0.1-0.3,0.1-0.4,0.3h1.3l-0.2,0.2l-0.6,0.4H22l-0.9,0.2
	h-1.5l0.7-0.2h-1.1c0-0.1-0.1-0.1-0.1-0.2v-0.8h0.3l0.5-0.3h-1.1l-0.2-0.2v-0.3v-0.3H19l0.3-0.4l0.3-0.4V9.2h0.1l-0.3,0.3h0.1
	l1.2-0.6h0.7c0.1-0.1,0.1-0.2,0.1-0.3h0.6"/>
<path class="st0" d="M26.3,8.8c0.1-0.1,0-0.2-0.1-0.2H26c0,0.1,0,0.1,0.1,0.1l0,0L26.3,8.8L26.3,8.8z"/>
<path class="st0" d="M25,9.3h-1.2l-0.3,0.2c0.4,0,0.8,0,1.2-0.2H25z"/>
<path class="st0" d="M21.7,10.8c0-0.1,0-0.2-0.1-0.3h-0.3c-0.1,0.1-0.1,0.2,0,0.3c0,0,0,0,0,0l0.2,0.2L21.7,10.8z"/>
<path class="st0" d="M24.6,7.9l0.5,0.2h-0.6C24.6,8.1,24.6,8,24.6,7.9z"/>
<path class="st0" d="M18.5,10.3c0,0.1,0,0.2-0.1,0.3c0-0.1,0-0.2-0.1-0.3V9.4c0-0.1,0-0.2,0.1-0.3c0-0.1,0.1-0.1,0.1-0.2h0.1
	l0.3-0.3l0.5-0.4H20c0.1,0.1,0.2,0,0.2-0.1c0.1-0.1,0-0.2,0-0.3h1.2c0.2-0.1,0.2-0.2,0.3-0.3h0.4c0,0.1,0,0.1,0.1,0.1
	c0.2,0.1,0.4,0,0.6-0.1h0.1l0.3-0.5c0.1,0,0.2,0,0.2,0.1h0.5c0.2,0.1,0.5,0,0.7-0.1h2.5C28,7,28.9,7.2,29.7,7.8l0.4,0.6l-0.4-0.1
	h-1.4c-0.7-0.1-1.3-0.1-2,0l-1,0.2h-0.4l-1,0.2l-0.3-0.2h-0.9c-0.1,0-0.1,0-0.1,0.1h-0.9l-0.2-0.2h0.1l0.8-0.2h-2.5l-0.6,0.4
	l-0.2,0.2c-0.2,0.2-0.3,0.4-0.4,0.7v0.2"/>
<path class="st0" d="M29.9,8l0.3,0.4l-0.4-0.7C29.8,7.9,29.9,7.9,29.9,8z"/>
<path class="st0" d="M26.6,9.4h0.3C27,9.4,27,9.5,27,9.6l-0.2,0.2h-0.3V9.6C26.5,9.5,26.5,9.5,26.6,9.4z"/>
<path class="st0" d="M25.9,8.7h0.3c0.1,0,0.2,0.1,0.1,0.2h-0.2c-0.1,0-0.1,0-0.1-0.1c0,0,0,0,0,0L25.9,8.7L25.9,8.7z"/>
<path class="st0" d="M27.2,8.2l-1.9,0.2l1-0.2c0.7-0.1,1.3-0.1,2,0h1.4l0.4,0.2h-2.9V8.2z"/>
<path class="st0" d="M25.7,10.6c0-0.1,0.1-0.1,0.2-0.1h-0.2V10.6z"/>
<path class="st0" d="M24.8,11.1h-0.1l0.4-0.3h0.8c-0.1,0-0.2,0-0.2,0.1h-0.4l-0.2,0.2H24.8z"/>
<path class="st0" d="M24.7,9.4c-0.4,0.2-0.8,0.2-1.2,0.2l0.3-0.2H24.7z"/>
<path class="st0" d="M24.3,7.9c0,0.1,0,0.1,0.1,0.2h0.1c0.1,0,0.1,0,0.1-0.1c0,0,0,0,0,0L24.3,7.9L24.3,7.9z"/>
<path class="st0" d="M23.4,8h1.7l-0.5-0.2c0,0.1,0,0.2-0.1,0.2H23.4z"/>
<path class="st0" d="M24,10.3c0,0.1,0,0.2,0.1,0.2c0.1,0.1,0.2,0.1,0.3,0c0,0,0,0,0,0c0-0.1,0.1-0.2,0-0.3h-0.2L24,10.3z"/>
<path class="st0" d="M23.4,10.7l0.3-0.2l0.3-0.2c-0.1,0,0,0,0-0.1h0.8c0.5-0.2,1.1-0.3,1.6-0.2l-0.6,0.2h-0.3v0.2h-0.3l-0.7-0.1
	c0,0.1-0.1,0.2-0.1,0.3H24L23.4,10.7L23.4,10.7z"/>
<path class="st0" d="M22.2,11.2c0-0.1,0-0.2,0.1-0.3h0.4v0.2l-0.2,0.2L22.2,11.2z"/>
<path class="st0" d="M22.1,12.1h-0.2c0-0.1,0-0.1,0.1-0.1c0,0,0,0,0,0h0.1V12.1z"/>
<path class="st0" d="M21.4,10.3c0.2-0.2,0.4-0.4,0.6-0.4V9.5h0.4l0.2,0.3h0.3L22.7,10h-1.3V10.3z"/>
<path class="st0" d="M21.3,10.8c-0.1-0.1-0.1-0.2,0-0.3c0,0,0,0,0,0h0.3c0.1,0.1,0.1,0.2,0.1,0.3L21.5,11L21.3,10.8z"/>
<path class="st0" d="M20.6,12.4H21l0.7-0.2h0.4l-0.4,0.2L21,12.6h-0.4V12.4z"/>
<path class="st0" d="M21.2,8.6c0,0.1,0.1,0.2,0.1,0.3h0.3c0.1-0.1,0.1-0.2,0-0.3c0,0,0,0,0,0H21.2z"/>
<path class="st0" d="M18.4,10.9l0.2,0.2c0.3,0.2,0.4,0.5,0.3,0.8l-0.3-0.4L18.4,11V10.9z"/>
<path class="st0" d="M18.4,11.5c-0.2-0.4-0.2-0.8-0.2-1.2h0.1c0,0.3,0,0.7,0.2,1c0,0.2,0.1,0.4,0.3,0.6c0.2,0.2,0.5,0.2,0.7,0.3h1.4
	c-0.2,0.1-0.5,0-0.7,0h-0.8l-0.6-0.3C18.6,11.8,18.5,11.7,18.4,11.5z"/>
<path class="st0" d="M24.6,11.3h0.3l0.6-0.3c0.1-0.2,0.3-0.3,0.5-0.3c0.3-0.1,0.5-0.1,0.8,0h1.6c0.4,0.1,0.9,0.1,1.3-0.2
	c0.4-0.3,0.6-0.9,0.5-1.4V8.5l-0.3-0.4c0-0.1-0.1-0.1-0.1-0.2l-0.4-0.2C29,7.4,28.5,7.2,28,7.2h-3.4h-0.4h-0.4L23.5,7h-0.3
	c-0.2,0-0.3,0.2-0.5,0.3h-0.6c-0.1-0.1-0.4-0.2-0.5,0s-0.1,0.1-0.1,0.2h-0.6L20,7.7c-0.2,0.1-0.5,0.1-0.7,0.3l-0.5,0.5l-0.3,0.2
	L18.3,9c0,0.1-0.1,0.2-0.1,0.3v1.4c0,0.3,0,0.5,0.1,0.8l0.4,0.6l0.6,0.3h1.6l0.7-0.2l0.7-0.3c0.1-0.1,0.3-0.1,0.4,0h0.7l0.3-0.3
	l0.3-0.2v-0.1H24.6"/>
<rect x="1.5" y="3.4" class="st1" width="14.1" height="9.4"/>
<text transform="matrix(1 0 0 1 1.497 11.5046)"><tspan x="0" y="0" class="st2 st3 st4">B</tspan><tspan x="6.6" y="0" class="st2 st3 st4">B</tspan></text>
</svg>
