<svg height="32" viewBox="0 0 32 32" width="32" xmlns="http://www.w3.org/2000/svg"><path d="m8.1 4.8a3.3 3.3 0 0 1 1.9.7 1.6 1.6 0 0 1 .6 1.3 1.6 1.6 0 0 1 -.4 1.2 1.9 1.9 0 0 1 -1.1.7l-1.7.2h-3v-.3h1a.5.5 0 0 0 .2-.4c0-.2.1-.6.1-1.2v-3.7c0-.6-.1-1-.1-1.2a.5.5 0 0 0 -.2-.4h-.9v-.3h2.6c2.1 0 3.1.6 3.1 1.8a1.4 1.4 0 0 1 -.5 1.1 3.4 3.4 0 0 1 -1.6.5zm-1.4-.1h.3a3 3 0 0 0 1.6-.3 1.7 1.7 0 0 0 .4-1.3 2.8 2.8 0 0 0 -.1-.9l-.6-.4c-.2-.2-.6-.2-1.1-.2h-.5zm0 .3v1.7c0 .7.1 1.1.1 1.3a.8.8 0 0 0 .2.5h.6a2 2 0 0 0 1.4-.3 2 2 0 0 0 .4-1.4 2 2 0 0 0 -.5-1.4 2.5 2.5 0 0 0 -1.7-.4z" fill="#fff"/><path d="m11.3 4h1.7l-.2.2v4c0 .2.1.2.2.3h.6v.2h-2.3.6c.1 0 .1-.1.1-.2a1.7 1.7 0 0 0 .1-.8v-2.6c0-.4 0-.6-.1-.7s0-.2-.1-.3h-.6z" fill="#fff"/><path d="m14.5 3.9h1.7l-.2.2v5l-.3.7-.6.5h-.9c-.4 0-.7 0-.9-.2a.5.5 0 0 1 -.3-.5h.6v.5c0 .1 0 .2.1.2h.4a.9.9 0 0 0 .7-.3.9.9 0 0 0 .3-.6 4.1 4.1 0 0 0 .1-1.2v-3.1c0-.4 0-.6-.1-.7s0-.2-.1-.3h-.6z" fill="#fff"/><path d="m16.9 6.3a2.4 2.4 0 0 1 .7-1.8 2.7 2.7 0 0 1 2-.7 2.6 2.6 0 0 1 1.9.7 2.4 2.4 0 0 1 .8 1.9 2.3 2.3 0 0 1 -.8 1.8 2.6 2.6 0 0 1 -1.9.8 2.8 2.8 0 0 1 -2-.8 2.4 2.4 0 0 1 -.7-1.9zm.8.1a3 3 0 0 0 .5 1.8 1.7 1.7 0 0 0 1.4.6 1.8 1.8 0 0 0 1.4-.6 3 3 0 0 0 .4-1.8 3 3 0 0 0 -.4-1.8 1.8 1.8 0 0 0 -1.4-.6 1.7 1.7 0 0 0 -1.4.6 3 3 0 0 0 -.5 1.8z" fill="#fff"/><path d="m26.4 3.9h1.7l-.5.2-.2.3c-.1.1-.1.3-.1.6v2.7l-.3.6a1.8 1.8 0 0 1 -.7.5l-1 .2a2 2 0 0 1 -1.1-.3 1.3 1.3 0 0 1 -.7-.6 2 2 0 0 1 -.2-.9v-2.8c0-.2-.1-.2-.1-.3h1.1a.2.2 0 0 0 -.2.2v3.6a.8.8 0 0 0 .5.5 1.2 1.2 0 0 0 .9.3l.8-.2a.9.9 0 0 0 .6-.4c.1-.2.2-.3.2-.5v-3.2a.2.2 0 0 0 -.2-.2l-.5-.2z" fill="#fff"/><g fill="none"><path d="m7.1 14.9.9-.5 1-.6.5-.2h2.8a6.8 6.8 0 0 0 -2 .7 5.9 5.9 0 0 0 -1.9 1.1h-.5l.3-.3h.1v-.3c-.1-.2-.1-.3-.3-.3h-.1z" stroke="#fff" stroke-miterlimit="10" stroke-width=".24"/><path d="m5.3 18.5s-.1.1 0 .1a1.4 1.4 0 0 0 .3.9l.6.9h.1a1.7 1.7 0 0 0 -.6-1.6z" stroke="#fff" stroke-miterlimit="10" stroke-width=".24"/><path d="m16.9 13a.4.4 0 0 1 -.1.3h-.3a.4.4 0 0 1 -.1-.3v-.2h.4z" stroke="#fff" stroke-miterlimit="10" stroke-width=".24"/><path d="m11.2 14.2h.1a.6.6 0 0 1 0 .6h-.5a.4.4 0 0 1 .3-.7z" stroke="#fff" stroke-miterlimit="10" stroke-width=".24"/><path d="m20.5 16.6h.1a.1.1 0 0 0 .1.1h.4c.2 0 .3-.2.3-.4s0-.3-.1-.4h-.6l-.2.3z" stroke="#fff" stroke-miterlimit="10" stroke-width=".24"/><path d="m15.8 17.9h.1a.5.5 0 0 0 .6 0 .8.8 0 0 0 .2-.4l1.4-.4v.3l.3.2a.3.3 0 0 0 .3-.3.4.4 0 0 0 -.1-.3h.6l1.1-.3a8.3 8.3 0 0 0 -3.1.4l-.7.3h-.4q-.3.1-.3.3c-.1.1-.1.1-.1.2l-.5.3a1 1 0 0 0 -.5.4z" stroke="#fff" stroke-miterlimit="10" stroke-width=".24"/><path d="m13.2 18.6h-.6a.8.8 0 0 0 -.2.5l.5.2c.3.1.4-.1.5-.3v-.4z" stroke="#fff" stroke-miterlimit="10" stroke-width=".24"/><path d="m11 17.5.6-.2.5-.2c.4-.1.8.1 1.2-.1l.4-.3h-.6v-.2a.5.5 0 0 0 -.3-.5h-.6c0 .1-.1.1-.1.2a.4.4 0 0 0 -.1.3c0 .2 0 .3.1.4a3.3 3.3 0 0 0 -1.3.7.1.1 0 0 0 .1.1z" stroke="#fff" stroke-miterlimit="10" stroke-width=".24"/><path d="m13.4 14.1h1.7c-.2.1-.4.2-.4.4a.5.5 0 0 0 .1.6.5.5 0 0 0 .6 0 .8.8 0 0 0 .2-.5l1.8-.3v.2a.4.4 0 0 0 .7-.1v-.4h.1a22 22 0 0 1 3.6-.4 21.7 21.7 0 0 1 3.6.1l1 .2c.3.1.6.1.8.3h.1a5.3 5.3 0 0 1 -.3 2.2 2.7 2.7 0 0 1 -.7.8 2.1 2.1 0 0 1 -1.2.3 5.7 5.7 0 0 1 -1.3 0h-.8l-.7.2a2.2 2.2 0 0 1 -1.4.1h-.7a6.6 6.6 0 0 1 1.4 0 2.3 2.3 0 0 0 1.2-.6l-2.4.2-1.1.3-.9.4-1.1.6a9.5 9.5 0 0 1 -1.8.5 1.6 1.6 0 0 0 -.9.3l-.3.2-.3.4-.8.4c-.1 0-.1.1 0 .1h.6c.1 0 .2.1.3 0h.2c0-.1.1-.1.2-.1s.2-.1.2-.2l.6-.3h.3l-.3.3a4.2 4.2 0 0 1 -1.2.8h-.7c-.1 0-.2 0-.2-.1h-.5l-.7.2-1.6.2a6 6 0 0 1 -1.9 0 3.8 3.8 0 0 1 -1-.3l1.3-.3.6-.2a3.8 3.8 0 0 1 -2.1 0l-.5-.2c-.1 0-.2-.1-.2-.3s.1-.3.2-.3l.4-.3 1.1-.5c.1 0 0-.1 0-.1h-1.2l-.4.2c-.2 0-.5.1-.7 0s-.3-.3-.4-.4a1.7 1.7 0 0 0 -.1-.7h.1a1.7 1.7 0 0 1 .2-.5c0 .1 0 .2.1.2s.5.1.7 0a2.4 2.4 0 0 0 .6-.8 2.5 2.5 0 0 1 .4-.7l.3-.2h.2l-.5.6c0 .1 0 .1.1.1a16.7 16.7 0 0 1 2.3-1.6l.7-.2.2.2h.4a.8.8 0 0 0 .2-.5h1.2" stroke="#fff" stroke-miterlimit="10" stroke-width=".24"/><path d="m20.2 14.8a.5.5 0 0 0 -.3-.5h-.3l-.2.2v.3l.2.2h.5z" stroke="#fff" stroke-miterlimit="10" stroke-width=".24"/><path d="m17.7 15.6h-2l-.4.3-.4.3a.1.1 0 0 0 -.1.1h.1l2.2-.4z" stroke="#fff" stroke-miterlimit="10" stroke-width=".24"/><path d="m11.5 18.4c0-.2-.1-.4-.3-.4a.3.3 0 0 0 -.4 0 .3.3 0 0 0 -.1.5.5.5 0 0 0 .5.3c.2 0 .3-.2.3-.4z" stroke="#fff" stroke-miterlimit="10" stroke-width=".24"/><path d="m17 13v-.2l.9.4a1.6 1.6 0 0 0 1-.1h.6c.1-.1.1-.1 0-.1h-1.6l-.5-.2h-1.3l-.4.3h-1c-.1 0-.1.1 0 .1a1.8 1.8 0 0 0 1.6-.1v.2h.4c.3 0 .3-.1.3-.3z" stroke="#fff" stroke-miterlimit="10" stroke-width=".24"/><path d="m5.5 17.6a.8.8 0 0 1 -.2.5 1.4 1.4 0 0 0 -.2-.6v-.9a1.7 1.7 0 0 0 .1-.7 1.9 1.9 0 0 1 .2-.7l.3-.2h.1l.5-.5.2-.2a1.6 1.6 0 0 1 .7-.7l1.2-.4h.2l1.7-.3a.1.1 0 0 1 .1-.1h.6a1.2 1.2 0 0 0 .5-.5h.2a.6.6 0 0 1 .5.2h.3a1.2 1.2 0 0 0 1.1-.2l.2-.2a1 1 0 0 1 .5-.4l.5.2.7.2a2.2 2.2 0 0 0 1.4-.2l.6-.2h.8a8.9 8.9 0 0 0 2.8.1h.5a7.4 7.4 0 0 1 4.9 1.2l.8 1.1-.8-.2-.9-.2-1.8-.2a21.7 21.7 0 0 0 -3.6.1l-2 .3h-.8l-1.8.3a.9.9 0 0 0 -.5-.3h-3l-.7.2c0-.2-.1-.3-.3-.4h.2a3.7 3.7 0 0 1 1.4-.4c.1 0 .1-.1 0-.1h-2.5a2.3 2.3 0 0 0 -1.1.2l-.5.2-.5.3-1.2.7-.3.2a2.5 2.5 0 0 0 -.8 1.4c0 .1-.1.3-.1.4" stroke="#fff" stroke-miterlimit="10" stroke-width=".24"/><path d="m26.9 13.2a2.8 2.8 0 0 1 .6.9c-.2-.2-.5-.8-.9-1.2z" stroke="#fff" stroke-miterlimit="10" stroke-width=".24"/><path d="m20.7 15.9h.6c.1.1.2.3.1.4s-.1.4-.3.4h-.4a.1.1 0 0 1 -.1-.1h-.1v-.4z" stroke="#fff" stroke-miterlimit="10" stroke-width=".24"/><path d="m19.4 14.5.2-.2h.3a.5.5 0 0 1 .3.5v.2h-.5l-.2-.2z" stroke="#fff" stroke-miterlimit="10" stroke-width=".24"/><path d="m21.8 13.6a22 22 0 0 0 -3.6.4l2-.3a21.7 21.7 0 0 1 3.6-.1l1.8.2.9.2.8.2h-.1c-.2-.2-.5-.2-.8-.3l-1-.2a21.7 21.7 0 0 0 -3.6-.1z" stroke="#fff" stroke-miterlimit="10" stroke-width=".24"/><path d="m19 18.1a.5.5 0 0 1 .4-.2h.5l-.3.2z" stroke="#fff" stroke-miterlimit="10" stroke-width=".24"/><path d="m17.3 19c0 .1-.1.1-.2.1s.5-.5.8-.6l.3-.2a.1.1 0 0 1 .1-.1h.1l.6-.2h.4a.5.5 0 0 0 -.4.2l-.7.2-.5.3z" stroke="#fff" stroke-miterlimit="10" stroke-width=".24"/><path d="m15.9 19.4-.3.2c.1 0 .1 0 .1-.1z" stroke="#fff" stroke-miterlimit="10" stroke-width=".24"/><path d="m17.1 15.9-2.2.4h-.1a.1.1 0 0 1 .1-.1l.4-.3.4-.3h2z" stroke="#fff" stroke-miterlimit="10" stroke-width=".24"/><path d="m16.4 13a.4.4 0 0 0 .1.3h.3a.4.4 0 0 0 .1-.3v-.2h-.4z" stroke="#fff" stroke-miterlimit="10" stroke-width=".24"/><path d="m14.7 13.2c-.1 0-.1-.1 0-.1h1l.4-.3h1.3l.5.2h1.6c.1 0 .1 0 0 .1h-.6a1.6 1.6 0 0 1 -1 .1l-.9-.4h-.1v.2c0 .2 0 .3-.2.4h-.4v-.2a1.8 1.8 0 0 1 -1.6 0z" stroke="#fff" stroke-miterlimit="10" stroke-width=".24"/><path d="m15.8 17.5a.4.4 0 0 0 .2.5c.2.1.3 0 .5-.1a.4.4 0 0 0 .1-.5h-.1c-.1 0-.1 0-.1-.1h-.1a.5.5 0 0 0 -.5.2z" stroke="#fff" stroke-miterlimit="10" stroke-width=".24"/><path d="m14.6 18.3h.1a1 1 0 0 1 .5-.4l.5-.3c0-.1 0-.1.1-.2s.1-.2.3-.3h.4l.7-.3a8.3 8.3 0 0 1 3.1-.4l-1.1.3h-.6a.4.4 0 0 1 .1.3.3.3 0 0 1 -.3.3l-.3-.2v-.3l-1.4.4a.8.8 0 0 1 -.2.4.5.5 0 0 1 -.6 0h-.1l-1.1.4h-.1z" stroke="#fff" stroke-miterlimit="10" stroke-width=".24"/><path d="m12.4 19.2a.8.8 0 0 1 .2-.5h.8v.4c-.1.2-.2.4-.5.3z" stroke="#fff" stroke-miterlimit="10" stroke-width=".24"/><path d="m12.2 20.9c.1 0 .1.1 0 .1z" stroke="#fff" stroke-miterlimit="10" stroke-width=".24"/><path d="m10.8 17.5a3.3 3.3 0 0 1 1.3-.7c-.1-.1-.1-.2-.1-.4a.4.4 0 0 1 .1-.3c0-.1.1-.1.1-.2h.6a.5.5 0 0 1 .3.5v.2h.6l-.4.3c-.4.2-.8 0-1.2.1l-.5.2-.6.2h-.1a.1.1 0 0 1 -.1.1z" stroke="#fff" stroke-miterlimit="10" stroke-width=".24"/><path d="m10.7 18.5a.3.3 0 0 1 .1-.5.3.3 0 0 1 .4 0c.2 0 .3.2.3.4s-.1.4-.3.4a.5.5 0 0 1 -.5-.3z" stroke="#fff" stroke-miterlimit="10" stroke-width=".24"/><path d="m9.5 21.6h.7a2.8 2.8 0 0 0 1.3-.4h.8l-.7.3a2.7 2.7 0 0 1 -1.4.5h-.3c.1 0 .1-.1 0-.1z" stroke="#fff" stroke-miterlimit="10" stroke-width=".24"/><path d="m5.8 16.9s.1 0 0 .1z" stroke="#fff" stroke-miterlimit="10" stroke-width=".24"/><path d="m5.8 17a.1.1 0 0 1 -.1-.1h.1z" stroke="#fff" stroke-miterlimit="10" stroke-width=".24"/><path d="m10.6 14.4a.4.4 0 0 0 .2.5h.5a.6.6 0 0 0 0-.6h-.2a.4.4 0 0 0 -.5.1z" stroke="#fff" stroke-miterlimit="10" stroke-width=".24"/><path d="m5.3 18.6c-.1 0 0-.1 0-.1l.4.3a1.7 1.7 0 0 1 .6 1.6h-.1l-.6-.9a1.4 1.4 0 0 1 -.3-.9z" stroke="#fff" stroke-miterlimit="10" stroke-width=".24"/><path d="m5.1 17.5v.2h-.1a.1.1 0 0 1 .1-.2z" stroke="#fff" stroke-miterlimit="10" stroke-width=".24"/><path d="m5.2 19.8a5.6 5.6 0 0 1 -.3-2.2h.2a4.4 4.4 0 0 0 .3 2 1.8 1.8 0 0 0 .7 1.1 2.6 2.6 0 0 0 1.2.5l1.4.2-1.5-.2a3.8 3.8 0 0 1 -1.3-.6 2.1 2.1 0 0 1 -.7-.8z" stroke="#fff" stroke-miterlimit="10" stroke-width=".24"/><path d="m16.9 19.4h.6l1-.7 1.1-.5a3.8 3.8 0 0 1 1.5-.1h.8l.6-.2h1.5a4 4 0 0 0 2.6-.5 3.1 3.1 0 0 0 .9-2 4.1 4.1 0 0 0 .1-1.1h-.1a2.8 2.8 0 0 0 -.6-.9l-.3-.3-.5-.5a7.1 7.1 0 0 0 -2.8-.9h-3.3l-1.7-.2h-.7l-.7.2-.7.3h-.8l-.6-.3h-.6l-.8.5-.4.3-.7-.2c-.3-.2-.8-.4-1 0l-.2.3-.3.2h-.8l-1.7.4-1.4.4-.9 1-.5.5-.4.4a6.4 6.4 0 0 0 -.2.7v.8a8.1 8.1 0 0 0 -.1 1.6 8 8 0 0 0 .3 1.5 2.6 2.6 0 0 0 .7 1.1 3.4 3.4 0 0 0 1.2.6l1.5.3h1.5a3.7 3.7 0 0 0 1.4-.4 6.7 6.7 0 0 1 1.2-.6h1.4l.7-.3.6-.4.5-.6.2-.2h.9" stroke="#fff" stroke-miterlimit="10" stroke-width=".24"/></g><path d="m7.4 26.5a3.3 3.3 0 0 1 1.9.6 1.8 1.8 0 0 1 .6 1.4 1.9 1.9 0 0 1 -.4 1.2 2.4 2.4 0 0 1 -1.1.6 4.2 4.2 0 0 1 -1.7.2h-3v-.2h.3l.7-.2.2-.3c0-.2.1-.6.1-1.2v-3.7c0-.6-.1-1-.1-1.2s-.1-.3-.2-.3h-.9v-.4h2.6c2.1 0 3.1.6 3.1 1.8a1.7 1.7 0 0 1 -.5 1.1 3.4 3.4 0 0 1 -1.6.6zm-1.4-.1h.3a2.2 2.2 0 0 0 1.6-.4 1.5 1.5 0 0 0 .4-1.2 2.2 2.2 0 0 0 -.1-.9c-.2-.2-.3-.4-.6-.5l-1.1-.2h-.5zm0 .2v1.7a4.5 4.5 0 0 0 .1 1.4.5.5 0 0 0 .2.4h.6a2 2 0 0 0 1.4-.4 2 2 0 0 0 .4-1.4 1.7 1.7 0 0 0 -.5-1.3 2.5 2.5 0 0 0 -1.7-.5z" fill="#fff"/><path d="m15.9 30.5h-1.4a9.6 9.6 0 0 1 -1.1-1.3 4.3 4.3 0 0 1 -.4-.7l-.4-.3h-.5v1.8c.1.1.1.2.2.2h.7v.2h-2.4v-.2h.6l.2-.3v-3.9c-.1-.1-.1-.2-.2-.2h-.6v-.2h1.9l1.1.2.8.4a1.9 1.9 0 0 1 .2.7 1.4 1.4 0 0 1 -.3.9l-1.1.4a3.7 3.7 0 0 1 1 1.1l.9 1zm-3.8-2.6h1.1l.3-.2.3-.3v-.5a1.5 1.5 0 0 0 -.2-.8c-.2-.3-.6-.4-1.2-.4h-.3z" fill="#fff"/><path d="m16.1 25.7v-.2h2.3v.2h-.6l-.2.3v4a.2.2 0 0 0 .2.2c0 .1.2.1.4.1h.2v.2h-2.3v-.2h.6a.4.4 0 0 0 .1-.3c.1-.1.1-.4.1-.8v-2.4c0-.4 0-.7-.1-.8s0-.2-.1-.2h-.6z" fill="#fff"/><path d="m23.2 30.6-3.5-4.7v4.1c0 .1.1.1.3.2h.5v.2h-1.8v-.2h.5l.3-.2v-3.2c0-.4 0-.7-.1-.8s-.1-.2-.1-.3h-.5v-.2h1.4l3 3.9v-3c0-.2 0-.3-.1-.4s-.1-.2-.3-.2h-.5v-.2h1.8v.2h-.5c-.1.1-.2.1-.2.2v4.6z" fill="#fff"/><path d="m28.5 29h.2v1.5h-4.3v-.2h.2c.2 0 .4 0 .4-.1a.2.2 0 0 0 .2-.2v-4c-.1-.1-.1-.2-.2-.2s-.2-.1-.4-.1v-.2h3.5v1.3h-.1a3.4 3.4 0 0 0 -.3-.8l-.4-.3h-1.4v2.1h1.1c.1 0 .1-.1.1-.2s.1-.2.1-.5h.2v1.7h-.2a.7.7 0 0 0 -.1-.5.2.2 0 0 0 -.2-.2h-1v1.1a8 8 0 0 0 .1 1.1h1.7c.1 0 .3-.2.4-.4a2 2 0 0 0 .4-.9z" fill="#fff"/><path d="m4.3 9.7h7.9" fill="#fff" stroke="#fff" stroke-miterlimit="10" stroke-width=".24"/><path d="m16.4 9.7h11.7" fill="#fff" stroke="#fff" stroke-miterlimit="10" stroke-width=".24"/><path d="m3.4 22.4h25.5" fill="none" stroke="#fff" stroke-miterlimit="10" stroke-width=".24"/></svg>