<svg height="16" viewBox="0 0 16 16" width="16" xmlns="http://www.w3.org/2000/svg"><g fill="none" stroke="#000" stroke-miterlimit="10" stroke-width=".13"><path d="m3.2 7.6.4-.3.6-.3h1.7l-1 .4-1 .5h-.3c.1 0 .1 0 .1-.1h.1v-.2l-.2-.2z"/><path d="m2.2 9.5.2.5.3.4a.7.7 0 0 0 -.3-.8z"/><path d="m8.4 6.6a.1.1 0 0 1 -.1.1h-.1a.3.3 0 0 1 -.1-.2h.3z"/><path d="m5.3 7.2h.1a.2.2 0 0 1 0 .3h-.3c0-.1-.1-.2-.1-.3z"/><path d="m10.3 8.5h.3l.2-.2c0-.1 0-.2-.1-.2h-.3c-.1.1-.1.1-.1.2z"/><path d="m7.8 9.2h.4c0-.1.1-.2.1-.3l.7-.1h.3v-.1h.3l.6-.2a2.9 2.9 0 0 0 -1.6.2h-.8c0 .1-.1.1 0 .1l-.3.2-.3.2c-.1 0 0 .1 0 0z"/><path d="m6.4 9.6h-.3a.4.4 0 0 0 -.1.3h.3l.2-.2v-.1z"/><path d="m5.2 9h1.3l.2-.2h-.3l-.2-.3h-.4v.4c-.2 0-.4.2-.6.4z"/><path d="m6.5 7.2h.9l-.2.2c-.1.1 0 .2 0 .3h.4a.4.4 0 0 0 .1-.3h1c0 .1.1.1.2.1l.2-.2a.1.1 0 0 0 -.1-.2h.1l1.9-.2h2.9a2.5 2.5 0 0 1 -.2 1.2l-.3.4-.7.2h-1.8a.7.7 0 0 0 .6-.3h-1.2l-.6.6-.5.2-.6.3a2.9 2.9 0 0 1 -1 .3h-.4l-.2.2h-.2c-.1.1-.3.1-.4.3h1.3l-.2.2-.6.4h-1.1l-.9.2h-1.5l.7-.2h-1.1c0-.1-.1-.1-.1-.2v-.8h.3l.5-.3h-1.1l-.2-.2v-.3-.3h.4l.3-.4.3-.4v-.1h.1l-.3.3h.1l1.2-.6h.7a.4.4 0 0 0 .1-.3h.6"/><path d="m10.1 7.5c.1-.1 0-.2-.1-.2h-.2a.1.1 0 0 0 .1.1h.2z"/><path d="m8.8 8h-1.2l-.3.2a2.5 2.5 0 0 0 1.2-.2z"/><path d="m5.5 9.5a.4.4 0 0 0 -.1-.3h-.3a.2.2 0 0 0 0 .3l.2.2z"/><path d="m8.4 6.6.5.2h-.6c.1 0 .1-.1.1-.2z"/><path d="m2.3 9a.4.4 0 0 1 -.1.3.4.4 0 0 0 -.1-.3v-.9a.4.4 0 0 1 .1-.3c0-.1.1-.1.1-.2h.1l.3-.3.5-.4h.6a.1.1 0 0 0 .2-.3h1.2c.2-.1.2-.2.3-.3h.4a.1.1 0 0 0 .1.1.7.7 0 0 0 .6-.1h.1l.3-.5c.1 0 .2 0 .2.1h.5a.9.9 0 0 0 .7-.1h2.5a3.9 3.9 0 0 1 2.6.7l.4.6-.4-.1h-1.4a6.7 6.7 0 0 0 -2 0l-1 .2h-.4l-1 .2-.3-.2h-.9a.1.1 0 0 0 -.1.1h-.9l-.2-.2h.1l.8-.2h-2.5l-.6.4-.2.2a1.6 1.6 0 0 0 -.4.7v.2"/><path d="m13.7 6.7.3.4-.4-.7c0 .2.1.2.1.3z"/><path d="m10.4 8.1h.3c.1 0 .1.1.1.2l-.2.2h-.3v-.2c0-.1 0-.1.1-.2z"/><path d="m9.7 7.4h.3c.1 0 .2.1.1.2h-.2a.1.1 0 0 1 -.1-.1h-.1z"/><path d="m11 6.9-1.9.2 1-.2a6.7 6.7 0 0 1 2 0h1.4l.4.2h-2.9z"/><path d="m9.5 9.3c0-.1.1-.1.2-.1h-.2z"/><path d="m8.6 9.8h-.1l.4-.3h.8c-.1 0-.2 0-.2.1h-.4l-.2.2z"/><path d="m8.5 8.1a2.5 2.5 0 0 1 -1.2.2l.3-.2z"/><path d="m8.1 6.6a.3.3 0 0 0 .1.2h.1a.1.1 0 0 0 .1-.1h-.3z"/><path d="m7.2 6.7h1.7l-.5-.2c0 .1 0 .2-.1.2z"/><path d="m7.8 9c0 .1 0 .2.1.2a.2.2 0 0 0 .3 0c0-.1.1-.2 0-.3h-.2z"/><path d="m7.2 9.4.3-.2.3-.2c-.1 0 0 0 0-.1h.8a2.9 2.9 0 0 1 1.6-.2l-.6.2h-.3v.2h-.3l-.7-.1c0 .1-.1.2-.1.3h-.4l-.6.2z"/><path d="m6 9.9a.4.4 0 0 1 .1-.3h.4v.2l-.2.2z"/><path d="m5.9 10.8h-.2a.1.1 0 0 1 .1-.1h.1z"/><path d="m5.2 9c.2-.2.4-.4.6-.4v-.4h.4l.2.3h.3l-.2.2h-1.3z"/><path d="m5.1 9.5a.2.2 0 0 1 0-.3h.3a.4.4 0 0 1 .1.3l-.2.2z"/><path d="m4.4 11.1h.4l.7-.2h.4l-.4.2-.7.2h-.4z"/><path d="m5 7.3c0 .1.1.2.1.3h.3a.2.2 0 0 0 0-.3z"/><path d="m2.2 9.6.2.2a.7.7 0 0 1 .3.8l-.3-.4-.2-.5z"/><path d="m2.2 10.2a2.5 2.5 0 0 1 -.2-1.2h.1a1.8 1.8 0 0 0 .2 1 .9.9 0 0 0 .3.6c.2.2.5.2.7.3h1.4c-.2.1-.5 0-.7 0h-.8l-.6-.3a.8.8 0 0 1 -.4-.4z"/><path d="m8.4 10h.3l.6-.3a.9.9 0 0 1 .5-.3 1.1 1.1 0 0 1 .8 0h1.6a1.5 1.5 0 0 0 1.3-.2 1.3 1.3 0 0 0 .5-1.4v-.6l-.3-.4c0-.1-.1-.1-.1-.2l-.4-.2a3.4 3.4 0 0 0 -1.4-.5h-3.4-.4-.4l-.3-.2h-.3c-.2 0-.3.2-.5.3h-.6c-.1-.1-.4-.2-.5 0s-.1.1-.1.2h-.6l-.9.2c-.2.1-.5.1-.7.3l-.5.5-.3.2-.2.3c0 .1-.1.2-.1.3v1.4a2.2 2.2 0 0 0 .1.8l.4.6.6.3h1.6l.7-.2.7-.3a.3.3 0 0 1 .4 0h.7l.3-.3.3-.2v-.1h.5"/><circle cx="7.9" cy="8.1" r="6.6"/></g></svg>